<?xml version="1.0" encoding="utf-8"?>
<!-- Generator: Adobe Illustrator 15.1.0, SVG Export Plug-In . SVG Version: 6.00 Build 0)  -->
<!DOCTYPE svg PUBLIC "-//W3C//DTD SVG 1.1//EN" "http://www.w3.org/Graphics/SVG/1.1/DTD/svg11.dtd">
<svg version="1.1" id="Layer_2" xmlns="http://www.w3.org/2000/svg" xmlns:xlink="http://www.w3.org/1999/xlink" x="0px" y="0px"
	 width="1241.751px" height="533.518px" viewBox="-36.319 0 1241.751 533.518" enable-background="new -36.319 0 1241.751 533.518"
	 xml:space="preserve">
<g>
	<path fill="#0000B3" d="M140.523,173.926c-2.844,1.618-5.705,3.265-8.593,4.959c4.961,2.905,10.631,6.115,16.706,9.528
		c3.952-2.133,7.999-4.26,12.131-6.38C153.501,179.126,146.636,176.369,140.523,173.926z"/>
	<path fill="#0000B3" d="M131.93,178.885c-14.022-8.211-22.335-13.963-17.768-14.793c1.035-0.188,11.48,3.89,26.361,9.834
		c135.5-77.078,220.306-68.807,220.306-56.5c0,26.667-59.332-1.667-175.646,52.657c-8.467,3.955-16.598,7.94-24.415,11.95
		c37.69,15.075,86.257,34.157,97.635,34.06c19.427-0.167,135.884-81.95,140.427-78c4.482,3.896-58.953,47.572-93,79
		c-13,12-13.332,18.667-13.832,26.833c-0.365,5.965-0.334,16.333,8,25.667c19.48,21.818,59.686,50.076,84.186,69.242
		c15.627-8.742,30.094-18.012,43.314-27.588V90.092h-340v118.18c9.655-7.438,19.626-14.325,29.651-20.502
		C122.138,184.694,127.063,181.739,131.93,178.885z M258.079,205.176c-4.583,0-18.583-7.167-18.583-28.083c0-15,12.083-17,17.167-17
		c4.583,0,17,0.401,17,17.5C273.663,197.092,262.662,205.176,258.079,205.176z"/>
	<path fill="#0000B3" d="M401.668,360.438c-1.484,0.045-5.678-1.623-11.73-4.446c-109.326,64.145-234.775,85.574-234.775,59.1
		c0-14.332,16.29-12.069,25.252-13c72.974-7.565,137.328-28.62,189.923-55.812c-38.303-19.605-98.664-52.557-108.841-51.854
		c-20.353,1.405-103.918,61.537-145.26,75.695c-20.975,7.182,81.803-66.936,114.677-102.029c5.958-6.36,2.792-18.108,1.584-22.667
		c-3.317-12.526-49.837-37.898-83.861-57.013c-23.543,12.708-43.885,25.64-61.14,38.635v216.378h340V331.681
		c-9.408,6.729-19.084,13.108-28.926,19.139C404.846,356.687,406.793,360.283,401.668,360.438z"/>
	<path fill="#0000B3" d="M389.938,355.992c2.891-1.695,5.77-3.421,8.633-5.175c-3.564-3.332-8.525-7.397-14.389-11.983
		c-4.52,2.528-9.135,5.013-13.846,7.444C377.926,350.164,384.643,353.521,389.938,355.992z"/>
	<path fill="#0000B3" d="M0.156,334.131c-2.66,34.629,29.34,58.629,50.132,60.836c3.731,0.396,6.916-0.934,4.5-2.125
		c-26.542-13.082-42.898-16.77-41.625-56.75c1.096-34.409,25.131-71.986,74.333-109.044v-18.776
		C41.948,243.36,3.488,290.739,0.156,334.131z"/>
	<path fill="#0000B3" d="M476.147,124.209c-4.479,1.683,44.258,19.13,45.328,56.887c1.02,35.843-33.34,86.232-93.979,130.15v20.435
		c5.566-3.979,11.037-8.078,16.393-12.302c43.199-34.065,79.273-72.787,88.773-125.537
		C541.135,146.792,483.997,121.259,476.147,124.209z"/>
</g>
<path d="M600.595,130.012h10.32c12.393,1.839,21.163,11.126,26.941,21.621c-3.45,1.207-6.845,2.442-10.208,3.793
	c-3.937-5.663-7.188-13.081-14.403-15.152c-11.96-3.765-27.57,1.381-31.681,14.088c-3.594,11.126-3.509,23.634,0.374,34.673
	c5.258,13.799,24.004,18.37,35.965,10.666c5.289-3.883,7.532-10.352,10.693-15.843c2.561,0.46,7.704,1.409,10.265,1.869
	c-3.42,7.763-6.556,16.503-14.116,21.217c-13.83,8.796-34.297,7.993-45.943-4.11c-13.308-16.331-15.093-41.773-2.757-59.167
	C581.737,135.619,591.425,132.227,600.595,130.012z"/>
<path d="M1135.738,130.012h12.909c12.822,1.378,22.25,10.896,25.01,23.23c-2.383,0.258-7.188,0.719-9.57,0.977
	c-3.566-6.124-7.075-14.173-15.324-14.375c-8.481-1.064-22.482-0.778-23.777,10.321c-0.69,8.914,9.173,11.07,15.813,12.909
	c13.08,3.422,30.33,6.123,34.126,21.677v8.164c-5.894,21.534-34.269,24.322-51.117,14.549c-8.05-4.371-10.464-13.743-12.906-21.852
	c3.189-0.171,6.382-0.317,9.602-0.457c3.161,5.75,5.346,13.251,12.219,15.638c8.366,2.847,18.429,3.479,26.391-1.005
	c6.901-3.911,7.763-15.613,0.433-19.493c-11.011-5.693-23.948-5.98-34.903-11.702c-8.395-4.658-12.879-16.186-8.137-24.897
	C1119.609,135.646,1128.206,132.485,1135.738,130.012z"/>
<path d="M810.44,132.858c2.816,0.028,8.451,0.028,11.27,0.028c8.137,23.115,16.473,46.17,24.319,69.4
	c8.743-23.028,16.964-46.229,25.33-69.4c3.678,0,7.39,0,11.067,0c-10.034,26.276-20.613,52.381-30.417,78.743
	c-4.341-1.12-11.441,1.64-12.879-4.166C829.327,182.71,819.924,157.753,810.44,132.858z"/>
<path d="M958.727,132.887c2.647,0,7.938,0,10.582,0c0,22.94,0.141,45.884-0.087,68.827c13.195,0.259,26.45,0,39.673,0.545
	c-0.084,3.077-0.201,6.154-0.314,9.229c-16.62,0.03-33.264,0.059-49.882,0C958.699,185.268,958.699,159.079,958.727,132.887z"/>
<path d="M1021.058,132.887c2.616,0,7.878,0,10.491,0c0.031,23,0.06,45.971,0,68.971c13.168,0.028,26.335-0.06,39.531,0.258
	c0.059,2.328,0.202,6.985,0.289,9.285c-16.762,0.174-33.551,0.117-50.312,0.087C1021.03,185.268,1021.03,159.079,1021.058,132.887z"
	/>
<path d="M1085.685,132.887c3.565,0,7.128,0,10.694,0c-0.314,25.788,0.404,51.577-0.287,77.365c-3.335,1.12-6.782,1.724-10.376,1.811
	C1085.685,185.672,1085.685,159.281,1085.685,132.887z"/>
<path d="M715.966,143.294c-5.862-7.763-15.38-11.186-24.521-13.283h-10.638c-9.574,2.415-19.808,6.469-24.984,15.495
	c-11.756,18.544-9.516,47.063,9.113,60.317c14.807,10.349,36.829,8.51,49.362-4.657C727.955,185.354,728.504,159.91,715.966,143.294
	z M709.616,190.585c-9.231,17.912-39.761,16.648-46.948-2.415c-6.356-16.559-3.97-42.834,16.53-47.837
	c10.405-3.333,23.143,0.719,29.322,9.863C715.421,162.355,715.624,178.08,709.616,190.585z"/>
<path d="M782.005,174.745c6.183-2.039,13.369-3.622,17.193-9.456c7.962-10.495,3.246-28.407-9.804-32.144
	c-16.789-0.576-33.578-0.143-50.371-0.23c-0.027,26.192-0.059,52.38,0,78.573c2.646,0,7.966,0,10.61,0
	c0-11.93-0.028-23.834,0-35.735c8.709,1.036,19.923-2.445,26.217,5.489c7.647,9.344,13.397,20.068,20.097,30.074
	c4.486,0.112,8.97,0.172,13.484,0.23C801.554,198.435,793.994,184.664,782.005,174.745z M749.663,166.322
	c-0.057-8.855-0.057-17.71,0.174-26.565c11.842,0.69,24.176-0.949,35.647,2.731c10.38,3.939,7.505,21.133-3.074,22.829
	C771.598,167.156,760.558,166.007,749.663,166.322z"/>
<path d="M918.478,132.887c-4.371,0-8.712,0-13.053,0c-9.888,26.104-20.009,52.122-29.984,78.171c3.88,0.112,7.76,0.199,11.674,0.286
	c2.875-8.279,5.778-16.53,8.796-24.782c11.127-0.23,22.34,0,33.379,1.496c3.477,7.648,6.037,15.639,9.055,23.46
	c3.046,0,9.172-0.059,12.249-0.059C940.071,185.183,929.06,159.135,918.478,132.887z M898.844,178.743
	c4.684-12.651,8.939-25.414,12.707-38.379c4.914,12.62,9.603,25.327,13.999,38.149C916.667,178.743,907.756,178.857,898.844,178.743
	z"/>
<path d="M799.14,216.145c1.496,0.314,4.512,0.978,6.008,1.295c1.12,16.876,0.52,33.896,0.115,50.828l-5.115-2.014
	C797.902,249.782,799.66,232.819,799.14,216.145z"/>
<path d="M995.183,219.882c3.766-4.281,10.551,2.76,6.064,6.354C997.311,230.174,991.158,223.646,995.183,219.882z"/>
<path d="M1095.144,218.79c5.52-2.069,7.962,7.243,2.33,8.422C1092.125,228.998,1090.056,220.283,1095.144,218.79z"/>
<path d="M1138.295,236.873c3.538-3.363,6.958-6.813,10.523-10.121c0.23,1.556,0.719,4.688,0.977,6.27
	c2.875,0.059,8.625,0.199,11.528,0.258c-1.005,6.5-7.244,5.952-12.247,6.758c0.175,6.322,0,12.707,0.862,19.029
	c4.169,1.382,8.54,1.755,13.167,1.123c-2.184,7.761-12.791,8.221-17.822,3.077C1139.761,255.389,1147.095,242.854,1138.295,236.873z
	"/>
<path d="M1035.489,237.132c3.161-2.845,6.325-5.72,9.518-8.625c2.156,5.174,7.847,4.085,12.129,5.233c0,1.322,0,3.91,0,5.202
	c-2.471,0.059-7.415,0.146-9.86,0.202c0.028,7.131,0.174,14.26,0.606,21.359c2.931-0.202,8.824-0.601,11.758-0.831
	c-0.662,11.5-19.695,7.761-18.861-2.675C1039.054,250.386,1043.367,240.813,1035.489,237.132z"/>
<path d="M618.277,242.075c0.949-11.123,19.231-11.901,22.166-1.438c-5.377-0.401-10.723-0.774-16.099-1.148
	c3.192,8.884,19.088,11.183,15.149,22.223c-4.197,8.195-14.462,5.578-21.618,3.509c0.258-1.611,0.806-4.772,1.064-6.356
	c5.345,1.957,10.982,3.796,15.753-0.429C629.375,252.943,620.119,250.184,618.277,242.075z"/>
<path d="M652.172,236.643c5.146-4.57,12.449-2.902,18.716-2.875c0.376,1.898,1.122,5.75,1.465,7.648
	c-8.136-3.681-19.176-1.957-19.058,9.085c-0.52,12.794,13.625,10.262,21.992,10.551c-5.81,10.952-24.752,7.847-27.486-3.939
	C645.446,250.24,646.74,241.733,652.172,236.643z"/>
<path d="M995.125,233.768c1.524,0.06,4.57,0.144,6.095,0.172c0.719,10.696,0.144,21.422,0.144,32.144
	c-1.581,0-4.742-0.031-6.325-0.031C995.038,255.302,994.605,244.521,995.125,233.768z"/>
<path d="M1009.642,242.075c-1.322-11.87,19.866-13.021,21.82-1.981c-5.491-0.461-10.983-0.834-16.472-1.123
	c5.031,8.023,19.577,11.387,16.012,22.858c-6.238,6.668-21.503,7.387-22.969-3.652c5.921,0.834,12.188,3.423,17.738-0.171
	C1020.741,252.486,1012.433,249.263,1009.642,242.075z"/>
<path d="M1064.583,267.091c-0.171-11.53-0.777-23.117,0.289-34.617c2.066,0.977,6.208,2.962,8.276,3.97
	c4.313-2.33,9.344-4.772,14.089-1.926c0.028,2.24-0.115,4.453-0.433,6.668c-4.284-0.89-8.597-1.727-12.878-2.529
	c-2.586,8.422-2.418,17.249-3.192,25.902C1068.725,265.479,1066.653,266.313,1064.583,267.091z"/>
<path d="M1093.504,265.71c0.059-10.81-0.66-21.678,0.317-32.459c1.438-0.059,4.281-0.202,5.69-0.289
	c0.747,11.186,0.289,22.399-0.028,33.609C1097.991,266.341,1095,265.912,1093.504,265.71z"/>
<path d="M1107.679,248.084c-1.524-14.173,22.738-22.854,27.082-8.105c-5.551,0.746-13.945-4.082-17.539,2.156
	c-3.823,4.741-3.793,12.418,0.978,16.53c5.665,2.243,12.019,0.891,17.968,1.438C1128.896,274.536,1103.856,263.668,1107.679,248.084
	z"/>
<path d="M694.522,233.395c0.006,0.011-3.745,0.604-6.064,1.746c-3.402-4.946-1.072-13.173-1.786-19.428
	c-1.493,0.606-4.514,1.813-6.008,2.386c-0.433,15.899-0.488,31.827,0.028,47.726c1.493,0.576,4.486,1.755,5.979,2.328
	c2.561-9.372-4.943-25.471,7.418-29.354c-0.511-0.138,1.915,0.236,4.127,0.359c0.82,1.229,1.64,2.46,2.485,3.667
	c0.719,8.049,0.89,16.099,1.12,24.176c1.611,0,4.772-0.028,6.356-0.028C707.142,255.1,713.698,232.763,694.522,233.395z"/>
<path d="M861.959,239.116c3.046-6.497,11.325-2.442,16.816-3.251c12.707,1.611,25.529-2.384,38.094-0.314
	c-1.235,9.888-19.12,6.727-17.767,17.738c-0.433,37.489,0,74.979-0.202,112.468c-0.747,13.513-3.681,28.205-13.771,37.978
	c-8.366,8.51-20.814,10.293-32.057,12.132c-8.395,1.783-15.871-3.594-23.171-6.783c1.78-4.975,2.471-10.669,6.267-14.633
	c10.436-0.777,17.623,10.894,28.463,9.085c11.961,0.141,15.178-13.917,15.007-23.375c0.028-44.102,0.575-88.259-0.258-132.335
	C874.119,243.945,867.506,242.508,861.959,239.116z"/>
<path d="M750.524,248.286c-0.488-10.952-13.513-16.644-22.999-13.398c-13.915,2.819-16.043,23.662-3.853,30.047
	C735.085,272.782,753.371,262.518,750.524,248.286z M723.153,253.693c-1.147-4.371-0.084-10.84,4.602-12.707
	c6.758-3.363,16.79,1.55,16.071,9.745C745.263,262.431,724.162,265.535,723.153,253.693z"/>
<path d="M767.774,234.947c-11.211,3.248-15.383,19.116-6.842,27.253c8.768,9.978,29.008,5.491,30.103-8.653
	C793.359,241.015,779.503,229.975,767.774,234.947z M784.622,250.759c0.461,9.229-10.837,12.795-17.884,8.824
	c-4.453-4.972-4.885-15.003,1.466-18.513C775.164,237.707,785.313,242.193,784.622,250.759z"/>
<path d="M979.427,216.173c-0.056,5.436-0.056,10.868-0.115,16.301c-5.349,0.346-11.011-0.343-16.042,1.842
	c-9.633,6.671-9.745,23.313-0.087,29.984c7.159,2.617,15.009,1.524,22.482,1.842c0.028-16.648,0.028-33.322,0-49.997
	C984.113,216.145,981.008,216.173,979.427,216.173z M979.312,260.592c-4.602-0.43-9.256-0.632-13.771-1.755
	c-4.11-5.663-3.566-13.196,0.373-18.771c4.054-1.898,8.74-1.123,13.108-1.382C979.372,245.958,979.427,253.289,979.312,260.592z"/>
<path d="M572.393,292.216c20.843-3.308,43.211,1.092,62.645-9.315c-2.731,7.103-2.561,16.817-9.602,21.304
	c-11.241-1.839-22.511-5.317-34.066-3.737c-5.925,4.742-5.32,13.598-6.758,20.414c10.78,8.594,26.362,10.781,36.254,21.186
	c10.034,9.805,10.349,25.731,5.979,38.268c-5.867,15.205-21.073,23.977-35.734,29.092c-7.306,2.274-14.664,5.75-22.482,4.772
	c0.202-3.649,2.212-6.811,5.834-7.878c10.494-5.031,21.938-9.944,29.095-19.577c9.229-12.104,7.818-30.847-3.333-41.254
	c-9.748-8.942-22.28-13.974-34.011-19.779C568.51,314.643,567.016,302.424,572.393,292.216z"/>
<path d="M724.939,301.245c-10.551-9.603-26.104-14.549-40.137-11.329c-28.575,3.737-43.152,38.323-32.315,63.249
	c10.641,23.229,43.242,31.279,64.428,17.909C740.145,356.93,743.107,320.65,724.939,301.245z M713.38,355.869
	c-5.551,12.477-23.659,17.19-34.011,7.934c-10.84-9.402-11.873-24.813-10.781-38.121c0.604-9.374,4.455-19.636,13.311-24.122
	c11.099-5.722,26.739-1.438,31.54,10.606C719.102,325.881,719.161,342.182,713.38,355.869z"/>
<path d="M824.208,299.288c-18.771-18.83-54.997-11.615-65.317,12.822c-6.758,15.609-7.418,37.23,7.072,48.759
	c13.223,11.3,32.314,10.379,47.437,3.624c-5.694,10.781-12.623,21.074-21.995,29.008c-8.967,8.395-22.106,12.247-27.654,24.005
	h5.433c27.629-11.443,53.357-31.624,63.392-60.719C838.639,338.013,838.988,314.21,824.208,299.288z M818.316,337.21
	c-1.064,9.057-6.27,18.569-15.669,21.045c-11.385,5.115-26.161-2.476-27.686-15.124c-2.845-14.434-3.766-35.734,12.39-42.636
	c8.883-2.815,20.441-1.783,26.537,6.067C819.868,315.474,819.553,326.974,818.316,337.21z"/>
</svg>
