<?xml version="1.0" encoding="utf-8"?>
<!-- Generator: Adobe Illustrator 15.0.0, SVG Export Plug-In . SVG Version: 6.00 Build 0)  -->
<!DOCTYPE svg PUBLIC "-//W3C//DTD SVG 1.1//EN" "http://www.w3.org/Graphics/SVG/1.1/DTD/svg11.dtd">
<svg version="1.1" id="Layer_2" xmlns="http://www.w3.org/2000/svg" xmlns:xlink="http://www.w3.org/1999/xlink" x="0px" y="0px"
	 width="533.517px" height="533.518px" viewBox="0 0 533.517 533.518" enable-background="new 0 0 533.517 533.518"
	 xml:space="preserve">
<g>
	<path fill="#0000B3" d="M140.523,173.926c-2.844,1.618-5.705,3.265-8.593,4.959c4.961,2.905,10.631,6.115,16.706,9.528
		c3.952-2.133,7.999-4.26,12.131-6.38C153.501,179.126,146.636,176.369,140.523,173.926z"/>
	<path fill="#0000B3" d="M131.93,178.885c-14.022-8.211-22.335-13.963-17.768-14.793c1.035-0.188,11.48,3.89,26.361,9.834
		c135.5-77.078,220.306-68.807,220.306-56.5c0,26.667-59.333-1.667-175.647,52.657c-8.467,3.955-16.598,7.94-24.415,11.95
		c37.69,15.075,86.257,34.157,97.635,34.06c19.427-0.167,135.883-81.95,140.427-78c4.482,3.896-58.953,47.572-93,79
		c-13,12-13.333,18.667-13.833,26.833c-0.365,5.965-0.334,16.333,8,25.667c19.481,21.818,59.686,50.076,84.187,69.242
		c15.627-8.742,30.092-18.012,43.313-27.588V90.092h-340v118.18c9.655-7.438,19.626-14.325,29.651-20.502
		C122.138,184.694,127.063,181.739,131.93,178.885z M258.079,205.176c-4.583,0-18.583-7.167-18.583-28.083c0-15,12.083-17,17.167-17
		c4.583,0,17,0.401,17,17.5C273.663,197.092,262.662,205.176,258.079,205.176z"/>
	<path fill="#0000B3" d="M401.668,360.439c-1.483,0.045-5.678-1.623-11.73-4.447c-109.326,64.145-234.775,85.574-234.775,59.1
		c0-14.332,16.29-12.07,25.252-13c72.974-7.566,137.327-28.621,189.923-55.812c-38.303-19.605-98.663-52.556-108.841-51.853
		c-20.353,1.405-103.918,61.537-145.26,75.695c-20.975,7.182,81.803-66.935,114.677-102.029c5.958-6.36,2.792-18.108,1.584-22.667
		c-3.317-12.526-49.837-37.898-83.861-57.013c-23.543,12.708-43.885,25.64-61.14,38.635v216.378h340V331.68
		c-9.408,6.729-19.085,13.109-28.926,19.139C404.846,356.686,406.793,360.283,401.668,360.439z"/>
	<path fill="#0000B3" d="M389.938,355.992c2.89-1.695,5.769-3.42,8.633-5.174c-3.564-3.332-8.525-7.398-14.388-11.984
		c-4.52,2.529-9.136,5.012-13.846,7.445C377.926,350.164,384.643,353.521,389.938,355.992z"/>
	<path fill="#0000B3" d="M0.156,334.131c-2.66,34.629,29.34,58.629,50.132,60.836c3.731,0.396,6.916-0.934,4.5-2.125
		c-26.542-13.082-42.898-16.77-41.625-56.75c1.096-34.409,25.131-71.986,74.333-109.044v-18.776
		C41.948,243.36,3.488,290.739,0.156,334.131z"/>
	<path fill="#0000B3" d="M476.146,124.209c-4.478,1.683,44.259,19.13,45.33,56.887c1.018,35.843-33.341,86.232-93.979,130.15v20.434
		c5.565-3.979,11.037-8.078,16.392-12.301c43.2-34.065,79.274-72.787,88.774-125.537
		C541.136,146.792,483.997,121.259,476.146,124.209z"/>
</g>
</svg>
