<?xml version="1.0" encoding="UTF-8" ?>
<!DOCTYPE svg PUBLIC "-//W3C//DTD SVG 1.1//EN" "http://www.w3.org/Graphics/SVG/1.1/DTD/svg11.dtd">
<svg width="177pt" height="123pt" viewBox="0 0 177 123" version="1.1" xmlns="http://www.w3.org/2000/svg">
<path fill="#ffffff" d=" M 0.00 0.00 L 177.00 0.00 L 177.00 10.38 C 168.10 10.17 159.21 10.38 150.31 10.29 C 150.36 36.87 150.35 63.45 150.32 90.03 C 159.21 90.29 168.11 90.33 177.00 90.18 L 177.00 123.00 L 0.00 123.00 L 0.00 80.36 C 0.92 91.02 4.05 102.34 12.34 109.67 C 16.23 113.40 21.56 115.30 26.92 115.28 C 39.14 115.35 51.37 115.31 63.60 115.12 C 63.54 108.22 63.53 101.31 63.58 94.40 C 55.73 94.37 47.84 94.94 40.01 94.20 C 34.95 93.70 31.83 88.92 30.64 84.41 C 28.90 77.69 28.93 70.46 30.81 63.78 C 31.92 59.90 34.67 55.73 39.12 55.56 C 47.01 55.05 54.93 55.52 62.83 55.35 C 62.75 48.65 62.75 41.96 62.80 35.26 C 50.83 35.37 38.87 35.21 26.91 35.24 C 22.12 35.16 17.29 36.51 13.50 39.50 C 5.20 45.61 1.88 55.96 0.00 65.66 L 0.00 0.00 Z" />
<path fill="#f7921e" d=" M 89.29 1.74 C 92.89 12.48 96.11 23.33 99.89 34.00 C 101.72 32.63 103.58 31.29 105.42 29.93 C 107.72 39.56 110.44 49.08 112.42 58.79 C 108.62 58.71 104.81 58.70 101.01 58.78 C 100.43 54.82 99.86 50.85 99.15 46.90 C 96.98 48.95 94.82 51.02 92.65 53.07 C 92.05 35.93 89.63 18.89 89.29 1.74 Z" />
<path fill="#007db5" d=" M 150.31 10.29 C 159.21 10.38 168.10 10.17 177.00 10.38 L 177.00 90.18 C 168.11 90.33 159.21 90.29 150.32 90.03 C 150.35 63.45 150.36 36.87 150.31 10.29 Z" />
<path fill="#007db5" d=" M 71.44 21.37 C 77.23 21.49 83.02 21.50 88.81 21.41 C 89.80 33.03 90.20 44.70 91.68 56.28 C 93.36 54.83 95.03 53.37 96.70 51.92 C 96.81 54.81 96.91 57.70 97.05 60.59 C 104.39 60.10 111.90 61.42 119.14 59.97 C 121.76 57.41 121.70 53.40 121.80 50.00 C 121.67 46.67 121.61 42.49 118.59 40.38 C 115.64 39.39 112.47 39.61 109.42 39.42 C 108.39 35.18 107.33 30.95 106.11 26.76 C 104.23 28.19 102.35 29.63 100.47 31.07 C 99.48 27.83 98.44 24.61 97.27 21.43 C 105.87 21.59 114.46 21.30 123.05 21.47 C 130.09 21.53 136.41 26.19 139.92 32.07 C 144.85 40.86 145.32 51.78 142.28 61.29 C 139.51 69.92 131.46 77.34 122.06 77.27 C 113.45 77.37 104.84 77.24 96.23 77.25 C 96.31 85.54 96.22 93.82 96.20 102.11 C 87.95 102.14 79.69 102.26 71.44 101.93 C 71.55 75.07 71.55 48.22 71.44 21.37 Z" />
<path fill="#007db5" d=" M 13.50 39.50 C 17.29 36.51 22.12 35.16 26.91 35.24 C 38.87 35.21 50.83 35.37 62.80 35.26 C 62.75 41.96 62.75 48.65 62.83 55.35 C 54.93 55.52 47.01 55.05 39.12 55.56 C 34.67 55.73 31.92 59.90 30.81 63.78 C 28.93 70.46 28.90 77.69 30.64 84.41 C 31.83 88.92 34.95 93.70 40.01 94.20 C 47.84 94.94 55.73 94.37 63.58 94.40 C 63.53 101.31 63.54 108.22 63.60 115.12 C 51.37 115.31 39.14 115.35 26.92 115.28 C 21.56 115.30 16.23 113.40 12.34 109.67 C 4.05 102.34 0.92 91.02 0.00 80.36 L 0.00 65.66 C 1.88 55.96 5.20 45.61 13.50 39.50 Z" />
<path fill="#f7921e" d=" M 107.68 78.74 C 110.92 78.95 114.17 79.04 117.41 78.97 C 117.72 80.55 118.03 82.14 118.37 83.72 C 119.97 83.15 121.58 82.58 123.19 82.02 C 122.61 94.80 122.72 107.61 121.82 120.37 C 119.50 112.64 118.26 104.65 116.26 96.84 C 114.56 97.52 112.87 98.20 111.17 98.87 C 109.97 92.17 108.72 85.47 107.68 78.74 Z" />
</svg>
