<?xml version="1.0" encoding="utf-8"?>
<!-- Generator: Adobe Illustrator 15.1.0, SVG Export Plug-In . SVG Version: 6.00 Build 0)  -->
<!DOCTYPE svg PUBLIC "-//W3C//DTD SVG 1.1//EN" "http://www.w3.org/Graphics/SVG/1.1/DTD/svg11.dtd">
<svg version="1.1" id="Layer_1" xmlns="http://www.w3.org/2000/svg" xmlns:xlink="http://www.w3.org/1999/xlink" x="0px" y="0px"
	 width="177px" height="123px" viewBox="0 0 177 123" enable-background="new 0 0 177 123" xml:space="preserve">
<path fill="#F7921E" d="M89.29,1.74C92.891,12.48,96.109,23.33,99.891,34c1.83-1.37,3.689-2.71,5.529-4.07
	c2.301,9.63,5.02,19.15,7,28.86c-3.8-0.08-7.609-0.09-11.41-0.01c-0.58-3.96-1.15-7.93-1.859-11.88c-2.17,2.05-4.33,4.12-6.5,6.17
	C92.05,35.93,89.63,18.89,89.29,1.74z"/>
<path fill="#007DB5" d="M150.311,10.29c8.899,0.09,17.789-0.12,26.689,0.09v79.8c-8.891,0.15-17.79,0.11-26.68-0.15
	C150.35,63.45,150.359,36.87,150.311,10.29z"/>
<path fill="#007DB5" d="M71.44,21.37c5.79,0.12,11.58,0.13,17.37,0.04c0.99,11.62,1.39,23.29,2.87,34.87
	c1.68-1.45,3.35-2.91,5.021-4.36c0.11,2.89,0.21,5.78,0.35,8.67c7.341-0.49,14.851,0.83,22.091-0.62
	c2.619-2.56,2.56-6.57,2.659-9.97c-0.13-3.33-0.19-7.51-3.21-9.62c-2.949-0.99-6.119-0.77-9.17-0.96
	c-1.029-4.24-2.09-8.47-3.311-12.66c-1.879,1.43-3.76,2.87-5.639,4.31c-0.99-3.24-2.031-6.46-3.201-9.64
	c8.601,0.16,17.19-0.13,25.78,0.04c7.04,0.06,13.36,4.72,16.87,10.6c4.93,8.79,5.4,19.71,2.359,29.22
	c-2.77,8.63-10.819,16.05-20.219,15.979c-8.61,0.101-17.221-0.029-25.83-0.02c0.08,8.29-0.01,16.57-0.03,24.859
	c-8.25,0.031-16.51,0.15-24.76-0.18C71.55,75.07,71.55,48.22,71.44,21.37z"/>
<path fill="#007DB5" d="M13.5,39.5c3.79-2.99,8.62-4.34,13.41-4.26c11.96-0.03,23.92,0.13,35.89,0.02
	c-0.05,6.7-0.05,13.39,0.03,20.09c-7.9,0.17-15.82-0.3-23.71,0.21c-4.45,0.17-7.2,4.34-8.31,8.219
	c-1.88,6.681-1.91,13.91-0.17,20.631c1.19,4.51,4.31,9.29,9.37,9.79c7.83,0.739,15.72,0.17,23.57,0.2
	c-0.05,6.91-0.04,13.82,0.02,20.72c-12.23,0.19-24.46,0.229-36.68,0.159c-5.36,0.021-10.69-1.879-14.58-5.609
	C4.05,102.34,0.92,91.02,0,80.359V65.66C1.88,55.96,5.2,45.61,13.5,39.5z"/>
<path fill="#F7921E" d="M107.68,78.74c3.24,0.21,6.49,0.3,9.73,0.23c0.311,1.579,0.619,3.17,0.96,4.75
	c1.601-0.57,3.21-1.141,4.819-1.701c-0.58,12.78-0.469,25.59-1.369,38.351c-2.32-7.729-3.561-15.72-5.561-23.53
	c-1.699,0.68-3.39,1.36-5.09,2.03C109.971,92.17,108.721,85.471,107.68,78.74z"/>
</svg>
