<?xml version="1.0" encoding="UTF-8" standalone="no"?>
<svg
   xmlns:dc="http://purl.org/dc/elements/1.1/"
   xmlns:cc="http://creativecommons.org/ns#"
   xmlns:rdf="http://www.w3.org/1999/02/22-rdf-syntax-ns#"
   xmlns:svg="http://www.w3.org/2000/svg"
   xmlns="http://www.w3.org/2000/svg"
   xmlns:sodipodi="http://sodipodi.sourceforge.net/DTD/sodipodi-0.dtd"
   xmlns:inkscape="http://www.inkscape.org/namespaces/inkscape"
   width="352pt"
   height="352pt"
   viewBox="0 0 352 352"
   version="1.1"
   id="svg3117"
   inkscape:version="0.48.4 r9939"
   sodipodi:docname="HP.svg">
  <metadata
     id="metadata3129">
    <rdf:RDF>
      <cc:Work
         rdf:about="">
        <dc:format>image/svg+xml</dc:format>
        <dc:type
           rdf:resource="http://purl.org/dc/dcmitype/StillImage" />
      </cc:Work>
    </rdf:RDF>
  </metadata>
  <defs
     id="defs3127" />
  <sodipodi:namedview
     pagecolor="#ffffff"
     bordercolor="#666666"
     borderopacity="1"
     objecttolerance="10"
     gridtolerance="10"
     guidetolerance="10"
     inkscape:pageopacity="0"
     inkscape:pageshadow="2"
     inkscape:window-width="640"
     inkscape:window-height="480"
     id="namedview3125"
     showgrid="false"
     inkscape:zoom="0.53636364"
     inkscape:cx="220"
     inkscape:cy="220"
     inkscape:window-x="65"
     inkscape:window-y="31"
     inkscape:window-maximized="0"
     inkscape:current-layer="svg3117" />
  <path
     d=" M 175.50 1.15 C 180.71 1.12 185.90 -0.06 191.07 1.04 C 213.96 3.07 236.53 9.36 256.89 20.08 C 283.23 33.57 305.89 54.08 322.33 78.66 C 339.10 103.66 349.03 133.10 351.27 163.10 C 350.90 171.04 350.67 179.03 351.44 186.95 C 349.80 209.76 344.09 232.38 333.91 252.92 C 322.30 276.79 305.11 297.91 284.18 314.23 C 258.10 334.68 226.10 347.47 193.08 350.50 C 188.05 350.86 183.03 351.79 177.97 351.40 C 174.62 351.18 171.19 352.25 167.97 350.88 C 180.30 316.19 192.62 281.49 205.06 246.83 C 218.60 246.58 232.15 246.92 245.69 246.67 C 254.33 246.37 262.87 241.11 265.71 232.71 C 277.16 200.47 288.90 168.32 299.99 135.94 C 301.81 131.05 302.82 125.60 301.37 120.48 C 299.41 113.99 293.47 109.40 287.09 107.68 C 281.55 105.96 275.70 106.59 270.00 106.49 C 252.62 106.44 235.24 106.58 217.87 106.41 C 217.59 106.99 217.02 108.14 216.74 108.71 C 188.60 187.75 160.51 266.81 132.26 345.81 C 103.24 338.28 76.20 323.20 54.64 302.36 C 28.67 277.51 10.64 244.46 3.97 209.13 C 1.88 198.52 1.12 187.72 0.54 176.95 C 1.01 154.52 4.69 131.99 13.14 111.13 C 33.75 58.44 81.44 16.95 136.88 5.09 C 108.50 83.78 80.78 162.71 52.41 241.41 C 54.22 241.96 56.12 241.75 57.98 241.77 C 68.32 241.72 78.67 241.79 89.01 241.75 C 90.42 241.74 90.27 239.78 90.86 238.88 C 103.32 203.70 115.93 168.57 128.43 133.41 C 129.18 131.23 129.88 129.03 130.88 126.96 C 137.36 127.07 143.84 126.93 150.32 127.03 C 136.73 165.14 123.26 203.31 109.47 241.35 C 110.91 241.93 112.48 241.75 113.99 241.78 C 124.85 241.68 135.71 241.85 146.57 241.70 C 158.84 207.07 171.26 172.50 183.56 137.89 C 186.19 130.81 186.42 122.44 182.24 115.91 C 178.59 110.13 171.66 107.37 165.05 107.10 C 156.01 106.83 146.96 107.12 137.91 106.96 C 150.35 71.66 163.16 36.49 175.50 1.15 Z"
     id="path3121"
     fill="#015294" />
  <path
     fill="#015294"
     d=" M 247.55 127.41 C 248.63 126.19 250.55 126.93 251.99 126.72 C 257.01 126.81 262.03 126.68 267.05 126.79 C 255.36 160.16 243.12 193.34 231.62 226.78 C 225.12 227.24 218.57 226.96 212.06 226.92 C 223.93 193.77 235.68 160.57 247.55 127.41 Z"
     id="path3123" />
</svg>
