<?xml version="1.0" encoding="UTF-8" ?>
<!DOCTYPE svg PUBLIC "-//W3C//DTD SVG 1.1//EN" "http://www.w3.org/Graphics/SVG/1.1/DTD/svg11.dtd">
<svg width="290pt" height="86pt" viewBox="0 0 290 86" version="1.1" xmlns="http://www.w3.org/2000/svg">
<path fill="#ffffff" d=" M 0.00 0.00 L 290.00 0.00 L 290.00 86.00 L 0.00 86.00 L 0.00 85.14 C 2.21 85.02 4.41 84.90 6.62 84.76 C 7.32 76.38 4.53 67.19 9.05 59.54 C 16.27 67.03 20.75 76.69 27.62 84.45 C 30.03 85.25 32.63 85.02 35.13 85.16 C 28.71 75.25 21.55 65.84 15.08 55.97 C 21.13 47.15 28.69 39.43 34.27 30.29 C 31.31 30.56 27.58 29.76 25.54 32.51 C 19.03 39.89 13.49 48.09 6.86 55.38 C 6.27 47.19 6.85 38.97 6.43 30.76 C 4.29 30.53 2.14 30.30 0.00 30.06 L 0.00 0.00 Z" />
<path fill="#043d7d" d=" M 263.38 1.36 C 269.57 -1.14 277.71 2.28 279.19 9.05 C 281.31 16.13 275.39 24.17 267.97 24.05 C 260.93 24.30 254.97 17.10 256.34 10.23 C 256.90 6.28 259.78 2.95 263.38 1.36 Z" />
<path fill="#043d7d" d=" M 219.92 25.01 C 219.40 18.43 225.52 12.60 232.03 13.16 C 236.85 12.98 240.57 16.72 242.49 20.80 C 240.58 23.52 238.45 26.22 237.54 29.47 C 236.84 31.52 236.62 33.76 235.57 35.68 C 228.55 39.27 219.23 32.84 219.92 25.01 Z" />
<path fill="#043d7d" d=" M 244.19 23.24 C 247.02 20.70 250.65 18.57 254.54 18.56 C 256.81 20.63 258.40 23.47 261.20 24.92 C 264.26 26.55 267.87 26.13 271.12 27.09 C 271.90 28.46 272.39 29.98 272.97 31.44 C 269.74 33.63 266.18 35.96 264.76 39.79 C 263.19 43.41 263.92 47.41 264.49 51.16 C 258.31 54.05 250.06 53.98 244.85 49.16 C 237.36 42.85 236.90 29.86 244.19 23.24 Z" />
<path fill="#043d7d" d=" M 0.00 30.06 C 2.14 30.30 4.29 30.53 6.43 30.76 C 6.85 38.97 6.27 47.19 6.86 55.38 C 13.49 48.09 19.03 39.89 25.54 32.51 C 27.58 29.76 31.31 30.56 34.27 30.29 C 28.69 39.43 21.13 47.15 15.08 55.97 C 21.55 65.84 28.71 75.25 35.13 85.16 C 32.63 85.02 30.03 85.25 27.62 84.45 C 20.75 76.69 16.27 67.03 9.05 59.54 C 4.53 67.19 7.32 76.38 6.62 84.76 C 4.41 84.90 2.21 85.02 0.00 85.14 L 0.00 30.06 Z" />
<path fill="#043d7d" d=" M 142.21 30.28 C 143.82 30.32 145.43 30.35 147.04 30.37 C 147.17 32.01 147.33 33.65 147.43 35.29 C 145.60 35.32 143.77 35.34 141.94 35.34 C 142.02 33.65 142.13 31.97 142.21 30.28 Z" />
<path fill="#043d7d" d=" M 273.37 34.34 C 279.56 31.50 287.74 35.33 289.09 42.09 C 289.54 45.56 289.70 49.57 287.38 52.46 C 284.10 56.68 277.87 58.08 273.05 55.85 C 269.14 53.79 265.89 49.66 266.22 45.05 C 266.24 40.49 269.24 36.18 273.37 34.34 Z" />
<path fill="#043d7d" d=" M 44.41 39.49 C 49.26 38.24 54.69 40.40 57.36 44.64 C 60.23 48.42 60.17 53.43 59.76 57.93 C 59.20 63.05 55.72 68.13 50.55 69.42 C 47.75 70.00 44.69 70.06 42.03 68.88 C 30.65 63.23 31.56 42.68 44.41 39.49 Z" />
<path fill="#043d7d" d=" M 169.72 39.85 C 174.00 38.09 178.51 40.10 182.61 41.42 C 182.63 42.91 182.67 44.40 182.69 45.90 C 178.49 44.73 173.84 42.25 169.57 44.51 C 167.28 45.66 167.40 49.25 169.46 50.55 C 173.46 52.86 178.95 52.07 182.17 55.79 C 184.58 58.15 183.87 61.98 182.64 64.75 C 181.06 68.40 176.61 69.37 173.02 69.47 C 169.49 69.73 166.12 68.52 162.97 67.09 C 163.00 65.38 163.04 63.67 163.07 61.97 C 166.90 63.50 170.87 67.18 175.21 65.33 C 177.36 64.62 179.93 62.86 178.91 60.24 C 176.52 56.48 171.47 56.60 167.75 54.99 C 164.80 54.08 162.85 51.08 163.15 48.01 C 162.95 44.06 166.52 41.36 169.72 39.85 Z" />
<path fill="#043d7d" d=" M 76.07 40.00 C 77.31 39.99 78.54 40.03 79.77 40.13 C 79.98 41.44 80.19 42.75 80.41 44.05 C 83.59 41.92 87.01 39.98 90.94 39.78 C 90.92 41.40 90.87 43.01 90.85 44.63 C 87.13 45.09 83.52 46.22 80.33 48.22 C 80.24 55.07 80.68 61.94 80.09 68.78 C 78.76 68.86 77.42 68.90 76.08 68.89 C 75.92 59.26 75.93 49.63 76.07 40.00 Z" />
<path fill="#043d7d" d=" M 102.01 40.03 C 103.59 40.08 105.18 40.15 106.76 40.21 C 109.50 47.43 111.53 54.94 115.00 61.86 C 118.17 54.77 119.92 47.15 123.04 40.03 C 124.63 40.06 126.23 40.10 127.83 40.13 C 124.04 49.67 120.97 59.50 116.77 68.88 C 115.37 68.79 113.98 68.72 112.59 68.66 C 108.78 59.22 105.38 49.62 102.01 40.03 Z" />
<path fill="#043d7d" d=" M 142.41 40.18 C 143.87 40.12 145.32 40.07 146.78 40.01 C 146.86 49.62 146.96 59.24 146.74 68.85 C 145.30 68.81 143.87 68.78 142.43 68.73 C 142.43 59.22 142.44 49.70 142.41 40.18 Z" />
<path fill="#ffffff" d=" M 47.17 43.54 C 50.07 43.46 53.17 45.12 54.02 48.03 C 55.34 52.20 55.60 56.88 54.06 61.04 C 52.58 65.33 46.38 66.28 42.94 63.98 C 37.77 58.96 38.17 50.02 42.75 44.74 C 43.89 43.63 45.68 43.68 47.17 43.54 Z" />
<path fill="#043d7d" d=" M 232.54 59.40 C 231.05 54.25 234.42 49.12 238.69 46.49 C 241.34 49.14 243.78 52.20 247.25 53.83 C 250.07 55.09 253.11 55.73 256.08 56.50 C 256.00 62.57 251.25 68.58 244.96 68.86 C 239.19 69.42 233.75 64.95 232.54 59.40 Z" />
</svg>
