<?xml version="1.0" encoding="utf-8"?>
<!-- Generator: Adobe Illustrator 15.1.0, SVG Export Plug-In . SVG Version: 6.00 Build 0)  -->
<!DOCTYPE svg PUBLIC "-//W3C//DTD SVG 1.1//EN" "http://www.w3.org/Graphics/SVG/1.1/DTD/svg11.dtd">
<svg version="1.1" id="Layer_1" xmlns="http://www.w3.org/2000/svg" xmlns:xlink="http://www.w3.org/1999/xlink" x="0px" y="0px"
	 width="473px" height="129px" viewBox="0 0 473 129" enable-background="new 0 0 473 129" xml:space="preserve">
<path d="M41.79,13.77c2.87-3.91,4.7-8.52,8.13-12.02c4.3,0.57,8.13,3.49,9.94,7.4c1.07,3.29-2.01,5.57-3.6,8.03
	c-3.77,5.52-9.39,9.59-12.2,15.78c-4.59,5.41-9.47,10.6-14.57,15.53c-4.4,5.64-9.54,10.81-12.76,17.26
	c-1.87,3.45-5.16,6.05-6.2,9.96c5.68-2.149,11.19-4.76,17.11-6.239c5.99-3.141,12.83-3.711,19.17-5.861
	c4.55-1.48,8.91-3.46,13.48-4.87c4.1-9.65,9.37-19,16.78-26.5c0.63,0,1.87,0,2.49,0c2.31,2.16,4.92,4.12,6.51,6.91
	c-5.84,6.87-11.56,13.97-16.21,21.74c-2.34,4.2-5.71,7.889-6.76,12.709c6.73-4.149,13.64-8.75,17.87-15.62
	c6.11-9.19,11.53-18.86,18.08-27.77c1.92-2.75,4.05-5.38,6.69-7.48c2.91,2.29,5.12,5.29,7.3,8.24
	c-5.59,6.11-11.13,12.26-16.87,18.24c-1.45,1.48-2.62,3.19-3.75,4.93c2.11-1.39,4.27-2.74,6.04-4.56
	c5.86-6.28,12.94-11.21,19.4-16.83c2.35-2.25,6.46-1.54,8.33,1.01c1.83,2.24,5.25,4.15,5.25,7.22
	c-7.85,9.01-18.27,16.38-22.45,28.04c6.41-5.62,13.47-10.439,20.82-14.75c5.31-10.98,12.19-21.1,20.2-30.3
	c1.11-1.44,3.38-1.14,4.44,0.2c1.88,2.21,3.51,4.63,5.2,7c-7.7,7.44-15.24,15.07-22.03,23.36c1.73-1.26,3.48-2.49,5.27-3.68
	c2.94-1.97,4.77-5.17,7.7-7.17c4.44-3.21,8.47-6.93,12.58-10.53c1.74-1.69,4.3-2.28,6.65-1.78c2.91,2.93,5.71,6.11,7.79,9.68
	c-8.32,7.99-17.23,15.87-22.32,26.46c3.58-2.64,7.38-4.96,11.27-7.13c4.17-2.46,7.64-6.71,12.88-6.72
	c-3.33,5.62-9.72,8.07-14.11,12.63c-5.85,6.06-12.68,11.04-18.89,16.71c-1.5-0.391-3.6-0.25-4.16-2.07
	c-0.3-3.359,1.12-6.55,2.12-9.689c2.31-5.02,3.95-10.35,6.79-15.12c2.66-5.06,6.32-9.53,8.79-14.69c-5.82,3.5-9.89,9.15-14.94,13.59
	c-3.08,2.6-4.98,6.3-8.13,8.84c-6.21,5.26-10.34,12.41-15.25,18.781c-1.48,0.229-2.96,0-4.43-0.141
	c-0.31-6.891,3.17-12.891,6.49-18.62c-7.06,5.99-14.92,11.261-20.64,18.64c-1.72,0.041-3.41-0.27-5.1-0.52
	c-1.44-4.971,0.71-9.83,2.32-14.45c1.54-3.87,2.54-7.97,4.58-11.63c2.7-4.89,6.54-9.07,8.85-14.17c-4.21,2.73-6.95,7.08-11.04,9.97
	c-4.26,3.75-7.79,8.25-11.93,12.14C84.53,69.641,79.36,76.62,76,84.43c-1.43-0.279-3.04-0.209-4.22-1.189
	c-1.68-4.02,0.92-8,2.27-11.66c-3.73,3.17-7.22,6.72-11.55,9.1c-2.1,1.051-5.56,0.99-6.39-1.65c-0.52-5.17,0.5-10.359,1.94-15.309
	c-4.67,3.16-9.47,6.16-14.54,8.639c-2.85,1.4-5.01,3.811-7.71,5.451c-8.23,5.06-15.77,11.34-24.69,15.199
	c-4.6-0.25-6.72-4.859-8.47-8.46c-0.7-2.55-1.65-5.59-0.13-8.01c5.58-9.761,12.34-18.78,17.58-28.72
	C24.9,35.07,34.21,24.87,41.79,13.77z"/>
<path d="M83.57,25.47c2.89-5.5,6.9-11.06,12.79-13.55c2.57,3.28,6.08,6.73,6.13,11.12c-2.06,1.78-4.88,1.96-7.45,2.41
	C91.24,25.96,87.29,26.85,83.57,25.47z"/>
<path d="M268.32,18.41c-4.85-6.87-12.791-11.13-20.961-12.57c-8.6-2.76-17.689-1-26.509-1.78c-3.21-0.32-6.44-0.02-9.63,0.42
	c0.02,3.66-0.32,9.06,3.97,10.45c5.56-0.41,11.15-0.52,16.72-0.88c-1.66,3.27-3.5,6.44-5.02,9.77c-3.88,9.67-8.42,19.04-12.47,28.64
	c-2.24,5.29-5.8,10.05-7.04,15.75c-1.84,6.72-5.16,12.899-8.21,19.12c-0.92,1.58-0.07,3.34,0.19,4.98
	c3.52-0.351,7.03-0.021,10.55,0.18c3.44,0.21,6.48-1.971,9.91-1.94c4.18-0.11,8.43-0.21,12.46-1.46
	c7.951-2.89,16.35-6.4,21.291-13.65c1.82-2.319,1.33-5.399,1.6-8.14c-1.82-7.54-8.9-11.46-14.73-15.64
	c8.32-1.71,15.801-5.97,23.08-10.18c2.301-2.36,5.65-4.16,6.311-7.67C271.13,28.8,271.83,22.69,268.32,18.41z M246.57,39.52
	c-5.791,4.71-13.88,5.89-19.03,11.5c0.65,2.81,3.1,4.94,5.76,5.83c5.06,1.82,9.75,4.5,14.82,6.3c0.34,0.65,1.01,1.95,1.351,2.59
	c-3.41,2.25-6.671,4.8-10.451,6.439c-3.129,1.25-5.169,4.2-8.26,5.521c-8.37,3.239-16.12,8.229-25.17,9.44
	c3.68-7.291,8.48-13.961,12.25-21.211c6.45-9.17,10.61-19.59,15.73-29.5c2.82-4.47,6.661-8.24,9.31-12.85
	c0.91-4.73-4.19-7.3-7.38-9.65c6.859,0.16,13.74,1.04,20.4,2.66c3.39,1.6,7.68,3.48,8.6,7.49C261.26,31.64,253.2,35.4,246.57,39.52z
	"/>
<path d="M435.61,29.57c1.979-2.41,3.56-6.58,7.26-6.26c2.62,2.24,4.64,5.09,7.01,7.59c-3.95,4.69-8.36,8.95-12.8,13.16
	c-3.48,3.76-7.67,7-10.04,11.64c3.75-2.04,6.4-5.44,9.47-8.31c5.891-5.18,12.3-9.71,18.641-14.31c1.359-0.98,3.109-1.17,4.75-1.07
	c2.79,2.58,5.38,5.53,7.25,8.85c-2.66,4.58-7.091,7.83-11.04,11.24c-4.66,4.87-8.74,10.37-11.29,16.65
	c5.84-2.971,10.59-7.53,16.26-10.75c3.55-3.05,7.27-6.07,11.92-7.2v1.32c-4.93,5.44-11.33,9.24-16.82,14.08
	c-6.38,4.579-11.17,10.899-17.06,16c-2.57,2.38-6.4-1.25-5.88-4.14c0.29-5.131,3.109-9.57,4.58-14.38
	c2.68-7.9,8.39-14.28,11.75-21.85c-2.78,1.72-5.25,3.86-7.5,6.22c-3.61,3.73-7.86,6.8-11.17,10.82
	c-8.04,7.62-13.73,17.3-21.311,25.36c-0.859-1.311-1.99-2.59-1.93-4.26c-0.51-4.431,2.92-7.791,4.45-11.641
	c1.989-5.08,5.51-9.31,8.29-13.95C425.2,45.95,430.72,37.95,435.61,29.57z"/>
<path d="M417.85,43.22c-2.06-3.79-5.189-6.86-8.46-9.61c-1.77-1.99-4.31-5.47-7.26-3.53c-5.09,3.14-8.99,7.81-12.89,12.27
	c-2.811,4.72-6.561,8.76-9.57,13.35c-3.32,3.11-7.66,4.87-11.13,7.8c-3.45,3.01-7.55,5.12-11.13,7.95
	c-2.74,2.11-4.93,4.85-7.69,6.94c-0.55-9.17,7.8-15.581,9.34-24.25c1.021-4.23,5.851-5.66,7.86-9.26c1.64-2.93,3.79-5.61,6.55-7.56
	c2.73-1.12,5.74-0.15,8.601-0.39c1.989-0.67,3.67-2.44,5.92-2.15c1.91-0.14,4.01,0.37,5.649-1.02c-5.229-2.69-11.31-0.87-16.89-1.97
	c2.94-2.37,5.79-4.86,8.83-7.1c1.34-1.1,3.72-1.53,3.78-3.63c-0.91-5.13-5.561-8.36-8.92-11.94c-1.551-1.85-3.521,0.49-4.61,1.67
	c-5.7,6.65-10.42,14.07-15.87,20.91c-4.38-0.08-8.77-0.62-13.14-0.09c-1.301,2-1.95,4.28-2.29,6.61c0.95,1.17,1.92,2.34,2.899,3.49
	c2.66,0.36,5.36,0.18,8.04,0.03c-1.5,2.71-2.91,5.55-5.04,7.83c-3.93,1.82-7.46,4.31-10.91,6.88c-6.31,3.71-12.46,7.7-17.939,12.54
	c1.32-4.36,4.32-7.89,6.7-11.7c2.59-4.31,6.76-7.27,10.08-10.97c1.819-2.16,5-3.36,5.909-6.14c-1.689-2.16-3.93-3.89-5.09-6.44
	c-0.949-3.09-5.149-3.35-7.56-2.01c-6.01,5.31-11.74,10.96-18.09,15.88c-3.221,2.59-5.94,5.78-9.55,7.86
	c5.26-8.94,13.43-15.6,21.069-22.41c1.08-1,2.67-2.82,1.03-4.09c-2.73-2.24-4.49-5.56-7.85-6.97
	c-8.591,8.27-12.211,20.29-20.631,28.68c-9.91,7.23-18.609,15.919-28.3,23.45c-0.17-1.899-0.579-3.83-0.25-5.729
	c8.24-8.26,19.16-13.18,27.181-21.73c1.27-6.7-2.641-13.31-7.76-17.29c-4.271-1.13-6.48,3.62-9.011,6.1
	c-4.46,3.93-7.71,8.92-11.36,13.55c-3.24,4.71-4.17,10.49-5.91,15.83c-0.149,5.33-1.25,10.97,0.69,16.111
	c0.8,2.26,4.261,4.299,6.13,2.1c2.99-3.03,5.561-6.471,8.9-9.15c4.75-3.609,8.38-8.52,13.52-11.65c-2.209,4.93-5.34,9.5-6.6,14.82
	c-0.609,2.67,0.38,6.189,3.67,5.971c6.75-10.761,15.18-20.42,24.4-29.15c4.18-3.87,7.609-8.73,12.979-11.09
	c-5.67,9.49-10.979,19.27-14.729,29.72c-1.261,3.149-0.301,6.58-0.011,9.819c1.95-0.189,4.591,0.701,5.98-1.08
	c9.6-10.489,20.77-19.349,32.229-27.729c-1.119,3.01-2.46,5.93-3.85,8.82c-2.98,6.39-3.05,13.729-1.41,20.47
	c0.98,3.221,4.84,3.04,7.54,3.08c7.23-9.82,16.78-17.58,26.36-25c-1.42,4.88-1.5,9.98-1.71,15.02c-0.24,3.09,2.84,4.631,4.67,6.57
	c1.68,1.68,4.27,0.711,6.359,0.79c9.21-9.46,19.721-17.68,27.75-28.24C417.4,51.71,419.41,47.3,417.85,43.22z M280.68,48.58
	c1.631-2.11,3.23-4.49,5.78-5.57c0.87,1.33,0.83,2.84-0.01,4.16c-2.761,5.45-7.82,9.25-12.8,12.56
	C274.76,55.32,278.141,52.17,280.68,48.58z M400.76,62.74c-4.31,6.17-10.33,10.859-16.609,14.89c-0.261-3.319-0.341-6.909,1.39-9.88
	c3.33-5.17,4.979-11.38,9.31-15.9c3.351-2.3,6.99-4.17,10.181-6.73c1.8-0.97,5.68-2.47,5.76,0.8
	C408.78,52.25,404.22,57.2,400.76,62.74z"/>
<path d="M184.45,53.68c7.21-0.55,14.44-0.94,21.68-0.4c1.75-0.24,3.01,1.14,4.39,1.95c-3.21,0.96-6.32,2.22-9.43,3.42
	c-6.78,0.81-13.49,3.06-20.4,2.02C181.71,58.25,182.38,55.45,184.45,53.68z"/>
<path d="M37.07,103.13c5.28-4.3,12.73-3.649,18.66-1.14c0.02,1.48,0.03,2.97,0.05,4.449c-2.77-1.319-5.63-2.729-8.77-2.719
	c-4.47-0.261-9.11,2.609-10.32,7.029c-1.72,4.91,1.29,10.88,6.35,12.25c4.55,1.471,9.26-0.26,13.22-2.49
	c0,1.141-0.01,3.41-0.02,4.54c-6.03,2.8-13.84,3.5-19.31-0.88C30.43,119.109,30.49,108.1,37.07,103.13z"/>
<path d="M92.26,100.25c1.26,0,2.52,0,3.78,0c2.87,3.6,5.79,7.15,8.67,10.74c2.91-3.57,5.85-7.12,8.68-10.76
	c1.28,0.01,2.57,0.02,3.86,0.029c0,8.91,0,17.82,0,26.74c-1.42,0-2.83,0-4.25,0c0-6.75,0-13.51,0-20.26
	c-2.74,3.41-5.41,6.859-8.21,10.22c-3.05-3.31-5.71-6.94-8.55-10.41c0.02,6.81,0.01,13.63,0.01,20.45c-1.33,0-2.67,0-4,0
	C92.25,118.08,92.25,109.17,92.26,100.25z"/>
<path d="M122.5,100.25c1.23,0,2.46,0,3.7,0c2.95,3.55,5.83,7.17,8.77,10.75c2.84-3.62,5.77-7.16,8.65-10.74
	c1.21-0.01,2.42-0.01,3.63-0.02c0.01,8.92,0,17.84,0,26.76c-1.33,0-2.67,0-4,0c0-6.77-0.01-13.54,0.01-20.311
	c-2.76,3.44-5.43,6.951-8.32,10.291c-2.96-3.36-5.63-6.951-8.44-10.41c0.01,6.81,0,13.619,0,20.43c-1,0-3,0-4,0
	C122.5,118.08,122.5,109.17,122.5,100.25z"/>
<path d="M152.25,100.25c1.33,0,2.67,0,4,0c0.14,6.061-0.29,12.16,0.21,18.2c1.25,7,13.91,6.79,14.55-0.46
	c0.54-5.891,0.1-11.83,0.24-17.74c1.33,0,2.67,0,4,0c-0.24,6.5,0.49,13.061-0.39,19.51c-2.37,10.311-20.55,10.16-22.39-0.439
	C151.95,112.98,152.4,106.6,152.25,100.25z"/>
<path d="M180.25,100.27c1.03-0.02,2.06-0.029,3.1-0.039c5.84,6.779,11.82,13.42,17.65,20.199c0.01-6.729-0.01-13.449,0-20.18
	c1.25,0,2.5,0,3.75,0c0,8.91-0.01,17.83,0,26.75c-1.12,0-2.24,0-3.36,0c-5.76-6.67-11.55-13.32-17.36-19.95
	c-0.06,6.65-0.02,13.3-0.03,19.95c-1.25,0-2.5,0-3.75,0C180.25,118.09,180.26,109.18,180.25,100.27z"/>
<path d="M210.5,100.25c1.33,0,2.66,0,4,0c0.01,8.92,0,17.83,0,26.75c-1,0-3,0-4,0C210.5,118.08,210.5,109.16,210.5,100.25z"/>
<path d="M217.75,100.25c7.49,0,14.99,0.01,22.48,0c0.01,0.939,0.02,2.811,0.029,3.75c-3.09,0-6.18,0-9.26,0c0,7.67,0,15.33,0,23
	c-1.33,0-2.67-0.01-4-0.01c0-7.66,0-15.33,0-22.99c-3.08,0-6.17,0-9.25,0C217.75,102.75,217.75,101.5,217.75,100.25z"/>
<path d="M259.359,100.25c1.66-0.01,3.33-0.01,5-0.02c-3.33,4.35-6.739,8.64-10.119,12.939c0.01,4.609,0.01,9.221,0.01,13.83
	c-1.34,0-2.67,0-4,0c0-4.71,0.01-9.41,0-14.109c-3.32-4.221-6.66-8.42-9.98-12.641c1.25,0,3.771,0,5.021,0
	c2.34,2.99,4.67,6,6.989,9.01C254.65,106.26,257.029,103.27,259.359,100.25z"/>
<path d="M281.859,102.85c5.281-4.09,12.561-3.25,18.381-0.83c0,1.451,0.02,2.91,0.029,4.36c-4.5-2.33-10.22-4.03-14.89-1.159
	c-5.76,3.199-6.36,12.459-0.92,16.26c4.84,3.549,11.29,1.939,16.08-0.83c-0.03,1.51-0.05,3.02-0.069,4.539
	c-6.271,2.75-14.611,3.381-19.891-1.699C274.641,118.09,275.3,107.471,281.859,102.85z"/>
<path d="M336.75,100.25c1.33,0,2.66,0,4,0c0,7.67,0,15.33,0,23c4,0,8,0,12,0c0,1.25,0,2.5,0,3.75c-5.33,0-10.67,0-16,0
	C336.75,118.08,336.75,109.17,336.75,100.25z"/>
<path d="M355.75,100.25c1.33,0,2.66,0,4,0c0,7.67,0,15.33,0,23c4,0,8,0,12,0c-0.01,1.25-0.01,2.5,0,3.75c-5.34,0-10.67,0-16,0
	C355.75,118.08,355.75,109.17,355.75,100.25z"/>
<path d="M374.75,100.25c5.08,0,10.16,0,15.25,0c-0.01,1.25-0.01,2.5,0,3.75c-3.75,0-7.5,0-11.25,0c0,2.58-0.01,5.17,0,7.75
	c3.58,0,7.17,0,10.76,0c-0.01,0.88-0.01,2.63-0.01,3.5c-3.59,0-7.17,0-10.75,0c0,2.67-0.01,5.33,0,8c3.83,0,7.67,0,11.5,0
	c0,1.25,0,2.5,0,3.75c-5.17,0-10.33,0-15.5,0C374.75,118.08,374.75,109.17,374.75,100.25z"/>
<path d="M397.53,103.58c5.25-4.971,13.31-4.12,19.46-1.43c0,1.399,0.01,2.8,0.02,4.199c-3.74-1.689-7.87-3.3-12.029-2.369
	c-4.61,0.939-8.091,5.539-7.74,10.229c0.16,3.91,2.899,7.601,6.67,8.72c3.1,1.141,6.41,0.381,9.53-0.25
	c0.04-1.81,0.05-3.619,0.079-5.43c-1.76,0-3.52,0-5.27,0c0-0.87,0-2.62,0-3.5c3.08,0,6.17,0,9.25,0c0,3.82,0,7.65,0,11.471
	c-6.04,2.35-13.53,3.379-19.11-0.611C391.64,119.88,391.26,108.859,397.53,103.58z"/>
<path d="M422.75,100.25c5.08,0,10.16,0,15.25,0c-0.01,1.25,0,2.5,0,3.75c-3.75,0-7.5,0-11.25,0c0,2.58-0.01,5.17,0,7.75
	c3.58,0,7.17,0,10.76,0c-0.01,0.88-0.01,2.63-0.01,3.5c-3.59,0-7.17,0-10.75,0c0,2.67-0.01,5.33,0,8c3.83,0,7.67,0,11.5,0
	c0,1.25-0.01,2.5,0,3.75c-5.17,0-10.33,0-15.5,0C422.74,118.08,422.76,109.17,422.75,100.25z"/>
<path d="M84.09,103.92c-3.34-3.35-8.37-4.439-12.95-3.79c-8.6,0.771-14.23,10.63-10.9,18.5c3.09,8.761,15.12,11.149,22.27,5.96
	C89.18,120.09,89.78,109.439,84.09,103.92z M83.78,114.04c0.13,8.229-11.04,12.569-16.84,7.05c-5.5-4.29-4.06-14.109,2.51-16.529
	C75.88,101.42,84.53,106.68,83.78,114.04z"/>
<path d="M328.31,103.71c-3.96-3.64-9.859-4.54-14.939-3.11c-7.79,2.01-11.88,11.551-8.45,18.721c3.89,9.359,18.17,10.65,24.4,3.07
	C333.78,117.12,333.32,108.46,328.31,103.71z M328.12,115.16c-0.86,7.49-10.84,10.98-16.47,6.23c-6.26-4.5-4.12-15.721,3.55-17.311
	C321.9,101.83,329.57,108.09,328.12,115.16z"/>
</svg>
