<?xml version="1.0" encoding="utf-8"?>
<!-- Generator: Adobe Illustrator 15.1.0, SVG Export Plug-In . SVG Version: 6.00 Build 0)  -->
<!DOCTYPE svg PUBLIC "-//W3C//DTD SVG 1.1//EN" "http://www.w3.org/Graphics/SVG/1.1/DTD/svg11.dtd">
<svg version="1.1" id="Layer_1" xmlns="http://www.w3.org/2000/svg" xmlns:xlink="http://www.w3.org/1999/xlink" x="0px" y="0px"
	 width="629px" height="629px" viewBox="0 0 629 629" enable-background="new 0 0 629 629" xml:space="preserve">
<path fill="#231F20" d="M577.95,320.34c-0.811-5.99-1.59-12.04-3.641-17.76c-1.56-3.07-2.93-6.22-4.149-9.43
	c-1.43,1.27-2.939,2.46-4.239,3.87c-1.32,3.42-1.03,7.18-1.601,10.76c-4.87-0.19-9.42-3.12-14.391-2.04
	c-9.91,2.479-20.649,5.7-26.939,14.358c-2.05,2.392-3.021,6.83-6.931,6.521c-7.01,0.86-12.601-4.36-19.04-6.05
	c-4.17-0.42-9.279-1.66-12.51,1.85c-3.87,3.1-6.551,9.63-12.49,8.17c-5.449-3.58-9.76-9.899-17.039-9.52
	c1.17-2.851,2.26-5.75,3.75-8.44c1.72-2.03,4.689-2.06,6.96-3.2c3.51-1.64,7.21-3.06,10.329-5.38c2.761-3.27,5.41-6.75,7.301-10.62
	c0.641-3.98,0.311-8.17,2.021-11.94c1.409-2.94,1.859-6.51,4.43-8.75c3.53-3.16,7.091-6.38,11.461-8.35
	c5.93-2.82,10.119-7.95,14.09-12.98c1.97-7.52,1.529-15.49,4.29-22.83c1.021-4.99,2.949-9.8,6.63-13.44
	c1.439-1.83,3.63-3.72,2.899-6.33c-10.25,0.3-20.939,4.85-26.59,13.72c-2.181,4.85-2.681,10.26-3.681,15.45
	c-0.739,6.56-6.319,11.76-12.601,13.19c-7.989,1.93-16.561,4.45-22.061,10.95c-2.079,3.91-2.909,8.36-4.619,12.43
	c-2.359,3.75-5.609,8.11-10.521,8c-6.34-0.21-12.71-0.81-19.03-0.06c-3.369,0.69-6.39,2.46-9.359,4.11
	c0.399-3.59-0.09-7.14-1.819-10.34c-2.11-3.94-1-8.39,0.271-12.38c0.811-6.47,7.59-9.64,9.39-15.73
	c3.721-7.26,0.2-15.38,1.301-23.03c2.351-6.13,8.13-10.07,11.46-15.59c2.569-5.43,4.33-11.46,3.87-17.51
	c-0.53-8.36-0.381-16.75-0.881-25.11c-4.529,3.49-6.779,8.79-10.159,13.23c-2.88,5.04-3.021,10.97-4.601,16.43
	c-3.221,7.89-11.92,11.47-15.931,18.81c-1.061,2.52-1.38,5.28-2.43,7.81c-2.521,5.49-0.141,12.19-3.79,17.31
	c-2.36,4.54-8.021,5.82-10.58,10.16c-2.431,3.83-4.83,7.68-6.92,11.69c-1.42-3.39-2.69-6.84-4.21-10.19
	c-2.5-6.81-7.721-12.35-9.49-19.48c-0.939-4.07-1.37-8.79,1.43-12.27c2.381-3.12,2.671-7.14,4.25-10.64
	c2.352-4.94,1.19-10.56,1.801-15.82c0.479-8-6.96-13.34-7.699-21.03c-0.41-3.34-1.91-6.53-1.7-9.94c0.31-4.29,3.069-7.81,5.79-10.93
	c3.21-3.27,3.04-8.44,6.34-11.65c2.641-2.66,4.229-6.11,5.399-9.61c-3.8-0.65-7.659-0.05-10.891,2.11
	c-5.41,3.44-11.41,6.69-14.83,12.34c-4,6.38-10.739,11.62-11.199,19.7c-0.051,9.09-1.279,18.42,1.279,27.3
	c0.891,6.13,0.681,12.47-0.479,18.55c-2.352,7.49-7.221,13.82-10.66,20.78c-4.38,11.54,1.64,23.57-0.59,35.33
	c-0.82,2.53-2.15,4.86-3.49,7.15c-2.271-2.16-3.68-4.97-5.55-7.43c-4.08-3.15-9.102-5.36-12.25-9.58
	c-2.66-5.48-0.78-11.77-1.852-17.53c-3.51-7.58-9.38-13.86-16.17-18.64c-3.33-2.17-3.159-6.45-2.229-9.86
	c2.05-6.189,0.28-12.71,0.64-19.05c0.25-3.02-1.33-5.74-1.78-8.66c-1.5-5.79-0.64-11.93-2.67-17.61c-1.97,2.42-3.6,5.1-4.64,8.06
	c-1.99,5.39-5.79,10.26-5.84,16.24c-0.82,6.71,1.63,13.69-0.98,20.17c-0.569,7.1-1.3,14.56,1.301,21.37
	c2.47,6.24,8.279,10.729,10.119,17.24c1.641,5.26-2.67,9.93-1.739,15.21c-0.62,7.26,4.97,12.47,8.63,18.02
	c1.37,1.81,2.831,4.48,1.06,6.56c-3.49,0.72-6.229-2.02-9.25-3.23c-6.92-3.34-14.76-0.45-21.979-1.93
	c-2.471-1.91-1.061-5.82-3.41-7.78c-3.311-3.52-8.23-4.41-12.36-6.61c-2.729-0.59-4.1-3.81-3.14-6.32
	c1.42-4.74-0.29-9.83-2.54-14.02c-3.79-3.66-8.24-6.92-10.65-11.75c-1.95-4.74,3.17-8.27,2.971-12.85
	c0.729-7.34-2.65-14.17-4.4-21.07c3.27-11.62,12.91-19.43,20.32-28.37c2.75-2.62,5.8-4.92,8.55-7.55
	c7.41-6.81,16.08-11.97,24.53-17.35c5.14-3.19,11-4.85,16.399-7.55c4.48-2.37,9.55-3.15,14.271-4.91
	c2.921-0.9,5.489-2.73,8.529-3.29c3.392-0.74,6.65-2.23,9.37-4.4c-7.37-0.83-14.84-0.35-22.229-0.01
	c-4.062,0.83-8.15,1.41-12.25,2.01c-9.812,2.47-19.911,3.92-29.42,7.45c-12.45,3.438-24.03,9.49-35.07,16.1
	c-8.48,4.56-16.21,10.37-23.76,16.3c-9.23,6.98-18.051,14.7-25.101,23.93c-4.279,4.48-7.95,9.48-11.729,14.37
	c-5.15,6.65-8.92,14.21-13.94,20.96c-4.84,5.97-6.49,13.74-10.91,19.99c-2.6,3.54-3.199,8-3.529,12.26
	c-0.08-0.96-0.16-1.92-0.25-2.87c-0.62,3.67-2.221,7.03-3.681,10.42c-3.12,10.69-5.739,21.53-7.609,32.5
	c-2.101,5.57-1.4,11.62-2.45,17.39c-1.16,5.8-0.47,11.75-0.67,17.62c0.17,9.35-0.78,18.84,1.37,28.04
	c0.92,19.729,5.91,39.2,13.39,57.45c1.21,3.88,2.2,7.818,3.49,11.67c1.67,5.22,0.18,10.64-0.431,15.898
	c-2.72,11.07-6.899,21.852-13.51,31.2c8.221-3.41,13.11-11.3,18.7-17.778c3.55-1.53,7.83-0.24,9.93,3
	c5.101,7.42,12.021,13.358,16.91,20.96c2.471,4.42,7.101,6.979,9.67,11.329c4.42,5.171,9.88,9.399,15.53,13.159
	c0.55,5.802-0.37,11.7-2.979,16.932c-1.561,2.67-4.44,4.08-6.641,6.13c-5.04,3.88-5.7,10.66-9.189,15.67
	c-2.051,7.07-2.15,15.02,1.25,21.729c3.909-5.738,6.71-12.14,10.08-18.198c2.96-4.41,7.869-6.83,11.939-10.04
	c3.6-2.801,7.66-4.96,11.17-7.892c1.13-0.778,2.23-1.97,3.73-1.858c5.31-0.23,9.029,4.18,13.66,6.05
	c10.319,4.33,20.109,10,30.829,13.31c-1.93,3.271-5.27,5.36-7.27,8.591c-2.17,3.029-2.42,6.869-3.51,10.319
	c-0.92,3.37-2.771,6.66-2.07,10.271c0.54,3.09,0.86,6.27,2.03,9.21c2.04,4.21,4.71,8.27,5.21,13.04
	c0.399,0.079,1.21,0.26,1.609,0.35c0.58-4.59,0.131-9.45,2.19-13.72c2.82-6.142,6.66-12.011,12.22-15.99
	c5.01-4.189,10.79-7.439,15.34-12.16c3.91,1.04,7.99,1.271,11.841,2.562c6.579,2.028,13.561,1.648,20.329,2.52
	c5.11,1.19,10.41,0.471,15.57,1.25c8.66,0.95,17.4,0.57,26.03-0.399c8.76,0.221,17.319-2.29,26.09-1.851
	c3.021-0.08,5.22,2.08,7.55,3.66c6.931,5.39,15.58,8.2,24.33,8.39c7.471,0.091,14.71,3.131,20.36,7.95
	c3.33,2.771,5.96,7.16,10.688,7.53c4.9,0.47,10.57-0.25,13.94-4.25c2.51-3.04,5.521-5.57,8.38-8.271
	c-5.55-0.671-10.771,2.399-16.311,1.51c-4.46-1.55-7.181-5.71-10.569-8.739c-3.03-4.34-6.69-8.271-11.59-10.5
	c-4.86-3.351-10.841-3.79-16.471-4.9c-0.029-0.76-0.051-1.52-0.069-2.279c8.63-1.63,16.729-5.08,24.729-8.609
	c4.07-1.88,7.631-4.95,12.08-5.95c2.471-0.05,5.5,0.44,6.78,2.851c3.43,5.021,7.149,10.54,13.189,12.591
	c5.42,0.89,11.109,0.789,16.479-0.33c4.271-2.69,10.21-3.49,12.479-8.54c3.04-3.341,2.721-8.051,1.989-12.181
	c-0.85-3-3.25-5.181-5.699-6.931c-3.54-2.43-6.33-5.81-8.561-9.45c-0.68-1.06-0.78-2.529-0.13-3.608
	c1.79-3.25,3.479-6.562,5.47-9.69c10.71-11.45,19.92-24.2,28.312-37.41c3.51-7.29,8.25-13.898,11.829-21.16
	c3.399-7.89,7.461-15.5,10.5-23.539c2.471-8.131,5.561-16.069,7.711-24.301c1.35-7.149,3.47-14.119,4.71-21.3
	c3.618-10.729,1.59-22.21,2.738-33.271C582.23,338.67,579.23,329.51,577.95,320.34z M334.53,343.99
	c-2.011-0.972-2.181-3.87-2.84-5.82c2.569-0.66,5.108-1.42,7.659-2.17c1.521,2.721,3.069,5.43,4.771,8.05
	C340.92,344.15,337.72,344.13,334.53,343.99z M346.97,336.51c-0.83-1.26-0.859-2.819-1.189-4.24c3.01-0.398,7.271-1.17,8.26,2.712
	C351.91,336.32,349.48,337.01,346.97,336.51z M363.19,345.641c-1.761-0.561-3.511-1.101-5.28-1.58
	c1.109-2.239,2.25-4.471,3.311-6.739c1.199,0.08,2.409,0.198,3.609,0.369c0.83,1.229,1.271,2.681,1.88,4.041
	C365.54,343.04,364.35,344.32,363.19,345.641z M394.96,343.79c0.271-1.49,0.561-2.97,0.84-4.46c0.892,1.52,1.801,3.02,2.69,4.561
	C397.6,343.859,395.84,343.811,394.96,343.79z M404.77,339.811c-0.369-0.771-1.119-2.301-1.489-3.061
	c1.351-1.35,2.41-3.779,4.7-3.27c1.31,0.35,2.43,1.159,3.63,1.778c0.021,0.67,0.08,2.01,0.101,2.69
	C409.68,339.439,407.23,339.779,404.77,339.811z M421.53,346.66c-3.181,0.899-6.521,0.561-9.771,0.64
	c1.899-2.87,3.859-5.72,5.109-8.95c3.59-0.148,7.84-1.1,10.2,2.44C425.25,342.77,423.82,345.18,421.53,346.66z"/>
<g>
	<path fill="#D8AE34" d="M407.33,318.23c-5.5,0.299-9.529,4.25-13.33,7.76C399.1,325.12,404.461,322.71,407.33,318.23z"/>
	<path fill="#D8AE34" d="M432.64,330.16c-1.021,0.279-2.04,0.57-3.04,0.869c1.42,2.711,3,5.33,4.7,7.871
		c-2.891,1.47-5.311,3.648-6.59,6.67c2.939,1.489,6.22,1.56,9.439,1.438c0-0.688,0-2.05,0.01-2.74
		c-2.189,0.132-4.391,0.222-6.569,0.19c2.25-1.55,4.989-1.95,7.609-2.45C436.53,337.971,434.75,333.99,432.64,330.16z"/>
	<path fill="#D8AE34" d="M428.65,352.58c-0.4-0.95-0.79-1.891-1.189-2.83c3.09,0.04,6.189,0.04,9.26-0.4
		c-3.76-0.47-9.84-2.648-11.41,2.291c-7.109-0.53-14.061-2.5-21.22-2.371c-3.24,0.15-6.061-1.879-9.291-1.85
		c2.602,5.99,9.791,5.43,15.211,5.641c9.319,0.601,18.721,2.311,28.05,0.989c0.261-0.55,0.771-1.648,1.021-2.189
		C435.66,352.66,432.15,353.25,428.65,352.58z"/>
	<path fill="#D8AE34" d="M391.99,336.689c5.351,0.061,8.54-4.959,13.279-6.609c6.33-2.939,13.521-1.54,19.561,1.41
		c0.979-0.601,1.971-1.2,2.971-1.79c0.061-4.88,0.061-9.78-0.24-14.66c-5-3.3-10.54-5.98-16.59-6.5c-2.26-0.22-4.021,1.5-5.859,2.51
		c5.811,0.53,11.699,1.141,17.189,3.24c-6.141-0.7-12.351-0.68-18.479,0.17c-0.17,0.58-0.521,1.74-0.7,2.319
		c4.391,0.021,8.78-0.079,13.16,0.261c-1.511,0.84-3.04,1.649-4.55,2.479c4.55,1.771,11.14,2.23,12.539,7.892
		c-3.949-1.521-7.92-3.48-12.26-3.28c-5.101-0.3-9.859,1.75-14.351,3.89C397.841,331.95,394.18,334,391.99,336.689z"/>
	<path fill="#D8AE34" d="M340.51,455.67c1.67-4.6-1.24-9.03-1.859-13.52c1.188-3.382,4.619-7.78,1.39-10.99
		c-4,3.05-4.05,8.77-5.7,13.188c-0.52,0.062-1.569,0.16-2.09,0.222c1.25-4.32,2.9-8.91,1.86-13.42
		c-0.261-1.69-2.812-1.79-3.19-0.062c-4.909,6.13-2.229,14.29-3.5,21.38c-2.819-2.93-2.83-7.148-3.449-10.91
		c-0.771-5.188,3.109-10.238,0.989-15.328c-0.569,0.13-1.72,0.38-2.29,0.51c-1.25,3.068-2.449,6.16-3.949,9.12
		c-0.979-4.642,0.71-9.142,1.859-13.562c-2.521-0.479-5.05-0.93-7.59-1.26c-1.82,7.4,0.8,14.68,1.67,21.979
		c0.78,5.25-2.149,10.342-6.17,13.512c-4.18,3.26-8.26,7.31-9.69,12.56c-1,10.71,3.04,21.09,2.811,31.78
		c-0.36,5.97-5.24,10.04-7.62,15.17c-3.38,7.89-5.33,16.41-5.03,25.02c0.221,5.142-1.75,10-4.39,14.302
		c-2.76,4.83-7.34,8.398-9.57,13.56c-2.859,6.96-5.649,15.021-1.92,22.25c1.38-2.97,1.65-6.28,2.92-9.27
		c2.36-4.4,5.54-8.302,8.851-12.012c3.609-4.02,8.109-7.35,10.659-12.21c2.141-4.188,3.53-8.71,4.841-13.21
		c1.46-7.21-0.36-14.64,0.88-21.85c1.13-6.62,6.029-11.54,9.279-17.141c2.631-5.591-0.68-11.671,0.562-17.449
		c0.85-3.59,1.5-7.352,3.37-10.57c5.068-6.75,14.18-8.18,19.979-14.08C336.69,461.04,339.23,458.73,340.51,455.67z M307.12,479.1
		c0.36-1.88,0.8-3.738,1.26-5.58c0.62,0.021,1.86,0.07,2.471,0.102C310.36,475.91,309.1,477.82,307.12,479.1z M313.78,469.93
		c-0.66,0-1.99-0.01-2.66-0.01c0.149-0.6,0.439-1.81,0.59-2.41c1.04-0.229,2.08-0.46,3.13-0.67
		C314.49,467.86,314.13,468.9,313.78,469.93z M319.8,464.45c0.49-2.88,2.352-5.182,4.761-6.71
		C323.55,460.33,322.72,463.4,319.8,464.45z"/>
	<path fill="#D8AE34" d="M440.131,365.189c-6-0.949-12.09-0.08-18.131-0.189c-7.779,0.1-15.67-0.65-23.359,0.779
		c1.32,0.979,2.65,2.221,4.431,2.181c6.96,0.86,13.96-0.09,20.949,0.17c5.761-0.021,11.562,0.181,17.271-0.729
		C441,366.85,440.421,365.74,440.131,365.189z"/>
	<path fill="#D8AE34" d="M420,360.33c-7.25-0.62-14.489,0.25-21.739,0.17c-0.021,0.41-0.061,1.221-0.08,1.63
		c8.28,0.061,16.551,0.69,24.83,0.42c6.09-0.239,12.3,0.36,18.26-1.26C434.341,359.38,427.07,360.891,420,360.33z"/>
	<path fill="#D8AE34" d="M357.95,434.04c-0.55,0.06-1.66,0.17-2.21,0.229c-2.07,8.642-4.24,17.37-4.189,26.312
		c-0.811,4.06-0.711,8.49-2.75,12.188c-2.431,2.142-6.03,3-7.2,6.382c3.7-0.79,8.029-1.052,10.91-3.75
		c1.96-3.96,0.229-8.67,1.05-12.91c1.529,2.62,3.061,5.41,3.141,8.52c0.28,3.46-1.439,6.61-2.32,9.86
		c2.341-1.12,6.471-1.04,6.841-4.312c0.699-4.26,0.971-8.578,1.689-12.828c3.59,5.27,0.271,11.84,2.899,17.479
		c4.601-3.46,2.149-9.47,2.681-14.27c0.84-4.461-3.28-7.58-3.34-11.852c-0.352-6.57,0.5-13.13,0.229-19.688
		c-3.109,3.278-3.46,8.22-6.619,11.438C358.91,442.55,358.49,438.29,357.95,434.04z M354.92,460.72c-1.43,1.2-3.188-1.27-1.67-2.278
		C354.68,457.23,356.44,459.69,354.92,460.72z M358.26,460.07c-0.99-0.71-1.04-2.53-0.029-3.23
		C359.94,456.58,359.96,460.28,358.26,460.07z"/>
	<path fill="#D8AE34" d="M423.041,356.54c-8.791-0.39-17.521-1.649-26.32-1.87c0.24,0.67,0.71,2.01,0.939,2.689
		c6.07,0.341,12.181-0.039,18.221,0.801c6.649,0.858,13.42,1.38,20.109,0.64c1.84-0.13,3.12-1.59,4.51-2.609
		C434.66,355.75,428.87,357.391,423.041,356.54z"/>
	<path fill="#D8AE34" d="M296.23,232.65c3.05,5.08,9.24,8.38,10.32,14.53c-0.95,7.31-4.57,14.85-1.73,22.2
		c2.77,5.72,7.34,10.59,8.94,16.87c0.891,3.71-0.7,7.39-1.801,10.88c1.771,0.77,3.771,2.34,5.65,0.94c1.949-1.33,5.5-2.32,5.14-5.24
		c-0.029-7.85-5.399-14.12-8.199-21.12c3.51,2.33,7.119,4.84,9.13,8.67c1.87,2.8,1.851,6.52,3.949,9.17
		c3.04,1.48,8.312-0.47,7.7-4.45c-0.12-3.22,0.2-6.59-0.85-9.68c-2.11-3.53-5.312-6.41-9.142-7.96
		c-8.398-3.08-12.489-13.11-10.76-21.51c1.17-6.59-3.029-12.6-8.109-16.31c-3.46-2.66-7.851-5.1-8.851-9.73
		c-0.68-5.03,0.271-10.12,0.97-15.1c0.62-4.63-0.989-9.13-1.01-13.74c-0.12-3.3,0.41-6.85-1.49-9.79
		c-1.989,5.54-3.939,11.62-2.21,17.51c0.98,3.15,0.94,6.53,0.011,9.69C291.54,216.45,292.77,225.19,296.23,232.65z"/>
	<path fill="#D8AE34" d="M288.9,352.279c-1.98-1.851-3.96-5.079-7.13-4.09c-6.811,0.811-10.311,7.601-16.141,10.359
		c-5.149,1.46-10.42-1-15.64-0.21c-6.4,0.57-10.61,6.82-16.979,7.41c-5.62,0.08-8.16-6.09-13.301-7.3
		c0.811,4.579,3.95,8.93,8.511,10.3c4.46,0.46,9.05-0.01,13.369-1.2c4.82-1.96,10.311-5.5,15.521-2.771
		c4.49,2.301,9.82,2.881,14.64,1.291c4.98-1.66,10.101-2.82,15.2-4.052c-0.02-0.76-0.06-2.26-0.08-3.02
		c-7.359-1.09-13.45,3.74-20.16,5.75c-0.43-0.57-0.859-1.13-1.279-1.689c4.39-1.5,7.62-5.041,11.83-6.891
		C280.99,354.43,285.21,354.141,288.9,352.279z"/>
	<path fill="#D8AE34" d="M225.08,335.79c3.19,2.319,7.21,2.89,11.021,3.479c8.41,1.182,16.37-3.118,24.71-2.909
		c4.43,1.11,5.89,6.149,8.859,9.11c4.78-0.011,9.221-2.399,14.07-2.351c3.83,0.148,5.57-3.341,6.85-6.36
		c-6.899-3.46-14.989-2.51-22.18-5.108c-0.06-0.541-0.17-1.642-0.229-2.19c6.979-0.81,13.85,2.09,20.77,0.67
		c-3.63-2.79-7.62-5.09-11.06-8.12c3.51,0.79,6.75,2.431,10.18,3.5c2.27-0.41,3.06-2.97,4.25-4.619
		c-4.31-2.521-9.15-4.091-14.16-4.221c-4.63-0.699-5.91,5.85-10.21,6.17c-3.63-0.32-7.15-2.21-10.84-1.34
		c-5.7,1.91-9.72,7.79-16.1,7.79c-6.03,0.51-11.45-2.67-16.28-5.87c-5.63-3.51-6.01-11.479-3.67-17.08
		c1.68-4.41,6.43-8.64,11.42-7.08c1.84,0.89,4.109,2.41,3.79,4.77c0.26,4.399-4.67,6.17-6.66,9.53c1.46,0.56,2.91,1.189,4.439,1.609
		c3.49-2.32,5.29-6.37,7.37-9.87c1.851-2.93,1.021-7.07-1.359-9.43c-3.67-3.02-9.09-4.33-13.54-2.3
		c-8.42,3.77-12.521,13.66-12.24,22.459C215.1,323.65,218.68,331.311,225.08,335.79z M264.17,327.471
		c0.19,1.039,0.381,2.09,0.57,3.14c-2.62-0.091-5.229-0.229-7.83-0.539C258.98,328.35,261.44,327.29,264.17,327.471z
		 M242.42,330.609c3.66-0.021,7.32-0.149,10.98,0.141c-3.16,2.721-7.271,2.91-11.22,2.57
		C242.24,332.641,242.36,331.29,242.42,330.609z"/>
	<path fill="#D8AE34" d="M278.51,423.57c3.05-2.271,7.09-2.09,10.6-3.16c7.38-1.271,10.45-8.892,15.6-13.4
		c-1.779-1.979-3.609-3.91-5.479-5.8c-3.62,2.63-6.74,6.43-11.37,7.23c-3.39,0.76-6.69,1.858-9.96,3.02c1.37-2.7,3.33-5.1,6.31-6.08
		c4.88-1.688,9.011-5.21,11.521-9.72c0.89-2.351-0.45-4.73-1.021-6.98c-3.54,0.642-6.22,3.12-8.93,5.261
		c-4.69,4.211-9.95,8.131-12.979,13.801c-2.98,4.84-4.28,11.5-10.061,13.92c-5.17,2.83-12.1,1.04-16.32,5.75
		c-6.64,5.06-8.689,13.688-9.93,21.51c-0.83,11.312,0.15,22.72-1.37,33.98c-1.39,5.77-3.09,11.64-6.55,16.54
		c-1.48,2.198-3.31,4.148-4.72,6.408c-3.83,7.352-1.48,16.36-5.49,23.642c-3.7,5.14-9.48,8.54-12.57,14.188
		c-2.609,5.131-6.39,10.142-5.67,16.24c0.63-0.08,1.9-0.25,2.53-0.34c1.74-4.74,2.38-10.13,5.86-14.01
		c4.359-5.352,9.21-10.37,15.079-14.07c4.721-3.229,5.421-9.2,5.221-14.46c-0.431-8.12,7.34-12.67,11.24-18.81
		c2.1-4.062,2.35-8.762,3.3-13.182c0.72-8.34,1.6-16.68,2.27-25.029c1.08-5.489,2.72-10.939,5.59-15.779
		c1.82-3.04,3.29-7.24,7.271-7.86c4.41-0.7,9.3,0.8,13.37-1.569C274.94,431.64,275.19,426.59,278.51,423.57z M245.26,442.38
		c-0.04-1.96-0.4-3.99,0.22-5.89c1.01-2.4,3.359-3.73,5.569-4.84C249.49,435.41,247.53,439.01,245.26,442.38z M256.25,430.02
		c0.03-0.8,0.101-2.408,0.141-3.21c1.319,0.672,2.64,1.352,3.96,2.062C258.98,429.26,257.61,429.64,256.25,430.02z M264.28,426.5
		c0.22-2.65,2.89-3.37,4.85-4.44c3.681-1.738,5.811-5.398,8.761-8.028C277.64,421.11,271.4,426.93,264.28,426.5z"/>
	<path fill="#D8AE34" d="M396.98,283c3.39-4.56,4.739-10.21,7.311-15.2c1.17,7.09-1.58,14-3.2,20.8c2.5,1,5.311,3.15,8.061,1.68
		c2.061-1.39,3.529-3.84,3.529-6.36c-0.069-8.16-2.439-16.79,0.87-24.62c2.029-4,6.229-6.41,8.149-10.51
		c4.471-8.94-0.239-19.73,4.561-28.57c2.431-5.02,7.21-8.32,10-13.1c4.26-7.29,4.2-16.2,3.66-24.37c-3.53,5.8-3.21,12.89-6.12,18.92
		c-3.511,6.68-11.189,9.85-14.63,16.58c-2.721,5.5-3.891,11.67-3.841,17.79c0.15,6.44-5.109,11.18-10.109,14.37
		c-8,6.05-9.489,16.66-12.101,25.69c-0.49,2.88-2.12,5.31-3.811,7.63C391.8,284.29,395.03,285.27,396.98,283z"/>
	<path fill="#D8AE34" d="M344.29,282.16c2.021,0.57,4.24,0.98,6.24,0.07c3.239-1.07,3.22-5.15,4.67-7.73
		c0.67,1.65,1.37,3.3,2.069,4.94c1.859-1.59,3.75-3.35,4.359-5.82c2.57-6.69,1.66-13.93,2.761-20.88
		c4.909,8.22,2.37,18.04,2.601,27.04c5.311-3.12,2.93-10.18,4.87-15.08c3.409,4.81,0.68,11.04,0.449,16.42
		c2.779-0.24,6.931,0.37,7.841-3.12c4.449-10.22-1.602-20.72-5.131-30.21c-1.159-2.31-3.119-4.23-3.739-6.8
		c-1.07-5.49-2.511-11.09-1.45-16.7c0.41-6.31,5.04-11.17,6.479-17.17c1.479-5.4,1.939-11.34,0.181-16.73
		c-3.01-6.93-6.61-13.85-7.3-21.5c-0.12-3.94-0.091-7.95,0.85-11.8c0.75-3.14,3.04-5.53,5.07-7.92c2.899-3.26,4.88-7.18,7.01-10.95
		c-6.96,3.7-12.12,9.84-16.79,16.021c-4.62,6.22-5.229,14.29-4.85,21.76c-0.461,7.5,1.92,14.7,3.05,22.03
		c0.76,5.16-1.05,10.16-2.08,15.14c-1.38,5.96-5.22,10.85-8.189,16.07c-2.46,4.87-3.341,10.44-3.051,15.87
		c0.13,4.12,2.9,7.66,2.83,11.82c-0.021,3.51-0.46,7.03-1.319,10.44C350.26,272.77,346.43,277.05,344.29,282.16z M367.64,196.85
		c0.811,1.74,2.649,3.44,1.859,5.51c-0.64,2.39-1.46,4.72-2.29,7.05C367.1,205.21,367.18,201.02,367.64,196.85z M362.11,222.16
		c0.84,4.03-0.41,7.98-1.301,11.88c0.08,3.07,1,6.06,1.04,9.14C357.22,237.11,359.47,228.63,362.11,222.16z"/>
	<path fill="#D8AE34" d="M217.47,408.47c4.25-3.068,9.31-4.738,14.17-6.58c6.93-2.479,14.47,0.94,21.37-1.688
		c5.21-1.65,9.069-5.66,12.949-9.29c1.94-1.98,4.71-2.721,7.33-3.33c4.03-0.939,7.76,1.449,11.7,1.84
		c2.64-0.479,4.521-2.71,5.86-4.88c1.18-2.101,1.46-6.13-1.83-6.2c-6.311,0.222-12.19,2.95-17.59,6.04
		c-2.101,1.341-4.601,1.57-7.021,1.62c3.891-4.63,9.561-7.27,15.01-9.59c3.67-1.642,7.82-2.392,10.881-5.18
		c-0.28-0.701-0.82-2.11-1.101-2.82c-6.26-0.642-12.58,1.108-18.26,3.619c-6.78,4.86-12.94,10.841-20.83,13.961
		c-7.38,2.76-15.11,4.66-22.99,5.05c-6.32,2.39-11.08,7.75-14.32,13.54c-5.31,8.74-14.239,14-21.97,20.3
		c-4.729,3.352-10.2,5.562-14.58,9.42c-7.51,6.102-10.72,15.66-13.79,24.471c3.71-3.289,5.801-7.829,8.551-11.859
		c4.479-5.68,11.47-8.38,16.949-12.91c3.54-2.98,8.59-2.93,12.13-5.9C207.45,423.03,210.97,414.39,217.47,408.47z M257.34,388.63
		c0.051,0.89,0.16,2.66,0.21,3.55c-2.689,1.59-5.63,2.802-8.8,2.82C250.62,391.75,254.08,390.141,257.34,388.63z M244.14,392.279
		c0.159,0.69,0.46,2.069,0.609,2.761c-3.46,1.05-7.01,1.79-10.63,1.94C234.97,392.471,240.45,392.24,244.14,392.279z"/>
	<path fill="#D8AE34" d="M429.83,395.061c-7.85,0.25-15.811-1.211-23.58,0.421c1.471,0.81,2.94,1.828,4.69,1.828
		c6.18,0.23,12.369,0.53,18.55,0.302C429.58,396.97,429.75,395.7,429.83,395.061z"/>
	<path fill="#D8AE34" d="M435.73,380.43c-13.061-0.97-26.131-0.3-39.2-0.35c0.04,0.54,0.101,1.62,0.141,2.16
		c4.319,0.358,8.68,0.539,12.92,1.52c-4.261,1.45-8.82,0.851-13.2,1.472c3.54,1.948,7.609,2.118,11.53,2.59
		c3.22,0.239,4.979,3.8,8.21,4.01c5.699,0.37,11.521,0.949,17.17-0.24c-3.21-0.899-6.561-1.33-9.641-2.619
		c3.16-0.399,6.351-0.391,9.53-0.45c0.31-0.63,0.939-1.891,1.25-2.521c-7.28,0.029-14.729,0.1-21.681-2.4
		c7.779-0.288,15.569-0.288,23.351-0.64C436.01,382.33,435.82,381.061,435.73,380.43z"/>
	<path fill="#D8AE34" d="M397.9,398.26c-0.511,1.32-0.99,2.66-1.44,4c8.61,0.08,17.261,0.82,25.851-0.06
		c1.96-0.17,3.7-1.142,5.189-2.37C417.64,399.27,407.68,400.02,397.9,398.26z"/>
	<path fill="#D8AE34" d="M452.74,570.23c-7.819-6.142-19.33-3.36-26.71-10.2c-3.271-4.96-4.05-11.17-4.011-17.012
		c-0.119-11.13-0.649-22.278-2.529-33.26c-0.529-4.25-0.62-8.75,1.17-12.729c1.58-4.271,4.21-8.062,5.66-12.38
		c0.84-3.69,0.399-8.432-3.189-10.53c-5.311-3.22-11.7-6.3-14.12-12.4c-0.271-8.898,4.62-17.438,3.149-26.46
		c-0.72-3.66-1.619-8.568-6.229-8.81c-0.311,4.148,0.16,8.29,0.83,12.38c-2.069-3.69-4.12-8.2-8.84-8.85
		c-1.45,5.288,2.811,9.81,1.939,15.06c-0.149,2.95-1.351,5.7-2.229,8.49c-0.551,0.028-1.649,0.1-2.2,0.13
		c0.199-3.88,0.279-7.78,0.04-11.66c-0.181-4.47-4.311-7.34-7.83-9.35c-0.38,5.688,5.141,10.68,2.681,16.3
		c-2.28-5.602-4.03-12.892-10.24-15.352c-2.479,5.631,3.2,9.98,3.45,15.41c1.439,6.562-2.86,12.53-2.34,19.05
		c0.029,2.32,0.898,5.222,3.359,6.021c4.851,1.68,10.55,2.109,14.069,6.34c4.53,4.25,4.439,10.94,3.631,16.63
		c-1.601,7.57-1.261,15.36-1.061,23.05c0.21,5.222,3.75,9.41,5.42,14.19c1.46,5.47,1.79,11.16,2.67,16.74
		c0.739,5.488,4.681,9.68,7.479,14.229c3.351,5.75,10.311,7.17,16.189,8.98c6.881,1.47,14.59,0.02,20.79,4.04
		c4.811,3.438,8.83,7.858,13.601,11.358c2.779,1.94,6.29,2.021,9.529,1.45c-1.34-0.76-2.689-1.45-4.039-2.14
		C464.2,584.93,461.23,574.46,452.74,570.23z M403.841,471.29c-3.3-3.89-6.649-8.271-6.771-13.61c3.43,3.312,4.62,8.24,8.26,11.44
		C404.961,469.66,404.22,470.75,403.841,471.29z M406.671,474.7c0.84-0.13,2.529-0.392,3.38-0.521c-0.08,0.762-0.25,2.29-0.33,3.062
		C408.69,476.39,407.68,475.55,406.671,474.7z M411.72,514.95c-0.489-0.2-1.471-0.61-1.96-0.812
		c-0.261-5.76-0.59-11.52-0.319-17.278c0.5-0.16,1.51-0.48,2.01-0.642C411.49,502.47,412.41,508.7,411.72,514.95z"/>
	<path fill="#D8AE34" d="M434.131,288.56c-4.78,1.61-9.04,4.82-12.04,8.86c-1.521,1.76,0.87,3.35,1.72,4.77
		c2.62-2.69,5.591-5.14,9.28-6.17c-2.28,3.27-5.13,6.09-7.7,9.13c3.54,2.91,7.061-0.99,10.051-2.78
		c4.52-3.38,10.329-4.78,15.899-3.7c-3.71,3.66-8.841,4.99-13.301,7.39c-3.409,2.79-6.3,6.64-6.79,11.15
		c1.921-0.34,4.36,0.45,5.851-1.17c1.931-1.83,3.79-3.771,6.03-5.24c-0.99,3.851-3.971,6.591-6.87,9.091
		c0.181,0.89,0.54,2.681,0.721,3.58c3.76-0.61,8.159-1.86,9.84-5.671c2.529-5.32,5.681-10.83,10.979-13.8
		c4.899-2.27,11.021-2.22,14.91-6.42c6.89-7.99,4.06-20.03,10.75-28.11c2.89-4.26,7.76-6.29,11.979-8.91
		c4.989-3.18,10.029-6.61,13.479-11.52c4-4.6,0.38-11.14,2.71-16.33c2.22-4.99,4.909-9.8,6.38-15.09
		c-3.561,2.82-7.12,5.89-9.511,9.8c-2.17,7.15-1.55,15.5-6.51,21.57c-5.75,6.69-14.46,9.57-22.891,11.06
		c-4.489,0.7-7.75,4.31-9.96,8.03c-2.38,3.87-1.439,9.05-4.54,12.59c-3.96,4.66-9.109,9.15-15.58,9.22
		C443.95,290.63,439.16,287.6,434.131,288.56z M467.9,284.62c1.939-4.41,1.819-10.46,6.779-12.82
		c-1.311,3.69-2.851,7.29-4.061,11.02c-1.649,5.89-6.25,10.62-11.63,13.34C460.86,291.48,466.14,289.36,467.9,284.62z"/>
	<path fill="#D8AE34" d="M394.54,404.19c6.96,4.54,15.71,3,23.551,2.89c2.45,0.188,4.62-0.85,6.25-2.62
		C414.48,402.81,404.461,404.17,394.54,404.19z"/>
	<path fill="#D8AE34" d="M442.98,383.07c-0.24,0.77-0.711,2.3-0.95,3.069c3.399,0.979,6.891,1.899,9.851,3.949
		c4.609,3.42,11.13,0.79,15.699,4.41c4.261,3.33,7.12,8.12,11.271,11.6c5.591,5.562,13.04,8.71,20.44,11.052
		c4.8,1,9.8,0.84,14.659,0.43c5.609-1.1,10.689-4.07,15.141-7.57c4.479-3.52,4.521-9.87,4.351-15.06c0.1-5.04-3.57-9.32-7.939-11.38
		c-3.37-1.381-7.04-0.65-10.53-0.392c-3.771,0.351-7.431-0.789-11.13-1.25c3.21,6.351,11.149,4.461,16.859,4.392
		c4.41,2.59,6.399,8.58,5.221,13.479c-1.07,3.71-4.711,5.67-7.841,7.44c-3.229,1.8-6.989,4.028-10.79,2.52
		c-3.229-1.38-6.489-2.67-9.689-4.12c-8.141-3.93-12.061-12.81-19.369-17.8c-4-2.649-7.311-6.16-11.12-9.05
		c0.149-2.271,0.699-4.601,0.12-6.851c-2.511-0.83-5.15-1.16-7.671-1.931c-4.439-1.08-8.31-4.26-13.069-3.8
		c-0.05,0.601-0.141,1.8-0.189,2.41c1.55,1.101,3.109,2.189,4.66,3.31c-0.961,1.052-1.931,2.09-2.881,3.142
		c6.221,2.709,12.761,5.85,17.181,11.14c-3.88-0.2-7.3-2.148-10.59-4.01c-3.08-1.95-5.591-5.21-9.551-5.24
		c0.681,1.72,0.351,4.54,2.561,5.12c2.67,0.949,5.391,1.91,7.45,3.979C450.76,387.66,447.091,383.92,442.98,383.07z M486.091,404.03
		c-3.939-2.521-8.95-4.94-10-9.94C480.37,396.13,484.56,399.35,486.091,404.03z"/>
	<path fill="#D8AE34" d="M504.16,529.79c0.101,0.84,0.301,2.53,0.399,3.38c2.95,1.32,5.971,2.5,9.091,3.4
		c0.311,2.33,0.89,4.67,0.659,7.04c-0.63,2.34-2.521,4.1-4.29,5.648c-3.521,2.91-8.68,1.91-12.391-0.1
		c-4.17-2.63-7.6-6.642-8.76-11.5c-2.75-6.76-2.149-14.12-2-21.23c0.09-4.12-4.569-6.028-5.859-9.59
		c-1.46-9.78,1.88-20.29-2.431-29.59c-1.1-2.67-2.819-5.23-2.689-8.23c-0.13-4.34,3.189-8.148,2.21-12.538
		c-0.561-3.25-0.899-6.82-3.09-9.44c-4.21-4.28-10.899-5.56-14.141-10.86c-1.83-4.5-2.39-9.39-2.699-14.198
		c-0.49-6.69-3.261-12.87-5.979-18.9c-2.021-5.69-7.471-9.521-13.04-11.221c-1.061,0.78-1.811,1.871-2.591,2.899
		c3.28,2.61,6.819,4.92,9.859,7.84c1.33,1.021,1.25,2.812,1.65,4.29c-4.301-2.698-8.19-6.13-13.17-7.56
		c-0.391,0.74-1.15,2.22-1.53,2.96c2.771,2.14,6.271,3.21,8.88,5.55c3.591,5.01,4.511,11.33,6.63,17.01
		c-0.659,0.012-1.97,0.012-2.63,0.021c-2.58-5.14-3.739-11.82-9.5-14.46c-2.689-1.16-7.069-5.36-9.1-1.392
		c1.47,2.58,3.489,4.78,5.26,7.16c-3.66-0.56-7.021-2.17-10.51-3.318c-0.15,1.318-0.221,2.64-0.21,3.97
		c3.609,4.26,9.449,5.7,13.31,9.688c2.99,3.472,3.761,8.12,5.38,12.271c1.37,3.42,1.94,7.78,5.54,9.67
		c4.721,1.38,10.021,1.23,14.312,3.89c2.26,2.29,3.05,5.562,4,8.552c1.34,4.21,0.31,8.688,1.159,12.979
		c1.819,3.62,5.109,6.45,6.181,10.48c2.979,9.949-0.38,20.37,1.55,30.449c0.58,2.631,0.891,5.641,3.07,7.521
		c2.14,2.09,4.329,4.43,4.649,7.57c0.891,5.89,1.68,11.979,4.859,17.17c2.061,4.41,6.91,6.27,11.17,7.898
		c3.17,1.38,6.5-0.21,9.729-0.5c4.381-0.47,9.439-1.34,12.319-4.988c0.7-3.61,0.57-7.41-0.13-11.012
		C516.73,532.49,509.551,531.74,504.16,529.79z M470.41,456.47c-4.75-4.238-8.279-9.91-13.989-12.988
		c-4.511-2.74-5.601-8.432-6.5-13.212c4.319,1.24,4,6.29,6.47,9.24c3.88,3.91,7.891,7.73,12.521,10.76
		C471.23,451.54,470.541,454.33,470.41,456.47z M472.87,466.39c-1.43-0.158-1.68-0.818-0.75-1.979
		C473.541,464.56,473.791,465.21,472.87,466.39z"/>
	<path fill="#D8AE34" d="M392.69,425.3c-0.53-2.608-1.07-5.21-1.48-7.84c6.37-1.27,12.23,3.39,18.48,1.26
		c-2.561-4.05-7.69-2.7-11.681-2.729c-6.189,0.08-13.181,0.12-18.181-4.102c6.66-1.71,14.601-3.63,20.88,0.102
		c-1.8,0.7-3.649,1.25-5.439,1.97c5.11,0.43,10.23,1.69,15.36,1.23c2.199-1.62,4.05-3.812,6.87-4.392c0.18-0.77,0.35-1.54,0.5-2.3
		c-6.341-0.42-12.69-0.2-19.03-0.12c-4.381,0.16-8.569-1.58-12.96-1.25c-2.561-0.18-5.689,0.51-7.689-1.5
		c-2.03-1.8-1.931-4.75-2.86-7.109c-4.51-3.58-10.63-5.21-16.27-3.71c0.18-2.891-0.131-6.609,2.979-8.09
		c2.58,0.989,4.101,4.149,7.04,4.649c4.33,0.819,8.53-1.021,12.83-1.13c1.771,0.399,3.28,1.52,5,2.08
		c3.82-0.49,5.66-4.28,7.771-7.021c-1.819-1.439-3.449-3.56-5.949-3.64c-3.38-0.381-6.95-0.74-9.75-2.86
		c-2.5-1.84-6.12-4.068-5.24-7.71c0.101-3.54,2.851-6.029,5.74-7.608c0.529,0.688,1.069,1.379,1.62,2.079
		c-1.392,1.521-2.99,2.899-4.07,4.671c-0.609,2.448,0.859,5.799,3.771,5.479c5.311-0.08,10.801-0.989,15.801,1.39
		c0.5-0.579,1.5-1.72,2.01-2.3c-1.37-6.318-2.17-12.729-3.53-19.05c-1.18-6.4-3.56-12.5-4.83-18.88
		c-2.329-8.24-0.59-17.89,5.11-24.38c5.689-6.3,14.779-5.8,22.359-7.76c-10.601-8.18-22.79-14.47-35.859-17.52
		c-14.681-1.86-30.25-2.01-44.08,3.94c-9.561,4.44-19.13,9.55-26.45,17.291c-6.319,6.189-11.51,13.58-15.05,21.689
		c-2.52,7.67-6.06,15.761-4.04,23.979c0.67,4.729,3.03,9,3.681,13.739c0.64,3.92,2.189,7.69,2.25,11.7
		c0.02,2.97,0.52,6.22,2.8,8.352c1.89,1.83,3.84,3.64,5.149,5.959c3.221,5.439,7.061,10.511,9.91,16.171
		c1.88,4.33,7.351,3.96,10.97,5.95c5.45,3.238,10.65,7.01,16.591,9.35c4.119,1.76,8.439,3.86,13.05,2.729
		c-3.42-3.051-7.181-5.851-9.471-9.931c4.381,0.66,7.551,4.12,11.79,5.2c4.9,1.35,9.892,2.72,14,5.86
		C379.34,426.09,387.34,430.74,392.69,425.3z M324.5,316.91c4.811-3.54,8.95-8.07,14.3-10.82c6.182-2.47,12.57,0.68,18.73,1.58
		c5.33,0.55,9.84,3.64,14.39,6.2c1.91,0.75,1.812,3.06,2.46,4.71c-9.369-5.87-20.6-7.74-31.5-7.53
		c-5.159,0.181-8.479,4.57-11.92,7.811c-1.67,1.761-4.37,1.351-6.54,1.92C324.44,319.811,324.48,317.88,324.5,316.91z
		 M369.17,319.63c-1.05,0.979-3.88,0.88-4.29-0.59C365.92,318.109,368.87,318,369.17,319.63z M326.1,377.95
		c2.29,1.17,4.08,3.04,5.061,5.439C328.94,382.13,327.33,380.15,326.1,377.95z M334.18,382.66c-0.891-1.2-1.779-2.4-2.649-3.61
		c1.91,0.182,3.819,0.391,5.739,0.53c-2.899-3.891-6.399-7.271-10.079-10.41c-0.881,0.551-1.75,1.109-2.61,1.67
		c-2.109-2.779-4.05-5.68-5.67-8.77c1.99,1.59,3.97,3.18,6.061,4.649c-1.25-3.931-3.04-7.761-5.939-10.739
		c-2.61-2.352-2.09-6.11-2.63-9.261c4.47,4.92,8.029,10.56,11.819,16c2.939,4.329,4.891,9.579,9.29,12.72
		c3.101,2.25,6.079,4.659,8.771,7.399C342.26,382.391,338.19,381.73,334.18,382.66z M349,347.35c-3.93,0.2-7.84,1.36-11.79,0.86
		c-1.319-1.101-1.979-2.71-2.68-4.22c-2.011-0.972-2.181-3.87-2.84-5.82c-1.25,1-1.181,3.221-2.83,3.79
		c-2.46,0.06-4.562-1.41-6.49-2.75c4.71-3.069,9.399-6.319,12.83-10.86c-2.11-0.05-4.21,0-6.32,0.03
		c1.99-2.28,4.171-4.76,7.36-5.189c3.84-0.591,7.5-2.199,11.39-2.449c7.24,0.58,13.352,5.06,20.352,6.68
		c-0.32,0.99-0.642,1.99-0.961,2.99c-7.039-2.771-14.609-8.58-22.42-5.051c2.631,0.631,5.351,0.791,7.96,1.5
		c7.561,2.431,13.561,7.801,20.051,12.121c-2.86,2.75-5.431,5.93-8.83,8.038C358.93,348.18,353.92,346.82,349,347.35z"/>
	<path fill="#D8AE34" d="M243.46,258.28c1.16,6.63-0.949,13.89,2.16,20.14c2.23,2.33,5.71,2.74,8.34,4.52
		c3.641,1.96,4.15,6.53,6.58,9.56c2.46,3.15,4.96,6.35,8.08,8.88c3.891,2.35,8.68,1.76,12.88,3.21c6.46,1.69,11.38,6.51,15.641,11.4
		c2.609-2.011,5.319-3.971,7.529-6.44c0.181-2.77-2.56-4.28-4.58-5.55c-4.739-3.13-11.119-2.62-15.369-6.63
		c7.39-2.93,15.05,0.7,21.189,4.75c1.79,1.6,3.96,0.69,5.891-0.1c-2.761-2.87-5.83-5.41-8.9-7.92c-4.78-3.24-10.66-4.06-16.17-5.31
		c-4.601-0.98-9.63,2.3-13.851-0.74c-3.89-1.52-3.96-5.93-4.93-9.33c-1.64-2.24-4.649-2.81-7.12-3.689
		c-3.96-1.05-7.37-3.91-9.12-7.59c-0.92-4.7,1.131-10.11-1.869-14.3c-4.33-5.34-9.851-10.28-11.62-17.15
		c0.51-3.87,2.989-7.19,3.37-11.09c0.319-3.71-0.04-7.44-0.32-11.14c-0.53-0.13-1.58-0.38-2.11-0.51
		c-0.88,4.33-0.49,9.05-2.81,12.98c-3.05,5.77-5.42,12.63-3.391,19.14C234.56,251.07,241.52,252.83,243.46,258.28z M272.34,292.85
		c3.011,0.21,5.99,0.97,8.16,3.22c-2.77,0.08-5.529-0.04-8.279-0.17C272.25,295.14,272.31,293.61,272.34,292.85z M265.17,283.97
		c1.181,1.11,1.12,2.79,1.29,4.28c-3.83-3.53-7.51-7.31-10.529-11.57C260,277.59,262.58,281,265.17,283.97z"/>
	<path fill="#D8AE34" d="M416,370.8c-5.63,0.07-11.279-0.479-16.899,0.13c2.46,1.771,5.57,2.021,8.479,2.42
		c6.45,0.642,12.95,0.4,19.42,0.552c4.271-0.121,9.32,0.629,12.37-3.121C431.6,369.73,423.791,370.9,416,370.8z"/>
	<path fill="#D8AE34" d="M417.99,375.18c-6.311,0.131-12.649-0.06-18.92,0.75c5.26,2.48,11.199,0.851,16.76,1.722
		c6.29,1.159,12.721,1.02,19.08,0.618c1.851,0.03,3.051-1.52,4.37-2.579C432.22,374.779,425.08,375.38,417.99,375.18z"/>
	<path fill="#D8AE34" d="M409.5,388.859c-4.569,0.051-9.13,0.36-13.7,0.431c0.4,0.899,0.801,1.8,1.2,2.7
		C401.341,391.98,406.51,392.84,409.5,388.859z"/>
	<path fill="#D8AE34" d="M405.48,420.26c-4.189,0.05-8.961-1.06-12.631,1.51C396.93,421.98,402.4,423.89,405.48,420.26z"/>
	<path fill="#D8AE34" d="M543.841,312.26c-4.5,1.29-8.71,3.472-12.49,6.211c-4.609,3.619-6.199,9.771-10.609,13.56
		c-4.101,1.229-8.529,0.989-12.681,0.171c-4.29-0.729-7.39-4.102-11.25-5.8c-3.029-1.07-6.38-0.23-8.89,1.659
		c-4.24,2.58-6.33,7.859-11.101,9.671c-6.46,1.448-12.529-2.222-16.99-6.541c-5.771-5.529-13.93-1.63-20.8-1.58
		c0.91,2.939,0.5,8.601,4.859,8.351c6.091-0.62,12.54-0.25,17.841,3.16c1.899,0.659,2.279,2.649,2.729,4.36
		c-5.94-1.062-11.721-4.222-17.9-2.812c-2.649,2.141-1.119,6.18-0.439,8.95c5.74,1,11.04-2.601,16.801-2.011
		c3.819-0.299,6.6,2.78,10.109,3.569c4.12,0.19,7.979-1.709,11.319-3.93c2.78-1.96,3.859-5.38,6.15-7.79
		c3.63-4.34,10.579-5.54,15.34-2.36c4.319,2.591,10.04,3.841,14.71,1.4c2.88-1.641,5.63-3.57,8.01-5.9
		c3.49-3.868,4.891-9.09,7.771-13.35c6.391-5.979,15.521-7.9,24.051-7.27c0.05-0.75,0.17-2.24,0.229-2.98
		C555.01,311.04,549.26,310.55,543.841,312.26z M483.7,342.57c-2.5,1.43-4.939,3.1-7.72,3.92c-1.61,0.108-2.591-1.54-3.811-2.312
		c3.84-1.66,7.83-2.93,11.67-4.58C483.78,340.59,483.74,341.58,483.7,342.57z M488.73,336.38c-1.131-2.42,2.029-3.53,3.59-4.58
		c0.471,1.16,0.949,2.311,1.439,3.479C492.15,335.88,490.5,336.779,488.73,336.38z"/>
</g>
<g>
	<path fill="#A32C00" d="M368.45,38.94c5.28,0.16,6.93-5.95,11.33-7.76c4.91,1.76,7.95,6.16,11.04,10.08
		c3.109-2.93,6.09-5.979,9.01-9.1c3.931,1.72,8.11,3.62,10.5,7.39c4.03,6.46,5.301,14.55,3.229,21.9
		c-0.909,10.01-5.189,19.5-4.909,29.63c-0.15,4.21,4.739,5.23,7.159,7.75c-1.189,2.07-2.279,4.8-4.96,5.21
		c-2.96,1.15-6.17-0.66-7.34-3.45c-3.819-8.11-1.609-17.2-0.319-25.62c0.949-8.57,3.529-17.14,2.149-25.8
		c-1.58-2.61-3.561-6.42-7.229-5.61c-3.37,1.62-7.341,4.16-7.17,8.41c-0.48,9.021-0.23,18.08-0.312,27.11
		c-0.34,3.08,2.65,4.84,4.312,6.98c-1.511,1.04-2.841,2.75-4.881,2.45c-4.29-0.26-9.34,1.14-12.8-2.12
		c1.649-2.34,4.579-4.3,4.46-7.45c0.101-10.57,1.149-21.17,0.431-31.74c-1.381-1.94-3.312-3.37-5.181-4.79
		c-3.58,2.23-9.46,4.3-8.601,9.51c0.11,9.36-0.3,18.73,0,28.08c1.41,2.05,3.271,3.73,4.82,5.68c-3.12,2.83-7.381,1.79-11.19,1.92
		c-2.97,0.03-6.04,0.1-8.729-1.35c1.91-2.5,4.87-4.43,6.051-7.34c0.21-11.99,0.17-23.99,0.3-35.99c0.61-4.19-4.771-5.23-5.58-9.02
		c4.851-0.79,9.65-1.82,14.521-2.49C368.53,33.92,368.44,36.43,368.45,38.94z"/>
	<path fill="#A32C00" d="M433.61,41.43c4.71-0.04,9.43,0.07,14.14,0.06c0.37,4.43-1.319,8.58-2.1,12.87
		c-2.21,10.92-5.2,21.68-7.15,32.65c-0.729,3.35,1.44,6.23,2.48,9.24c-1.561,0.75-3.271,1.8-5.051,1.05
		c-4.12-1.22-8.25-2.4-12.5-3.05c0.021-0.82,0.061-2.47,0.08-3.29c2.49-1.55,6.029-2.75,6.439-6.12
		c1.069-5.51,2.76-10.87,3.84-16.38c1.36-6.46,3.9-12.79,3.881-19.47C436.31,46.46,434.19,44.34,433.61,41.43z"/>
	<path fill="#A32C00" d="M270.67,47.39c3.381-0.06,7.051-0.7,10.15,0.99c6.41,3.05,10.7,9.48,12.34,16.24
		c3.74,11.57,2.17,24.2,6.65,35.58c1.71,3.33,6.04,2.88,9,4.42c-0.369,3.56-2.09,7.03-5.859,7.89c-3.51-0.42-6.61-3.06-8.1-6.22
		c-6.48-12.62-5.69-27.35-10.391-40.52c-1.26-4.31-4.949-7.8-9.449-8.36c-2.521,0.7-4.431,2.98-4.62,5.59
		c-0.841,5.34,0.979,10.55,2.859,15.46c1.66,4.86,3.181,9.77,4.82,14.64c0.82,3.23,4.38,4.25,6.92,5.74
		c-0.67,2.15-1.75,4.2-4.21,4.51c-4.25,0.78-8.1,3.44-12.48,3.31c-1.649-2.89,1.48-5.79,2.431-8.5
		c-4.17-11.34-7.45-22.99-11.561-34.36c-0.96-3.45-5.31-3.38-8.05-4.66c0.061-0.64,0.18-1.91,0.25-2.55
		c4.03-2.02,7.88-4.36,11.78-6.62c1.149,2.41,1.47,5.46,3.91,7.01C268.44,53.85,269.46,50.58,270.67,47.39z"/>
	<path fill="#A32C00" d="M465.131,50.57c5.33-0.26,11.021,0.23,15.819,2.72c-0.989,1.79-2.021,3.56-2.939,5.38
		c3.63,1.66,6.141-2.07,9.2-3.29c3.06-0.45,5.439,2.18,7.069,4.42c3.5,4.61,3.54,10.72,2.96,16.22
		c-3.069,14.67-15,25.52-18.649,39.93c1.58,2.92,4.779,5.16,3.96,8.91c-2.45,1.07-5.479,2.75-8.01,0.93
		c-4.301-2.22-3.221-7.89-2.721-11.82c3.189-13.63,12.79-24.68,16.479-38.13c0.7-4.03-0.05-9.45-4.311-11.21
		c-4.13,0.13-8.319,2.7-9.479,6.8c-2.851,7.96-5.66,15.94-8.391,23.95c-1.649,3.53,1.801,6.61,1.511,10.19
		c-5.311,0.49-10.04-2.34-15.07-3.5c0.341-0.06,0.69-0.11,1.04-0.15c-1.641-0.49-3.59-0.83-3.35-3.01
		c2.609-2.24,6.939-3.05,7.75-6.88c3.92-10.97,7.779-21.99,11.5-33.03C468.421,56.02,466.171,53.6,465.131,50.57z"/>
	<path fill="#A32C00" d="M518.85,67.86c6.57-6.29,18.181-5.63,24.36,0.91c1.84,1.99,4.22,3.29,6.76,4.19
		c-0.971,3.76-4.58,7.92-8.811,6.37c-2.521-3.13-4.26-8.36-9.16-8.06c-3.68-0.6-6.449,2.53-7.56,5.69
		c-0.54,2.95,1.43,5.49,2.56,8.04c4.011,7.04,8.83,13.78,11.181,21.64c1.551,6.47-0.681,13.13-4,18.67
		c-2.5,4.04-6.83,6.4-11.181,7.95c-10.069,2-21.51-2.53-26.579-11.67c-5.04-7.75,0.159-19.04,8.68-21.64
		c5.7-1.82,11.841,1.49,15.021,6.24c1.551,3.32-0.08,6.93-2.271,9.52c-1.229-0.04-2.46-0.07-3.67-0.09
		c-1.46-2.28-1.779-4.92-1.979-7.55c-1.09-2.35-4.061-1.81-6.149-1.56c-4.021,1.68-4.069,6.81-3.431,10.46
		c2.33,8.26,13.91,11.48,20.33,5.91c5-3.89,5.311-11.08,4.091-16.79c-2.58-8.39-9.12-14.93-11.69-23.32
		C513.68,77.66,515.24,71.76,518.85,67.86z"/>
	<path fill="#A32C00" d="M174.74,82.57c4.08-3.45,10.11-3.21,15.06-2.13c6.36,2.17,12.08,6.38,15.86,11.96
		c4.63,6.45,7.82,13.75,11.29,20.84c3.26,7.62,6.9,15.35,13.01,21.15c2.67-0.45,5.36-1.19,8.09-0.88c2.23,1,1.57,3.6,1.591,5.55
		c0.22,4.6-5.591,7.8-9.58,5.88c-5.71-2.19-9.37-7.45-12.82-12.22c-6.85-9.78-11.1-21.07-17.9-30.88
		c-2.619-3.97-5.46-8.58-10.439-9.71c-2.19-0.89-4.5-0.18-6.69,0.27c-1.569,4.54-4.989,10.22-1.029,14.46
		c6.56,8.74,12.899,17.67,19.659,26.25c1.96,2.97,5.771,2.75,8.841,3.52c-0.4,1.81,0.17,4.22-1.681,5.37
		c-4.189,3.3-8.51,6.52-13.3,8.91c-2.16-3.71,0.11-8.55-2.82-11.87c-6.63-8.7-13.04-17.56-19.52-26.37c-1.14-1.5-2.38-2.97-3.9-4.1
		c-2.449-0.36-4.93-0.21-7.39-0.21c-1.96,3.76-4.73,8.1-3.25,12.45c5.8,8.25,12.08,16.16,17.979,24.35
		c1.681,2.29,3.391,4.68,5.811,6.24c2.2,0.34,4.439,0.2,6.66,0.29c0.02,1.48,0.04,2.95,0.06,4.43c-4.04,3.36-8.3,6.43-12.54,9.52
		c-1.47,1.37-3.569,1.09-5.399,1.27c-0.28-3.83,1.18-8-0.341-11.61c-8.949-12.24-18.02-24.41-27.079-36.57
		c-3.061-0.08-6.12-0.07-9.181-0.14c-0.16-0.68-0.479-2.04-0.63-2.73c4.51-3.6,7.24-9.16,12.2-12.14c1.96,2.23,2.77,7.271,6.45,6.64
		c2.87-4.42,1.22-9.92,2.68-14.76c5.97-1.87,12.34-1.02,18.03,1.35C174.65,92.42,174.79,87.47,174.74,82.57z"/>
	<path fill="#A32C00" d="M125.19,158.33c2.79-4.95,7.06-9.78,12.91-10.8c3.439-0.38,8.359,2.32,7.41,6.33
		c-0.98,2.48-3.141,4.37-5.471,5.59c-2.43,0.55-3.689-2.05-5.37-3.27c-3.5,2.33-4.479,6.79-2.8,10.56
		c6.44,13.33,22.49,21.65,37.07,18.18c4.01-1.01,6.649-4.43,9.57-7.09c1.05,2.05,1.25,4.45-0.511,6.19
		c-7.37,8.29-19.58,9.71-29.979,8.13c-8.47-1.59-16.32-6.75-20.75-14.19C123.87,172.16,122.22,164.65,125.19,158.33z"/>
	<path fill="#A32C00" d="M58.57,193.02c2.54-6.17,9.14-9.76,15.39-11.1c6.37-0.6,13.19-0.83,19.12,1.99
		c10.01,3.95,18.59,10.58,27.48,16.5c6.38,4.66,13.09,9.12,20.66,11.58c4.659,1.57,7.069-3.97,10.76-5.76
		c1.77,1.49,4.08,2.66,4.95,4.94c1.409,3.61,0.42,8.43-3.2,10.36c-3.78,2.729-8.771,2.52-12.91,0.78
		c-16.771-4.58-29.96-16.59-45.48-23.84c-4.81-2.26-9.739-5.83-15.34-4.479c-3.27,0.4-7.71,1.95-7.529,5.979
		c0.02,5,1.27,11.3,6.46,13.41c10.88,4.82,21.899,9.3,32.8,14.07c3.899,2.15,8.62,1.57,12.22-0.88c0.64,0.34,1.92,1.01,2.561,1.35
		c0.069,2.12,0.59,4.39-0.4,6.39c-2.01,4.71-4.33,9.29-6.11,14.1c-1.27,0.05-2.54,0.09-3.81,0.13c-1.86-3.27-3.4-7.33-7.17-8.84
		c-11.8-5.11-23.67-10.06-35.431-15.27c-3.449-1.59-7.619-1.59-11.02,0.13c-3.18,1.6-2.06,5.56-2.06,8.43
		c0.539,2.979,0.76,7.12,4.05,8.39c10.489,4.64,21.1,9.02,31.62,13.61c3.069,1.38,6.31,3.1,9.8,2.46c2.17-0.62,3.95-2.07,5.93-3.07
		c1.99,1.48,3.46,3.81,2.601,6.35c-2.07,5.02-4.421,9.92-6.391,14.99c-1,1.85-2.35,4.74-4.92,3.63c-1.93-2.88-2.56-6.36-4.14-9.4
		c-2.75-1.77-5.88-2.83-8.851-4.14c-13-5.65-26.08-11.1-39.02-16.87c-4.98-2.64-8.92,3.03-13.58,3.95
		c-1.76-3.38,0.28-6.88,0.86-10.28c1.04-3.83,1.29-7.9,3.149-11.47c3.2,1.75,6.2,4.15,9.92,4.66c1.3-5.94-3.02-10.72-5.069-15.87
		c-0.45-2.84,2.17-4.72,4.149-6.22c4.24-2.66,9.04-4.71,14.15-4.51C64.78,203.18,61.3,198.11,58.57,193.02z"/>
	<path fill="#A32C00" d="M348.53,86.79c-1.63-0.78-3.4-1.41-4.681-2.72c-2.71-6.86-3.301-14.27-5.34-21.3
		c-1.319-7.09-3.7-13.99-4.029-21.24c-5.73-2.9-12.5-6.62-18.971-3.9c-3.801,1.28-7.931,4.69-7.301,9.12
		c-0.399,3.37,4.061,4.51,6.511,3.27c2.229-0.95,2.119-3.79,2.971-5.73c2.31-0.64,5.079-0.81,6.75,1.27
		c2.27,3.84,3.21,8.37,3.449,12.79c-6.601,4.33-14.761,7.97-17.721,15.88c-3.409,8.61,3.261,19.74,12.82,19.45
		c4.62,0.56,7.66-3.76,9.72-7.26c0.63-0.1,1.9-0.29,2.53-0.39c0.109,1.88,0.2,3.76,0.33,5.64c4.52,0.28,9.489,0.46,13.1-2.75
		C348.64,88.39,348.57,87.32,348.53,86.79z M331.51,77.53c-1.12,2.63-2.921,5.03-5.131,6.84c-2.819,0.64-6.079,0.27-7.67-2.46
		c-0.46-2.67-0.89-5.93,1.101-8.1c2.771-3.36,6.489-5.77,10.41-7.58C330.83,69.95,332.27,73.74,331.51,77.53z"/>
	<path fill="#A32C00" d="M247.03,111.47c-7.67-1.6-14.7-6.6-17.98-13.83c2.711-3.8,6.601-6.45,9.91-9.66
		c3.48-3.38,6.971-6.74,10.471-10.09c-2.96-2.83-5.681-5.87-8.4-8.92c-5.44-6.2-16.53-6.16-21.62,0.46
		c-4.92,6.42-4.939,15.25-2.46,22.66c2.48,10.94,10.03,21.85,21.67,24.07c6.95,2.21,14.84,1.47,20.91-2.7
		c0.06-1.4,0.11-2.81,0.16-4.21C255.56,110.46,251.42,112.19,247.03,111.47z M223.76,77.13c0.789-3.17,3.84-6.23,7.31-5.71
		c3.15,1.74,5.29,4.76,7.68,7.37c-4.319,3.54-7.93,7.88-12.399,11.24C224.7,85.96,222.95,81.61,223.76,77.13z"/>
</g>
<path fill="#FEFEFD" d="M222.81,228.91c3.609-5.03,4.649-11.91,10.58-15.07c0.17,3.73-0.221,7.47-1.07,11.1
	c-1.2,3.72-4.04,6.95-3.97,11.03c-0.04,4.33-0.221,8.71,0.46,13.01c1.25,4.19,5.89,5.6,8.63,8.59c2.43,5.52-0.061,11.69,1.38,17.42
	c0.7,5.59,5.17,9.97,10.25,11.93c4.16,2.93,6.729,7.64,8.98,12.12c2.26,4.27,6.52,6.97,10.729,9.04c3.07,0.35,6.11,0.82,9.07,1.74
	c0.05,0.38,0.14,1.14,0.18,1.529c-2.02,0.17-4.71-0.689-5.97,1.41c-1.28,1.471-2.12,3.312-3.601,4.61
	c-4.25,0.42-8.05-2.89-12.39-1.841c-5.42,1.94-8.29,8.08-14.37,8.711c-5.12,0.108-10.07-2-14.399-4.65
	c0.039-0.58,0.109-1.74,0.149-2.33c2.92,1.78,6.38,4.01,9.88,2.34c4.74-4.669,9.61-9.97,11.04-16.668
	c0.15-3.97-1.25-8.61-5.02-10.54c-2.95-1.67-5.67-4.38-9.28-4.25c-5.28-0.34-11.17-0.1-15.26,3.68c-3.15,3.4-4.891,7.79-7.36,11.66
	c-1.5-4.35-0.52-9.06-1.7-13.48c-0.16-5-0.55-10.06,0.051-15.04c1.159-4.93,1.649-9.97,2.1-15c1.27-5.46,3.09-10.78,4.96-16.06
	C218.17,238.67,219.83,233.45,222.81,228.91z"/>
<path fill="#FEFEFD" d="M547.961,322.779c5.08-1.521,10.31-2.431,15.47-3.681c0.5,6.882-1.239,13.621-2.681,20.28
	c-2.479,6.761-2.399,14.2-5.51,20.761c-2.13,5.909-3.279,12.159-6.17,17.8c-1.979,5.811-4.83,11.239-7.229,16.881
	c-2.609-3.9-3.979-8.41-6.261-12.472c-4.93-5.379-13.279-6.648-19.909-3.938c-6.25,0.608-13.61-1.71-18.82,2.83
	c-0.609,4.528,3.37,8.699,7.49,10.119c3.659,0.78,7.47,0.381,11.13,1.131c2.62,1.91,3.99,5.89,1.899,8.68
	c-1.96,1.08-4.14,1.7-6.311,2.18c-4.609-2.52-9.869-3.479-14.479-5.948c-4.35-4.011-6.67-9.99-11.92-13.07
	c-4.101-2.21-8.199-4.439-12.25-6.76c0.359-1.87,0.761-3.73,1.141-5.601c-3.2-3.931-6.8-7.681-11.05-10.451
	c-2.58-1.778-7.24-0.459-8.61-3.539c1.98-1.649,4.551-2.489,7.13-2.359c3.761-0.399,6.131,3.62,9.881,3.29
	c5.47,1.08,10.84-0.79,15.54-3.49c4.979-3.149,7.021-10.16,13.5-10.979c7.399,0.45,14.59,4.359,22.101,2.569
	c3.659-1.239,7.5-2.81,9.89-6.01c3.301-4.391,6.49-8.859,9.521-13.439C543.12,325.43,545.24,323.41,547.961,322.779z"/>
<path fill="#FEFEFD" d="M209.39,326.359c0.609-0.021,1.85-0.061,2.46-0.091c1.979,3.69,2.979,7.94,5.779,11.15
	c7.271,6.66,17.811,8.46,27.32,6.971c4.8-0.909,9.83-0.189,14.43-2.141c2.391,3.07,5.16,5.82,8.641,7.641
	c-1.79,1.409-3.51,3.189-5.931,3.369c-4.67,0.312-9.38-1.039-14.029-0.27c-4.891,2.069-9.061,5.59-14.04,7.479
	c-4.03,0.681-5.7-3.921-8.7-5.649c-3.13-1.601-6.32-3.53-9.94-3.552C211.72,343.45,210.6,334.82,209.39,326.359z"/>
<path fill="#FEFEFD" d="M249.65,370.609c3.99-1.39,7.89,1.121,11.89,1.311c0.04,0.42,0.141,1.26,0.19,1.68
	c-9.141,5.92-19.46,12.021-30.79,10.78c-2.41-3.601-5.851-6.71-6.97-11.021c5.939,0.871,11.92,0.711,17.869,0.2
	C244.57,372.92,246.97,371.37,249.65,370.609z"/>
<path fill="#FEFEFD" d="M267.57,397.54c2.23-3.069,6.26-3.34,9.69-4.011c-0.46,1.371-1.171,2.641-2.261,3.631
	c-5.189,5.188-7.75,12.56-13.41,17.33c-2.779,2.608-6.97,2.47-10.46,1.778c-3.51-1.72-6.439-4.39-8.979-7.318
	c3.24-0.96,6.53-1.79,9.91-2.04C258.37,406.38,263.66,402.28,267.57,397.54z"/>
<path fill="#FEFEFD" d="M455.43,398.36c3.689-0.24,6.91,1.67,10.011,3.42c7.18,3.81,10.399,12.29,17.71,15.938
	c4.479,2.13,8.47,5.271,13.199,6.87c4.439,0.93,8.99,1.29,13.439,2.22c-7.529,6.882-16.04,12.562-24.859,17.62
	c-1.479,0.92-2.859-0.688-4.101-1.27c-3.84-2.63-8.08-4.59-12.09-6.94c-3.25-2.51-2.67-7.05-3.431-10.64
	c-1.67-4.74-3.89-9.45-3.88-14.58C461.31,406.09,457.41,402.57,455.43,398.36z"/>
<path fill="#FEFEFD" d="M293.21,426.25c5.561-1.76,8.88-6.94,13.95-9.55c0.609,6.1,1.16,12.229,1.021,18.37
	c-0.069,3.62,2.5,7.02,1.159,10.68c-2.64,5.7-7.75,9.77-13.239,12.56c-0.721,0.4-1.46-0.09-2.101-0.38
	c-4.59-2.55-8.34-6.34-12.979-8.818c-3.15-1.771-6.15-3.79-8.931-6.102c2.351-2.02,5.32-3.438,7.03-6.12
	c1.04-2.63,1.21-5.6,2.771-8.02C285.52,427.41,289.72,428.23,293.21,426.25z"/>
<path fill="#FEFEFD" d="M419.41,426.13c4.37-0.21,8.011,2.57,11.011,5.44c4.97,5.488,6.521,12.97,9.319,19.62
	c3.641,4.108,9.63,4.38,14.101,7.27c-3.2,2.29-6.351,4.96-10.261,5.91c-5.449,1.57-10.64,4.97-16.529,4.17
	c-3.641-2.49-7.75-4.58-10.49-8.13c-1.369-2.48-1.34-5.43-0.489-8.07C418.711,443.88,419.171,434.93,419.41,426.13z"/>
<path fill="#FEFEFD" d="M344.59,441.48c1.32-2.172,2.181-5.57,5.36-5.28c-0.86,4.72-3.311,9-3.07,13.96
	C345.84,447.43,343.51,444.53,344.59,441.48z"/>
<path fill="#FEFEFD" d="M369.79,450.06c0.351-3.828-0.06-8.368,3.2-11.108c2.95,5.18,5.51,10.97,4.521,17.08
	c-1.021,4.14-1.511,8.38-2.439,12.528c-1.09-3.829-1.4-7.92-3.221-11.52C370.82,454.84,369.45,452.59,369.79,450.06z"/>
<path fill="#FEFEFD" d="M337.32,470.6c3.97-2.63,7.27-5.988,9.609-10.158c-0.091,2.028,0.069,4.1-0.341,6.118
	c-1.04,1.722-2.449,3.182-3.72,4.74C341.02,471.05,339.17,470.81,337.32,470.6z"/>
<g>
	<path fill="#7A9FA6" d="M220.49,480.56c-5.75-6.25-11.45-12.528-17.38-18.6c-3.8-3.6-6-9.06-11.021-11.19
		c0.061,5.312,4.131,9.052,7.23,12.882c4.59,5.738,9.91,10.84,15.59,15.5c4.9,3.979,8.92,9.568,15.32,11.238
		C228.95,485.52,223.46,484.14,220.49,480.56z"/>
	<path fill="#7A9FA6" d="M180.26,444.49c0.439,1.22,0.88,2.438,1.34,3.67c3.069-2.22,5.729-5.07,7.279-8.562
		C185.68,440.6,183.04,442.7,180.26,444.49z"/>
	<path fill="#7A9FA6" d="M231.98,414.43c-7.66,0.182-13.271,6.28-17.83,11.762c3.46-2.25,6.81-4.762,10.7-6.24
		c-3.94,4.858-9.23,8.33-13.771,12.58c-0.42-1.142-0.84-2.271-1.25-3.4c-2.729,4.352-4.26,9.29-5.819,14.141
		c-2.54-0.399-5.091-0.711-7.66-0.739c3.359,6.54,9.35,11.148,13.029,17.46c-5.75-4.2-9.14-10.76-14.779-15.08
		c-0.5,1.38-1.09,3.09,0.17,4.29c2.37,3.25,5.35,5.99,7.84,9.14c8.75,9.7,16.49,21.2,28.89,26.61c-0.01-1.09-0.02-2.17-0.029-3.24
		c-6.48-4.81-12.721-10.229-17.49-16.79c6.689,3.312,10.06,10.97,17.45,13.271c1.569-15.352-0.771-31.45,5.47-46.012
		c2.01-4.5,5.66-7.948,9.609-10.75C241.62,419.11,237.99,413.43,231.98,414.43z M206.07,445.87c5.02,3.6,9.07,8.32,13.56,12.51
		c3.37,3.062,6.08,6.73,8.73,10.42C219.5,462.64,213.05,453.93,206.07,445.87z"/>
	<path fill="#7A9FA6" d="M213.95,481.04c-7.66-7.33-15.29-14.79-21.6-23.34c-1.32-1.78-2.88-3.36-4.54-4.8
		c1.149,9.13,9.229,14.898,14.989,21.29c4.221,5.13,9.23,9.5,14.271,13.8c3.15,2.56,5.92,6.278,10.4,6.22
		C224.1,488.77,218.47,485.4,213.95,481.04z"/>
	<path fill="#7A9FA6" d="M244.17,506.41c-0.93,1.148-0.68,1.81,0.75,1.96C245.85,507.2,245.6,506.55,244.17,506.41z"/>
	<path fill="#7A9FA6" d="M285.04,515.94c-8.42-3.62-16.689-7.66-24.439-12.562c-3.7-2.35-7.34-4.79-11.221-6.83
		c0.48,2.01,0.301,4.59,2.16,5.97c3.84,3.04,8.431,4.91,12.62,7.4c7.46,4.11,14.87,9.18,23.65,9.68
		C287.7,517.82,286.72,516.49,285.04,515.94z"/>
	<path fill="#7A9FA6" d="M250.08,504.3c0.17,1.32,0.351,2.65,0.54,3.99c5.95,3.07,12,5.93,17.79,9.3
		c5.67,3.15,11.55,6.75,18.29,6.55c-0.03-0.63-0.07-1.89-0.09-2.528C273.44,518.23,262.1,510.34,250.08,504.3z"/>
	<path fill="#7A9FA6" d="M262.25,516.54c-3.979-2.05-7.83-4.35-11.75-6.48c-0.01,1.012-0.029,3.052-0.04,4.062
		c5.681,3.59,11.5,7.09,17.82,9.46c6.51,1.52,11.84,5.92,18.33,7.56c-0.01-0.72-0.03-2.14-0.04-2.85
		C279.06,523.19,270.31,520.55,262.25,516.54z"/>
	<path fill="#7A9FA6" d="M425.37,516.71c0.03,1.61,0.091,3.23,0.149,4.86c13.061-2.65,25.9-6.63,38-12.24
		c-0.119-1.01-0.369-3.021-0.489-4.03c-5.649,2.182-10.99,5.13-16.819,6.84C439.49,514.66,432.341,515.3,425.37,516.71z"/>
	<path fill="#7A9FA6" d="M454.841,472.17c1-1,0.989-3.87-0.601-4.16C453.2,468.98,453.301,471.85,454.841,472.17z"/>
	<path fill="#7A9FA6" d="M457.22,478.36c1.141,7.81,5.33,14.92,5.59,22.88c0.71-0.32,2.12-0.95,2.82-1.271
		C463.78,492.56,464.2,483.22,457.22,478.36z"/>
	<path fill="#7A9FA6" d="M263.16,497.64c-4.01-3.05-8.99-4.1-13.55-5.988c0.07,1.1,0.14,2.22,0.22,3.33
		c5.34,2.988,10.9,5.688,15.65,9.608c5.53,4.48,12.76,5.65,18.87,9.062c2.25,1.35,4.89,1.448,7.439,1.56
		c-0.05-0.7-0.16-2.08-0.22-2.78C281.44,508.87,272.01,503.69,263.16,497.64z"/>
	<path fill="#7A9FA6" d="M182.6,425.53c-0.57-2.83-1.58-5.53-2.84-8.11c-1.83-3.77-2.7-7.89-4.271-11.76
		c-2.54-6.102-4.79-12.37-6-18.881c-1.06-6.399-3.67-12.5-3.88-19.039c3.04,5.569,3.33,12.06,5.16,18.039
		c2.09,6.811,4.12,13.681,7.2,20.121c2.109,4.698,2.85,9.97,5.6,14.39c0.68,1.33,2.22,1.68,3.45,2.34
		c-0.41-2.17-0.99-4.3-1.681-6.39c1.54,1.318,3.051,2.71,4.86,3.64c2.54-0.688,4.38-2.7,6.28-4.41
		c3.649-3.63,8.38-6.479,10.34-11.479c3.45-7.91,8.87-15.562,17.3-18.62c-8.1-10.37-13.18-22.87-15.88-35.681
		c-1.74-6.171-3.729-12.3-4.83-18.619c-0.32-9.03-1.34-18.03-1.18-27.07c0.1-11.35-0.811-22.8,0.99-34.05
		c2.35-9.43,3.55-19.16,7.1-28.27c3.51-9.32,6.77-18.84,12.02-27.35c4.771-8.86,10.061-17.59,17.131-24.83
		c6.25-7.09,12.54-14.25,20.08-20.03c4.449-3.5,8.119-7.89,12.77-11.15c10.21-8.39,22.51-13.57,34.15-19.61
		c7.739-2.98,16.189-3.88,23.779-7.38c-5.41-0.36-10.75,0.7-16.01,1.81c-10.41,2-20.729,4.73-30.54,8.81
		c-12.42,3.96-23.46,11.05-35.08,16.8c-3.92,2.01-7.5,4.58-11.29,6.8c-7.28,4.06-12.96,10.28-19.74,15.03
		c-8.689,7.26-16.81,15.34-23.529,24.47c-5.78,8.56-12.261,16.66-17.011,25.87c-3.149,6.77-7.819,12.74-10.199,19.88
		c-6.721,14.42-9.84,30.11-14.051,45.37c-1.409,4.83-2.51,9.76-3.199,14.74c-1.96,22.39-0.301,44.93,2.67,67.149
		c1.939,10.699,5.12,21.131,8.229,31.529c1.28,4.642,4.021,8.65,6.021,12.98c1.6,2.96,3.13,6.68,6.89,7.278
		c-2.24-6.75-6.27-12.72-8.82-19.358c-3.939-7.88-4.489-16.801-6.649-25.222c-0.95-6.659-2.91-13.129-3.7-19.818
		c0.53-0.021,1.58-0.061,2.11-0.08c0.46,5.439,1.279,10.851,2.8,16.101c1.47,5.271,1.53,10.851,3.38,16.029
		c2.93,9.26,6.08,18.6,11.08,26.98c0.7,0.35,2.09,1.028,2.78,1.38c-1.28-6.262-4.561-11.87-5.95-18.102
		c4.189,4.91,5.51,11.46,9.05,16.79C180.27,424.79,181.82,425.28,182.6,425.53z M154.65,359.32c-2.83-4.49-2.4-9.851-2.15-14.9
		c0.561-0.05,1.67-0.15,2.221-0.199C154.48,349.25,154.73,354.279,154.65,359.32z M152.31,337.529
		c0.13-2.579,0.41-5.149,1.029-7.659c0.551,2.53,1.051,5.06,1.44,7.62C154.16,337.5,152.92,337.52,152.31,337.529z M155.01,313.16
		c-0.94,3.34-1.44,6.79-2.32,10.149c-0.24-3.041-0.47-6.12,0.01-9.141c1.46-6.83,1.62-13.84,2.96-20.69c0.5-0.02,1.5-0.07,2-0.09
		C156.4,299.95,157.39,306.83,155.01,313.16z M158.6,353.27c-0.141-2.18-0.11-4.358,0.05-6.52
		C159.94,348.779,160.07,351.279,158.6,353.27z M162.59,379.37c-2.85-4.011-2.859-9.2-2.79-13.92
		C162.44,369.59,163.6,374.52,162.59,379.37z M163.31,385.63c3.89,4.99,5.71,11.352,6.279,17.57
		C165.54,398.28,165.11,391.54,163.31,385.63z"/>
	<path fill="#7A9FA6" d="M464.51,502.66c-0.21,1.67-0.37,3.35-0.5,5.04c0.939,0.3,1.891,0.6,2.851,0.91
		C466.58,506.45,466.051,504.28,464.51,502.66z"/>
	<path fill="#7A9FA6" d="M261.33,460.34c2.26-4.26,6.88-6.85,8.38-11.55c-5.279-0.56-9.37,3.6-11.83,7.77
		c-0.42,2.142,0.091,4.4-0.729,6.472c-1.96,4.938-5.13,9.43-6.07,14.738c-0.43,3.271-0.38,6.57-0.6,9.86
		c0.439-0.02,1.33-0.06,1.78-0.09C252.92,477.93,256.4,468.57,261.33,460.34z"/>
	<path fill="#7A9FA6" d="M342.87,471.3c-1.851-0.25-3.7-0.49-5.55-0.7l-1-0.1C338.13,472.66,340.59,472.73,342.87,471.3z"/>
	<path fill="#7A9FA6" d="M427.551,528.27c12.92-4.828,26.529-7.88,38.96-14c0.189-0.988,0.391-1.979,0.601-2.948
		c-6.12,1.34-12.141,3.12-17.79,5.85c-7.95,2.57-16.101,4.95-24.471,5.562c0.37,3.328,0.78,6.67,0.86,10.028
		c2.59,0.2,5.18,0.312,7.771,0.45c-2.82,1.21-5.65,2.41-8.461,3.65c0.471,0.528,1.421,1.58,1.891,2.108
		c8.62-3.409,18.021-5.06,25.931-10.13c5.109-3.66,11.609-4.95,16.029-9.648c-0.521-0.602-1.54-1.79-2.061-2.381
		C453.801,520.81,441.53,528.36,427.551,528.27z"/>
	<path fill="#7A9FA6" d="M450.591,508.68c3.95-1.438,8.2-2.938,11.08-6.148c0.35-3.37-1.33-6.472-2.341-9.58
		c-2.439-6.08-2.79-13.08-6.89-18.432c-1.551-2-3.57-4.528-6.431-3.948c-5.54,0.8-10.58,3.528-16.021,4.81
		c0.3,3.76,1.13,7.57,0.41,11.33c-1.271,4.53-5.11,7.85-6.341,12.39c-0.229,2.87,0.351,5.73,0.57,8.602
		c9.67-0.13,19.029-3.01,28.34-5.37c-2.38,1.06-4.729,2.189-7.101,3.26c-6.8,3.15-14.34,3.95-21.649,5.181
		c0.13,0.891,0.25,1.779,0.38,2.681C433.5,513.87,442.12,511.03,450.591,508.68z"/>
	<path fill="#7A9FA6" d="M393.93,540.25c-12.859,0.82-25.75,0.24-38.62,0.28c-0.011-0.32-0.04-0.96-0.061-1.28
		c4.58-0.37,9.17-0.37,13.761-0.3c10.159,0.46,20.391-0.46,30.359-2.37c2.101,0,1.971-2.12,2.36-3.62
		c-9.591,0.78-19.222,0.271-28.78,1.36c-5.79-0.271-11.53-1.23-17.229-2.222c13.739-1.988,27.909,1.23,41.521-1.96
		c-1.32-1.21-2.28-3.278-4.33-3.148c-7.061-0.5-14.32,1.229-21.2-1.03c7.74-1.14,15.641-0.95,23.38-2.15
		c0.2-0.5,0.62-1.51,0.83-2.01c-7.449-1.819-15.27-0.66-22.859-1.24c0.221-0.42,0.671-1.26,0.891-1.68
		c7.21,1.34,14.54-0.04,21.72-0.979c-1.89-2.32-5.06-1.512-7.649-1.65c-4.159,0.21-8.271-0.64-12.181-2
		c6.091-1.14,12.4-0.17,18.4-1.94c0.2-6.93,0.859-15.17-5.2-20.01c0.24,1.97,0.55,3.94,0.95,5.9c-0.561,0.17-1.13,0.34-1.681,0.529
		c-2.471-5.25-3.471-11.011-5.761-16.311c-15.02-0.89-30.608,1.12-45.1-3.96c-2.97-1.07-6.71-1.6-9.07,0.99
		c-5.159,5.438-7.31,12.92-9.148,20.01c4.398,1.58,9.108,2.25,13.27,4.46c-4.399-0.2-8.72-1.06-13.109-1.4
		c-0.011,0.73-0.029,2.19-0.04,2.921c1.471,0.391,2.931,0.79,4.399,1.229c-2.42,1.24-4.859,2.42-7.25,3.71
		c-0.04,0.51-0.12,1.54-0.16,2.05c1.45,0.86,2.892,1.71,4.32,2.62c-2.59,0.16-5.18,0.24-7.771,0.48
		c-0.101,0.51-0.301,1.55-0.399,2.068c9.21,2.972,18.87,3.65,28.22,5.96c7.94,1.012,15.98,0.78,23.971,0.87
		c0.04,0.562,0.109,1.681,0.149,2.24c-7-0.42-14.08,0.86-21-0.62c-4.59-0.87-9.18-1.819-13.859-1.99
		c-7.649-0.159-14.811-3.68-22.511-3.318c0.021,0.71,0.051,2.119,0.07,2.83c13.58,5.02,28.05,7.148,42.45,7.938
		c1.39-0.069,2.52,0.74,3.648,1.44c-3.869,0.34-7.75-0.051-11.619,0.05c-11.761,0.57-22.819-4.44-34.33-5.8
		c-0.189,1.21-0.359,2.42-0.529,3.64c10.63,3.101,21.33,5.95,32.398,6.95c0,0.43,0,1.3,0,1.729c-4.358-0.38-8.75-0.56-13.029-1.539
		c-6.891-1.761-14.101-1.961-20.851-4.351c-0.109,1.59-0.22,3.19-0.319,4.8c6.689,0.92,13.229,2.602,19.819,4.07
		c18.4,3.229,37.221,5.32,55.87,3.109c7.13-0.771,14.561,0.021,21.42-2.42c0.051-0.569,0.141-1.689,0.181-2.25
		C400.18,538.73,396.82,540.18,393.93,540.25z M323.05,495.27c1.48-6.398,4.352-13.238,10.432-16.52
		C331.15,484.8,328.15,491.07,323.05,495.27z M329.91,499.09c1.04-0.92,3.939-0.97,4.21,0.65
		C333.1,500.74,330.26,500.61,329.91,499.09z M334.82,513.88c-4.431-1.07-9.11-1.28-13.32-3.16c5.21-0.738,10.28,0.96,15.45,1.262
		c8.16,0.578,16.21,2.1,24.33,3.02c-2.4,0.8-4.931,1.479-7.48,0.95C347.5,514.96,341.04,515.4,334.82,513.88z M354.81,519.96
		c4.83-1.03,9.87-0.87,14.671,0.21C364.68,521.32,359.48,522.09,354.81,519.96z M342.7,539.06c2.28-0.318,4.58-0.479,6.88-0.64
		c0.01,0.58,0.03,1.74,0.04,2.311C347.23,540.57,344.88,540.07,342.7,539.06z"/>
	<path fill="#7A9FA6" d="M561.98,395.279c2.739-2.459,3.38-6.021,2.199-9.449C563.02,388.859,562.25,392.04,561.98,395.279z"/>
	<path fill="#7A9FA6" d="M572.35,316.029c-0.369-4.93-0.34-10.449-3.859-14.349c-0.16,8.76,0.91,17.53,0.061,26.28
		c-0.811,7.149-0.83,14.479-3.2,21.351c-3.569,10.25-5.29,21.119-9.771,31.061c-3.21,7.22-6.229,14.72-11.479,20.75
		c-4.08,4.7-5.439,11-8.88,16.11c-3.899,5.828-9.021,10.858-14.939,14.64c0.689-1.66,1.479-3.271,2.33-4.84
		c-2.551,2.148-6.32,0.47-8.641,2.84c-5.8,4.88-11.489,9.91-17.66,14.32c-4.56,2.8-9.29,5.3-13.869,8.079
		c0.159,5.729-1.479,11.221-2.561,16.779c1.149,6.05,3.819,11.73,4.899,17.83c7.239-4.229,12.569-10.82,18.859-16.22
		c3.851-3.47,6.67-7.86,10.25-11.58c-2.021,2.62-4.21,5.11-6.189,7.76c-6.229,8.88-14.46,16.11-22.439,23.37
		c-1,1.04-0.79,2.67-1.189,3.98c1.779-0.352,3.59-0.86,4.939-2.16c5.63-4.682,10.87-9.83,15.899-15.142
		c4.13-4.229,7.33-9.34,12.011-13.028c-3.931,5.71-8.311,11.108-12.57,16.568c-5.771,6.2-11.729,12.262-18.391,17.512
		c-1.6,1.1-1.93,3.05-2.359,4.81c5.229-1.03,8.591-5.41,12.37-8.75c4.939-4.4,9.83-8.85,14.511-13.52
		c5.09-5.682,9.369-12.012,14.079-17.98c3.601-4.42,5.931-9.82,10.32-13.6c-2.08,4.1-4.851,7.79-7.641,11.43
		c-6.88,9.63-12.96,20.03-21.71,28.15c-6.521,6.31-13.011,12.84-20.899,17.43c0.189,0.72,0.55,2.16,0.729,2.88
		c1.42,0.02,2.85,0.05,4.279,0.08c2.49-6.352,9.13-8.99,13.79-13.43c4.601-3.75,7.66-8.972,12.109-12.87
		c6.011-5.21,9.75-12.352,14.341-18.722c3.289-4.158,6.239-8.59,8.699-13.29c8.229-12.97,14.87-26.93,19.689-41.52
		c1.351-4.59,3.979-9.06,3.25-14.011c-1.311,2.831-2.479,5.761-4.34,8.301c1.061-7.22,4.271-13.859,6.521-20.74
		c0.681,1.03,1.359,2.08,2.05,3.131c2.721-8.801,4.011-17.931,5.931-26.909C573.22,344.6,572.51,330.279,572.35,316.029z
		 M534.58,425.52c3.49-5.5,6.15-11.55,10.41-16.538c-3.279,8.56-7.99,16.5-12.971,24.17c-2.659,4.47-5.109,9.158-8.92,12.8
		C527.28,439.33,530.33,432.09,534.58,425.52z M553.91,400.88c-1.22,5.53-4.069,10.47-6.58,15.49c-1.22,2.47-2.84,4.729-4.659,6.8
		C544.81,415.07,549.51,407.92,553.91,400.88z M526.43,452.46c-1.181,2.14-3.141,3.63-5.199,4.86
		c6.699-9.642,11.81-20.36,19.489-29.302C536.801,436.64,531.32,444.39,526.43,452.46z M538,443.87
		c3.421-8.602,8.011-16.66,12.131-24.94c1.72-3.488,3.04-7.238,5.5-10.33C552.1,421.34,545.79,433.25,538,443.87z M556.41,397.34
		c-0.66,0.09-1.979,0.28-2.641,0.38c1-2.068,2.011-4.13,3.11-6.14C556.76,393.5,556.591,395.42,556.41,397.34z M569.66,351.34
		c-0.41-2.92-0.319-5.899,0.67-8.688C570.7,345.561,570.67,348.55,569.66,351.34z"/>
	<path fill="#7A9FA6" d="M292.85,464.37c-2.98-4.4-8.641-5.54-12.71-8.65c-2.62-1.29-5.351-4.59-8.471-3.18
		c-7.189,5.24-9.84,14.14-13.449,21.84c-2.591,5.01-4.16,10.55-4.181,16.22c7.28,4.7,14.21,10.092,22.34,13.29
		c5.62,2.13,10.891,6.25,17.21,5.44c-1.329-1.43-2.739-2.84-4.579-3.54c-6.301-2.66-12.29-6.01-17.931-9.87
		c9.4,1.562,16.311,10.312,26.221,9.771c2.52-9.552-1.841-18.87-2.32-28.36C294.53,472.99,294.43,468.48,292.85,464.37z
		 M257.03,486.78c2.48,0.729,4.83,1.96,6.29,4.18C261.09,489.77,258.99,488.36,257.03,486.78z"/>
</g>
</svg>
