<?xml version="1.0" encoding="utf-8"?>
<!-- Generator: Adobe Illustrator 15.1.0, SVG Export Plug-In . SVG Version: 6.00 Build 0)  -->
<!DOCTYPE svg PUBLIC "-//W3C//DTD SVG 1.1//EN" "http://www.w3.org/Graphics/SVG/1.1/DTD/svg11.dtd">
<svg version="1.1" id="Layer_1" xmlns="http://www.w3.org/2000/svg" xmlns:xlink="http://www.w3.org/1999/xlink" x="0px" y="0px"
	 width="629px" height="629px" viewBox="0 0 629 629" enable-background="new 0 0 629 629" xml:space="preserve">
<path fill="#231F20" d="M577.95,320.34c-0.811-5.99-1.59-12.04-3.641-17.76c-1.56-3.07-2.93-6.22-4.149-9.43
	c-1.43,1.27-2.94,2.46-4.24,3.87c-1.32,3.42-1.03,7.18-1.6,10.76c-4.87-0.19-9.42-3.12-14.391-2.04
	c-9.91,2.48-20.649,5.7-26.939,14.359c-2.05,2.391-3.021,6.83-6.931,6.521c-7.01,0.86-12.6-4.36-19.04-6.05
	c-4.17-0.42-9.279-1.66-12.51,1.85c-3.87,3.1-6.55,9.63-12.49,8.17c-5.449-3.58-9.76-9.9-17.039-9.52c1.17-2.85,2.26-5.75,3.75-8.44
	c1.72-2.03,4.689-2.06,6.96-3.2c3.51-1.64,7.21-3.06,10.329-5.38c2.761-3.27,5.41-6.75,7.301-10.62c0.64-3.98,0.31-8.17,2.02-11.94
	c1.41-2.94,1.86-6.51,4.43-8.75c3.53-3.16,7.091-6.38,11.461-8.35c5.93-2.82,10.119-7.95,14.09-12.98
	c1.97-7.52,1.529-15.49,4.29-22.83c1.02-4.99,2.949-9.8,6.63-13.44c1.439-1.83,3.63-3.72,2.899-6.33
	c-10.25,0.3-20.939,4.85-26.59,13.72c-2.18,4.85-2.68,10.26-3.68,15.45c-0.74,6.56-6.32,11.76-12.601,13.19
	c-7.989,1.93-16.56,4.45-22.06,10.95c-2.08,3.91-2.91,8.36-4.62,12.43c-2.359,3.75-5.609,8.11-10.52,8
	c-6.34-0.21-12.71-0.81-19.03-0.06c-3.37,0.69-6.39,2.46-9.36,4.11c0.4-3.59-0.09-7.14-1.819-10.34c-2.11-3.94-1-8.39,0.27-12.38
	c0.811-6.47,7.59-9.64,9.39-15.73c3.721-7.26,0.2-15.38,1.301-23.03c2.35-6.13,8.13-10.07,11.46-15.59
	c2.569-5.43,4.33-11.46,3.87-17.51c-0.53-8.36-0.381-16.75-0.881-25.11c-4.529,3.49-6.779,8.79-10.159,13.23
	c-2.88,5.04-3.021,10.97-4.601,16.43c-3.22,7.89-11.92,11.47-15.93,18.81c-1.061,2.52-1.38,5.28-2.43,7.81
	c-2.521,5.49-0.141,12.19-3.79,17.31c-2.36,4.54-8.021,5.82-10.58,10.16c-2.431,3.83-4.83,7.68-6.92,11.69
	c-1.42-3.39-2.69-6.84-4.21-10.19c-2.5-6.81-7.721-12.35-9.49-19.48c-0.94-4.07-1.37-8.79,1.43-12.27
	c2.38-3.12,2.67-7.14,4.25-10.64c2.351-4.94,1.19-10.56,1.8-15.82c0.48-8-6.96-13.34-7.699-21.03c-0.41-3.34-1.91-6.53-1.7-9.94
	c0.31-4.29,3.069-7.81,5.79-10.93c3.21-3.27,3.04-8.44,6.34-11.65c2.64-2.66,4.229-6.11,5.399-9.61c-3.8-0.65-7.659-0.05-10.89,2.11
	c-5.41,3.44-11.41,6.69-14.83,12.34c-4,6.38-10.74,11.62-11.2,19.7c-0.05,9.09-1.279,18.42,1.28,27.3
	c0.89,6.13,0.68,12.47-0.479,18.55c-2.351,7.49-7.221,13.82-10.66,20.78c-4.38,11.54,1.64,23.57-0.59,35.33
	c-0.82,2.53-2.15,4.86-3.49,7.15c-2.271-2.16-3.68-4.97-5.55-7.43c-4.08-3.15-9.101-5.36-12.25-9.58
	c-2.66-5.48-0.78-11.77-1.851-17.53c-3.51-7.58-9.38-13.86-16.17-18.64c-3.33-2.17-3.16-6.45-2.23-9.86
	c2.05-6.19,0.28-12.71,0.64-19.05c0.25-3.02-1.33-5.74-1.78-8.66c-1.5-5.79-0.64-11.93-2.67-17.61c-1.97,2.42-3.6,5.1-4.64,8.06
	c-1.99,5.39-5.79,10.26-5.84,16.24c-0.82,6.71,1.63,13.69-0.98,20.17c-0.57,7.1-1.3,14.56,1.3,21.37
	c2.47,6.24,8.28,10.729,10.12,17.24c1.64,5.26-2.67,9.93-1.74,15.21c-0.62,7.26,4.97,12.47,8.63,18.02
	c1.37,1.81,2.831,4.48,1.06,6.56c-3.49,0.72-6.23-2.02-9.25-3.23c-6.92-3.34-14.76-0.45-21.98-1.93c-2.47-1.91-1.06-5.82-3.41-7.78
	c-3.31-3.52-8.23-4.41-12.36-6.61c-2.73-0.59-4.1-3.81-3.14-6.32c1.42-4.74-0.29-9.83-2.54-14.02c-3.79-3.66-8.24-6.92-10.65-11.75
	c-1.95-4.74,3.17-8.27,2.97-12.85c0.73-7.34-2.65-14.17-4.4-21.07c3.27-11.62,12.91-19.43,20.32-28.37c2.75-2.62,5.8-4.92,8.55-7.55
	c7.41-6.81,16.08-11.97,24.53-17.35c5.14-3.19,11-4.85,16.4-7.55c4.48-2.37,9.55-3.15,14.27-4.91c2.921-0.9,5.49-2.73,8.53-3.29
	c3.391-0.74,6.65-2.23,9.37-4.4c-7.37-0.83-14.84-0.35-22.229-0.01c-4.061,0.83-8.15,1.41-12.25,2.01
	c-9.811,2.47-19.911,3.92-29.42,7.45c-12.45,3.439-24.03,9.49-35.07,16.1c-8.48,4.56-16.21,10.37-23.76,16.3
	c-9.23,6.98-18.05,14.7-25.1,23.93c-4.28,4.48-7.95,9.48-11.73,14.37c-5.15,6.65-8.92,14.21-13.94,20.96
	c-4.84,5.97-6.49,13.74-10.91,19.99c-2.6,3.54-3.2,8-3.53,12.26c-0.08-0.96-0.16-1.92-0.25-2.87c-0.62,3.67-2.22,7.03-3.68,10.42
	c-3.12,10.69-5.74,21.53-7.61,32.5c-2.1,5.57-1.4,11.62-2.45,17.39c-1.16,5.8-0.47,11.75-0.67,17.62
	c0.17,9.35-0.78,18.84,1.37,28.04c0.92,19.729,5.91,39.2,13.39,57.45c1.21,3.88,2.2,7.819,3.49,11.67
	c1.67,5.22,0.18,10.64-0.43,15.899c-2.72,11.07-6.9,21.851-13.51,31.2c8.22-3.41,13.11-11.3,18.7-17.779c3.55-1.53,7.83-0.24,9.93,3
	c5.1,7.42,12.02,13.359,16.91,20.96c2.47,4.42,7.1,6.979,9.67,11.329c4.42,5.171,9.88,9.4,15.53,13.16
	c0.55,5.801-0.37,11.7-2.98,16.931c-1.56,2.67-4.44,4.08-6.64,6.13c-5.04,3.88-5.7,10.66-9.19,15.67
	c-2.05,7.07-2.15,15.02,1.25,21.729c3.91-5.739,6.71-12.14,10.08-18.199c2.96-4.41,7.87-6.83,11.94-10.04
	c3.6-2.801,7.66-4.96,11.17-7.891c1.13-0.779,2.23-1.97,3.73-1.859c5.31-0.23,9.03,4.18,13.66,6.05c10.32,4.33,20.11,10,30.83,13.31
	c-1.93,3.271-5.27,5.36-7.27,8.59c-2.17,3.03-2.42,6.87-3.51,10.32c-0.92,3.37-2.77,6.66-2.07,10.271c0.54,3.09,0.86,6.27,2.03,9.21
	c2.04,4.21,4.71,8.27,5.21,13.04c0.4,0.079,1.21,0.26,1.61,0.35c0.58-4.59,0.13-9.45,2.19-13.72c2.82-6.141,6.66-12.011,12.22-15.99
	c5.01-4.19,10.79-7.44,15.34-12.16c3.91,1.04,7.99,1.271,11.84,2.561c6.58,2.029,13.561,1.649,20.33,2.52
	c5.11,1.19,10.41,0.47,15.57,1.25c8.66,0.95,17.4,0.57,26.03-0.4c8.76,0.221,17.319-2.29,26.09-1.85c3.02-0.08,5.22,2.08,7.55,3.66
	c6.93,5.39,15.58,8.2,24.33,8.39c7.47,0.09,14.71,3.13,20.36,7.95c3.33,2.77,5.96,7.16,10.689,7.53c4.9,0.47,10.57-0.25,13.94-4.25
	c2.51-3.04,5.52-5.57,8.38-8.271c-5.55-0.67-10.771,2.4-16.311,1.51c-4.46-1.55-7.18-5.71-10.569-8.739
	c-3.03-4.34-6.69-8.271-11.59-10.5c-4.86-3.351-10.841-3.79-16.471-4.9c-0.029-0.76-0.05-1.52-0.069-2.28
	c8.63-1.63,16.729-5.08,24.729-8.609c4.07-1.88,7.63-4.95,12.08-5.95c2.47-0.05,5.5,0.44,6.78,2.85
	c3.43,5.021,7.149,10.54,13.189,12.591c5.42,0.89,11.11,0.789,16.48-0.33c4.27-2.69,10.21-3.49,12.479-8.54
	c3.04-3.341,2.721-8.051,1.99-12.181c-0.85-3-3.25-5.18-5.7-6.93c-3.54-2.43-6.33-5.81-8.56-9.45c-0.68-1.06-0.78-2.53-0.13-3.609
	c1.79-3.25,3.479-6.561,5.47-9.69c10.71-11.45,19.92-24.2,28.311-37.41c3.51-7.29,8.25-13.899,11.829-21.16
	c3.4-7.89,7.461-15.5,10.5-23.54c2.471-8.13,5.561-16.069,7.711-24.3c1.35-7.15,3.47-14.119,4.71-21.3
	c3.619-10.729,1.59-22.21,2.739-33.271C582.23,338.67,579.23,329.51,577.95,320.34z M334.53,343.99
	c-2.011-0.971-2.181-3.87-2.84-5.82c2.569-0.66,5.109-1.42,7.659-2.17c1.521,2.721,3.07,5.43,4.771,8.05
	C340.92,344.15,337.72,344.13,334.53,343.99z M346.97,336.51c-0.83-1.26-0.859-2.82-1.189-4.24c3.01-0.399,7.27-1.17,8.26,2.711
	C351.91,336.32,349.48,337.01,346.97,336.51z M363.19,345.641c-1.761-0.561-3.511-1.101-5.28-1.58c1.109-2.24,2.25-4.471,3.31-6.74
	c1.2,0.08,2.41,0.199,3.61,0.369c0.83,1.23,1.27,2.681,1.88,4.041C365.54,343.04,364.35,344.32,363.19,345.641z M394.96,343.79
	c0.271-1.49,0.56-2.97,0.84-4.46c0.891,1.52,1.8,3.02,2.69,4.561C397.6,343.859,395.84,343.811,394.96,343.79z M404.77,339.811
	c-0.369-0.771-1.119-2.301-1.489-3.061c1.35-1.35,2.41-3.779,4.7-3.27c1.31,0.35,2.43,1.16,3.63,1.779c0.02,0.67,0.08,2.01,0.1,2.69
	C409.68,339.439,407.23,339.779,404.77,339.811z M421.53,346.66c-3.181,0.9-6.521,0.561-9.771,0.64c1.9-2.87,3.86-5.72,5.11-8.95
	c3.59-0.149,7.84-1.1,10.2,2.44C425.25,342.77,423.82,345.18,421.53,346.66z"/>
<g>
	<path fill="#D8AE34" d="M407.33,318.23c-5.5,0.299-9.53,4.25-13.33,7.76C399.1,325.12,404.46,322.71,407.33,318.23z"/>
	<path fill="#D8AE34" d="M432.64,330.16c-1.02,0.279-2.04,0.57-3.04,0.869c1.42,2.711,3,5.33,4.7,7.871
		c-2.89,1.47-5.31,3.649-6.59,6.67c2.94,1.49,6.22,1.56,9.44,1.439c0-0.689,0-2.05,0.01-2.74c-2.19,0.131-4.391,0.221-6.57,0.19
		c2.25-1.55,4.99-1.95,7.61-2.45C436.53,337.971,434.75,333.99,432.64,330.16z"/>
	<path fill="#D8AE34" d="M428.65,352.58c-0.4-0.95-0.79-1.891-1.19-2.83c3.09,0.04,6.19,0.04,9.26-0.4
		c-3.76-0.47-9.84-2.649-11.41,2.291c-7.109-0.531-14.06-2.5-21.22-2.371c-3.24,0.15-6.06-1.879-9.29-1.85
		c2.601,5.99,9.79,5.43,15.21,5.641c9.32,0.6,18.721,2.31,28.05,0.989c0.261-0.55,0.771-1.649,1.021-2.19
		C435.66,352.66,432.15,353.25,428.65,352.58z"/>
	<path fill="#D8AE34" d="M391.99,336.689c5.35,0.061,8.54-4.959,13.279-6.609c6.33-2.939,13.521-1.54,19.561,1.41
		c0.979-0.6,1.97-1.2,2.97-1.79c0.061-4.88,0.061-9.78-0.24-14.66c-5-3.3-10.54-5.98-16.59-6.5c-2.26-0.22-4.02,1.5-5.859,2.51
		c5.81,0.53,11.699,1.14,17.189,3.24c-6.14-0.7-12.35-0.68-18.479,0.17c-0.17,0.58-0.521,1.74-0.7,2.319
		c4.39,0.021,8.78-0.079,13.16,0.261c-1.511,0.84-3.04,1.649-4.55,2.479c4.55,1.771,11.14,2.23,12.539,7.891
		c-3.949-1.52-7.92-3.48-12.26-3.28c-5.1-0.3-9.859,1.75-14.35,3.89C397.84,331.95,394.18,334,391.99,336.689z"/>
	<path fill="#D8AE34" d="M340.51,455.67c1.67-4.6-1.24-9.03-1.859-13.52c1.189-3.381,4.619-7.78,1.39-10.99
		c-4,3.05-4.05,8.77-5.7,13.189c-0.52,0.061-1.57,0.16-2.09,0.221c1.25-4.32,2.9-8.91,1.86-13.42c-0.261-1.69-2.811-1.79-3.19-0.061
		c-4.91,6.13-2.229,14.29-3.5,21.38c-2.82-2.93-2.83-7.149-3.45-10.91c-0.77-5.189,3.11-10.239,0.99-15.329
		c-0.57,0.13-1.72,0.38-2.29,0.51c-1.25,3.069-2.45,6.16-3.95,9.12c-0.979-4.641,0.71-9.141,1.86-13.561
		c-2.521-0.479-5.05-0.93-7.59-1.26c-1.82,7.4,0.8,14.68,1.67,21.979c0.78,5.25-2.15,10.341-6.17,13.511
		c-4.18,3.26-8.26,7.31-9.69,12.56c-1,10.71,3.04,21.09,2.81,31.78c-0.36,5.97-5.24,10.04-7.62,15.17
		c-3.38,7.89-5.33,16.41-5.03,25.02c0.22,5.141-1.75,10-4.39,14.301c-2.76,4.83-7.34,8.399-9.57,13.56
		c-2.86,6.96-5.65,15.021-1.92,22.25c1.38-2.97,1.65-6.28,2.92-9.27c2.36-4.4,5.54-8.301,8.85-12.011
		c3.61-4.02,8.11-7.35,10.66-12.21c2.14-4.189,3.53-8.71,4.84-13.21c1.46-7.21-0.36-14.64,0.88-21.85
		c1.13-6.62,6.03-11.54,9.28-17.14c2.63-5.591-0.68-11.671,0.561-17.45c0.85-3.59,1.5-7.351,3.37-10.57
		c5.069-6.75,14.18-8.18,19.979-14.08C336.69,461.04,339.23,458.73,340.51,455.67z M307.12,479.1c0.36-1.88,0.8-3.739,1.26-5.58
		c0.62,0.021,1.86,0.07,2.47,0.101C310.36,475.91,309.1,477.82,307.12,479.1z M313.78,469.93c-0.66,0-1.99-0.01-2.66-0.01
		c0.149-0.6,0.439-1.81,0.59-2.41c1.04-0.229,2.08-0.46,3.13-0.67C314.49,467.86,314.13,468.9,313.78,469.93z M319.8,464.45
		c0.49-2.88,2.351-5.181,4.76-6.71C323.55,460.33,322.72,463.4,319.8,464.45z"/>
	<path fill="#D8AE34" d="M440.13,365.189c-6-0.949-12.09-0.08-18.13-0.189c-7.78,0.1-15.67-0.65-23.36,0.779
		c1.32,0.98,2.65,2.221,4.431,2.181c6.96,0.86,13.96-0.09,20.949,0.17c5.761-0.021,11.561,0.181,17.271-0.729
		C441,366.85,440.42,365.74,440.13,365.189z"/>
	<path fill="#D8AE34" d="M420,360.33c-7.25-0.62-14.49,0.25-21.74,0.17c-0.02,0.41-0.06,1.221-0.08,1.63
		c8.28,0.06,16.551,0.69,24.83,0.42c6.09-0.239,12.3,0.36,18.26-1.26C434.34,359.38,427.07,360.891,420,360.33z"/>
	<path fill="#D8AE34" d="M357.95,434.04c-0.55,0.06-1.66,0.17-2.21,0.229c-2.07,8.641-4.24,17.37-4.19,26.311
		c-0.81,4.06-0.71,8.49-2.75,12.189c-2.43,2.141-6.03,3-7.2,6.381c3.7-0.79,8.03-1.051,10.91-3.75c1.96-3.96,0.23-8.67,1.05-12.91
		c1.53,2.62,3.061,5.41,3.141,8.52c0.28,3.46-1.44,6.61-2.32,9.86c2.34-1.12,6.47-1.04,6.84-4.311c0.7-4.26,0.971-8.579,1.69-12.829
		c3.59,5.27,0.27,11.84,2.899,17.479c4.601-3.46,2.15-9.47,2.681-14.27c0.84-4.46-3.28-7.58-3.34-11.851
		c-0.351-6.57,0.5-13.13,0.229-19.689c-3.11,3.279-3.46,8.22-6.62,11.439C358.91,442.55,358.49,438.29,357.95,434.04z
		 M354.92,460.72c-1.43,1.2-3.189-1.27-1.67-2.279C354.68,457.23,356.44,459.69,354.92,460.72z M358.26,460.07
		c-0.99-0.71-1.04-2.53-0.029-3.23C359.94,456.58,359.96,460.28,358.26,460.07z"/>
	<path fill="#D8AE34" d="M423.04,356.54c-8.79-0.39-17.521-1.649-26.32-1.87c0.24,0.67,0.71,2.01,0.94,2.689
		c6.07,0.341,12.18-0.039,18.22,0.801c6.65,0.859,13.42,1.38,20.11,0.64c1.84-0.13,3.12-1.59,4.51-2.61
		C434.66,355.75,428.87,357.391,423.04,356.54z"/>
	<path fill="#D8AE34" d="M296.23,232.65c3.05,5.08,9.24,8.38,10.32,14.53c-0.95,7.31-4.57,14.85-1.73,22.2
		c2.77,5.72,7.34,10.59,8.94,16.87c0.891,3.71-0.7,7.39-1.8,10.88c1.771,0.77,3.771,2.34,5.65,0.94c1.949-1.33,5.5-2.32,5.14-5.24
		c-0.03-7.85-5.4-14.12-8.2-21.12c3.51,2.33,7.12,4.84,9.13,8.67c1.87,2.8,1.851,6.52,3.95,9.17c3.04,1.48,8.311-0.47,7.7-4.45
		c-0.12-3.22,0.2-6.59-0.85-9.68c-2.11-3.53-5.311-6.41-9.141-7.96c-8.399-3.08-12.49-13.11-10.76-21.51
		c1.17-6.59-3.03-12.6-8.11-16.31c-3.46-2.66-7.85-5.1-8.85-9.73c-0.68-5.03,0.27-10.12,0.97-15.1c0.62-4.63-0.99-9.13-1.01-13.74
		c-0.12-3.3,0.41-6.85-1.49-9.79c-1.99,5.54-3.94,11.62-2.21,17.51c0.98,3.15,0.94,6.53,0.01,9.69
		C291.54,216.45,292.77,225.19,296.23,232.65z"/>
	<path fill="#D8AE34" d="M288.9,352.279c-1.98-1.85-3.96-5.079-7.13-4.09c-6.81,0.811-10.31,7.601-16.14,10.36
		c-5.15,1.46-10.42-1-15.64-0.21c-6.4,0.57-10.61,6.82-16.98,7.41c-5.62,0.08-8.16-6.09-13.3-7.3c0.81,4.579,3.95,8.93,8.51,10.3
		c4.46,0.46,9.05-0.01,13.37-1.2c4.82-1.96,10.31-5.5,15.52-2.771c4.49,2.301,9.82,2.881,14.64,1.291
		c4.98-1.66,10.1-2.82,15.2-4.051c-0.02-0.76-0.06-2.26-0.08-3.02c-7.36-1.09-13.45,3.74-20.16,5.75
		c-0.43-0.57-0.86-1.13-1.28-1.689c4.39-1.5,7.62-5.041,11.83-6.891C280.99,354.43,285.21,354.141,288.9,352.279z"/>
	<path fill="#D8AE34" d="M225.08,335.79c3.19,2.319,7.21,2.89,11.02,3.479c8.41,1.181,16.37-3.119,24.71-2.91
		c4.43,1.111,5.89,6.15,8.86,9.111c4.78-0.011,9.22-2.4,14.07-2.351c3.83,0.149,5.57-3.341,6.85-6.36
		c-6.9-3.46-14.99-2.51-22.18-5.109c-0.06-0.541-0.17-1.641-0.23-2.19c6.98-0.81,13.85,2.09,20.77,0.67
		c-3.63-2.79-7.62-5.09-11.06-8.12c3.51,0.79,6.75,2.43,10.18,3.5c2.27-0.41,3.06-2.97,4.25-4.619
		c-4.31-2.521-9.15-4.091-14.16-4.221c-4.63-0.699-5.91,5.85-10.21,6.17c-3.63-0.32-7.15-2.21-10.84-1.34
		c-5.7,1.91-9.72,7.79-16.1,7.79c-6.03,0.51-11.45-2.67-16.28-5.87c-5.63-3.51-6.01-11.48-3.67-17.08
		c1.68-4.41,6.43-8.64,11.42-7.08c1.84,0.89,4.11,2.41,3.79,4.77c0.26,4.4-4.67,6.17-6.66,9.53c1.46,0.56,2.91,1.19,4.44,1.61
		c3.49-2.32,5.29-6.37,7.37-9.87c1.85-2.93,1.02-7.07-1.36-9.43c-3.67-3.02-9.09-4.33-13.54-2.3
		c-8.42,3.77-12.52,13.66-12.24,22.459C215.1,323.65,218.68,331.311,225.08,335.79z M264.17,327.471
		c0.19,1.039,0.38,2.09,0.57,3.139c-2.62-0.09-5.23-0.229-7.83-0.539C258.98,328.35,261.44,327.29,264.17,327.471z M242.42,330.609
		c3.66-0.02,7.32-0.149,10.98,0.141c-3.16,2.721-7.27,2.91-11.22,2.57C242.24,332.641,242.36,331.29,242.42,330.609z"/>
	<path fill="#D8AE34" d="M278.51,423.57c3.05-2.271,7.09-2.09,10.6-3.16c7.38-1.271,10.45-8.891,15.6-13.4
		c-1.78-1.979-3.61-3.91-5.48-5.8c-3.62,2.63-6.74,6.43-11.37,7.23c-3.39,0.76-6.69,1.859-9.96,3.02c1.37-2.7,3.33-5.1,6.31-6.08
		c4.88-1.689,9.01-5.21,11.52-9.72c0.89-2.35-0.45-4.73-1.02-6.98c-3.54,0.641-6.22,3.12-8.93,5.26
		c-4.69,4.211-9.95,8.131-12.98,13.801c-2.98,4.84-4.28,11.5-10.06,13.92c-5.17,2.83-12.1,1.04-16.32,5.75
		c-6.64,5.06-8.69,13.689-9.93,21.51c-0.83,11.311,0.15,22.72-1.37,33.98c-1.39,5.77-3.09,11.64-6.55,16.54
		c-1.48,2.199-3.31,4.149-4.72,6.409c-3.83,7.351-1.48,16.36-5.49,23.641c-3.7,5.14-9.48,8.54-12.57,14.189
		c-2.61,5.13-6.39,10.141-5.67,16.24c0.63-0.08,1.9-0.25,2.53-0.34c1.74-4.74,2.38-10.13,5.86-14.01
		c4.36-5.351,9.21-10.37,15.08-14.07c4.72-3.23,5.42-9.2,5.22-14.46c-0.43-8.12,7.34-12.67,11.24-18.81
		c2.1-4.061,2.35-8.761,3.3-13.181c0.72-8.34,1.6-16.68,2.27-25.03c1.08-5.489,2.72-10.939,5.59-15.779
		c1.82-3.04,3.29-7.24,7.27-7.86c4.41-0.7,9.3,0.8,13.37-1.57C274.94,431.64,275.19,426.59,278.51,423.57z M245.26,442.38
		c-0.04-1.96-0.4-3.99,0.22-5.89c1.01-2.4,3.36-3.73,5.57-4.84C249.49,435.41,247.53,439.01,245.26,442.38z M256.25,430.02
		c0.03-0.8,0.1-2.409,0.14-3.21c1.32,0.671,2.64,1.351,3.96,2.061C258.98,429.26,257.61,429.64,256.25,430.02z M264.28,426.5
		c0.22-2.65,2.89-3.37,4.85-4.44c3.68-1.739,5.81-5.399,8.76-8.029C277.64,421.11,271.4,426.93,264.28,426.5z"/>
	<path fill="#D8AE34" d="M396.98,283c3.39-4.56,4.739-10.21,7.31-15.2c1.17,7.09-1.58,14-3.2,20.8c2.5,1,5.311,3.15,8.061,1.68
		c2.06-1.39,3.529-3.84,3.529-6.36c-0.069-8.16-2.439-16.79,0.87-24.62c2.03-4,6.23-6.41,8.15-10.51
		c4.47-8.94-0.24-19.73,4.56-28.57c2.431-5.02,7.21-8.32,10-13.1c4.26-7.29,4.2-16.2,3.66-24.37c-3.53,5.8-3.21,12.89-6.12,18.92
		c-3.51,6.68-11.189,9.85-14.63,16.58c-2.72,5.5-3.89,11.67-3.84,17.79c0.15,6.44-5.11,11.18-10.11,14.37
		c-8,6.05-9.489,16.66-12.1,25.69c-0.49,2.88-2.12,5.31-3.811,7.63C391.8,284.29,395.03,285.27,396.98,283z"/>
	<path fill="#D8AE34" d="M344.29,282.16c2.02,0.57,4.24,0.98,6.24,0.07c3.239-1.07,3.22-5.15,4.67-7.73
		c0.67,1.65,1.37,3.3,2.069,4.94c1.86-1.59,3.75-3.35,4.36-5.82c2.57-6.69,1.66-13.93,2.76-20.88c4.91,8.22,2.37,18.04,2.601,27.04
		c5.31-3.12,2.93-10.18,4.87-15.08c3.409,4.81,0.68,11.04,0.449,16.42c2.78-0.24,6.931,0.37,7.841-3.12
		c4.449-10.22-1.601-20.72-5.131-30.21c-1.159-2.31-3.119-4.23-3.739-6.8c-1.07-5.49-2.511-11.09-1.45-16.7
		c0.41-6.31,5.04-11.17,6.479-17.17c1.48-5.4,1.94-11.34,0.181-16.73c-3.01-6.93-6.61-13.85-7.3-21.5
		c-0.12-3.94-0.091-7.95,0.85-11.8c0.75-3.14,3.04-5.53,5.07-7.92c2.899-3.26,4.88-7.18,7.01-10.95
		c-6.96,3.7-12.12,9.84-16.79,16.021c-4.62,6.22-5.23,14.29-4.85,21.76c-0.461,7.5,1.92,14.7,3.05,22.03
		c0.76,5.16-1.05,10.16-2.08,15.14c-1.38,5.96-5.22,10.85-8.19,16.07c-2.46,4.87-3.34,10.44-3.05,15.87
		c0.13,4.12,2.9,7.66,2.83,11.82c-0.021,3.51-0.46,7.03-1.32,10.44C350.26,272.77,346.43,277.05,344.29,282.16z M367.64,196.85
		c0.811,1.74,2.65,3.44,1.86,5.51c-0.64,2.39-1.46,4.72-2.29,7.05C367.1,205.21,367.18,201.02,367.64,196.85z M362.11,222.16
		c0.84,4.03-0.41,7.98-1.301,11.88c0.08,3.07,1,6.06,1.04,9.14C357.22,237.11,359.47,228.63,362.11,222.16z"/>
	<path fill="#D8AE34" d="M217.47,408.47c4.25-3.069,9.31-4.739,14.17-6.58c6.93-2.479,14.47,0.94,21.37-1.689
		c5.21-1.65,9.07-5.66,12.95-9.29c1.94-1.98,4.71-2.721,7.33-3.33c4.03-0.939,7.76,1.449,11.7,1.84c2.64-0.48,4.52-2.71,5.86-4.88
		c1.18-2.101,1.46-6.13-1.83-6.2c-6.31,0.221-12.19,2.95-17.59,6.04c-2.1,1.341-4.6,1.57-7.02,1.62c3.89-4.63,9.56-7.27,15.01-9.59
		c3.67-1.641,7.82-2.391,10.88-5.18c-0.28-0.701-0.82-2.11-1.1-2.82c-6.26-0.641-12.58,1.109-18.26,3.619
		c-6.78,4.861-12.94,10.841-20.83,13.961c-7.38,2.76-15.11,4.66-22.99,5.05c-6.32,2.39-11.08,7.75-14.32,13.54
		c-5.31,8.74-14.24,14-21.97,20.3c-4.73,3.351-10.2,5.561-14.58,9.42c-7.51,6.101-10.72,15.66-13.79,24.47
		c3.71-3.289,5.8-7.829,8.55-11.859c4.48-5.68,11.47-8.38,16.95-12.91c3.54-2.98,8.59-2.93,12.13-5.9
		C207.45,423.03,210.97,414.39,217.47,408.47z M257.34,388.63c0.05,0.89,0.16,2.66,0.21,3.55c-2.69,1.59-5.63,2.801-8.8,2.82
		C250.62,391.75,254.08,390.141,257.34,388.63z M244.14,392.279c0.16,0.691,0.46,2.07,0.61,2.761c-3.46,1.05-7.01,1.79-10.63,1.94
		C234.97,392.471,240.45,392.24,244.14,392.279z"/>
	<path fill="#D8AE34" d="M429.83,395.061c-7.85,0.25-15.811-1.211-23.58,0.42c1.47,0.81,2.94,1.829,4.69,1.829
		c6.18,0.23,12.369,0.53,18.55,0.301C429.58,396.97,429.75,395.7,429.83,395.061z"/>
	<path fill="#D8AE34" d="M435.73,380.43c-13.061-0.97-26.131-0.3-39.2-0.35c0.04,0.54,0.1,1.62,0.14,2.16
		c4.32,0.359,8.68,0.539,12.92,1.52c-4.26,1.45-8.82,0.85-13.2,1.471c3.54,1.949,7.61,2.119,11.53,2.59
		c3.22,0.24,4.98,3.8,8.21,4.01c5.7,0.37,11.521,0.949,17.17-0.24c-3.21-0.9-6.56-1.33-9.64-2.619c3.16-0.4,6.35-0.391,9.53-0.451
		c0.31-0.629,0.939-1.89,1.25-2.52c-7.28,0.029-14.73,0.1-21.681-2.4c7.78-0.289,15.57-0.289,23.351-0.64
		C436.01,382.33,435.82,381.061,435.73,380.43z"/>
	<path fill="#D8AE34" d="M397.9,398.26c-0.511,1.32-0.99,2.66-1.44,4c8.61,0.08,17.26,0.82,25.85-0.06
		c1.96-0.17,3.7-1.141,5.19-2.37C417.64,399.27,407.68,400.02,397.9,398.26z"/>
	<path fill="#D8AE34" d="M452.74,570.23c-7.82-6.141-19.33-3.36-26.71-10.2c-3.271-4.96-4.05-11.17-4.011-17.011
		c-0.119-11.13-0.649-22.279-2.529-33.26c-0.53-4.25-0.62-8.75,1.17-12.729c1.58-4.271,4.21-8.061,5.66-12.38
		c0.84-3.69,0.399-8.431-3.19-10.53c-5.31-3.22-11.7-6.3-14.12-12.4c-0.27-8.899,4.62-17.439,3.15-26.46
		c-0.72-3.66-1.62-8.569-6.23-8.81c-0.31,4.149,0.16,8.29,0.83,12.38c-2.069-3.69-4.12-8.2-8.84-8.85
		c-1.45,5.289,2.811,9.81,1.94,15.06c-0.15,2.95-1.351,5.7-2.23,8.49c-0.55,0.029-1.649,0.1-2.2,0.13c0.2-3.88,0.28-7.78,0.04-11.66
		c-0.18-4.47-4.31-7.34-7.83-9.35c-0.38,5.689,5.141,10.68,2.681,16.3c-2.28-5.601-4.03-12.891-10.24-15.351
		c-2.48,5.631,3.2,9.98,3.45,15.41c1.439,6.561-2.86,12.53-2.34,19.05c0.029,2.32,0.899,5.221,3.359,6.021
		c4.851,1.68,10.55,2.11,14.07,6.34c4.53,4.25,4.439,10.94,3.63,16.63c-1.6,7.57-1.26,15.36-1.06,23.05
		c0.21,5.221,3.75,9.41,5.42,14.19c1.46,5.47,1.79,11.16,2.67,16.74c0.739,5.489,4.68,9.68,7.479,14.229
		c3.351,5.75,10.311,7.17,16.19,8.98c6.88,1.47,14.59,0.02,20.79,4.04c4.81,3.439,8.83,7.859,13.6,11.359
		c2.78,1.94,6.29,2.021,9.53,1.45c-1.34-0.76-2.69-1.45-4.04-2.14C464.2,584.93,461.23,574.46,452.74,570.23z M403.84,471.29
		c-3.3-3.89-6.649-8.271-6.77-13.61c3.43,3.311,4.62,8.24,8.26,11.44C404.96,469.66,404.22,470.75,403.84,471.29z M406.67,474.7
		c0.84-0.13,2.53-0.391,3.38-0.521c-0.08,0.761-0.25,2.29-0.33,3.061C408.69,476.39,407.68,475.55,406.67,474.7z M411.72,514.95
		c-0.489-0.2-1.47-0.61-1.96-0.811c-0.26-5.76-0.59-11.52-0.319-17.279c0.5-0.16,1.51-0.48,2.01-0.641
		C411.49,502.47,412.41,508.7,411.72,514.95z"/>
	<path fill="#D8AE34" d="M434.13,288.56c-4.78,1.61-9.04,4.82-12.04,8.86c-1.52,1.76,0.87,3.35,1.72,4.77
		c2.62-2.69,5.591-5.14,9.28-6.17c-2.28,3.27-5.13,6.09-7.7,9.13c3.54,2.91,7.061-0.99,10.051-2.78
		c4.52-3.38,10.329-4.78,15.899-3.7c-3.71,3.66-8.84,4.99-13.3,7.39c-3.41,2.79-6.3,6.64-6.79,11.15c1.92-0.34,4.36,0.45,5.85-1.17
		c1.931-1.83,3.79-3.77,6.03-5.24c-0.99,3.85-3.97,6.591-6.87,9.091c0.181,0.889,0.54,2.68,0.721,3.58
		c3.76-0.611,8.159-1.861,9.84-5.671c2.529-5.32,5.68-10.83,10.979-13.8c4.9-2.27,11.021-2.22,14.91-6.42
		c6.89-7.99,4.06-20.03,10.75-28.11c2.89-4.26,7.76-6.29,11.98-8.91c4.989-3.18,10.029-6.61,13.479-11.52
		c4-4.6,0.38-11.14,2.71-16.33c2.22-4.99,4.91-9.8,6.38-15.09c-3.56,2.82-7.12,5.89-9.51,9.8c-2.17,7.15-1.55,15.5-6.51,21.57
		c-5.75,6.69-14.46,9.57-22.891,11.06c-4.489,0.7-7.75,4.31-9.96,8.03c-2.38,3.87-1.439,9.05-4.54,12.59
		c-3.96,4.66-9.109,9.15-15.58,9.22C443.95,290.63,439.16,287.6,434.13,288.56z M467.9,284.62c1.939-4.41,1.819-10.46,6.779-12.82
		c-1.31,3.69-2.85,7.29-4.06,11.02c-1.65,5.89-6.25,10.62-11.63,13.34C460.86,291.48,466.14,289.36,467.9,284.62z"/>
	<path fill="#D8AE34" d="M394.54,404.19c6.96,4.54,15.71,3,23.55,2.89c2.45,0.189,4.62-0.85,6.25-2.62
		C414.48,402.81,404.46,404.17,394.54,404.19z"/>
	<path fill="#D8AE34" d="M442.98,383.07c-0.24,0.77-0.711,2.3-0.95,3.07c3.399,0.979,6.89,1.899,9.85,3.949
		c4.61,3.42,11.13,0.79,15.7,4.41c4.26,3.33,7.12,8.12,11.27,11.6c5.591,5.561,13.04,8.71,20.44,11.051c4.8,1,9.8,0.84,14.66,0.43
		c5.609-1.1,10.689-4.07,15.14-7.57c4.48-3.52,4.521-9.87,4.351-15.06c0.1-5.04-3.57-9.32-7.94-11.38
		c-3.37-1.381-7.04-0.65-10.53-0.391c-3.77,0.35-7.43-0.789-11.13-1.25c3.21,6.35,11.15,4.461,16.86,4.391
		c4.41,2.59,6.399,8.58,5.22,13.479c-1.07,3.71-4.71,5.67-7.84,7.44c-3.23,1.8-6.99,4.029-10.79,2.52
		c-3.23-1.38-6.49-2.67-9.69-4.12c-8.14-3.93-12.06-12.81-19.369-17.8c-4-2.65-7.311-6.16-11.12-9.05
		c0.149-2.271,0.699-4.601,0.12-6.851c-2.511-0.83-5.15-1.16-7.671-1.93c-4.439-1.08-8.31-4.26-13.069-3.8
		c-0.05,0.601-0.141,1.8-0.19,2.41c1.55,1.101,3.11,2.19,4.66,3.31c-0.96,1.051-1.93,2.09-2.88,3.141
		c6.22,2.709,12.76,5.85,17.18,11.14c-3.88-0.2-7.3-2.149-10.59-4.01c-3.08-1.95-5.59-5.21-9.55-5.24c0.68,1.72,0.35,4.54,2.56,5.12
		c2.67,0.949,5.391,1.91,7.45,3.98C450.76,387.66,447.09,383.92,442.98,383.07z M486.09,404.03c-3.939-2.521-8.95-4.94-10-9.94
		C480.37,396.13,484.56,399.35,486.09,404.03z"/>
	<path fill="#D8AE34" d="M504.16,529.79c0.1,0.84,0.3,2.53,0.399,3.38c2.95,1.32,5.971,2.5,9.091,3.4
		c0.31,2.33,0.89,4.67,0.659,7.04c-0.63,2.34-2.52,4.1-4.29,5.649c-3.52,2.91-8.68,1.91-12.39-0.1c-4.17-2.63-7.6-6.641-8.76-11.5
		c-2.75-6.76-2.15-14.12-2-21.23c0.09-4.12-4.57-6.029-5.86-9.59c-1.46-9.78,1.88-20.29-2.43-29.59c-1.1-2.67-2.82-5.23-2.69-8.23
		c-0.13-4.34,3.19-8.149,2.21-12.539c-0.56-3.25-0.899-6.82-3.09-9.44c-4.21-4.28-10.899-5.56-14.14-10.86
		c-1.83-4.5-2.39-9.39-2.7-14.199c-0.49-6.69-3.26-12.87-5.979-18.9c-2.021-5.69-7.471-9.52-13.04-11.221
		c-1.061,0.781-1.811,1.871-2.591,2.9c3.28,2.61,6.82,4.92,9.86,7.84c1.33,1.021,1.25,2.811,1.65,4.29
		c-4.301-2.699-8.19-6.13-13.17-7.56c-0.391,0.74-1.15,2.22-1.53,2.96c2.77,2.14,6.27,3.21,8.88,5.55
		c3.59,5.01,4.51,11.33,6.63,17.01c-0.66,0.011-1.97,0.011-2.63,0.021c-2.58-5.14-3.74-11.82-9.5-14.46
		c-2.69-1.16-7.07-5.36-9.1-1.391c1.47,2.58,3.489,4.78,5.26,7.16c-3.66-0.56-7.021-2.17-10.51-3.319
		c-0.15,1.319-0.221,2.64-0.21,3.97c3.609,4.26,9.449,5.7,13.31,9.689c2.99,3.471,3.76,8.12,5.38,12.271
		c1.37,3.42,1.94,7.78,5.54,9.67c4.72,1.38,10.021,1.23,14.311,3.89c2.26,2.29,3.05,5.561,4,8.551
		c1.34,4.21,0.31,8.689,1.159,12.979c1.82,3.62,5.11,6.45,6.181,10.48c2.979,9.949-0.38,20.37,1.55,30.449
		c0.58,2.631,0.89,5.641,3.07,7.521c2.14,2.09,4.329,4.43,4.649,7.57c0.891,5.89,1.68,11.979,4.86,17.17
		c2.06,4.41,6.91,6.27,11.17,7.899c3.17,1.38,6.5-0.21,9.729-0.5c4.381-0.47,9.44-1.34,12.32-4.989c0.7-3.61,0.57-7.41-0.13-11.011
		C516.73,532.49,509.55,531.74,504.16,529.79z M470.41,456.47c-4.75-4.239-8.28-9.91-13.99-12.989c-4.51-2.74-5.6-8.431-6.5-13.211
		c4.32,1.24,4,6.29,6.47,9.24c3.88,3.91,7.891,7.73,12.521,10.76C471.23,451.54,470.54,454.33,470.41,456.47z M472.87,466.39
		c-1.43-0.159-1.68-0.819-0.75-1.979C473.54,464.56,473.79,465.21,472.87,466.39z"/>
	<path fill="#D8AE34" d="M392.69,425.3c-0.53-2.609-1.07-5.21-1.48-7.84c6.37-1.27,12.23,3.39,18.48,1.26
		c-2.561-4.05-7.69-2.7-11.681-2.729c-6.189,0.08-13.18,0.12-18.18-4.101c6.66-1.71,14.6-3.63,20.88,0.101
		c-1.8,0.7-3.65,1.25-5.44,1.97c5.11,0.43,10.23,1.69,15.36,1.23c2.2-1.62,4.05-3.811,6.87-4.391c0.18-0.77,0.35-1.54,0.5-2.3
		c-6.34-0.42-12.69-0.2-19.03-0.12c-4.38,0.16-8.569-1.58-12.96-1.25c-2.56-0.18-5.689,0.51-7.689-1.5
		c-2.03-1.8-1.931-4.75-2.86-7.11c-4.51-3.58-10.63-5.209-16.27-3.709c0.18-2.891-0.131-6.61,2.979-8.09
		c2.58,0.989,4.1,4.149,7.04,4.649c4.33,0.819,8.53-1.021,12.83-1.13c1.77,0.4,3.28,1.52,5,2.08c3.82-0.49,5.66-4.28,7.77-7.021
		c-1.819-1.44-3.449-3.56-5.949-3.64c-3.38-0.381-6.95-0.74-9.75-2.86c-2.5-1.84-6.12-4.069-5.24-7.71
		c0.1-3.54,2.85-6.029,5.74-7.609c0.529,0.689,1.069,1.379,1.62,2.08c-1.391,1.52-2.99,2.899-4.07,4.67
		c-0.61,2.449,0.859,5.799,3.77,5.479c5.311-0.08,10.801-0.989,15.801,1.39c0.5-0.58,1.5-1.72,2.01-2.3
		c-1.37-6.319-2.17-12.729-3.53-19.05c-1.18-6.4-3.56-12.5-4.83-18.88c-2.33-8.24-0.59-17.89,5.11-24.38
		c5.689-6.3,14.779-5.8,22.359-7.76c-10.6-8.18-22.79-14.47-35.859-17.52c-14.681-1.86-30.25-2.01-44.08,3.94
		c-9.561,4.44-19.13,9.55-26.45,17.29c-6.32,6.19-11.51,13.58-15.05,21.69c-2.52,7.67-6.06,15.761-4.04,23.979
		c0.67,4.73,3.03,9,3.68,13.74c0.64,3.92,2.19,7.69,2.25,11.7c0.02,2.97,0.52,6.22,2.8,8.351c1.89,1.83,3.84,3.64,5.15,5.959
		c3.22,5.44,7.06,10.511,9.91,16.171c1.88,4.33,7.35,3.96,10.97,5.95c5.45,3.239,10.65,7.01,16.59,9.35
		c4.12,1.76,8.44,3.86,13.05,2.729c-3.42-3.05-7.18-5.85-9.47-9.93c4.38,0.66,7.55,4.12,11.79,5.2c4.9,1.35,9.891,2.72,14,5.86
		C379.34,426.09,387.34,430.74,392.69,425.3z M324.5,316.91c4.81-3.54,8.95-8.07,14.3-10.82c6.181-2.47,12.57,0.68,18.73,1.58
		c5.33,0.55,9.84,3.64,14.39,6.2c1.91,0.75,1.811,3.06,2.46,4.71c-9.37-5.87-20.6-7.74-31.5-7.53c-5.16,0.18-8.479,4.57-11.92,7.81
		c-1.67,1.761-4.37,1.351-6.54,1.92C324.44,319.811,324.48,317.88,324.5,316.91z M369.17,319.63c-1.05,0.979-3.88,0.88-4.29-0.59
		C365.92,318.109,368.87,318,369.17,319.63z M326.1,377.95c2.29,1.17,4.08,3.04,5.061,5.44
		C328.94,382.13,327.33,380.15,326.1,377.95z M334.18,382.66c-0.89-1.2-1.779-2.4-2.649-3.61c1.91,0.181,3.819,0.39,5.739,0.53
		c-2.899-3.891-6.399-7.27-10.079-10.41c-0.881,0.551-1.75,1.109-2.61,1.67c-2.11-2.779-4.05-5.68-5.67-8.77
		c1.99,1.59,3.97,3.18,6.06,4.65c-1.25-3.931-3.04-7.761-5.939-10.74c-2.61-2.351-2.09-6.11-2.63-9.26
		c4.47,4.92,8.029,10.559,11.819,16c2.94,4.329,4.891,9.579,9.29,12.719c3.101,2.25,6.08,4.66,8.771,7.4
		C342.26,382.391,338.19,381.73,334.18,382.66z M349,347.35c-3.93,0.2-7.84,1.36-11.79,0.86c-1.32-1.101-1.979-2.71-2.68-4.22
		c-2.011-0.971-2.181-3.87-2.84-5.82c-1.25,1-1.181,3.221-2.83,3.79c-2.46,0.06-4.561-1.41-6.49-2.75
		c4.71-3.069,9.399-6.319,12.83-10.86c-2.11-0.05-4.21,0-6.32,0.03c1.99-2.28,4.17-4.76,7.36-5.19c3.84-0.59,7.5-2.199,11.39-2.449
		c7.24,0.58,13.351,5.06,20.351,6.68c-0.32,0.99-0.641,1.99-0.961,2.99c-7.039-2.77-14.609-8.58-22.42-5.051
		c2.631,0.631,5.351,0.791,7.96,1.5c7.561,2.431,13.561,7.801,20.051,12.121c-2.86,2.75-5.431,5.93-8.83,8.039
		C358.93,348.18,353.92,346.82,349,347.35z"/>
	<path fill="#D8AE34" d="M243.46,258.28c1.16,6.63-0.95,13.89,2.16,20.14c2.23,2.33,5.71,2.74,8.34,4.52
		c3.64,1.96,4.15,6.53,6.58,9.56c2.46,3.15,4.96,6.35,8.08,8.88c3.89,2.35,8.68,1.76,12.88,3.21c6.46,1.69,11.38,6.51,15.64,11.4
		c2.61-2.01,5.32-3.97,7.53-6.44c0.18-2.77-2.56-4.28-4.58-5.55c-4.74-3.13-11.12-2.62-15.37-6.63c7.39-2.93,15.05,0.7,21.19,4.75
		c1.79,1.6,3.96,0.69,5.89-0.1c-2.76-2.87-5.83-5.41-8.9-7.92c-4.78-3.24-10.66-4.06-16.17-5.31c-4.6-0.98-9.63,2.3-13.85-0.74
		c-3.89-1.52-3.96-5.93-4.93-9.33c-1.64-2.24-4.65-2.81-7.12-3.689c-3.96-1.05-7.37-3.91-9.12-7.59c-0.92-4.7,1.13-10.11-1.87-14.3
		c-4.33-5.34-9.85-10.28-11.62-17.15c0.51-3.87,2.99-7.19,3.37-11.09c0.32-3.71-0.04-7.44-0.32-11.14
		c-0.53-0.13-1.58-0.38-2.11-0.51c-0.88,4.33-0.49,9.05-2.81,12.98c-3.05,5.77-5.42,12.63-3.39,19.14
		C234.56,251.07,241.52,252.83,243.46,258.28z M272.34,292.85c3.01,0.21,5.99,0.97,8.16,3.22c-2.77,0.08-5.53-0.04-8.28-0.17
		C272.25,295.14,272.31,293.61,272.34,292.85z M265.17,283.97c1.18,1.11,1.12,2.79,1.29,4.28c-3.83-3.53-7.51-7.31-10.53-11.57
		C260,277.59,262.58,281,265.17,283.97z"/>
	<path fill="#D8AE34" d="M416,370.8c-5.63,0.07-11.28-0.479-16.9,0.13c2.46,1.771,5.57,2.021,8.48,2.42
		c6.45,0.641,12.95,0.4,19.42,0.551c4.27-0.121,9.32,0.629,12.37-3.121C431.6,369.73,423.79,370.9,416,370.8z"/>
	<path fill="#D8AE34" d="M417.99,375.18c-6.311,0.131-12.65-0.06-18.92,0.75c5.26,2.48,11.199,0.85,16.76,1.721
		c6.29,1.16,12.72,1.02,19.08,0.619c1.85,0.03,3.05-1.52,4.37-2.58C432.22,374.779,425.08,375.38,417.99,375.18z"/>
	<path fill="#D8AE34" d="M409.5,388.859c-4.57,0.051-9.13,0.361-13.7,0.431c0.4,0.899,0.8,1.8,1.2,2.7
		C401.34,391.98,406.51,392.84,409.5,388.859z"/>
	<path fill="#D8AE34" d="M405.48,420.26c-4.19,0.05-8.961-1.06-12.631,1.51C396.93,421.98,402.4,423.89,405.48,420.26z"/>
	<path fill="#D8AE34" d="M543.84,312.26c-4.5,1.29-8.71,3.471-12.49,6.211c-4.609,3.619-6.199,9.77-10.609,13.559
		c-4.101,1.23-8.53,0.99-12.681,0.171c-4.29-0.729-7.39-4.101-11.25-5.8c-3.029-1.07-6.38-0.23-8.89,1.66
		c-4.24,2.58-6.33,7.859-11.1,9.67c-6.46,1.449-12.53-2.221-16.99-6.541c-5.771-5.529-13.93-1.629-20.8-1.58
		c0.91,2.94,0.5,8.601,4.859,8.351c6.091-0.62,12.54-0.25,17.841,3.16c1.899,0.659,2.279,2.649,2.729,4.36
		c-5.94-1.061-11.72-4.221-17.9-2.811c-2.649,2.141-1.119,6.18-0.439,8.95c5.74,1,11.04-2.601,16.8-2.011
		c3.82-0.299,6.6,2.781,10.11,3.57c4.12,0.19,7.979-1.709,11.319-3.93c2.78-1.96,3.86-5.38,6.15-7.79
		c3.63-4.34,10.58-5.54,15.34-2.36c4.32,2.59,10.04,3.84,14.71,1.4c2.88-1.641,5.63-3.57,8.01-5.9
		c3.49-3.869,4.891-9.09,7.771-13.35c6.39-5.98,15.52-7.9,24.05-7.27c0.05-0.75,0.17-2.24,0.23-2.98
		C555.01,311.04,549.26,310.55,543.84,312.26z M483.7,342.57c-2.5,1.43-4.94,3.1-7.72,3.92c-1.61,0.109-2.591-1.54-3.811-2.311
		c3.84-1.66,7.83-2.93,11.67-4.58C483.78,340.59,483.74,341.58,483.7,342.57z M488.73,336.38c-1.131-2.42,2.029-3.53,3.59-4.58
		c0.47,1.16,0.949,2.31,1.439,3.479C492.15,335.88,490.5,336.779,488.73,336.38z"/>
</g>
<g>
	<path fill="#A32C00" d="M368.45,38.94c5.28,0.16,6.93-5.95,11.33-7.76c4.91,1.76,7.95,6.16,11.04,10.08
		c3.109-2.93,6.09-5.979,9.01-9.1c3.93,1.72,8.11,3.62,10.5,7.39c4.03,6.46,5.3,14.55,3.229,21.9
		c-0.909,10.01-5.189,19.5-4.909,29.63c-0.15,4.21,4.739,5.23,7.159,7.75c-1.189,2.07-2.279,4.8-4.96,5.21
		c-2.96,1.15-6.17-0.66-7.34-3.45c-3.819-8.11-1.609-17.2-0.319-25.62c0.949-8.57,3.529-17.14,2.149-25.8
		c-1.58-2.61-3.56-6.42-7.229-5.61c-3.37,1.62-7.341,4.16-7.17,8.41c-0.48,9.021-0.23,18.08-0.311,27.11
		c-0.34,3.08,2.65,4.84,4.311,6.98c-1.511,1.04-2.841,2.75-4.881,2.45c-4.29-0.26-9.34,1.14-12.8-2.12c1.65-2.34,4.58-4.3,4.46-7.45
		c0.101-10.57,1.15-21.17,0.431-31.74c-1.381-1.94-3.311-3.37-5.181-4.79c-3.58,2.23-9.46,4.3-8.6,9.51c0.11,9.36-0.3,18.73,0,28.08
		c1.41,2.05,3.27,3.73,4.82,5.68c-3.12,2.83-7.381,1.79-11.19,1.92c-2.97,0.03-6.04,0.1-8.73-1.35c1.91-2.5,4.87-4.43,6.051-7.34
		c0.21-11.99,0.17-23.99,0.3-35.99c0.61-4.19-4.771-5.23-5.58-9.02c4.85-0.79,9.65-1.82,14.52-2.49
		C368.53,33.92,368.44,36.43,368.45,38.94z"/>
	<path fill="#A32C00" d="M433.61,41.43c4.71-0.04,9.43,0.07,14.14,0.06c0.37,4.43-1.32,8.58-2.1,12.87
		c-2.21,10.92-5.2,21.68-7.15,32.65c-0.73,3.35,1.44,6.23,2.48,9.24c-1.561,0.75-3.271,1.8-5.051,1.05
		c-4.12-1.22-8.25-2.4-12.5-3.05c0.021-0.82,0.061-2.47,0.08-3.29c2.49-1.55,6.03-2.75,6.44-6.12c1.069-5.51,2.76-10.87,3.84-16.38
		c1.36-6.46,3.9-12.79,3.88-19.47C436.31,46.46,434.19,44.34,433.61,41.43z"/>
	<path fill="#A32C00" d="M270.67,47.39c3.38-0.06,7.05-0.7,10.15,0.99c6.41,3.05,10.7,9.48,12.34,16.24
		c3.74,11.57,2.17,24.2,6.65,35.58c1.71,3.33,6.04,2.88,9,4.42c-0.369,3.56-2.09,7.03-5.859,7.89c-3.51-0.42-6.61-3.06-8.1-6.22
		c-6.48-12.62-5.69-27.35-10.39-40.52c-1.26-4.31-4.95-7.8-9.45-8.36c-2.52,0.7-4.43,2.98-4.62,5.59
		c-0.84,5.34,0.98,10.55,2.86,15.46c1.66,4.86,3.18,9.77,4.82,14.64c0.82,3.23,4.38,4.25,6.92,5.74c-0.67,2.15-1.75,4.2-4.21,4.51
		c-4.25,0.78-8.1,3.44-12.48,3.31c-1.65-2.89,1.48-5.79,2.43-8.5c-4.17-11.34-7.45-22.99-11.56-34.36
		c-0.96-3.45-5.31-3.38-8.05-4.66c0.06-0.64,0.18-1.91,0.25-2.55c4.03-2.02,7.88-4.36,11.78-6.62c1.15,2.41,1.47,5.46,3.91,7.01
		C268.44,53.85,269.46,50.58,270.67,47.39z"/>
	<path fill="#A32C00" d="M465.13,50.57c5.33-0.26,11.021,0.23,15.82,2.72c-0.99,1.79-2.021,3.56-2.94,5.38
		c3.63,1.66,6.141-2.07,9.2-3.29c3.06-0.45,5.44,2.18,7.07,4.42c3.5,4.61,3.54,10.72,2.96,16.22c-3.07,14.67-15,25.52-18.65,39.93
		c1.58,2.92,4.78,5.16,3.96,8.91c-2.45,1.07-5.479,2.75-8.01,0.93c-4.3-2.22-3.22-7.89-2.72-11.82
		c3.189-13.63,12.79-24.68,16.479-38.13c0.7-4.03-0.05-9.45-4.31-11.21c-4.13,0.13-8.32,2.7-9.48,6.8
		c-2.85,7.96-5.66,15.94-8.39,23.95c-1.65,3.53,1.8,6.61,1.51,10.19c-5.31,0.49-10.04-2.34-15.07-3.5
		c0.341-0.06,0.69-0.11,1.04-0.15c-1.64-0.49-3.59-0.83-3.35-3.01c2.61-2.24,6.94-3.05,7.75-6.88c3.92-10.97,7.78-21.99,11.5-33.03
		C468.42,56.02,466.17,53.6,465.13,50.57z"/>
	<path fill="#A32C00" d="M518.85,67.86c6.57-6.29,18.181-5.63,24.36,0.91c1.84,1.99,4.22,3.29,6.76,4.19
		c-0.97,3.76-4.58,7.92-8.81,6.37c-2.521-3.13-4.26-8.36-9.16-8.06c-3.68-0.6-6.45,2.53-7.56,5.69c-0.54,2.95,1.43,5.49,2.56,8.04
		c4.01,7.04,8.83,13.78,11.18,21.64c1.551,6.47-0.68,13.13-4,18.67c-2.5,4.04-6.83,6.4-11.18,7.95c-10.07,2-21.51-2.53-26.58-11.67
		c-5.04-7.75,0.16-19.04,8.68-21.64c5.7-1.82,11.841,1.49,15.021,6.24c1.55,3.32-0.08,6.93-2.271,9.52
		c-1.229-0.04-2.46-0.07-3.67-0.09c-1.46-2.28-1.779-4.92-1.979-7.55c-1.09-2.35-4.061-1.81-6.15-1.56
		c-4.02,1.68-4.069,6.81-3.43,10.46c2.33,8.26,13.91,11.48,20.33,5.91c5-3.89,5.31-11.08,4.09-16.79
		c-2.58-8.39-9.12-14.93-11.69-23.32C513.68,77.66,515.24,71.76,518.85,67.86z"/>
	<path fill="#A32C00" d="M174.74,82.57c4.08-3.45,10.11-3.21,15.06-2.13c6.36,2.17,12.08,6.38,15.86,11.96
		c4.63,6.45,7.82,13.75,11.29,20.84c3.26,7.62,6.9,15.35,13.01,21.15c2.67-0.45,5.36-1.19,8.09-0.88c2.23,1,1.57,3.6,1.59,5.55
		c0.22,4.6-5.59,7.8-9.58,5.88c-5.71-2.19-9.37-7.45-12.82-12.22c-6.85-9.78-11.1-21.07-17.9-30.88c-2.62-3.97-5.46-8.58-10.44-9.71
		c-2.19-0.89-4.5-0.18-6.69,0.27c-1.57,4.54-4.99,10.22-1.03,14.46c6.56,8.74,12.9,17.67,19.66,26.25c1.96,2.97,5.77,2.75,8.84,3.52
		c-0.4,1.81,0.17,4.22-1.68,5.37c-4.19,3.3-8.51,6.52-13.3,8.91c-2.16-3.71,0.11-8.55-2.82-11.87c-6.63-8.7-13.04-17.56-19.52-26.37
		c-1.14-1.5-2.38-2.97-3.9-4.1c-2.45-0.36-4.93-0.21-7.39-0.21c-1.96,3.76-4.73,8.1-3.25,12.45c5.8,8.25,12.08,16.16,17.98,24.35
		c1.68,2.29,3.39,4.68,5.81,6.24c2.2,0.34,4.44,0.2,6.66,0.29c0.02,1.48,0.04,2.95,0.06,4.43c-4.04,3.36-8.3,6.43-12.54,9.52
		c-1.47,1.37-3.57,1.09-5.4,1.27c-0.28-3.83,1.18-8-0.34-11.61c-8.95-12.24-18.02-24.41-27.08-36.57c-3.06-0.08-6.12-0.07-9.18-0.14
		c-0.16-0.68-0.48-2.04-0.63-2.73c4.51-3.6,7.24-9.16,12.2-12.14c1.96,2.23,2.77,7.271,6.45,6.64c2.87-4.42,1.22-9.92,2.68-14.76
		c5.97-1.87,12.34-1.02,18.03,1.35C174.65,92.42,174.79,87.47,174.74,82.57z"/>
	<path fill="#A32C00" d="M125.19,158.33c2.79-4.95,7.06-9.78,12.91-10.8c3.44-0.38,8.36,2.32,7.41,6.33
		c-0.98,2.48-3.14,4.37-5.47,5.59c-2.43,0.55-3.69-2.05-5.37-3.27c-3.5,2.33-4.48,6.79-2.8,10.56
		c6.44,13.33,22.49,21.65,37.07,18.18c4.01-1.01,6.65-4.43,9.57-7.09c1.05,2.05,1.25,4.45-0.51,6.19
		c-7.37,8.29-19.58,9.71-29.98,8.13c-8.47-1.59-16.32-6.75-20.75-14.19C123.87,172.16,122.22,164.65,125.19,158.33z"/>
	<path fill="#A32C00" d="M58.57,193.02c2.54-6.17,9.14-9.76,15.39-11.1c6.37-0.6,13.19-0.83,19.12,1.99
		c10.01,3.95,18.59,10.58,27.48,16.5c6.38,4.66,13.09,9.12,20.66,11.58c4.66,1.57,7.07-3.97,10.76-5.76
		c1.77,1.49,4.08,2.66,4.95,4.94c1.41,3.61,0.42,8.43-3.2,10.36c-3.78,2.729-8.77,2.52-12.91,0.78
		c-16.77-4.58-29.96-16.59-45.48-23.84c-4.81-2.26-9.74-5.83-15.34-4.479c-3.27,0.4-7.71,1.95-7.53,5.979
		c0.02,5,1.27,11.3,6.46,13.41c10.88,4.82,21.9,9.3,32.8,14.07c3.9,2.15,8.62,1.57,12.22-0.88c0.64,0.34,1.92,1.01,2.56,1.35
		c0.07,2.12,0.59,4.39-0.4,6.39c-2.01,4.71-4.33,9.29-6.11,14.1c-1.27,0.05-2.54,0.09-3.81,0.13c-1.86-3.27-3.4-7.33-7.17-8.84
		c-11.8-5.11-23.67-10.06-35.43-15.27c-3.45-1.59-7.62-1.59-11.02,0.13c-3.18,1.6-2.06,5.56-2.06,8.43
		c0.54,2.979,0.76,7.12,4.05,8.39c10.49,4.64,21.1,9.02,31.62,13.61c3.07,1.38,6.31,3.1,9.8,2.46c2.17-0.62,3.95-2.07,5.93-3.07
		c1.99,1.48,3.46,3.81,2.6,6.35c-2.07,5.02-4.42,9.92-6.39,14.99c-1,1.85-2.35,4.74-4.92,3.63c-1.93-2.88-2.56-6.36-4.14-9.4
		c-2.75-1.77-5.88-2.83-8.85-4.14c-13-5.65-26.08-11.1-39.02-16.87c-4.98-2.64-8.92,3.03-13.58,3.95
		c-1.76-3.38,0.28-6.88,0.86-10.28c1.04-3.83,1.29-7.9,3.15-11.47c3.2,1.75,6.2,4.15,9.92,4.66c1.3-5.94-3.02-10.72-5.07-15.87
		c-0.45-2.84,2.17-4.72,4.15-6.22c4.24-2.66,9.04-4.71,14.15-4.51C64.78,203.18,61.3,198.11,58.57,193.02z"/>
	<path fill="#A32C00" d="M348.53,86.79c-1.63-0.78-3.4-1.41-4.681-2.72c-2.71-6.86-3.3-14.27-5.34-21.3
		c-1.319-7.09-3.7-13.99-4.029-21.24c-5.73-2.9-12.5-6.62-18.971-3.9c-3.8,1.28-7.93,4.69-7.3,9.12c-0.4,3.37,4.06,4.51,6.51,3.27
		c2.23-0.95,2.12-3.79,2.971-5.73c2.31-0.64,5.079-0.81,6.75,1.27c2.27,3.84,3.21,8.37,3.449,12.79
		c-6.6,4.33-14.76,7.97-17.72,15.88c-3.41,8.61,3.26,19.74,12.82,19.45c4.62,0.56,7.66-3.76,9.72-7.26c0.63-0.1,1.9-0.29,2.53-0.39
		c0.109,1.88,0.2,3.76,0.33,5.64c4.52,0.28,9.489,0.46,13.1-2.75C348.64,88.39,348.57,87.32,348.53,86.79z M331.51,77.53
		c-1.12,2.63-2.92,5.03-5.13,6.84c-2.82,0.64-6.08,0.27-7.67-2.46c-0.46-2.67-0.89-5.93,1.1-8.1c2.771-3.36,6.49-5.77,10.41-7.58
		C330.83,69.95,332.27,73.74,331.51,77.53z"/>
	<path fill="#A32C00" d="M247.03,111.47c-7.67-1.6-14.7-6.6-17.98-13.83c2.71-3.8,6.6-6.45,9.91-9.66
		c3.48-3.38,6.97-6.74,10.47-10.09c-2.96-2.83-5.68-5.87-8.4-8.92c-5.44-6.2-16.53-6.16-21.62,0.46
		c-4.92,6.42-4.94,15.25-2.46,22.66c2.48,10.94,10.03,21.85,21.67,24.07c6.95,2.21,14.84,1.47,20.91-2.7
		c0.06-1.4,0.11-2.81,0.16-4.21C255.56,110.46,251.42,112.19,247.03,111.47z M223.76,77.13c0.79-3.17,3.84-6.23,7.31-5.71
		c3.15,1.74,5.29,4.76,7.68,7.37c-4.32,3.54-7.93,7.88-12.4,11.24C224.7,85.96,222.95,81.61,223.76,77.13z"/>
</g>
<path fill="#FEFEFD" d="M222.81,228.91c3.61-5.03,4.65-11.91,10.58-15.07c0.17,3.73-0.22,7.47-1.07,11.1
	c-1.2,3.72-4.04,6.95-3.97,11.03c-0.04,4.33-0.22,8.71,0.46,13.01c1.25,4.19,5.89,5.6,8.63,8.59c2.43,5.52-0.06,11.69,1.38,17.42
	c0.7,5.59,5.17,9.97,10.25,11.93c4.16,2.93,6.73,7.64,8.98,12.12c2.26,4.27,6.52,6.97,10.73,9.04c3.07,0.35,6.11,0.82,9.07,1.74
	c0.05,0.38,0.14,1.14,0.18,1.53c-2.02,0.17-4.71-0.69-5.97,1.41c-1.28,1.47-2.12,3.311-3.6,4.61c-4.25,0.42-8.05-2.89-12.39-1.841
	c-5.42,1.941-8.29,8.08-14.37,8.711c-5.12,0.109-10.07-2-14.4-4.65c0.04-0.58,0.11-1.74,0.15-2.33c2.92,1.78,6.38,4.01,9.88,2.34
	c4.74-4.669,9.61-9.97,11.04-16.669c0.15-3.97-1.25-8.61-5.02-10.54c-2.95-1.67-5.67-4.38-9.28-4.25
	c-5.28-0.34-11.17-0.1-15.26,3.68c-3.15,3.4-4.89,7.79-7.36,11.66c-1.5-4.35-0.52-9.06-1.7-13.48c-0.16-5-0.55-10.06,0.05-15.04
	c1.16-4.93,1.65-9.97,2.1-15c1.27-5.46,3.09-10.78,4.96-16.06C218.17,238.67,219.83,233.45,222.81,228.91z"/>
<path fill="#FEFEFD" d="M547.96,322.779c5.08-1.52,10.31-2.43,15.47-3.68c0.5,6.881-1.239,13.621-2.68,20.28
	c-2.48,6.761-2.4,14.2-5.51,20.761c-2.13,5.909-3.28,12.159-6.17,17.799c-1.98,5.811-4.83,11.24-7.23,16.881
	c-2.609-3.9-3.979-8.41-6.26-12.471c-4.93-5.379-13.28-6.649-19.91-3.939c-6.25,0.609-13.61-1.71-18.82,2.83
	c-0.609,4.529,3.37,8.699,7.49,10.119c3.66,0.781,7.47,0.381,11.13,1.131c2.62,1.91,3.99,5.89,1.9,8.68
	c-1.96,1.08-4.14,1.7-6.311,2.18c-4.609-2.52-9.869-3.479-14.479-5.949c-4.35-4.01-6.67-9.99-11.92-13.07
	c-4.101-2.21-8.2-4.439-12.25-6.76c0.359-1.87,0.76-3.73,1.14-5.6c-3.2-3.931-6.8-7.681-11.05-10.451
	c-2.58-1.779-7.24-0.459-8.61-3.539c1.98-1.65,4.551-2.49,7.13-2.36c3.761-0.399,6.131,3.62,9.881,3.29
	c5.47,1.08,10.84-0.79,15.54-3.49c4.979-3.15,7.02-10.16,13.5-10.98c7.399,0.451,14.59,4.36,22.1,2.57c3.66-1.24,7.5-2.81,9.89-6.01
	c3.301-4.391,6.49-8.859,9.521-13.439C543.12,325.43,545.24,323.41,547.96,322.779z"/>
<path fill="#FEFEFD" d="M209.39,326.359c0.61-0.02,1.85-0.06,2.46-0.09c1.98,3.69,2.98,7.94,5.78,11.15
	c7.27,6.66,17.81,8.46,27.32,6.971c4.8-0.91,9.83-0.19,14.43-2.141c2.39,3.07,5.16,5.82,8.64,7.641
	c-1.79,1.409-3.51,3.189-5.93,3.369c-4.67,0.311-9.38-1.039-14.03-0.27c-4.89,2.07-9.06,5.59-14.04,7.48
	c-4.03,0.68-5.7-3.921-8.7-5.65c-3.13-1.6-6.32-3.53-9.94-3.551C211.72,343.45,210.6,334.82,209.39,326.359z"/>
<path fill="#FEFEFD" d="M249.65,370.609c3.99-1.389,7.89,1.121,11.89,1.311c0.04,0.42,0.14,1.26,0.19,1.68
	c-9.14,5.92-19.46,12.021-30.79,10.78c-2.41-3.601-5.85-6.71-6.97-11.021c5.94,0.871,11.92,0.711,17.87,0.201
	C244.57,372.92,246.97,371.37,249.65,370.609z"/>
<path fill="#FEFEFD" d="M267.57,397.54c2.23-3.069,6.26-3.34,9.69-4.011c-0.46,1.371-1.17,2.641-2.26,3.631
	c-5.19,5.189-7.75,12.56-13.41,17.33c-2.78,2.609-6.97,2.47-10.46,1.779c-3.51-1.72-6.44-4.39-8.98-7.319
	c3.24-0.96,6.53-1.79,9.91-2.04C258.37,406.38,263.66,402.28,267.57,397.54z"/>
<path fill="#FEFEFD" d="M455.43,398.36c3.69-0.24,6.91,1.67,10.011,3.42c7.18,3.81,10.399,12.29,17.71,15.939
	c4.479,2.13,8.47,5.271,13.199,6.87c4.44,0.93,8.99,1.29,13.44,2.22c-7.53,6.881-16.04,12.561-24.86,17.62
	c-1.479,0.92-2.859-0.689-4.1-1.27c-3.84-2.63-8.08-4.59-12.09-6.94c-3.25-2.51-2.67-7.05-3.431-10.64
	c-1.67-4.74-3.89-9.45-3.88-14.58C461.31,406.09,457.41,402.57,455.43,398.36z"/>
<path fill="#FEFEFD" d="M293.21,426.25c5.56-1.76,8.88-6.94,13.95-9.55c0.609,6.1,1.16,12.229,1.02,18.37
	c-0.069,3.62,2.5,7.02,1.16,10.68c-2.64,5.7-7.75,9.77-13.24,12.56c-0.72,0.4-1.46-0.09-2.1-0.38c-4.59-2.55-8.34-6.34-12.98-8.819
	c-3.15-1.771-6.15-3.79-8.93-6.101c2.35-2.02,5.32-3.439,7.03-6.12c1.04-2.63,1.21-5.6,2.77-8.02
	C285.52,427.41,289.72,428.23,293.21,426.25z"/>
<path fill="#FEFEFD" d="M419.41,426.13c4.37-0.21,8.01,2.57,11.01,5.44c4.97,5.489,6.521,12.97,9.32,19.62
	c3.64,4.109,9.63,4.38,14.1,7.27c-3.2,2.29-6.35,4.96-10.26,5.91c-5.45,1.57-10.64,4.97-16.53,4.17c-3.64-2.49-7.75-4.58-10.49-8.13
	c-1.369-2.48-1.34-5.43-0.489-8.07C418.71,443.88,419.17,434.93,419.41,426.13z"/>
<path fill="#FEFEFD" d="M344.59,441.48c1.32-2.171,2.18-5.57,5.36-5.28c-0.86,4.72-3.311,9-3.07,13.96
	C345.84,447.43,343.51,444.53,344.59,441.48z"/>
<path fill="#FEFEFD" d="M369.79,450.06c0.35-3.829-0.06-8.369,3.2-11.109c2.95,5.18,5.51,10.97,4.52,17.08
	c-1.02,4.14-1.51,8.38-2.439,12.529c-1.09-3.829-1.4-7.92-3.221-11.52C370.82,454.84,369.45,452.59,369.79,450.06z"/>
<path fill="#FEFEFD" d="M337.32,470.6c3.97-2.63,7.27-5.989,9.609-10.159c-0.09,2.029,0.07,4.1-0.34,6.119
	c-1.04,1.721-2.45,3.181-3.72,4.74C341.02,471.05,339.17,470.81,337.32,470.6z"/>
<g>
	<path fill="#7A9FA6" d="M220.49,480.56c-5.75-6.25-11.45-12.529-17.38-18.6c-3.8-3.6-6-9.06-11.02-11.19
		c0.06,5.311,4.13,9.051,7.23,12.881c4.59,5.739,9.91,10.84,15.59,15.5c4.9,3.979,8.92,9.569,15.32,11.239
		C228.95,485.52,223.46,484.14,220.49,480.56z"/>
	<path fill="#7A9FA6" d="M180.26,444.49c0.44,1.22,0.88,2.439,1.34,3.67c3.07-2.22,5.73-5.07,7.28-8.561
		C185.68,440.6,183.04,442.7,180.26,444.49z"/>
	<path fill="#7A9FA6" d="M231.98,414.43c-7.66,0.181-13.27,6.28-17.83,11.761c3.46-2.25,6.81-4.761,10.7-6.24
		c-3.94,4.859-9.23,8.33-13.77,12.58c-0.42-1.141-0.84-2.271-1.25-3.4c-2.73,4.351-4.26,9.29-5.82,14.14
		c-2.54-0.399-5.09-0.71-7.66-0.739c3.36,6.54,9.35,11.149,13.03,17.46c-5.75-4.2-9.14-10.76-14.78-15.08
		c-0.5,1.38-1.09,3.09,0.17,4.29c2.37,3.25,5.35,5.99,7.84,9.14c8.75,9.7,16.49,21.2,28.89,26.61c-0.01-1.09-0.02-2.17-0.03-3.24
		c-6.48-4.81-12.72-10.229-17.49-16.79c6.69,3.311,10.06,10.97,17.45,13.271c1.57-15.351-0.77-31.45,5.47-46.011
		c2.01-4.5,5.66-7.949,9.61-10.75C241.62,419.11,237.99,413.43,231.98,414.43z M206.07,445.87c5.02,3.6,9.07,8.32,13.56,12.51
		c3.37,3.061,6.08,6.73,8.73,10.42C219.5,462.64,213.05,453.93,206.07,445.87z"/>
	<path fill="#7A9FA6" d="M213.95,481.04c-7.66-7.33-15.29-14.79-21.6-23.34c-1.32-1.78-2.88-3.36-4.54-4.8
		c1.15,9.13,9.23,14.899,14.99,21.29c4.22,5.13,9.23,9.5,14.27,13.8c3.15,2.56,5.92,6.279,10.4,6.22
		C224.1,488.77,218.47,485.4,213.95,481.04z"/>
	<path fill="#7A9FA6" d="M244.17,506.41c-0.93,1.149-0.68,1.81,0.75,1.96C245.85,507.2,245.6,506.55,244.17,506.41z"/>
	<path fill="#7A9FA6" d="M285.04,515.94c-8.42-3.62-16.69-7.66-24.44-12.561c-3.7-2.35-7.34-4.79-11.22-6.83
		c0.48,2.01,0.3,4.59,2.16,5.97c3.84,3.04,8.43,4.91,12.62,7.4c7.46,4.11,14.87,9.18,23.65,9.68
		C287.7,517.82,286.72,516.49,285.04,515.94z"/>
	<path fill="#7A9FA6" d="M250.08,504.3c0.17,1.32,0.35,2.65,0.54,3.99c5.95,3.07,12,5.93,17.79,9.3c5.67,3.15,11.55,6.75,18.29,6.55
		c-0.03-0.63-0.07-1.89-0.09-2.529C273.44,518.23,262.1,510.34,250.08,504.3z"/>
	<path fill="#7A9FA6" d="M262.25,516.54c-3.98-2.05-7.83-4.35-11.75-6.48c-0.01,1.011-0.03,3.051-0.04,4.061
		c5.68,3.59,11.5,7.09,17.82,9.46c6.51,1.52,11.84,5.92,18.33,7.56c-0.01-0.72-0.03-2.14-0.04-2.85
		C279.06,523.19,270.31,520.55,262.25,516.54z"/>
	<path fill="#7A9FA6" d="M518.88,235.13c1.75-6.9,3.22-14.04,7.36-19.99c-3.681,3.64-5.61,8.45-6.63,13.44
		c-2.761,7.34-2.32,15.31-4.29,22.83c0.27-0.27,0.83-0.8,1.1-1.06C518.01,245.46,517.86,240.16,518.88,235.13z"/>
	<path fill="#7A9FA6" d="M425.37,516.71c0.03,1.61,0.09,3.23,0.149,4.86c13.061-2.65,25.9-6.63,38-12.24
		c-0.119-1.01-0.369-3.021-0.489-4.03c-5.65,2.181-10.99,5.13-16.82,6.84C439.49,514.66,432.34,515.3,425.37,516.71z"/>
	<path fill="#7A9FA6" d="M454.84,472.17c1-1,0.99-3.87-0.6-4.16C453.2,468.98,453.3,471.85,454.84,472.17z"/>
	<path fill="#7A9FA6" d="M457.22,478.36c1.141,7.81,5.33,14.92,5.59,22.88c0.71-0.32,2.12-0.95,2.82-1.271
		C463.78,492.56,464.2,483.22,457.22,478.36z"/>
	<path fill="#7A9FA6" d="M263.16,497.64c-4.01-3.05-8.99-4.1-13.55-5.989c0.07,1.1,0.14,2.22,0.22,3.33
		c5.34,2.989,10.9,5.689,15.65,9.609c5.53,4.48,12.76,5.65,18.87,9.061c2.25,1.35,4.89,1.449,7.44,1.56
		c-0.05-0.7-0.16-2.08-0.22-2.78C281.44,508.87,272.01,503.69,263.16,497.64z"/>
	<path fill="#7A9FA6" d="M182.6,425.53c-0.57-2.83-1.58-5.53-2.84-8.11c-1.83-3.77-2.7-7.89-4.27-11.76
		c-2.54-6.101-4.79-12.37-6-18.881c-1.06-6.399-3.67-12.5-3.88-19.039c3.04,5.57,3.33,12.06,5.16,18.039
		c2.09,6.811,4.12,13.681,7.2,20.121c2.11,4.699,2.85,9.97,5.6,14.39c0.68,1.33,2.22,1.68,3.45,2.34c-0.41-2.17-0.99-4.3-1.68-6.39
		c1.54,1.319,3.05,2.71,4.86,3.64c2.54-0.689,4.38-2.7,6.28-4.41c3.65-3.63,8.38-6.479,10.34-11.479
		c3.45-7.91,8.87-15.561,17.3-18.62c-8.1-10.37-13.18-22.87-15.88-35.681c-1.74-6.17-3.73-12.299-4.83-18.619
		c-0.32-9.03-1.34-18.03-1.18-27.07c0.1-11.35-0.81-22.8,0.99-34.05c2.35-9.43,3.55-19.16,7.1-28.27
		c3.51-9.32,6.77-18.84,12.02-27.35c4.77-8.86,10.06-17.59,17.13-24.83c6.25-7.09,12.54-14.25,20.08-20.03
		c4.45-3.5,8.12-7.89,12.77-11.15c10.21-8.39,22.51-13.57,34.15-19.61c7.74-2.98,16.19-3.88,23.78-7.38
		c-5.41-0.36-10.75,0.7-16.01,1.81c-10.41,2-20.73,4.73-30.54,8.81c-12.42,3.96-23.46,11.05-35.08,16.8
		c-3.92,2.01-7.5,4.58-11.29,6.8c-7.28,4.06-12.96,10.28-19.74,15.03c-8.69,7.26-16.81,15.34-23.53,24.47
		c-5.78,8.56-12.26,16.66-17.01,25.87c-3.15,6.77-7.82,12.74-10.2,19.88c-6.72,14.42-9.84,30.11-14.05,45.37
		c-1.41,4.83-2.51,9.76-3.2,14.74c-1.96,22.39-0.3,44.93,2.67,67.15c1.94,10.699,5.12,21.13,8.23,31.529
		c1.28,4.641,4.02,8.65,6.02,12.98c1.6,2.96,3.13,6.68,6.89,7.279c-2.24-6.75-6.27-12.72-8.82-19.359
		c-3.94-7.88-4.49-16.801-6.65-25.221c-0.95-6.66-2.91-13.129-3.7-19.819c0.53-0.021,1.58-0.06,2.11-0.08
		c0.46,5.44,1.28,10.851,2.8,16.101c1.47,5.27,1.53,10.85,3.38,16.029c2.93,9.26,6.08,18.6,11.08,26.98
		c0.7,0.35,2.09,1.029,2.78,1.38c-1.28-6.261-4.56-11.87-5.95-18.101c4.19,4.91,5.51,11.46,9.05,16.79
		C180.27,424.79,181.82,425.28,182.6,425.53z M154.65,359.32c-2.83-4.49-2.4-9.85-2.15-14.9c0.56-0.05,1.67-0.15,2.22-0.199
		C154.48,349.25,154.73,354.279,154.65,359.32z M152.31,337.529c0.13-2.579,0.41-5.149,1.03-7.659c0.55,2.53,1.05,5.06,1.44,7.62
		C154.16,337.5,152.92,337.52,152.31,337.529z M155.01,313.16c-0.94,3.34-1.44,6.79-2.32,10.15c-0.24-3.041-0.47-6.121,0.01-9.141
		c1.46-6.83,1.62-13.84,2.96-20.69c0.5-0.02,1.5-0.07,2-0.09C156.4,299.95,157.39,306.83,155.01,313.16z M158.6,353.27
		c-0.14-2.18-0.11-4.359,0.05-6.52C159.94,348.779,160.07,351.279,158.6,353.27z M162.59,379.37c-2.85-4.011-2.86-9.2-2.79-13.92
		C162.44,369.59,163.6,374.52,162.59,379.37z M163.31,385.63c3.89,4.99,5.71,11.351,6.28,17.57
		C165.54,398.28,165.11,391.54,163.31,385.63z"/>
	<path fill="#7A9FA6" d="M464.51,502.66c-0.21,1.67-0.37,3.35-0.5,5.04c0.94,0.3,1.891,0.6,2.851,0.91
		C466.58,506.45,466.05,504.28,464.51,502.66z"/>
	<path fill="#7A9FA6" d="M261.33,460.34c2.26-4.26,6.88-6.85,8.38-11.55c-5.28-0.56-9.37,3.6-11.83,7.77
		c-0.42,2.141,0.09,4.4-0.73,6.471c-1.96,4.939-5.13,9.43-6.07,14.739c-0.43,3.271-0.38,6.57-0.6,9.86
		c0.44-0.02,1.33-0.06,1.78-0.09C252.92,477.93,256.4,468.57,261.33,460.34z"/>
	<path fill="#7A9FA6" d="M342.87,471.3c-1.851-0.25-3.7-0.49-5.55-0.7l-1-0.1C338.13,472.66,340.59,472.73,342.87,471.3z"/>
	<path fill="#7A9FA6" d="M427.55,528.27c12.92-4.829,26.53-7.88,38.96-14c0.19-0.989,0.391-1.979,0.601-2.949
		c-6.12,1.34-12.141,3.12-17.79,5.85c-7.95,2.57-16.101,4.95-24.471,5.561c0.37,3.329,0.78,6.67,0.86,10.029
		c2.59,0.2,5.18,0.311,7.771,0.45c-2.82,1.21-5.65,2.41-8.461,3.65c0.471,0.529,1.421,1.58,1.891,2.109
		c8.62-3.41,18.02-5.06,25.93-10.13c5.11-3.66,11.61-4.95,16.03-9.649c-0.521-0.601-1.54-1.79-2.061-2.381
		C453.8,520.81,441.53,528.36,427.55,528.27z"/>
	<path fill="#7A9FA6" d="M450.59,508.68c3.95-1.439,8.2-2.939,11.08-6.149c0.35-3.37-1.33-6.471-2.34-9.58
		c-2.44-6.08-2.79-13.08-6.89-18.431c-1.551-2-3.57-4.529-6.431-3.949c-5.54,0.8-10.58,3.529-16.02,4.81
		c0.3,3.76,1.13,7.57,0.41,11.33c-1.271,4.53-5.11,7.85-6.341,12.39c-0.229,2.87,0.351,5.73,0.57,8.601
		c9.67-0.13,19.03-3.01,28.34-5.37c-2.38,1.06-4.729,2.189-7.1,3.26c-6.8,3.15-14.34,3.95-21.65,5.18
		c0.13,0.891,0.25,1.78,0.38,2.681C433.5,513.87,442.12,511.03,450.59,508.68z"/>
	<path fill="#7A9FA6" d="M393.93,540.25c-12.859,0.82-25.75,0.24-38.62,0.28c-0.01-0.32-0.04-0.96-0.06-1.28
		c4.58-0.37,9.17-0.37,13.76-0.3c10.16,0.46,20.391-0.46,30.36-2.37c2.1,0,1.97-2.12,2.36-3.62c-9.591,0.78-19.221,0.271-28.78,1.36
		c-5.79-0.271-11.53-1.23-17.23-2.221c13.74-1.989,27.91,1.23,41.521-1.96c-1.32-1.21-2.28-3.279-4.33-3.149
		c-7.061-0.5-14.32,1.229-21.2-1.03c7.74-1.14,15.64-0.95,23.38-2.15c0.2-0.5,0.62-1.51,0.83-2.01
		c-7.45-1.819-15.27-0.66-22.86-1.24c0.221-0.42,0.671-1.26,0.891-1.68c7.21,1.34,14.54-0.04,21.72-0.979
		c-1.89-2.32-5.06-1.511-7.65-1.65c-4.159,0.21-8.27-0.64-12.18-2c6.09-1.14,12.4-0.17,18.4-1.94c0.2-6.93,0.859-15.17-5.2-20.01
		c0.24,1.97,0.55,3.94,0.95,5.9c-0.561,0.17-1.13,0.34-1.681,0.53c-2.47-5.25-3.47-11.011-5.76-16.311
		c-15.02-0.89-30.609,1.12-45.1-3.96c-2.97-1.07-6.71-1.6-9.07,0.99c-5.16,5.439-7.31,12.92-9.149,20.01
		c4.399,1.58,9.109,2.25,13.27,4.46c-4.4-0.2-8.72-1.06-13.11-1.4c-0.01,0.73-0.029,2.19-0.04,2.921
		c1.471,0.39,2.931,0.79,4.4,1.229c-2.42,1.24-4.86,2.42-7.25,3.71c-0.04,0.51-0.12,1.54-0.16,2.05c1.45,0.86,2.891,1.71,4.32,2.62
		c-2.59,0.16-5.18,0.24-7.771,0.48c-0.1,0.51-0.3,1.55-0.399,2.069c9.21,2.971,18.87,3.65,28.22,5.96
		c7.94,1.011,15.98,0.78,23.97,0.87c0.04,0.561,0.11,1.681,0.15,2.24c-7-0.42-14.08,0.86-21-0.62c-4.59-0.87-9.18-1.819-13.86-1.99
		c-7.649-0.159-14.81-3.68-22.51-3.319c0.021,0.71,0.05,2.12,0.07,2.83c13.58,5.02,28.05,7.149,42.45,7.939
		c1.39-0.069,2.52,0.74,3.649,1.44c-3.87,0.34-7.75-0.05-11.62,0.05c-11.76,0.57-22.819-4.44-34.33-5.8
		c-0.189,1.21-0.359,2.42-0.529,3.64c10.63,3.101,21.33,5.95,32.399,6.95c0,0.43,0,1.3,0,1.729c-4.359-0.38-8.75-0.56-13.03-1.539
		c-6.89-1.761-14.1-1.961-20.85-4.351c-0.11,1.59-0.22,3.19-0.32,4.8c6.69,0.92,13.23,2.601,19.82,4.07
		c18.4,3.23,37.22,5.32,55.87,3.11c7.13-0.771,14.56,0.02,21.42-2.42c0.05-0.57,0.14-1.69,0.18-2.25
		C400.18,538.73,396.82,540.18,393.93,540.25z M323.05,495.27c1.48-6.399,4.351-13.239,10.431-16.52
		C331.15,484.8,328.15,491.07,323.05,495.27z M329.91,499.09c1.04-0.92,3.939-0.97,4.21,0.65
		C333.1,500.74,330.26,500.61,329.91,499.09z M334.82,513.88c-4.431-1.07-9.11-1.28-13.32-3.16c5.21-0.739,10.28,0.96,15.45,1.261
		c8.16,0.579,16.21,2.1,24.33,3.02c-2.4,0.8-4.931,1.48-7.48,0.95C347.5,514.96,341.04,515.4,334.82,513.88z M354.81,519.96
		c4.83-1.03,9.87-0.87,14.671,0.21C364.68,521.32,359.48,522.09,354.81,519.96z M342.7,539.06c2.28-0.319,4.58-0.479,6.88-0.64
		c0.01,0.58,0.03,1.74,0.04,2.311C347.23,540.57,344.88,540.07,342.7,539.06z"/>
	<path fill="#7A9FA6" d="M561.98,395.279c2.739-2.459,3.38-6.02,2.199-9.449C563.02,388.859,562.25,392.04,561.98,395.279z"/>
	<path fill="#7A9FA6" d="M572.35,316.029c-0.369-4.929-0.34-10.449-3.859-14.349c-0.16,8.76,0.91,17.53,0.06,26.28
		c-0.81,7.149-0.83,14.479-3.2,21.351c-3.569,10.25-5.29,21.119-9.77,31.06c-3.21,7.22-6.23,14.72-11.48,20.75
		c-4.08,4.7-5.439,11-8.88,16.11c-3.899,5.829-9.02,10.859-14.939,14.64c0.689-1.66,1.479-3.271,2.33-4.84
		c-2.551,2.149-6.32,0.47-8.641,2.84c-5.8,4.88-11.489,9.91-17.66,14.32c-4.56,2.8-9.29,5.3-13.869,8.079
		c0.159,5.73-1.48,11.221-2.561,16.78c1.15,6.05,3.82,11.73,4.9,17.83c7.239-4.229,12.569-10.82,18.859-16.22
		c3.851-3.47,6.67-7.86,10.25-11.58c-2.02,2.62-4.21,5.11-6.189,7.76c-6.23,8.88-14.46,16.11-22.44,23.37
		c-1,1.04-0.79,2.67-1.189,3.98c1.779-0.351,3.59-0.86,4.939-2.16c5.63-4.681,10.87-9.83,15.9-15.141
		c4.13-4.229,7.33-9.34,12.01-13.029c-3.93,5.71-8.31,11.109-12.57,16.569c-5.77,6.2-11.729,12.261-18.39,17.511
		c-1.6,1.1-1.93,3.05-2.36,4.81c5.23-1.03,8.591-5.41,12.37-8.75c4.94-4.4,9.83-8.85,14.511-13.52
		c5.09-5.681,9.369-12.011,14.079-17.98c3.601-4.42,5.931-9.82,10.32-13.6c-2.08,4.1-4.85,7.79-7.64,11.43
		c-6.88,9.63-12.96,20.03-21.71,28.15c-6.521,6.31-13.011,12.84-20.9,17.43c0.19,0.72,0.55,2.16,0.73,2.88
		c1.42,0.02,2.85,0.05,4.279,0.08c2.49-6.351,9.13-8.99,13.79-13.43c4.601-3.75,7.66-8.971,12.11-12.87
		c6.01-5.21,9.75-12.351,14.34-18.721c3.29-4.159,6.24-8.59,8.7-13.29c8.229-12.97,14.87-26.93,19.689-41.52
		c1.351-4.59,3.98-9.06,3.25-14.011c-1.31,2.831-2.479,5.761-4.34,8.301c1.061-7.22,4.271-13.859,6.521-20.74
		c0.68,1.03,1.359,2.08,2.05,3.131c2.72-8.801,4.01-17.931,5.93-26.91C573.22,344.6,572.51,330.279,572.35,316.029z M534.58,425.52
		c3.49-5.5,6.15-11.55,10.41-16.539c-3.28,8.56-7.99,16.5-12.971,24.17c-2.659,4.47-5.109,9.159-8.92,12.8
		C527.28,439.33,530.33,432.09,534.58,425.52z M553.91,400.88c-1.22,5.53-4.07,10.47-6.58,15.49c-1.22,2.47-2.84,4.729-4.66,6.8
		C544.81,415.07,549.51,407.92,553.91,400.88z M526.43,452.46c-1.18,2.14-3.14,3.63-5.199,4.86
		c6.699-9.641,11.81-20.36,19.489-29.301C536.8,436.64,531.32,444.39,526.43,452.46z M538,443.87c3.42-8.601,8.01-16.66,12.13-24.94
		c1.72-3.489,3.04-7.239,5.5-10.33C552.1,421.34,545.79,433.25,538,443.87z M556.41,397.34c-0.66,0.09-1.98,0.28-2.641,0.38
		c1-2.069,2.011-4.13,3.11-6.14C556.76,393.5,556.59,395.42,556.41,397.34z M569.66,351.34c-0.41-2.92-0.32-5.9,0.67-8.689
		C570.7,345.561,570.67,348.55,569.66,351.34z"/>
	<path fill="#7A9FA6" d="M292.85,464.37c-2.98-4.4-8.64-5.54-12.71-8.65c-2.62-1.29-5.35-4.59-8.47-3.18
		c-7.19,5.24-9.84,14.14-13.45,21.84c-2.59,5.01-4.16,10.55-4.18,16.22c7.28,4.7,14.21,10.091,22.34,13.29
		c5.62,2.13,10.89,6.25,17.21,5.44c-1.33-1.43-2.74-2.84-4.58-3.54c-6.3-2.66-12.29-6.01-17.93-9.87
		c9.4,1.561,16.31,10.311,26.22,9.771c2.52-9.551-1.84-18.87-2.32-28.36C294.53,472.99,294.43,468.48,292.85,464.37z M257.03,486.78
		c2.48,0.729,4.83,1.96,6.29,4.18C261.09,489.77,258.99,488.36,257.03,486.78z"/>
</g>
</svg>
