<?xml version="1.0" encoding="utf-8"?>
<!-- Generator: Adobe Illustrator 15.1.0, SVG Export Plug-In . SVG Version: 6.00 Build 0)  -->
<!DOCTYPE svg PUBLIC "-//W3C//DTD SVG 1.1//EN" "http://www.w3.org/Graphics/SVG/1.1/DTD/svg11.dtd">
<svg version="1.1" id="Layer_1" xmlns="http://www.w3.org/2000/svg" xmlns:xlink="http://www.w3.org/1999/xlink" x="0px" y="0px"
	 width="360px" height="360px" viewBox="0 0 360 360" enable-background="new 0 0 360 360" xml:space="preserve">
<g>
	<g>
		<path fill-rule="evenodd" clip-rule="evenodd" fill="#F26322" d="M290.861,252.143c-27.885,0-50.613-21.086-50.613-47.24
			l-0.002-188.398h37.244l0.002,189.383c0,6.945,5.934,13.191,13.369,13.191s13.371-6.246,13.371-13.191l-0.004-189.383h37.244
			l0.004,188.398C341.477,231.057,318.748,252.143,290.861,252.143 M179.737,219.268c7.429,0,13.369-6.217,13.369-13.133
			c0-1.584-0.041-8.598-0.041-17.451c0-8.201-2.398-15.507-5.395-19.227l-46.042-55.997c-9.382-11.833-12.461-27.176-12.461-39.543
			c0-8.852-0.042-14.904-0.042-16.458c0-26.019,22.724-47,50.613-47s50.614,20.981,50.614,46.999l0.002,27.307h-37.246v-28.3
			c0-6.915-5.939-13.13-13.37-13.13s-13.369,6.215-13.369,13.13c0,1.586,0.043,8.6,0.043,17.452c0,8.201,2.396,15.508,5.393,19.227
			l45.82,55.714c9.547,11.869,12.684,27.367,12.684,39.826c0,8.854,0.041,14.904,0.041,16.459c0,26.02-22.723,47-50.613,47
			s-50.614-20.98-50.614-47v-29.819h37.244v30.812C166.367,213.051,172.306,219.268,179.737,219.268 M55.246,205.887
			c0,6.945,5.935,13.191,13.37,13.191c7.434,0,13.369-6.246,13.369-13.191L81.983,56.24c0-6.944-5.935-13.19-13.37-13.19
			c-7.433,0-13.369,6.246-13.369,13.19L55.246,205.887z M119.229,204.902c0,26.154-22.728,47.24-50.613,47.24
			c-27.886,0-50.614-21.086-50.614-47.24L18,57.24C18,31.086,40.728,10,68.613,10c27.887,0,50.614,21.085,50.614,47.24
			L119.229,204.902"/>
	</g>
	<path fill-rule="evenodd" clip-rule="evenodd" d="M100.612,317.154c-3.963,1.687-7.724,2.537-11.289,2.548
		c-4.534-0.018-7.985-1.272-10.361-3.764c-2.372-2.492-3.568-6.108-3.585-10.86v-8.451c0.017-4.709,1.111-8.285,3.279-10.732
		c2.167-2.444,5.302-3.672,9.404-3.687c3.855,0.036,6.869,1.187,9.04,3.445c2.169,2.261,3.274,5.404,3.31,9.432v7.716H84.01v3.084
		c0.01,2.06,0.617,3.66,1.817,4.788c1.2,1.13,2.918,1.704,5.155,1.716c2.368,0,5.202-0.805,8.5-2.411L100.612,317.154z M84.01,297.5
		h8.63v-3.084c-0.008-3.971-1.448-5.958-4.313-5.972c-1.314,0.007-2.358,0.499-3.132,1.478c-0.773,0.979-1.168,2.406-1.186,4.292
		V297.5z M253.989,304.248c-0.057,2.716,0.289,4.646,1.03,5.783c0.74,1.141,2.213,1.693,4.412,1.661l1.265-0.068v7.916
		c-1.418,0.111-2.701,0.158-3.853,0.134c-4.484,0.047-7.635-0.864-9.453-2.734c-1.819-1.865-2.697-4.957-2.633-9.273v-17.639h-5.179
		v-6.775h5.179v-12.813h9.231v12.813h6.441v6.775h-6.441V304.248z M104.104,327.087l5.753-3.548
		c0.441,0.676,1.097,1.385,1.968,2.133c0.868,0.742,2.086,1.146,3.651,1.208c0.823,0.022,1.786-0.191,2.883-0.639
		c1.099-0.448,1.944-1.259,2.539-2.431c0.407-1.045,0.584-2.433,0.528-4.162l0.003-3.565c-2.292,2.675-4.904,3.763-7.804,3.753
		c-3.565,0.002-6.052-1.501-7.459-4.516s-2.082-7.566-2.022-13.654c-0.035-3.344,0.066-6.241,0.295-8.703
		c0.229-2.46,0.786-4.521,1.666-6.189c0.764-1.4,1.829-2.484,3.199-3.25c1.375-0.769,2.948-1.158,4.725-1.169
		c1.741,0.011,3.689,0.702,4.621,1.177c0.685,0.348,2.048,1.188,2.779,2.456v-2.776h8.994v31.827
		c0.042,1.772-0.043,3.68-0.245,5.723c-0.203,2.041-0.401,3.982-1.283,5.827c-0.882,1.843-2.325,3.353-4.34,4.528
		c-2.014,1.176-4.818,1.782-8.418,1.822c-2.629-0.031-4.782-0.372-6.455-1.023c-1.673-0.657-2.953-1.434-3.84-2.331
		C104.956,328.685,104.377,327.854,104.104,327.087z M121.43,307.549v-13.317c-0.122-1.25-0.34-2.261-0.652-3.05
		c-0.558-1.408-1.678-2.111-3.361-2.1c-1.819-0.016-2.939,0.918-3.353,2.799c-0.414,1.881-0.583,4.791-0.507,8.732v0.804
		c-0.056,3.725,0.162,6.534,0.653,8.423c0.491,1.889,1.605,2.838,3.343,2.842C119.756,312.688,121.051,311.022,121.43,307.549z
		 M165.029,318.996v-35.664h8.479v6.594c1.207-1.984,2.542-3.687,4.198-5.105c1.659-1.42,3.63-2.165,5.914-2.23
		c2.862,0.078,4.911,0.77,6.15,2.07c1.243,1.305,1.998,2.758,2.266,4.359c0.271,1.604,0.379,2.893,0.326,3.866v26.11h-9.199v-23.283
		c0.019-0.504-0.013-1.134-0.097-1.885c-0.082-0.752-0.337-1.424-0.765-2.021c-0.421-0.591-1.135-0.906-2.138-0.94
		c-1.279,0.033-2.375,0.404-3.289,1.117c-0.912,0.713-1.795,1.576-2.65,2.584v24.428H165.029z M134.754,300.179
		c-0.033-1.724,0.031-3.603,0.196-5.645s0.628-3.996,1.391-5.86c0.764-1.867,2.021-3.401,3.775-4.6
		c1.756-1.201,4.205-1.82,7.352-1.862c1.252-0.028,2.566,0.064,3.944,0.278c1.381,0.21,2.72,0.705,4.014,1.486
		c1.301,0.781,2.445,2.009,3.445,3.688c0.798,1.422,1.348,3.204,1.645,5.351c0.297,2.142,0.44,4.802,0.423,7.973
		c0.064,3.614-0.098,6.599-0.496,8.958c-0.395,2.36-1.418,4.422-3.077,6.185c-0.502,0.638-1.419,1.343-2.754,2.109
		c-1.333,0.767-3.445,1.187-6.33,1.256c-1.061,0.017-2.318-0.056-3.775-0.228c-1.452-0.174-2.743-0.568-3.865-1.19
		c-1.827-1.114-3.165-2.518-4.007-4.204c-0.84-1.686-1.374-3.666-1.595-5.942C134.816,305.656,134.721,303.072,134.754,300.179z
		 M143.432,304.113c0,1.726,0.069,3.031,0.198,4.203c0.054,0.485,0.143,0.931,0.261,1.345l0.236,0.692
		c0.431,1.094,1.022,1.775,1.775,2.05l0.891,0.28c0.414,0.105,0.748,0.147,0.996,0.123c0.682-0.004,1.049-0.047,1.379-0.129
		c0.774-0.163,1.365-0.504,1.775-1.021c0.237-0.3,0.438-0.674,0.605-1.121c0.323-0.747,0.525-1.609,0.605-2.598
		c0.113-1.395,0.16-2.838,0.113-4.326v-3.219c0.01-0.797,0.017-1.563,0-2.297c0.026-1.758-0.037-3.327-0.188-4.707
		s-0.555-2.472-1.215-3.271c-0.658-0.8-1.736-1.211-3.231-1.228c-1.407,0.034-2.411,0.506-3.012,1.417
		c-0.596,0.91-0.953,2.061-1.065,3.459c-0.065,0.779-0.11,1.572-0.124,2.379c-0.014,0.404-0.011,0.797,0,1.18V304.113z
		 M56.042,318.996v-35.664h7.949l0.611,4.527c1.285-3.576,4.062-5.404,8.328-5.487h0.61v8.694h-0.88
		c-2.709-0.018-4.638,0.675-5.78,2.074c-1.147,1.4-1.7,3.605-1.669,6.617v19.238H56.042z M307.077,304.248
		c-0.06,2.716,0.289,4.646,1.029,5.783c0.742,1.141,2.215,1.693,4.414,1.661l1.265-0.068v7.916c-1.42,0.111-2.703,0.158-3.852,0.134
		c-4.487,0.047-7.639-0.864-9.457-2.734c-1.815-1.865-2.696-4.957-2.633-9.273v-17.639h-5.176v-6.775h5.176v-12.813h9.233v12.813
		h6.439v6.775h-6.439V304.248z M341.015,317.154c-3.963,1.687-7.724,2.537-11.29,2.548c-4.53-0.018-7.982-1.272-10.358-3.764
		c-2.372-2.491-3.569-6.108-3.585-10.86v-8.451c0.017-4.709,1.112-8.285,3.277-10.732c2.169-2.444,5.304-3.672,9.405-3.686
		c3.857,0.035,6.869,1.186,9.04,3.444c2.17,2.261,3.272,5.404,3.312,9.432v7.716h-16.4v3.084c0.012,2.06,0.621,3.66,1.817,4.788
		c1.199,1.13,2.916,1.704,5.154,1.716c2.368,0,5.202-0.805,8.499-2.411L341.015,317.154z M324.415,297.5h8.63v-3.084
		c-0.01-3.971-1.45-5.958-4.313-5.972c-1.313,0.007-2.356,0.499-3.134,1.478c-0.771,0.979-1.167,2.406-1.183,4.292V297.5z
		 M282.432,314.74c-1.605,1.605-3.207,2.804-4.798,3.586c-1.59,0.787-3.289,1.18-5.097,1.176c-2.753-0.042-4.931-0.946-6.526-2.717
		c-1.592-1.768-2.403-4.148-2.435-7.143c0-7.992,5.843-12.799,17.528-14.424v-2.814c-0.01-1.061-0.423-1.926-1.226-2.592
		c-0.812-0.668-1.951-1.01-3.424-1.031c-2.592,0.035-5.312,1.242-8.166,3.623l-4.32-5.566c3.681-3.12,8.018-4.664,13.021-4.63
		c8.83,0.033,13.28,4.125,13.346,12.276v15.359c0.024,1.176,0.577,1.912,1.661,2.213v6.976c-0.545,0.058-1.051,0.078-1.529,0.067
		C286.729,319.121,284.049,317.668,282.432,314.74z M281.104,300.655c-2.805,0.403-4.948,1.27-6.44,2.598
		c-1.492,1.329-2.244,2.897-2.261,4.713c0.028,1.327,0.394,2.377,1.099,3.161c0.703,0.783,1.602,1.181,2.69,1.2
		c1.512-0.005,2.704-0.635,3.576-1.896c0.872-1.262,1.319-3.136,1.336-5.621V300.655z M143.669,332.212v11.715
		c-0.024,1.352,0.125,2.338,0.451,2.956c0.327,0.617,0.988,0.928,1.986,0.917c1.008,0.009,1.671-0.302,1.995-0.926
		c0.322-0.626,0.469-1.606,0.439-2.947v-11.715h3.948v12.666c0.005,2.2-0.515,3.842-1.565,4.922
		c-1.047,1.082-2.653,1.62-4.817,1.612c-4.285,0.016-6.41-2.162-6.384-6.534v-12.666H143.669z M162.913,350.955v-18.743h3.802
		l5.698,11.384l-0.073-11.384h3.434v18.743h-3.24l-6.26-12.669l0.072,12.669H162.913z M186.583,350.955v-1.77l0,0v-15.334l0,0v-1.64
		h3.944v1.64l0,0v15.334l0,0v1.77H186.583z M248.021,335.373v4.923h1.099c1.188,0.029,2.063-0.118,2.622-0.441
		c0.562-0.324,0.838-0.998,0.835-2.021c0.003-1.022-0.273-1.696-0.835-2.018c-0.56-0.325-1.435-0.474-2.622-0.443H248.021z
		 M244.074,332.194h4.485c1.188-0.014,2.237,0.031,3.148,0.127c0.906,0.097,1.686,0.32,2.33,0.665
		c0.806,0.454,1.421,1.086,1.845,1.891c0.421,0.807,0.633,1.761,0.64,2.853c-0.007,1.265-0.281,2.329-0.838,3.196
		c-0.555,0.863-1.363,1.491-2.428,1.885l3.897,8.128h-4.359l-3.459-7.643h-1.315v7.643h-3.946V332.194z M209.189,350.955h-4.167
		l-5.453-18.743h3.946l3.604,13.101l3.581-13.101h3.944L209.189,350.955z M223.149,350.955v-18.743h12.009v3.615h-8.065v3.357h5.51
		v3.616h-5.51v4.537h8.577v3.617H223.149z M264.999,347.646l3.071-2.283c0.5,0.883,1.022,1.536,1.571,1.959
		c0.55,0.425,1.18,0.635,1.886,0.632c0.689-0.013,1.233-0.2,1.635-0.565c0.393-0.361,0.598-0.834,0.605-1.41
		c0.013-1.012-0.645-1.807-1.971-2.383l-2.441-1.057c-0.747-0.337-1.404-0.727-1.968-1.174c-1.248-1.042-1.873-2.444-1.878-4.207
		c0.02-1.672,0.537-2.991,1.551-3.957c1.02-0.966,2.428-1.459,4.225-1.478c2.597,0.012,4.537,1.114,5.82,3.307l-2.824,2.128
		c-0.938-1.406-2.01-2.105-3.215-2.104c-0.616,0.01-1.1,0.172-1.445,0.487c-0.346,0.311-0.521,0.724-0.528,1.232
		c-0.002,0.47,0.177,0.891,0.535,1.261c0.352,0.369,0.89,0.719,1.608,1.046l2.501,1.103c0.761,0.335,1.413,0.722,1.955,1.155
		c1.222,1.033,1.848,2.479,1.877,4.334c-0.025,1.731-0.586,3.119-1.681,4.163c-1.096,1.043-2.585,1.576-4.459,1.606
		C268.63,351.433,266.487,350.166,264.999,347.646z M287.032,350.955v-1.77l0,0v-15.334l0,0v-1.64h3.946v1.64l0,0v15.334l0,0v1.77
		H287.032z M306.229,350.955v-15.128h-4.505v-3.615h12.958v3.615h-4.508v15.128H306.229z M326.975,350.955v-7.485l-5.455-11.258
		h4.188l3.238,6.999l3.245-6.999h4.162l-5.434,11.258v7.485H326.975z M230.234,281.339c-0.779-1.473-1.861-2.727-3.238-3.757
		c-1.481-1.11-3.199-1.686-5.126-1.734c-1.813,0.053-3.192,0.435-4.06,1.209c-0.824,0.731-1.356,1.518-1.564,2.357
		c-0.185,0.755-0.283,1.299-0.24,1.591c0.068,1.812,0.74,3.207,2.033,4.167c1.239,0.925,2.637,1.641,4.194,2.162l6.049,2.328
		c1.45,0.545,2.911,1.311,4.382,2.299c1.457,0.984,2.672,2.159,3.638,3.505c0.338,0.399,0.847,1.354,1.519,2.897
		c0.651,1.495,1.019,3.424,1.094,5.787c0.042,0.786-0.043,1.938-0.249,3.445c-0.203,1.491-0.774,3.104-1.724,4.844
		c-0.935,1.713-2.482,3.301-4.67,4.766c-1.436,0.871-2.98,1.5-4.654,1.9c-1.686,0.401-3.148,0.597-4.382,0.593
		c-4.107,0.078-7.518-0.608-10.229-2.044c-2.651-1.399-5.008-3.994-7.059-7.811l7.67-5.359c0.891,2.034,2.09,3.641,3.595,4.82
		c1.592,1.238,3.447,1.867,5.564,1.889c0.836,0.014,1.754-0.143,2.756-0.467c1.028-0.336,1.925-0.938,2.682-1.796
		c0.783-0.891,1.179-2.134,1.215-3.688c0.022-1.264-0.245-2.319-0.82-3.137c-0.57-0.809-1.546-1.544-2.896-2.221
		c-1.336-0.67-3.192-1.483-5.564-2.437c-2.426-0.938-4.649-2.036-6.661-3.29c-1.991-1.242-3.592-2.861-4.795-4.865
		c-1.192-1.986-1.813-4.592-1.85-7.832c0.036-4.158,1.372-7.495,4.012-10.039c2.63-2.541,6.378-3.865,11.276-3.941
		c3.455,0,6.439,0.744,8.979,2.223c2.474,1.447,4.654,3.602,6.535,6.479L230.234,281.339z M18.03,299.406v-13.498
		c-0.035-2.587,0.245-5.068,0.838-7.441c0.591-2.376,1.7-4.531,3.325-6.466c1.53-1.729,3.338-2.967,5.427-3.71
		c2.09-0.743,4.272-1.105,6.551-1.088c2.458-0.023,4.766,0.332,6.916,1.071c2.151,0.737,4.033,2.003,5.646,3.794
		c1.343,1.461,2.368,3.421,3.083,5.875c0.717,2.455,1.077,5.681,1.083,9.679v12.194c0.014,3.499-0.296,6.453-0.928,8.865
		c-0.633,2.41-1.692,4.459-3.174,6.139c-1.349,1.488-2.813,2.59-4.391,3.308c-1.579,0.718-3.105,1.188-4.581,1.403
		c-1.478,0.216-2.737,0.314-3.784,0.294c-1.614,0.027-3.408-0.233-5.38-0.779c-1.972-0.548-3.819-1.567-5.537-3.061
		c-1.72-1.491-3.005-3.638-3.86-6.438c-0.506-1.846-0.843-3.707-1.008-5.584C18.089,302.084,18.014,300.564,18.03,299.406z
		 M28.703,284.195v17.472c-0.057,2.685,0.301,4.855,1.073,6.5c0.774,1.652,2.302,2.495,4.589,2.542
		c1.854-0.047,3.181-0.569,3.986-1.564c0.803-1,1.293-2.191,1.467-3.58c0.174-1.387,0.244-2.688,0.209-3.897v-17.472
		c0.035-1.195-0.031-2.383-0.204-3.561c-0.17-1.178-0.648-2.162-1.435-2.951c-0.786-0.788-2.083-1.2-3.892-1.229
		c-1.897,0.057-3.255,0.578-4.078,1.564c-0.822,0.984-1.323,2.081-1.502,3.287C28.738,282.511,28.667,283.475,28.703,284.195z"/>
</g>
</svg>
