<?xml version="1.0" encoding="utf-8"?>
<!-- Generator: Adobe Illustrator 15.1.0, SVG Export Plug-In . SVG Version: 6.00 Build 0)  -->
<!DOCTYPE svg PUBLIC "-//W3C//DTD SVG 1.1//EN" "http://www.w3.org/Graphics/SVG/1.1/DTD/svg11.dtd">
<svg version="1.1" id="Vrstva_1" xmlns="http://www.w3.org/2000/svg" xmlns:xlink="http://www.w3.org/1999/xlink" x="0px" y="0px"
	 width="595.28px" height="171px" viewBox="0 0 595.28 171" enable-background="new 0 0 595.28 171" xml:space="preserve">
<path fill="#EE3124" d="M62.316,34.202c-0.611-1.977,9.202-4.551,19.959-5.026c10.836-0.475,23.653,1.681,26.051,8.83
	c3.914,11.717-15.926,28.802-33.22,37.197c-4.246,2.053-6.811,2.618-7.887,2.475c-1.017-0.136-1.176-1.086-0.844-1.741
	c0.611-1.232,3.408-3.74,7.136-6.471C92.979,55.247,99.304,44.816,95.63,40.593c-2.358-2.71-12.225-4.594-22.47-4.594
	C70.376,35.999,63.067,36.607,62.316,34.202 M84.149,87.74c-6.139-4.212-17.082-5.618-26.085-5.149
	c-8.026,0.422-21.813,2.973-21.301,5.512c0.492,2.743,9.222,1.894,13.222,1.894c8.797,0,22.756,0.531,24.956,6.205
	c4.744,12.212-27.414,34.138-34.271,32.024c-3.103-0.943,6.299-16.883,9.707-22.616c2.033-3.415,5.116-8.797,2.485-9.155
	c-2.943-0.412-6.192,4.65-8.298,7.567c-5.721,7.927-11.581,16.577-16.285,25.474c-1.449,2.744-6.272,11.009-4.618,12.085
	c1.548,0.99,8.903-0.425,18.258-4.132c29.4-11.641,42.642-26.815,46.19-39.347C89.352,93.689,87.205,89.836,84.149,87.74
	 M128.266,67.788c-9.574-1.575-26.683-2.179-32.536,6.787c-4.518,6.926,4.026,16.417,11.8,25.613
	c6.232,7.362,13.016,14.392,10.245,18.504c-2.259,3.355-16.756,3.355-21.753,3.621c-6.06,0.319-14.796,0.332-16.318,1.17
	c-1.369,0.73-2.133,3.016,2.997,3.933c4.126,0.744,13.946,2.246,24.297,2.246c10.81,0,22.165-1.78,24.63-10.152
	c1.98-6.717-4.877-13.926-10.923-21.228c-6.598-8.007-13.289-13.704-12.724-19.371c0.425-4.409,9.076-4.661,23.414-4.914
	c2.983-0.053,8.93-0.196,7.78-2.551C138.152,69.366,133.708,68.678,128.266,67.788 M245.289,106.965
	c-2.106,12.783-10.757,23.493-26.849,23.493c-16.105,0-21.241-10.71-19.135-23.493c2.093-12.783,10.757-23.484,26.849-23.484
	C242.246,83.481,247.388,94.182,245.289,106.965 M224.884,91.198c-9.135,0-13.926,5.309-15.64,15.767
	c-1.714,10.471,1.322,15.767,10.465,15.767c9.135,0,13.919-5.296,15.633-15.767C237.063,96.507,234.02,91.198,224.884,91.198
	 M302.78,83.475h-8.425l-8.226,45.044h10.013l7.946-43.513C304.229,84.278,303.684,83.475,302.78,83.475 M278.928,121.21h-19.142
	l6.611-36.197c0.126-0.728-0.412-1.532-1.309-1.532h-8.425l-8.225,45.038h31.712l0.817-4.492
	C281.333,122.007,280.655,121.21,278.928,121.21 M336.492,83.475h-24.251l-0.119,0.728c-0.565,3.057-0.313,6.604,4.524,6.604h17.959
	c7.109,0,9.833,5.143,8.065,14.789c-1.607,8.851-6.378,15.601-13.62,15.601h-9.733l4.617-25.327h-8.278
	c-1.116,0-1.887,0.804-2.013,1.528l-5.681,31.121h18.988c14.02,0,23.8-6.598,26.829-23.241
	C356.119,92.48,350.79,83.475,336.492,83.475 M162.21,93.291c-0.564,3.628,0.552,7.887,4.591,10.711l14.398,10.046
	c1.508,1.043,2.259,1.767,2.073,2.982c-0.272,1.682-1.149,2.359-4.133,2.359h-16.75c-1.788,0-2.757,0.877-3.083,2.896v6.245h19.613
	c8.598,0,12.85-5.076,13.707-10.458c0.804-5.075-0.897-8.69-4.166-11.028l-15.308-10.856c-1.229-0.878-1.535-1.343-1.448-2.007
	c0.14-1.104,1.143-1.555,2.89-1.555h17.48c2.14,0,3.355-2.187,3.694-4.349v-4.797h-23.115
	C167.526,83.481,163.041,88.069,162.21,93.291 M495.3,87.79c2.007,2.278,2.152,6.511,1.581,9.115
	c-0.69,3.183-3.721,11.216-15.068,12.232l9.561,16.377c0,0,0.651,0.983,0.651,1.622c0.007,0.432-0.18,0.963-0.571,1.229
	c-0.379,0.286-0.791,0.359-1.223,0.359h-2.525l-11.208-19.321l-9.029-0.04l-3.508,19.361h-4.957l8.378-45.051h11.574
	C485.792,83.674,491.792,83.773,495.3,87.79 M490.749,90.514c-0.904-0.88-2.286-1.302-4.426-1.704
	c-0.558-0.103-1.475-0.186-2.518-0.239c-2.578-0.143-10.239-0.026-12.584-0.007l-2.97,16.382c1.767,0.026,3.787,0.053,5.209,0.066
	c4.006,0,7.886-0.133,10.624-0.877C491.141,102.221,494.642,94.222,490.749,90.514 M537.291,84.103
	c-0.379-0.286-0.811-0.342-1.236-0.349h-2.199l-23.182,19.823l3.083-17.517c0.193-0.971-0.278-1.632-0.671-1.911
	c-0.412-0.313-0.924-0.475-1.415-0.475h-2.232l-8.372,45.037h4.957l3.668-19.933l18.351,19.946h2.199
	c0.438-0.014,0.857-0.073,1.229-0.359c0.385-0.266,0.591-0.797,0.571-1.229c0-0.811-0.658-1.622-0.658-1.622l-17.367-18.869
	l23.188-19.692c0,0,0.651-0.559,0.651-1.628C537.862,84.896,537.669,84.378,537.291,84.103 M455.275,108.766
	c-3.043,12.803-12.265,22.902-27.001,21.772v-0.014c-13.7-1.581-17.627-13.634-14.737-25.194
	c3.196-12.783,12.385-22.889,26.902-21.766v0.013C453.967,85.155,458.007,97.225,455.275,108.766 M439.297,88.188
	c-8.259-0.455-17.7,4.412-20.949,17.54c-3.195,12.877,2.777,19.122,10.877,20.172l0.844,0.04
	c8.352,0.438,17.248-4.438,20.377-17.567C453.495,95.497,447.509,89.025,439.297,88.188 M571.953,83.674h-18.584
	c-8.684,0.02-9.601,7.146-9.641,10.508c0,3.541,2.571,6.352,3.847,7.501l12.657,12.392c1.502,1.475,2.232,3.222,2.232,4.837
	c0,2.75-2.1,4.989-5.488,4.977c-0.006,0.02-16.377,0.033-16.53,0.072c-0.538,0.094-1.103,0.798-1.09,1.362h-0.046l0.046,0.021
	c0,0.013,0,2.737,0,3.382h18.397c8.691-0.033,9.607-7.149,9.647-10.512c0-0.013-0.007-0.013-0.007-0.026
	c0.007-4.657-4.271-8.252-4.305-8.265l-11.999-11.813c-1.502-1.476-2.426-2.997-2.433-4.625c0.007-2.757,2.106-4.986,5.476-4.986
	c0.02-0.006,16.59-0.02,16.723-0.063l0.047,0.123l-0.04-0.123c0.538-0.104,1.116-0.808,1.097-1.365c0,0-0.007-0.007,0-0.017
	C571.96,87.025,571.953,84.312,571.953,83.674 M413.563,85.461c0.014-0.468-0.199-1.066-0.604-1.389
	c-0.418-0.332-0.87-0.398-1.309-0.398h-2.266l-17.487,39.622l-4.558-21.228c-0.266-1.867-1.761-3.137-3.528-3.037h-2.943
	l-13.8,24.039l0.133-37.493c0.014-0.501-0.186-1.116-0.624-1.461c-0.433-0.355-0.91-0.442-1.396-0.442h-2.95v45.037h3.761v-0.007
	c0.02,0,0.053,0.007,0.08,0.007c1.103,0.014,2.1-0.259,2.916-0.857c0.744-0.531,1.382-1.275,1.947-2.166l12.085-21.553l5.037,24.576
	h3.129h0.093c2.054,0,3.774-1.196,4.678-3.235l17.374-39.074C413.451,86.079,413.551,85.87,413.563,85.461"/>
</svg>
