<?xml version="1.0" encoding="UTF-8" ?>
<!DOCTYPE svg PUBLIC "-//W3C//DTD SVG 1.1//EN" "http://www.w3.org/Graphics/SVG/1.1/DTD/svg11.dtd">
<svg width="43pt" height="70pt" viewBox="0 0 43 70" version="1.1" xmlns="http://www.w3.org/2000/svg">
<path fill="#ffffff" d=" M 0.00 0.00 L 4.13 0.00 C 1.12 1.14 -1.03 4.13 0.00 7.56 L 0.00 0.00 Z" />
<path fill="#5d5e60" d=" M 4.13 0.00 L 40.37 0.00 L 40.01 0.49 C 40.67 1.47 41.50 2.27 42.50 2.91 C 42.17 3.04 41.53 3.31 41.20 3.44 C 28.71 2.01 16.07 2.89 3.52 2.89 C 3.22 3.63 2.62 5.12 2.32 5.87 C 2.18 6.22 1.91 6.91 1.77 7.26 C 1.71 6.60 1.59 5.28 1.53 4.62 C 1.13 8.81 2.14 13.40 0.00 17.23 L 0.00 7.56 C -1.03 4.13 1.12 1.14 4.13 0.00 Z" />
<path fill="#e4e5e5" d=" M 40.37 0.00 L 43.00 0.00 L 43.00 2.68 L 42.50 2.91 C 41.50 2.27 40.67 1.47 40.01 0.49 L 40.37 0.00 Z" />
<path fill="#4b4c4e" d=" M 3.52 2.89 C 16.07 2.89 28.71 2.01 41.20 3.44 C 41.13 5.82 41.05 8.20 40.97 10.58 C 34.93 9.10 28.70 9.58 22.55 9.49 C 17.27 3.98 9.11 5.57 2.32 5.87 C 2.62 5.12 3.22 3.63 3.52 2.89 Z" />
<path fill="#7d7c7e" d=" M 42.50 2.91 L 43.00 2.68 L 43.00 19.18 L 42.24 18.08 C 41.28 17.22 40.46 15.91 39.05 15.80 C 34.87 15.20 30.57 14.72 26.86 12.52 C 31.49 13.17 36.16 13.64 40.84 13.63 C 40.87 12.87 40.94 11.34 40.97 10.58 C 41.05 8.20 41.13 5.82 41.20 3.44 C 41.53 3.31 42.17 3.04 42.50 2.91 Z" />
<path fill="#ffffff" d=" M 1.53 4.62 C 1.59 5.28 1.71 6.60 1.77 7.26 C 1.67 8.96 1.58 10.66 1.54 12.36 C 1.79 15.15 2.55 17.87 2.74 20.67 C 3.81 31.44 2.71 42.30 3.30 53.10 C 3.49 57.45 5.74 61.41 8.66 64.52 C 11.21 67.41 14.90 68.90 18.50 70.00 L 0.00 70.00 L 0.00 17.23 C 2.14 13.40 1.13 8.81 1.53 4.62 Z" />
<path fill="#3c3a3b" d=" M 2.32 5.87 C 9.11 5.57 17.27 3.98 22.55 9.49 C 23.04 10.20 24.02 11.64 24.51 12.36 C 16.86 12.56 9.20 12.62 1.54 12.36 C 1.58 10.66 1.67 8.96 1.77 7.26 C 1.91 6.91 2.18 6.22 2.32 5.87 Z" />
<path fill="#5c5c5e" d=" M 22.55 9.49 C 28.70 9.58 34.93 9.10 40.97 10.58 C 40.94 11.34 40.87 12.87 40.84 13.63 C 36.16 13.64 31.49 13.17 26.86 12.52 C 30.57 14.72 34.87 15.20 39.05 15.80 C 40.46 15.91 41.28 17.22 42.24 18.08 C 40.02 22.76 40.96 28.00 40.81 32.99 C 40.67 39.80 41.10 46.63 40.61 53.43 C 39.94 61.69 33.06 68.35 25.14 70.00 L 18.50 70.00 C 14.90 68.90 11.21 67.41 8.66 64.52 C 8.59 64.06 8.46 63.13 8.40 62.66 C 11.87 65.81 16.08 68.37 20.87 68.61 C 21.34 68.62 22.29 68.63 22.76 68.64 C 30.97 68.27 37.72 61.80 39.36 53.91 C 38.16 53.80 36.95 53.69 35.75 53.57 C 36.77 53.32 37.78 53.01 38.79 52.69 L 38.91 51.80 C 39.21 48.48 39.13 45.14 39.10 41.80 C 39.10 41.40 39.10 40.60 39.10 40.20 C 39.10 36.83 39.20 33.46 39.03 30.10 C 37.98 29.45 36.89 28.86 35.77 28.34 C 36.88 28.24 38.00 28.15 39.11 28.07 C 39.10 25.66 39.08 23.26 39.06 20.85 C 37.05 20.83 35.05 20.79 33.04 20.81 C 30.54 20.85 28.04 20.97 25.55 21.06 C 24.97 21.07 23.81 21.10 23.23 21.11 C 22.53 21.11 21.12 21.10 20.41 21.10 C 19.89 21.09 18.85 21.07 18.33 21.07 L 16.79 21.05 C 16.36 21.05 15.48 21.04 15.04 21.03 C 13.44 20.99 11.83 20.93 10.23 20.89 C 8.27 20.85 6.32 20.85 4.36 20.77 L 2.74 20.67 C 2.55 17.87 1.79 15.15 1.54 12.36 C 9.20 12.62 16.86 12.56 24.51 12.36 C 24.02 11.64 23.04 10.20 22.55 9.49 Z" />
<path fill="#ffffff" d=" M 42.24 18.08 L 43.00 19.18 L 43.00 70.00 L 25.14 70.00 C 33.06 68.35 39.94 61.69 40.61 53.43 C 41.10 46.63 40.67 39.80 40.81 32.99 C 40.96 28.00 40.02 22.76 42.24 18.08 Z" />
<path fill="#373b3b" d=" M 2.74 20.67 L 4.36 20.77 C 4.46 23.28 4.43 25.79 4.41 28.30 C 5.18 28.30 6.71 28.30 7.47 28.31 C 8.21 28.31 9.69 28.31 10.43 28.32 C 11.89 28.33 13.36 28.33 14.82 28.32 C 15.68 28.31 17.38 28.30 18.24 28.29 C 18.79 28.28 19.88 28.27 20.43 28.27 C 20.42 25.88 20.42 23.49 20.41 21.10 C 21.12 21.10 22.53 21.11 23.23 21.11 C 23.25 23.49 23.25 25.87 23.25 28.24 C 23.83 28.26 24.98 28.29 25.55 28.31 C 28.96 28.41 32.36 28.32 35.77 28.34 C 36.89 28.86 37.98 29.45 39.03 30.10 C 37.89 30.08 36.75 30.05 35.61 30.03 C 32.30 29.91 28.98 29.95 25.67 30.17 C 25.05 30.21 23.82 30.29 23.20 30.32 C 23.21 31.48 23.20 32.64 23.19 33.80 C 23.10 35.72 22.99 37.63 22.84 39.54 L 23.25 39.51 C 26.11 39.80 28.99 39.81 31.86 39.84 C 32.80 39.89 34.68 39.97 35.62 40.01 C 36.78 40.07 37.94 40.14 39.10 40.20 C 39.10 40.60 39.10 41.40 39.10 41.80 C 38.23 41.82 36.48 41.85 35.61 41.87 C 34.42 41.91 33.22 41.97 32.03 42.03 C 31.31 42.06 29.88 42.12 29.16 42.15 C 27.05 42.21 24.95 42.22 22.85 42.25 C 22.85 44.18 22.86 46.12 22.85 48.06 C 22.83 48.93 22.80 50.68 22.78 51.56 C 23.29 51.58 24.30 51.62 24.81 51.64 C 28.40 51.78 32.00 51.84 35.60 51.82 C 36.43 51.82 38.08 51.81 38.91 51.80 L 38.79 52.69 C 37.78 53.01 36.77 53.32 35.75 53.57 C 31.38 53.65 27.02 53.52 22.65 53.55 C 22.62 58.22 22.74 62.89 22.80 67.56 L 22.76 68.64 C 22.29 68.63 21.34 68.62 20.87 68.61 C 20.52 63.57 20.52 58.52 20.47 53.48 C 18.71 53.54 16.95 53.60 15.19 53.66 C 14.61 53.67 13.44 53.69 12.85 53.69 C 12.49 53.69 11.77 53.69 11.41 53.68 C 10.44 53.68 8.48 53.66 7.51 53.66 C 6.70 53.65 5.09 53.64 4.28 53.64 C 5.16 56.85 6.58 59.88 8.40 62.66 C 8.46 63.13 8.59 64.06 8.66 64.52 C 5.74 61.41 3.49 57.45 3.30 53.10 C 2.71 42.30 3.81 31.44 2.74 20.67 Z" />
<path fill="#ffffff" d=" M 4.36 20.77 C 6.32 20.85 8.27 20.85 10.23 20.89 C 9.13 23.29 8.20 25.77 7.47 28.31 C 6.71 28.30 5.18 28.30 4.41 28.30 C 4.43 25.79 4.46 23.28 4.36 20.77 Z" />
<path fill="#374b9f" d=" M 10.23 20.89 C 11.83 20.93 13.44 20.99 15.04 21.03 C 12.98 23.09 11.60 25.68 10.43 28.32 C 9.69 28.31 8.21 28.31 7.47 28.31 C 8.20 25.77 9.13 23.29 10.23 20.89 Z" />
<path fill="#9696c9" d=" M 15.04 21.03 C 15.48 21.04 16.36 21.05 16.79 21.05 C 15.90 23.40 15.34 25.87 14.82 28.32 C 13.36 28.33 11.89 28.33 10.43 28.32 C 11.60 25.68 12.98 23.09 15.04 21.03 Z" />
<path fill="#4156a6" d=" M 16.79 21.05 L 18.33 21.07 C 18.31 23.47 18.27 25.88 18.24 28.29 C 17.38 28.30 15.68 28.31 14.82 28.32 C 15.34 25.87 15.90 23.40 16.79 21.05 Z" />
<path fill="#fffafc" d=" M 18.33 21.07 C 18.85 21.07 19.89 21.09 20.41 21.10 C 20.42 23.49 20.42 25.88 20.43 28.27 C 19.88 28.27 18.79 28.28 18.24 28.29 C 18.27 25.88 18.31 23.47 18.33 21.07 Z" />
<path fill="#fffafc" d=" M 23.23 21.11 C 23.81 21.10 24.97 21.07 25.55 21.06 C 25.54 23.48 25.54 25.89 25.55 28.31 C 24.98 28.29 23.83 28.26 23.25 28.24 C 23.25 25.87 23.25 23.49 23.23 21.11 Z" />
<path fill="#3c52a3" d=" M 25.55 21.06 C 28.04 20.97 30.54 20.85 33.04 20.81 C 34.24 23.20 35.15 25.73 35.77 28.34 C 32.36 28.32 28.96 28.41 25.55 28.31 C 25.54 25.89 25.54 23.48 25.55 21.06 Z" />
<path fill="#ffffff" d=" M 33.04 20.81 C 35.05 20.79 37.05 20.83 39.06 20.85 C 39.08 23.26 39.10 25.66 39.11 28.07 C 38.00 28.15 36.88 28.24 35.77 28.34 C 35.15 25.73 34.24 23.20 33.04 20.81 Z" />
<path fill="#ffffff" d=" M 4.41 30.15 C 5.52 30.13 6.63 30.12 7.73 30.12 C 7.73 33.33 7.71 36.54 7.59 39.75 L 7.56 40.38 C 6.77 40.23 5.18 39.93 4.38 39.78 C 4.42 36.57 4.42 33.36 4.41 30.15 Z" />
<path fill="#3c51a3" d=" M 7.73 30.12 C 8.63 30.15 10.42 30.23 11.32 30.26 C 11.37 33.46 11.41 36.66 11.46 39.86 C 10.49 39.83 8.55 39.78 7.59 39.75 C 7.71 36.54 7.73 33.33 7.73 30.12 Z" />
<path fill="#dcdbee" d=" M 11.32 30.26 C 11.70 30.25 12.47 30.23 12.86 30.22 C 12.79 32.54 12.71 34.86 12.62 37.18 C 14.35 34.86 16.14 32.55 18.35 30.66 C 18.71 30.58 19.44 30.42 19.80 30.34 L 20.27 30.23 C 20.60 33.54 20.47 36.87 20.50 40.20 C 20.33 38.14 20.14 36.09 19.92 34.04 C 18.25 35.59 16.71 37.26 15.32 39.06 C 16.58 39.34 17.85 39.62 19.12 39.89 C 16.57 39.78 14.01 39.82 11.46 39.86 C 11.41 36.66 11.37 33.46 11.32 30.26 Z" />
<path fill="#797eb4" d=" M 12.86 30.22 C 15.17 30.24 17.50 30.14 19.80 30.34 C 19.44 30.42 18.71 30.58 18.35 30.66 C 16.14 32.55 14.35 34.86 12.62 37.18 C 12.71 34.86 12.79 32.54 12.86 30.22 Z" />
<path fill="#f0ebf5" d=" M 23.20 30.32 C 23.82 30.29 25.05 30.21 25.67 30.17 C 28.12 33.13 30.31 36.32 31.86 39.84 C 28.99 39.81 26.11 39.80 23.25 39.51 C 24.92 39.24 26.60 39.00 28.27 38.76 C 27.41 36.36 25.45 34.80 23.19 33.80 C 23.20 32.64 23.21 31.48 23.20 30.32 Z" />
<path fill="#3e53a4" d=" M 25.67 30.17 C 28.98 29.95 32.30 29.91 35.61 30.03 C 35.62 33.35 35.63 36.68 35.62 40.01 C 34.68 39.97 32.80 39.89 31.86 39.84 C 30.31 36.32 28.12 33.13 25.67 30.17 Z" />
<path fill="#ffffff" d=" M 35.61 30.03 C 36.75 30.05 37.89 30.08 39.03 30.10 C 39.20 33.46 39.10 36.83 39.10 40.20 C 37.94 40.14 36.78 40.07 35.62 40.01 C 35.63 36.68 35.62 33.35 35.61 30.03 Z" />
<path fill="#fff37a" d=" M 23.19 33.80 C 25.45 34.80 27.41 36.36 28.27 38.76 C 26.60 39.00 24.92 39.24 23.25 39.51 L 22.84 39.54 C 22.99 37.63 23.10 35.72 23.19 33.80 Z" />
<path fill="#f8f074" d=" M 15.32 39.06 C 16.71 37.26 18.25 35.59 19.92 34.04 C 20.14 36.09 20.33 38.14 20.50 40.20 L 19.12 39.89 C 17.85 39.62 16.58 39.34 15.32 39.06 Z" />
<path fill="#ffffff" d=" M 4.42 51.75 C 4.41 48.39 4.41 45.02 4.43 41.66 C 5.22 41.81 6.79 42.10 7.58 42.25 C 7.79 45.46 7.74 48.68 7.71 51.90 C 6.61 51.85 5.52 51.79 4.42 51.75 Z" />
<path fill="#3b51a3" d=" M 7.58 42.25 C 8.56 42.20 10.52 42.11 11.50 42.07 C 11.47 45.22 11.41 48.38 11.36 51.53 L 10.67 51.71 C 9.93 51.76 8.45 51.85 7.71 51.90 C 7.74 48.68 7.79 45.46 7.58 42.25 Z" />
<path fill="#e6e1eb" d=" M 11.50 42.07 C 14.19 42.18 16.89 42.26 19.59 42.17 C 16.61 42.11 16.80 45.67 19.60 45.67 C 19.85 44.62 20.03 43.56 20.13 42.48 L 20.25 41.57 C 20.52 45.06 20.51 48.58 20.44 52.08 C 20.09 51.88 19.37 51.48 19.02 51.28 C 17.99 50.63 16.95 50.00 15.88 49.41 C 14.73 48.36 13.65 47.22 12.55 46.11 C 12.64 47.73 12.71 49.35 12.75 50.98 C 12.40 51.12 11.71 51.39 11.36 51.53 C 11.41 48.38 11.47 45.22 11.50 42.07 Z" />
<path fill="#faf16f" d=" M 19.59 42.17 L 20.13 42.48 C 20.03 43.56 19.85 44.62 19.60 45.67 C 16.80 45.67 16.61 42.11 19.59 42.17 Z" />
<path fill="#fff382" d=" M 22.85 42.25 C 24.95 42.22 27.05 42.21 29.16 42.15 C 27.52 44.57 25.36 46.56 22.85 48.06 C 22.86 46.12 22.85 44.18 22.85 42.25 Z" />
<path fill="#d3cfe8" d=" M 29.16 42.15 C 29.88 42.12 31.31 42.06 32.03 42.03 C 31.29 46.27 28.54 49.62 24.81 51.64 C 24.30 51.62 23.29 51.58 22.78 51.56 C 22.80 50.68 22.83 48.93 22.85 48.06 C 25.36 46.56 27.52 44.57 29.16 42.15 Z" />
<path fill="#384fa2" d=" M 32.03 42.03 C 33.22 41.97 34.42 41.91 35.61 41.87 C 35.60 45.19 35.60 48.50 35.60 51.82 C 32.00 51.84 28.40 51.78 24.81 51.64 C 28.54 49.62 31.29 46.27 32.03 42.03 Z" />
<path fill="#ffffff" d=" M 35.61 41.87 C 36.48 41.85 38.23 41.82 39.10 41.80 C 39.13 45.14 39.21 48.48 38.91 51.80 C 38.08 51.81 36.43 51.82 35.60 51.82 C 35.60 48.50 35.60 45.19 35.61 41.87 Z" />
<path fill="#8182b3" d=" M 12.55 46.11 C 13.65 47.22 14.73 48.36 15.88 49.41 C 15.71 50.00 15.37 51.19 15.20 51.78 C 13.69 51.78 12.18 51.75 10.67 51.71 L 11.36 51.53 C 11.71 51.39 12.40 51.12 12.75 50.98 C 12.71 49.35 12.64 47.73 12.55 46.11 Z" />
<path fill="#4c5b97" d=" M 15.20 51.78 C 15.37 51.19 15.71 50.00 15.88 49.41 C 16.95 50.00 17.99 50.63 19.02 51.28 C 17.84 52.57 16.56 52.73 15.20 51.78 Z" />
<path fill="#ffffff" d=" M 4.28 53.64 C 5.09 53.64 6.70 53.65 7.51 53.66 C 8.18 57.10 9.28 60.64 11.90 63.12 C 14.13 65.45 17.33 66.38 20.16 67.72 C 20.38 62.97 20.36 58.22 20.47 53.48 C 20.52 58.52 20.52 63.57 20.87 68.61 C 16.08 68.37 11.87 65.81 8.40 62.66 C 6.58 59.88 5.16 56.85 4.28 53.64 Z" />
<path fill="#3b51a3" d=" M 7.51 53.66 C 8.48 53.66 10.44 53.68 11.41 53.68 C 11.08 54.94 11.26 56.13 11.95 57.25 C 13.15 60.20 15.41 62.46 17.99 64.24 C 16.56 60.86 15.57 57.32 15.19 53.66 C 16.95 53.60 18.71 53.54 20.47 53.48 C 20.36 58.22 20.38 62.97 20.16 67.72 C 17.33 66.38 14.13 65.45 11.90 63.12 C 9.28 60.64 8.18 57.10 7.51 53.66 Z" />
<path fill="#a9a8d3" d=" M 11.41 53.68 C 11.77 53.69 12.49 53.69 12.85 53.69 C 13.37 55.09 13.07 56.27 11.95 57.25 C 11.26 56.13 11.08 54.94 11.41 53.68 Z" />
<path fill="#8f90c6" d=" M 12.85 53.69 C 13.44 53.69 14.61 53.67 15.19 53.66 C 15.57 57.32 16.56 60.86 17.99 64.24 C 15.41 62.46 13.15 60.20 11.95 57.25 C 13.07 56.27 13.37 55.09 12.85 53.69 Z" />
<path fill="#3e53a4" d=" M 22.65 53.55 C 27.02 53.52 31.38 53.65 35.75 53.57 C 35.19 56.89 34.31 60.34 31.84 62.79 C 29.57 65.53 25.99 66.38 22.80 67.56 C 22.74 62.89 22.62 58.22 22.65 53.55 Z" />
<path fill="#ffffff" d=" M 35.75 53.57 C 36.95 53.69 38.16 53.80 39.36 53.91 C 37.72 61.80 30.97 68.27 22.76 68.64 L 22.80 67.56 C 25.99 66.38 29.57 65.53 31.84 62.79 C 34.31 60.34 35.19 56.89 35.75 53.57 Z" />
</svg>
