<?xml version="1.0" encoding="utf-8"?>
<!-- Generator: Adobe Illustrator 22.0.1, SVG Export Plug-In . SVG Version: 6.00 Build 0)  -->
<svg version="1.1" id="Layer_1" xmlns="http://www.w3.org/2000/svg" xmlns:xlink="http://www.w3.org/1999/xlink" x="0px" y="0px"
	 viewBox="0 0 661.6 661.6" style="enable-background:new 0 0 661.6 661.6;" xml:space="preserve">
<style type="text/css">
	.st0{display:none;}
	.st1{display:inline;fill:#FFFFFF;}
	.st2{display:none;fill:#F5B50C;}
	.st3{fill:#F5B50C;stroke:#F5B50C;stroke-miterlimit:10;}
	.st4{fill:#F5B50C;}
</style>
<g class="st0">
	<path class="st1" d="M947.6,293.6c0,13.8-11.3,25-25,25h-86.8c-13.8,0-25-11.3-25-25v-86.8c0-13.8,11.3-25,25-25h86.8
		c13.8,0,25,11.3,25,25V293.6L947.6,293.6z"/>
</g>
<path class="st0" d="M864.8,210.9c11.8-5.9,26.9-13.2,40.5-10.2c7.8,1.5,14.3,6.3,18.2,14.1c-0.4-4.6-1.3-7.6-1.9-11.5
	c5,5.7,7.7,13.2,7.1,18.4c-0.5,5.4-4.6,11.3-10.4,13.9c-5.7,2.6-12.8,2.7-18.9,2.6c-8.2-0.3-16.5-1-24.4-3.3
	c-5.1-1.5-10.6-5-15.4-4.5c-0.2,2,0.7,3.8,1.3,5.6c-4.7-2.8-9.3-5.8-13-9.8c7.1,1.7,14.5,2.8,21.9,1.8c9.1-1,17.3-5.3,26.1-7.5
	c4.7-1.2,10.9-0.4,14.1,3.3c2.9,3.3,3,6.6,2.1,11.3c5.8-1,11.4-7.8,11.4-14.2c-4.5-8.4-16.4-17.3-33.3-16.5
	C881.4,205.2,873.5,209.4,864.8,210.9z"/>
<path class="st2" d="M892.9,209.7c-6.3-2.2-12.8,0-19,1.5c-16,3.8-33.1,2.7-48.5-3c2.6,5.2,6.8,9.8,12.2,12.2
	c9.5,4.2,20.3,4.2,30.4,1.7c5.6-1.4,9.8-5.5,15.1-7.3c8-2.8,15.1,0.9,17.1,1.8C898.4,213.7,896.3,210.7,892.9,209.7z M893,212.4
	c-5-0.8-8.8-0.3-13.3,1.6c-10.3,4.4-19.4,10.2-33,6.8c1.5-0.6,2.9-1.3,4.4-1.9c-5,1-10.5,1.4-14.5-1.5c1-0.2,2.4-0.6,4.8-1.9
	c-2.3,0.2-7.4,2.8-13.5-4.9c11.7,4.2,23.9,5.8,36.2,3.8c6.4-0.8,12.4-3.1,18.8-4.2c4.7-0.8,10.8,0.5,13.3,3.1
	C895.7,213.2,893.9,212.5,893,212.4z"/>
<path class="st0" d="M871.4,238.8c0,0.5-1.1,8-0.7,8.8c21.7,0.8,32.9,0.8,45.9,0.7c-4.4,0.8-8.9,1.3-13.4,1.3
	c-13.6,0.2-27.3,0.8-41-0.4c-3.1-0.2-8.3-0.7-8.3-2.5c0-2,7.7-4.6,12.2-5.9c-6.2,5.9-4.2,6.2,0.6,6.4
	C867.8,246.1,870.9,239.7,871.4,238.8z"/>
<path class="st2" d="M879.2,238.7c5.9,0.9,11.7,2.3,17.6,3.4c-0.3,0.5-0.8,1.5-1.1,2c-4.4,0-8.9,0.6-13.1-0.8
	C880.6,242.7,880.1,240.3,879.2,238.7z"/>
<path class="st2" d="M907,244.1c3.1-3.1,7.9-2.8,11.9-3.8c-1.4,1.4-2.2,4-4.5,4C912,244.5,909.5,244.3,907,244.1z"/>
<path class="st0" d="M869.3,254.3c10.1,3,20.2,3.6,30.7,2.7c-0.8,7.9-1.6,16.3,2,23.7c1.5,3.3,4.1,6,6.7,8.6
	c-2.7-5.4-5.2-11.2-5.2-17.4c0-5.2,0.4-10.8,3.2-15.3c2.2-0.9,4.5-1.2,6.8-1.7c-3.6,6.9-5.8,14.8-4.4,22.6c0.6,4.6,2.1,8.9,4,13.1
	c-14.2-0.4-28.5-2.1-41.9-6.9c-8.3-3.2-16.8-7.7-21.7-15.4c-1.7-3-3.7-6.7-1.7-10c3.6,5.7,7.5,11.4,13.2,15.2
	c8,5.3,17,8.9,26.1,11.9c-6.8-5.6-13.9-10.7-20.7-16.4c5.9,2.4,11.6,5.2,17.4,7.5c-5.8-4.6-11.9-8.5-15.4-15.7
	C867,258.6,867.6,255.3,869.3,254.3z"/>
<path class="st0" d="M915.7,267.4c0.4-2.8,2.3-5.1,4-7.3c0.3,5.2,0.3,10.5,1.2,15.6c1.3,7.8,4,14.7,6.6,22.2c-1.2,0-3.6-0.8-4.5-1.2
	C918,288.4,913.6,277,915.7,267.4z"/>
<path class="st0" d="M828.7,271.4c4-2.7,8.2-5.4,12.2-8.1c-0.1,6.1,1.4,12.3,5.5,17c6.1,7.1,15.1,10.9,24.1,12.7
	c16.3,2.9,32.9,3,49.4,2.8c0.5,1.1,1.1,2.2,1.7,3.3c-19.9,2-40.5,2.1-59.9-3.2C848.3,292.2,834.5,284.7,828.7,271.4z"/>
<path d="M36.9,164.3c65.7,45.4,132.6,89.1,201.8,129c-6.8,5.1-13.6,10.2-20.4,15.3c-28.1-14.5-54.9-31.6-83.2-45.9
	c25.3,18,53.3,31.9,79.8,47.9c-6.6,4.9-12.9,10.4-20.4,13.9c-20.5-7.1-86.9-44.3-96.9-54.3C78.7,237.5,55.6,197.3,36.9,164.3z"/>
<path d="M457.3,307.7c66.5-38.7,113.2-75.4,139.9-93.9c-1,5.2-7.1,29.8-13.9,42.8c-24.8,20.7-51.5,41.7-123.1,80.4
	c-1.4-8-1.8-14.7-1.8-14.7c3.2-1.8,52.9-30.3,64-38.9c-9.1,4.6-61,35.4-64.2,36.3C457.8,315.7,457.7,311.6,457.3,307.7z"/>
<path d="M288.4,173c34-17.1,77.6-38,116.8-29.4c22.4,4.4,41.1,18.1,52.6,40.6c-1-13.4-3.6-22-5.4-33.2
	c14.3,16.3,22.1,38.1,20.6,53.1c-1.6,15.4-13.3,32.6-29.9,40c-16.5,7.4-36.8,7.7-54.5,7.6c-23.6-0.8-47.5-2.8-70.3-9.5
	c-14.8-4.4-30.6-14.4-44.4-13c-0.6,5.6,2,10.9,3.6,16.1c-13.5-8.1-26.7-16.7-37.6-28.1c20.6,4.8,41.9,8.2,63,5.1
	c26.2-2.9,49.9-15.4,75.2-21.7c13.5-3.5,31.3-1.2,40.6,9.6c8.4,9.5,8.6,19,6,32.4c16.6-3,32.7-22.5,32.7-40.9
	c-13-24.1-47.4-49.9-96-47.5C336,156.7,313.2,168.7,288.4,173z"/>
<path class="st3" d="M369.3,169.8c-18.1-6.2-37,0-54.7,4.2c-46.2,10.8-95.4,7.9-139.9-8.7c7.6,15.1,19.5,28.3,35.3,35
	c27.4,12.2,58.4,12.1,87.6,4.8c16-4,28.3-15.7,43.5-21.1c23.1-8.1,43.6,2.5,49.3,5.1C385.1,181.2,379.1,172.5,369.3,169.8z
	 M369.6,177.4c-14.5-2.2-25.3-0.9-38.2,4.7c-29.8,12.7-55.9,29.3-95.1,19.6c4.2-1.9,8.4-3.6,12.7-5.4c-14.3,2.9-30.3,3.9-41.9-4.2
	c2.9-0.5,7-1.8,13.9-5.5c-6.7,0.6-21.4,8-38.9-14.2c33.8,12.1,68.7,16.6,104.3,10.9c18.4-2.3,35.9-9,54.1-12.1
	c13.5-2.3,31.2,1.6,38.3,9C377.4,179.9,372.1,177.7,369.6,177.4z"/>
<path d="M307.3,253.5c-0.1,1.3-3.2,23.2-2.2,25.4c62.5,2.3,94.7,2.3,132.4,2.1c-12.7,2.3-25.6,3.7-38.5,3.9
	c-39.3,0.7-78.8,2.2-118.1-1c-8.8-0.6-24-2.1-24-7.3c0-5.8,22.3-13.2,35.1-16.9c-17.9,17-12.2,18,1.7,18.5
	C296.8,274.6,305.8,256.2,307.3,253.5z"/>
<path class="st4" d="M329.9,253.2c17,2.5,33.8,6.5,50.6,9.9c-0.8,1.4-2.4,4.2-3.2,5.6c-12.6-0.1-25.6,1.7-37.8-2.3
	C333.7,264.6,332.3,258,329.9,253.2z"/>
<path class="st4" d="M410,268.8c9-9,22.7-8.2,34.3-10.9c-3.9,4.1-6.4,11.4-13.1,11.4C424.2,270,417,269.3,410,268.8z"/>
<path d="M301.3,298.2c29.1,8.8,58.1,10.4,88.3,7.8c-2.3,22.7-4.7,47.1,5.6,68.4c4.4,9.6,11.8,17.4,19.2,24.8
	c-7.8-15.7-15-32.2-15.1-50.1c0-15,1.2-31.1,9.3-44.1c6.2-2.7,12.9-3.5,19.5-4.8c-10.5,19.8-16.6,42.5-12.8,65
	c1.7,13.1,6.2,25.7,11.6,37.7c-40.8-1.2-82.1-6.2-120.7-20c-23.9-9.3-48.4-22.1-62.4-44.5c-4.9-8.6-10.7-19.3-4.9-28.9
	c10.3,16.4,21.7,32.8,38.1,43.7c23.2,15.1,49,25.8,75.3,34.2c-19.5-16.3-40.1-30.9-59.6-47.2c16.9,6.8,33.3,14.9,50.3,21.6
	c-16.6-13.4-34.2-24.6-44.5-45.2C294.5,310.6,296.4,301.2,301.3,298.2z"/>
<path d="M434.9,335.9c1.2-8.2,6.5-14.8,11.6-20.9c0.9,15,0.7,30.1,3.4,45c3.7,22.4,11.4,42.5,18.9,63.8c-3.4,0-10.3-2.2-12.9-3.6
	C441.7,396.5,428.9,363.7,434.9,335.9z"/>
<path d="M184.3,347.5c11.7-7.9,23.5-15.5,35.3-23.2c-0.3,17.5,4,35.6,16,48.9c17.5,20.4,43.5,31.5,69.4,36.5
	c46.9,8.4,94.7,8.5,142.2,8.1c1.6,3.2,3.2,6.4,4.8,9.5c-57.5,5.9-116.6,6-172.7-9.3C240.6,407.4,201.1,385.8,184.3,347.5z"/>
<path d="M614.2,433.9c-28.4-7.3-57.9-17-86-25.3c-1.3-10.6-2.4-25.6-5.9-29.1c-3.1,0-11.5,13.8-15,24.2c-11.6-4-24.1-8.4-35.9-11.9
	c2,5.1,3.4,10.7,6.2,15.5c0,0,30,6.9,35.1,11c-6.9,1-34-5.3-34-5.3c2.1,5.2,4.2,10.5,6.3,15.7c4.6,0.8,11.5,1.5,16.1,2.3
	c-2,11.5,0.8,26.6,6.9,37.6c8.3,16.1,22.2,28.9,41.4,28.6c28.3,0.1,55.6-19.7,73.2-37.3C633.7,454.6,634.6,421.9,614.2,433.9z
	 M571,426.9c5.5,1.7,9.1,3,14.6,4.6c0.5,3.4,0.2,8.6-3.1,12.8c-5-1.2-8.9-2-14-3.2C571.5,435.1,571.6,430.4,571,426.9z M551.7,421
	c4.9,1.5,9.8,3,14.8,4.6c0.6,3.6,0.6,8.2-2.5,14.5c-4.6-1-9.4-1.8-13.9-2.8C552.9,430.4,553.7,425.2,551.7,421z M529.3,414.2
	c5.2,1.5,10.5,3.1,15.8,4.7c0.2,0.1,0.4,0.1,0.6,0.2c1.7,3.7,2.7,9.1-1.7,16.6c-0.1,0-0.2-0.1-0.3-0.1c-5.2-1.1-9.2-1.9-14.1-2.8
	C533.3,424,530.8,417.8,529.3,414.2z M548.4,482.9c-16.9-5.4-25.3-22.6-27.7-39.2c8.3,9.9,16.5,21.1,29.3,25.5
	c18.6,6.7,36.9,2.5,55.6-1.4C588.1,477.8,569,489.5,548.4,482.9z M557.7,456.3c-9.3-3.1-16-10.5-22.5-17.3
	c24.9,4.7,49.6,10.5,74.1,16.7C592.4,459,574.4,462.1,557.7,456.3z M606.1,450.2c-6.1-1.5-11.4-2.8-18.1-4.4c3.8-7,3.5-7.6,3.2-12.7
	c6,1.8,12,3.4,18,5C609.8,442.6,608.4,447.5,606.1,450.2z"/>
<path d="M244.1,424c-4.6-2.9-9.7-5.8-14.4-8.5c-8.7,3-14.5,5.3-23.5,7.2c-0.3-1-1-3-1.6-3.8c4.5-1.6,13.2-4.9,18.3-6.9
	c-5.7-4-12.7-8.1-18-11.5c-2.5,0.8-5.3,1.2-8,2.3c-11.2-15.4-23.5-26.7-38.1-35.2c-7.9,14.9-5.5,29.7-0.8,47.1
	c-22,5.9-88.6,21.2-103.4,22.8c-6.3-4.2-14.8-2.5-18.6,1.5c-8.5,8.8-8,43.3,20.8,45c20.6,18.3,56,44.2,103.9,33.3
	c20.7-4.7,57.4-38.7,50.5-80.4C222.2,433.1,233.8,429.4,244.1,424z M163.5,419.9c8.6,5.6,8.7,13.1,7.9,18.4l-17.1,5.2
	c1.4-5.9-1.4-14.5-8.1-19.1C153,422.5,163.5,419.9,163.5,419.9z M165.5,448.8c-0.2,11.9-5,23.1-15.4,29.5
	c-21.2,13.8-52.5,15.4-71.7-2.8C107.7,466.4,136,457.1,165.5,448.8z M139.8,426.5c7.7,5.1,9.1,12.6,8.3,19l-19.2,5.8
	c1.3-5.1-0.4-13.8-7.1-20.1C121.8,431.2,133.4,428.2,139.8,426.5z M116.3,432.7c6.9,6,7.8,14.4,7,20.4c-7.4,2.4-18.5,5.8-18.5,5.8
	c2.2-6.5-1.5-17.5-6.8-21.6C103.6,435.9,116.3,432.7,116.3,432.7z M90.8,439.1c6.6,6.4,8.6,16.9,6.5,22c-0.3,0.1-6.1,1.6-20.6,6.2
	c1.8-5.1,1.3-15.9-5.4-23.5C77.4,442.3,90.6,439.1,90.8,439.1z M136,511c-30.9,2.4-52-14.3-61.4-25.5c16.1,9.3,31.2,15.5,48.5,15.8
	c29,0.4,47.3-18.3,62.8-37.1C182.6,488,161.6,509,136,511z"/>
</svg>
