<?xml version="1.0" encoding="utf-8"?>
<!-- Generator: Adobe Illustrator 15.1.0, SVG Export Plug-In . SVG Version: 6.00 Build 0)  -->
<!DOCTYPE svg PUBLIC "-//W3C//DTD SVG 1.1//EN" "http://www.w3.org/Graphics/SVG/1.1/DTD/svg11.dtd">
<svg version="1.1" id="Layer_1" xmlns="http://www.w3.org/2000/svg" xmlns:xlink="http://www.w3.org/1999/xlink" x="0px" y="0px"
	 width="744px" height="237px" viewBox="0 0 744 237" enable-background="new 0 0 744 237" xml:space="preserve">
<path fill="#410FCF" d="M69.32,0h6.79c0.04,50.03,0.02,100.05,0.01,150.08c35.63,0.38,71.25-0.359,106.88-0.23
	c24.67-0.039,49.34,0.09,74.01-0.06c43.31-0.569,86.63,0.25,129.94-0.44c34.35-0.05,68.7-0.02,103.05-0.01
	c47.99-0.699,96,0.17,144-0.529c36.42,0.069,72.85-0.11,109.27,0.09c-0.039,2.25-0.09,4.51-0.14,6.76
	c-77.71-0.189-155.42,0.21-233.13,0.1c-17.32,0.84-34.67,0.43-52,0.52c-28.34,0.07-56.67-0.17-85,0.171
	c-35.35,0-70.7-0.021-106.05,0.01c-43.64,0.54-87.3-0.06-130.95,0.319c-17.33,0.031-34.66,0.121-51.99-0.049
	c-3.18,0.049-6.47-0.24-9.55,0.74c-3.69,2.189-6,6.01-8.85,9.119c-20.22,23.15-40.45,46.28-60.71,69.4
	c-1.63-1.32-3.26-2.65-4.9-3.961v-0.719c20.2-23.221,40.53-46.34,60.78-69.511c2.73-3.3,6.21-6.149,7.99-10.12
	c1.14-4.459,0.52-9.13,0.61-13.68C69.29,92,69.41,46,69.32,0z"/>
<path fill="#410FCF" d="M104.29,21.09c25.23-0.54,50.48-0.09,75.71-0.24c9.95,0.09,19.9-0.21,29.85,0.2
	c-0.01,9.38,0.03,18.75-0.03,28.13c-11.82,0.27-23.64,0.06-35.45,0.12c0.11,28.37,0.12,56.73-0.01,85.101
	c-11.5,0.17-23.01,0.16-34.52,0c-0.09-28.38,0.02-56.76-0.05-85.141c-11.83,0.01-23.66,0.21-35.48-0.11
	C104.34,39.8,104.36,30.44,104.29,21.09z"/>
<path fill="#410FCF" d="M294.37,21.13c10.44-0.49,20.899-0.37,31.34-0.09c-0.02,7.2-0.01,14.39-0.01,21.59
	c-10.42-0.16-20.83-0.04-31.25-0.09C294.42,35.41,294.45,28.27,294.37,21.13z"/>
<path fill="#410FCF" d="M583.38,21.15c10.44-0.5,20.92-0.4,31.37-0.1c-0.05,7.19-0.04,14.39-0.04,21.58
	c-10.42-0.17-20.83-0.02-31.25-0.1C583.45,35.4,583.47,28.27,583.38,21.15z"/>
<path fill="#410FCF" d="M262.34,51.37c7.48-2.56,15.56-0.25,22.26,3.4c-3.02,7.54-6.35,14.96-9.6,22.41
	c-4.81-1.36-10.58-3.57-15.1-0.26c-4.95,3.92-6.5,10.53-7.26,16.49c-1.11,13.72,0.12,27.5-0.81,41.23
	c-10.5-0.101-21-0.101-31.49-0.011c0.07-27.42,0.06-54.85,0-82.28c9.79,0.07,19.58,0.08,29.38-0.01c0.02,3.67,0.09,7.35,0.33,11.02
	C253.59,58.9,256.64,53.33,262.34,51.37z"/>
<path fill="#410FCF" d="M647.18,56.22c8.601-5.23,19-5.86,28.811-5.9c8.88,0.14,18.26,0.14,26.319,4.39
	c6.96,3.67,11.641,10.54,14.051,17.88c-9.41,0.88-18.811,2.18-28.24,2.58c-3.22-2.14-4.98-6.35-9.04-7.24
	c-4.7-1.1-10.99-1.38-14.16,2.96c-1.939,3,0.08,7.04,3.51,7.65c10.721,2.92,22.16,2.55,32.69,6.39c6.91,2.22,13.2,7.02,16.16,13.78
	c4.56,10.15,0.58,22.83-8.08,29.49c-7.141,5.521-16.29,7.78-25.16,8.319c-12.12,0.33-24.81,0.67-36.1-4.459
	c-8.07-3.67-13.591-11.57-15.37-20.141c10.16-1.3,20.38-2.18,30.569-3.15c2.21,3.63,4.311,7.99,8.66,9.42
	c5.83,2.06,13.8,1.69,17.69-3.73c2.189-3.16-0.13-7.44-3.59-8.35c-11.591-3.74-24.15-3.9-35.5-8.51
	c-8.49-3.47-14.82-12.28-14.28-21.6C635.7,67.96,640.37,60.28,647.18,56.22z"/>
<path fill="#410FCF" d="M294.38,52.37c10.44,0.04,20.88,0.08,31.32-0.04c-0.021,27.44-0.01,54.88,0,82.32
	c-10.44-0.121-20.89-0.11-31.34-0.021C294.49,107.21,294.46,79.79,294.38,52.37z"/>
<path fill="#410FCF" d="M447.02,93.89c-9.17-24.26-17.84-48.71-27.02-72.98c-12.68-0.12-25.36-0.05-38.04-0.04
	c-11.25,29.58-22.07,59.32-33.07,89c-2.979,8.24-6.42,16.31-8.979,24.7c11.88,0.02,23.76-0.01,35.64,0.01
	c1.61-6.09,3.431-12.109,5.101-18.17c13.08-0.28,26.17-0.08,39.25-0.12c1.97,6.05,3.77,12.149,5.46,18.29
	c12.18,0.01,24.359-0.04,36.55,0.029C457.14,120.971,452,107.46,447.02,93.89z M388.62,91.16c3.68-13.21,7.5-26.4,12.01-39.34
	c4.21,13.02,8.11,26.14,11.75,39.33C404.46,91.36,396.54,91.35,388.62,91.16z"/>
<path fill="#410FCF" d="M467.67,52.48c12.34-0.19,24.67-0.02,37.01-0.09c4.13,7.44,8.25,14.89,12.551,22.24
	c5.279-7.22,9.77-14.98,14.92-22.29c11.58,0.1,23.159,0.09,34.739,0c-9.27,13.11-18.67,26.14-27.729,39.4
	c9.85,14.16,19.75,28.279,29.33,42.619c-12.11,0.5-24.23,0.031-36.34,0.281c-5.051-8.391-9.44-17.17-14.58-25.5
	c-2.38,1.85-3.801,4.56-5.42,7.03c-4.03,6.2-8.101,12.391-12.33,18.46c-11.29-0.13-22.58,0-33.87-0.069
	c9.09-13.73,18.58-27.181,27.8-40.811c1.52-1.54,0.56-3.46-0.48-4.95C484.8,76.65,475.75,64.89,467.67,52.48z"/>
<path fill="#410FCF" d="M583.38,52.36c10.45,0.05,20.89,0.09,31.34-0.02c-0.02,27.43-0.029,54.87,0.011,82.311
	c-10.45-0.131-20.9-0.101-31.351-0.021C583.51,107.21,583.5,79.78,583.38,52.36z"/>
<path fill="#410FCF" d="M85.5,183.51c1.42-1.63,2.62-3.68,4.65-4.6c2.91-0.551,5.9-0.34,8.86-0.35c8.81,0.18,17.63-0.17,26.44,0.239
	c-2.87,3.57-4.97,9.681-10.37,9.54c-6.56,0.11-13.13-0.13-19.7,0.051c-1.53,2.25-3.1,4.479-4.63,6.739
	c6.74,0.29,13.49,0.181,20.24,0.16c-2.41,3.13-4.85,6.239-7.32,9.319c-5.91,0.121-11.83-0.1-17.74,0.041
	c-5.16-0.17-7.25,5.52-10.07,8.89c7.49,0.09,14.98-0.16,22.46,0.22c-2.38,3.4-4.96,6.67-7.59,9.891c-12.3,0.02-24.6,0.1-36.9-0.03
	C64.01,209.96,75.13,197.029,85.5,183.51z"/>
<path fill="#410FCF" d="M221.6,187.08c2.01-2.83,3.77-5.99,6.62-8.07c3.95-0.89,8.04-0.34,12.04-0.21
	c-2.04,2.78-3.86,5.86-6.61,8.011C229.72,187.83,225.6,187.18,221.6,187.08z"/>
<path fill="#410FCF" d="M413.56,187.109c2.011-2.85,3.761-6.06,6.641-8.149c3.95-0.81,8.03-0.31,12.04-0.17
	c-2.04,2.78-3.88,5.819-6.61,8C421.7,187.83,417.56,187.189,413.56,187.109z"/>
<path fill="#410FCF" d="M582.52,182.529c1.091-1.309,2.2-2.67,3.65-3.609c4.32-0.8,8.75-0.26,13.12-0.1
	c-11.48,15.229-23.82,29.789-35.521,44.85c-4.64,0.04-9.27,0.01-13.89-0.07C560.6,209.779,571.76,196.311,582.52,182.529z"/>
<path fill="#410FCF" d="M136.34,195.04c5.43-3.2,11.74-5.96,18.17-4.45c1.34,0.939,2.24,2.66,1.72,4.301
	c-0.85,3.189-2.88,5.889-4.84,8.479c-5.34,6.729-10.94,13.26-15.98,20.22c-4.2,0.12-8.41,0.1-12.61,0.04
	c3.16-4.42,6.5-8.69,9.99-12.851c2.45-3.029,5.22-5.969,6.45-9.75c-1.12-0.629-2.45-0.979-3.68-0.469
	c-4.16,1.41-7.12,4.89-9.83,8.17c-3.97,5-7.94,10-11.97,14.959c-4.03,0-8.06-0.01-12.09-0.06c6.06-8.8,13.25-16.729,19.72-25.22
	c1.93-2.381,3.62-5.04,6.1-6.92c3.42-1.26,7.17-0.57,10.72-0.51C137.6,192.34,136.97,193.689,136.34,195.04z"/>
<path fill="#410FCF" d="M251.36,195.1c5.22-3.08,11.16-5.83,17.38-4.67c1.73,0.12,2.91,1.881,2.72,3.541
	c-0.39,3.409-2.55,6.26-4.54,8.939c-5.46,6.91-11.15,13.64-16.4,20.699c-4.23,0.101-8.45,0.07-12.67,0.011
	c5.37-7.341,11.47-14.11,16.76-21.5c-0.48-0.601-1.43-1.78-1.91-2.38c-3.08,1.38-6.32,2.74-8.64,5.3
	c-4.66,5.069-8.54,10.8-12.96,16.06c-3.3,4.5-9.6,2.061-14.31,2.5c6.43-9.07,13.89-17.33,20.56-26.22
	c1.61-2.03,3.08-4.239,5.16-5.83c3.5-1.18,7.27-0.649,10.89-0.63C252.73,192.32,252.05,193.71,251.36,195.1z"/>
<path fill="#410FCF" d="M389.91,192.29c3.439-1.29,7.06-2,10.74-2.2c0.43,0.52,1.29,1.551,1.72,2.061
	c-2.561,2.199-4.99,4.57-7.7,6.6c-3.42,2.721-8.54,0.971-11.81,4.08c-7.15,5.891-12.24,13.77-18.16,20.811
	c-4.22,0.049-8.44,0.049-12.66,0.09c7.87-10.021,15.95-19.86,23.78-29.91C379.02,189.24,385.47,190.439,389.91,192.29z"/>
<path fill="#410FCF" d="M443.35,195.09c5.2-3.109,11.17-5.82,17.391-4.65c2.16,0.08,3.1,2.61,2.56,4.451
	c-0.77,3.26-2.85,5.969-4.859,8.569c-5.351,6.67-10.841,13.25-15.921,20.14c-4.239,0.101-8.47,0.07-12.699,0.021
	c3.63-4.931,7.439-9.74,11.399-14.41c2.101-2.47,4.08-5.12,5.21-8.2c-3.1-1.83-6.47,0.67-8.859,2.57
	c-5.54,5.21-9.58,11.75-14.511,17.51c-3.27,4.52-9.59,2.07-14.29,2.51c7.29-10.22,15.61-19.66,23.2-29.64
	c2.91-4.54,8.9-2.931,13.4-3.021C444.7,192.32,444.03,193.71,443.35,195.09z"/>
<path fill="#410FCF" d="M612.16,194.84c5-2.93,10.689-5.529,16.64-4.42c2.08,0.08,3.271,2.41,2.82,4.28
	c-0.82,3.62-3.28,6.56-5.46,9.45c-5.22,6.459-10.43,12.92-15.51,19.49c-4.24,0.06-8.48,0.039-12.721-0.011
	c5.67-7.72,12.551-14.58,17.4-22.89c-6.59-1.67-11.23,4.25-14.83,8.779c-3.68,4.701-7.49,9.291-11.04,14.08
	c-4.2,0.11-8.4,0.07-12.59,0.021c7.06-9.46,14.78-18.41,21.92-27.81c1.37-1.601,2.58-3.541,4.55-4.471c3.2-0.88,6.57-0.47,9.86-0.42
	C612.84,192.23,612.5,193.529,612.16,194.84z"/>
<path fill="#410FCF" d="M630.07,212.05c6.56-10.44,17-18.81,29.18-21.399c4.69-0.45,9.79-1.101,14.24,0.789
	c3.97,1.951,1.83,6.82,1.359,10.131c-4.21,0.539-8.42,1.029-12.619,1.57c-0.301-1.391-0.58-2.791-0.86-4.181
	c-7.45-0.149-13.58,5.101-17.4,11.05c-1.109,1.801-1.16,3.971-1.38,6.01c3.95,0.021,7.71-1.26,10.99-3.439
	c3.79-2.62,8.54-0.84,12.7-0.41c-7.32,7.6-17.57,12.85-28.311,12.359c-3.239-0.17-7.21-0.309-9.319-3.159
	C627.36,218.27,628.34,214.76,630.07,212.05z"/>
<path fill="#410FCF" d="M218.44,191.471c3.81-1.301,7.92-0.511,11.84-0.291c-8.13,11.131-17.17,21.551-25.6,32.45
	c-4.2,0.05-8.39,0.06-12.59,0.14c6.81-9.039,14.2-17.609,21.05-26.619C214.77,195.15,216.26,192.93,218.44,191.471z"/>
<path fill="#410FCF" d="M410.41,191.4c3.82-1.211,7.899-0.42,11.82-0.16c-8.24,11.02-17.141,21.52-25.58,32.39
	c-4.2,0.06-8.4,0.06-12.601,0.101c7.12-9.4,14.771-18.371,21.94-27.721C407.34,194.37,408.6,192.58,410.41,191.4z"/>
<path fill="#410FCF" d="M307.7,210.59c3.33-4.66,7.939-9.42,7.64-15.55c-0.37-3.511-4.31-4.649-7.29-4.729
	c-12.41-1.261-24.24,5.439-32.5,14.229c-3.74,4.3-8.1,9.26-7.48,15.38c-0.2,2.7,2.78,3.84,4.96,4.23
	c10.55,1.66,21.73-1.68,29.65-8.851c-2.05-0.37-4.1-0.739-6.17-0.92c-5.43-0.97-10.18,3.62-15.63,1.89
	c0.63-1.879,1.31-3.74,2.03-5.58C291.17,210.471,299.43,210.62,307.7,210.59z M301.57,197.45c-0.24,2.149-0.41,4.31-0.35,6.479
	c-4.19,0.32-8.39,0.271-12.58,0.08C291.96,200.23,296.54,197.88,301.57,197.45z"/>
<path fill="#410FCF" d="M358.89,192.061c-1.93-1.5-4.489-1.681-6.83-1.811c-12.8-0.82-24.75,6.55-32.84,15.971
	c-3.26,4.039-7.08,8.93-5.97,14.449c1.13,3.57,5.63,3.67,8.72,3.85c9.59,0.58,18.96-3.17,26.221-9.299
	c-4.091-0.531-8.381-1.641-12.421-0.261c-2.989,1.011-6.06,1.771-9.199,2.12c0.66-2.08,1.02-4.23,1.05-6.41
	c8.39-0.16,16.77-0.09,25.16-0.061c2.8-3.639,6.01-7.209,7.319-11.699C360.74,196.65,360.91,193.689,358.89,192.061z
	 M345.95,203.939c-4.09,0.34-8.19,0.25-12.28,0.07c3.55-3.71,8.14-6.5,13.47-6.06C346.88,199.971,346.46,201.971,345.95,203.939z"/>
<path fill="#410FCF" d="M191.66,193.721c-1.69-1.431-3.27-3.57-5.71-3.49c-8.38-0.461-15.86,4.5-21.72,9.99
	c-4.18,4.25-8.32,8.879-10.41,14.549c-0.95,2.561-0.91,6.561,2.38,7.311c4.82,1.01,9.58-0.96,14.24-1.93
	c-3.05,3.52-6.17,8.34-11.3,8.59c-3.73-1.391-6.88-4.721-11.16-4.29c-4.15-0.44-6.47,4.13-6.99,7.62c-0.56,2.68,2.3,3.789,4.13,4.93
	h13.33c5.3-1.3,10.48-3.391,14.85-6.71c5.91-4.44,10.07-10.649,14.68-16.31c6.02-7.74,12.47-15.141,18.15-23.141
	C201.13,190.5,195.81,190.49,191.66,193.721z M173.85,212.891c-1.97,0.989-4.24,0.42-6.34,0.409c2.68-6.8,8.56-14.61,16.77-13.569
	C183.28,205.57,179.01,210.279,173.85,212.891z"/>
<path fill="#410FCF" d="M498.93,192.95c-2.699-1.511-5.59-3.261-8.819-2.681c-9.471,1.09-17.25,7.631-23.15,14.701
	c-3,3.779-6.34,7.909-6.62,12.93c-0.17,2.18,1.57,4.16,3.75,4.35c4.57,0.58,8.99-1.12,13.38-2.1
	c-2.92,3.439-5.819,7.84-10.609,8.619c-2.13-0.34-3.851-1.799-5.771-2.68c-2.83-1.58-6.149-1.59-9.29-1.85
	c-1.37,2.52-3.05,4.96-3.68,7.81c-0.43,2.5,2.229,3.74,3.91,4.95h14.34c5.61-1.74,11.11-4.189,15.63-8.01
	c5.09-4.28,8.87-9.83,13.03-14.971c6.01-7.74,12.489-15.129,18.149-23.149C508.32,190.45,503.41,190.99,498.93,192.95z
	 M480.93,212.91c-1.949,1.029-4.239,0.41-6.33,0.359c2.69-6.83,8.591-14.67,16.851-13.52C490.4,205.58,486.07,210.26,480.93,212.91z
	"/>
<path fill="#410FCF" d="M508.48,211.33c4.5-0.13,9.01-0.12,13.51-0.109c-5.62,6.889-10.521,14.719-18.11,19.68
	c-3.72,2.55-7.96,4.209-12.3,5.33c0.5-1.65,0.91-3.351,1.67-4.92c3.76-2.291,7.88-4.031,11.2-7c-1.84-0.33-3.67-0.641-5.51-0.94
	C502.2,219.42,505.37,215.4,508.48,211.33z"/>
<path fill="#410FCF" d="M676.6,211.38c4.511-0.2,9.03-0.18,13.561-0.09c-3.13,4.16-6.43,8.19-9.601,12.31
	c-4.5,0.08-9,0.08-13.489,0.131C670.27,219.63,673.55,215.6,676.6,211.38z"/>
</svg>
