<?xml version="1.0" encoding="UTF-8" ?>
<!DOCTYPE svg PUBLIC "-//W3C//DTD SVG 1.1//EN" "http://www.w3.org/Graphics/SVG/1.1/DTD/svg11.dtd">
<svg width="744pt" height="237pt" viewBox="0 0 744 237" version="1.1" xmlns="http://www.w3.org/2000/svg">
<path fill="#fffffe" d=" M 0.00 0.00 L 69.32 0.00 C 69.41 46.00 69.29 92.00 69.38 138.00 C 69.29 142.55 69.91 147.22 68.77 151.68 C 66.99 155.65 63.51 158.50 60.78 161.80 C 40.53 184.97 20.20 208.09 0.00 231.31 L 0.00 0.00 Z" />
<path fill="#410fcf" d=" M 69.32 0.00 L 76.11 0.00 C 76.15 50.03 76.13 100.05 76.12 150.08 C 111.75 150.46 147.37 149.72 183.00 149.85 C 207.67 149.81 232.34 149.94 257.01 149.79 C 300.32 149.22 343.64 150.04 386.95 149.35 C 421.30 149.30 455.65 149.33 490.00 149.34 C 537.99 148.64 586.00 149.51 634.00 148.81 C 670.42 148.88 706.85 148.70 743.27 148.90 C 743.23 151.15 743.18 153.41 743.13 155.66 C 665.42 155.47 587.71 155.87 510.00 155.76 C 492.68 156.60 475.33 156.19 458.00 156.28 C 429.66 156.35 401.33 156.11 373.00 156.45 C 337.65 156.45 302.30 156.43 266.95 156.46 C 223.31 157.00 179.65 156.40 136.00 156.78 C 118.67 156.81 101.34 156.90 84.01 156.73 C 80.83 156.78 77.54 156.49 74.46 157.47 C 70.77 159.66 68.46 163.48 65.61 166.59 C 45.39 189.74 25.16 212.87 4.90 235.99 C 3.27 234.67 1.64 233.34 0.00 232.03 L 0.00 231.31 C 20.20 208.09 40.53 184.97 60.78 161.80 C 63.51 158.50 66.99 155.65 68.77 151.68 C 69.91 147.22 69.29 142.55 69.38 138.00 C 69.29 92.00 69.41 46.00 69.32 0.00 Z" />
<path fill="#fffffe" d=" M 76.11 0.00 L 744.00 0.00 L 744.00 237.00 L 466.37 237.00 C 471.98 235.26 477.48 232.81 482.00 228.99 C 487.09 224.71 490.87 219.16 495.03 214.02 C 501.04 206.28 507.52 198.89 513.18 190.87 C 508.32 190.45 503.41 190.99 498.93 192.95 C 496.23 191.44 493.34 189.69 490.11 190.27 C 480.64 191.36 472.86 197.90 466.96 204.97 C 463.96 208.75 460.62 212.88 460.34 217.90 C 460.17 220.08 461.91 222.06 464.09 222.25 C 468.66 222.83 473.08 221.13 477.47 220.15 C 474.55 223.59 471.65 227.99 466.86 228.77 C 464.73 228.43 463.01 226.97 461.09 226.09 C 458.26 224.51 454.94 224.50 451.80 224.24 C 450.43 226.76 448.75 229.20 448.12 232.05 C 447.69 234.55 450.35 235.79 452.03 237.00 L 158.45 237.00 C 163.75 235.70 168.93 233.61 173.30 230.29 C 179.21 225.85 183.37 219.64 187.98 213.98 C 194.00 206.24 200.45 198.84 206.13 190.84 C 201.13 190.50 195.81 190.49 191.66 193.72 C 189.97 192.29 188.39 190.15 185.95 190.23 C 177.57 189.77 170.09 194.73 164.23 200.22 C 160.05 204.47 155.91 209.10 153.82 214.77 C 152.87 217.33 152.91 221.33 156.20 222.08 C 161.02 223.09 165.78 221.12 170.44 220.15 C 167.39 223.67 164.27 228.49 159.14 228.74 C 155.41 227.35 152.26 224.02 147.98 224.45 C 143.83 224.01 141.51 228.58 140.99 232.07 C 140.43 234.75 143.29 235.86 145.12 237.00 L 0.00 237.00 L 0.00 232.03 C 1.64 233.34 3.27 234.67 4.90 235.99 C 25.16 212.87 45.39 189.74 65.61 166.59 C 68.46 163.48 70.77 159.66 74.46 157.47 C 77.54 156.49 80.83 156.78 84.01 156.73 C 101.34 156.90 118.67 156.81 136.00 156.78 C 179.65 156.40 223.31 157.00 266.95 156.46 C 302.30 156.43 337.65 156.45 373.00 156.45 C 401.33 156.11 429.66 156.35 458.00 156.28 C 475.33 156.19 492.68 156.60 510.00 155.76 C 587.71 155.87 665.42 155.47 743.13 155.66 C 743.18 153.41 743.23 151.15 743.27 148.90 C 706.85 148.70 670.42 148.88 634.00 148.81 C 586.00 149.51 537.99 148.64 490.00 149.34 C 455.65 149.33 421.30 149.30 386.95 149.35 C 343.64 150.04 300.32 149.22 257.01 149.79 C 232.34 149.94 207.67 149.81 183.00 149.85 C 147.37 149.72 111.75 150.46 76.12 150.08 C 76.13 100.05 76.15 50.03 76.11 0.00 Z" />
<path fill="#410fcf" d=" M 104.29 21.09 C 129.52 20.55 154.77 21.00 180.00 20.85 C 189.95 20.94 199.90 20.64 209.85 21.05 C 209.84 30.43 209.88 39.80 209.82 49.18 C 198.00 49.45 186.18 49.24 174.37 49.30 C 174.48 77.67 174.49 106.03 174.36 134.40 C 162.86 134.57 151.35 134.56 139.84 134.40 C 139.75 106.02 139.86 77.64 139.79 49.26 C 127.96 49.27 116.13 49.47 104.31 49.15 C 104.34 39.80 104.36 30.44 104.29 21.09 Z" />
<path fill="#410fcf" d=" M 294.37 21.13 C 304.81 20.64 315.27 20.76 325.71 21.04 C 325.69 28.24 325.70 35.43 325.70 42.63 C 315.28 42.47 304.87 42.59 294.45 42.54 C 294.42 35.41 294.45 28.27 294.37 21.13 Z" />
<path fill="#410fcf" d=" M 381.96 20.87 C 394.64 20.86 407.32 20.79 420.00 20.91 C 429.18 45.18 437.85 69.63 447.02 93.89 C 452.00 107.46 457.14 120.97 461.91 134.61 C 449.72 134.54 437.54 134.59 425.36 134.58 C 423.67 128.44 421.87 122.34 419.90 116.29 C 406.82 116.33 393.73 116.13 380.65 116.41 C 378.98 122.47 377.16 128.49 375.55 134.58 C 363.67 134.56 351.79 134.59 339.91 134.57 C 342.47 126.18 345.91 118.11 348.89 109.87 C 359.89 80.19 370.71 50.45 381.96 20.87 Z" />
<path fill="#410fcf" d=" M 583.38 21.15 C 593.82 20.65 604.30 20.75 614.75 21.05 C 614.70 28.24 614.71 35.44 614.71 42.63 C 604.29 42.46 593.88 42.61 583.46 42.53 C 583.45 35.40 583.47 28.27 583.38 21.15 Z" />
<path fill="#410fcf" d=" M 262.34 51.37 C 269.82 48.81 277.90 51.12 284.60 54.77 C 281.58 62.31 278.25 69.73 275.00 77.18 C 270.19 75.82 264.42 73.61 259.90 76.92 C 254.95 80.84 253.40 87.45 252.64 93.41 C 251.53 107.13 252.76 120.91 251.83 134.64 C 241.33 134.54 230.83 134.54 220.34 134.63 C 220.41 107.21 220.40 79.78 220.34 52.35 C 230.13 52.42 239.92 52.43 249.72 52.34 C 249.74 56.01 249.81 59.69 250.05 63.36 C 253.59 58.90 256.64 53.33 262.34 51.37 Z" />
<path fill="#410fcf" d=" M 647.18 56.22 C 655.78 50.99 666.18 50.36 675.99 50.32 C 684.87 50.46 694.25 50.46 702.31 54.71 C 709.27 58.38 713.95 65.25 716.36 72.59 C 706.95 73.47 697.55 74.77 688.12 75.17 C 684.90 73.03 683.14 68.82 679.08 67.93 C 674.38 66.83 668.09 66.55 664.92 70.89 C 662.98 73.89 665.00 77.93 668.43 78.54 C 679.15 81.46 690.59 81.09 701.12 84.93 C 708.03 87.15 714.32 91.95 717.28 98.71 C 721.84 108.86 717.86 121.54 709.20 128.20 C 702.06 133.72 692.91 135.98 684.04 136.52 C 671.92 136.85 659.23 137.19 647.94 132.06 C 639.87 128.39 634.35 120.49 632.57 111.92 C 642.73 110.62 652.95 109.74 663.14 108.77 C 665.35 112.40 667.45 116.76 671.80 118.19 C 677.63 120.25 685.60 119.88 689.49 114.46 C 691.68 111.30 689.36 107.02 685.90 106.11 C 674.31 102.37 661.75 102.21 650.40 97.60 C 641.91 94.13 635.58 85.32 636.12 76.00 C 635.70 67.96 640.37 60.28 647.18 56.22 Z" />
<path fill="#410fcf" d=" M 294.38 52.37 C 304.82 52.41 315.26 52.45 325.70 52.33 C 325.68 79.77 325.69 107.21 325.70 134.65 C 315.26 134.53 304.81 134.54 294.36 134.63 C 294.49 107.21 294.46 79.79 294.38 52.37 Z" />
<path fill="#fffffe" d=" M 388.62 91.16 C 392.30 77.95 396.12 64.76 400.63 51.82 C 404.84 64.84 408.74 77.96 412.38 91.15 C 404.46 91.36 396.54 91.35 388.62 91.16 Z" />
<path fill="#410fcf" d=" M 467.67 52.48 C 480.01 52.29 492.34 52.46 504.68 52.39 C 508.81 59.83 512.93 67.28 517.23 74.63 C 522.51 67.41 527.00 59.65 532.15 52.34 C 543.73 52.44 555.31 52.43 566.89 52.34 C 557.62 65.45 548.22 78.48 539.16 91.74 C 549.01 105.90 558.91 120.02 568.49 134.36 C 556.38 134.86 544.26 134.39 532.15 134.64 C 527.10 126.25 522.71 117.47 517.57 109.14 C 515.19 110.99 513.77 113.70 512.15 116.17 C 508.12 122.37 504.05 128.56 499.82 134.63 C 488.53 134.50 477.24 134.63 465.95 134.56 C 475.04 120.83 484.53 107.38 493.75 93.75 C 495.27 92.21 494.31 90.29 493.27 88.80 C 484.80 76.65 475.75 64.89 467.67 52.48 Z" />
<path fill="#410fcf" d=" M 583.38 52.36 C 593.83 52.41 604.27 52.45 614.72 52.34 C 614.70 79.77 614.69 107.21 614.73 134.65 C 604.28 134.52 593.83 134.55 583.38 134.63 C 583.51 107.21 583.50 79.78 583.38 52.36 Z" />
<path fill="#410fcf" d=" M 85.50 183.51 C 86.92 181.88 88.12 179.83 90.15 178.91 C 93.06 178.36 96.05 178.57 99.01 178.56 C 107.82 178.74 116.64 178.39 125.45 178.80 C 122.58 182.37 120.48 188.48 115.08 188.34 C 108.52 188.45 101.95 188.21 95.38 188.39 C 93.85 190.64 92.28 192.87 90.75 195.13 C 97.49 195.42 104.24 195.31 110.99 195.29 C 108.58 198.42 106.14 201.53 103.67 204.61 C 97.76 204.73 91.84 204.51 85.93 204.65 C 80.77 204.48 78.68 210.17 75.86 213.54 C 83.35 213.63 90.84 213.38 98.32 213.76 C 95.94 217.16 93.36 220.43 90.73 223.65 C 78.43 223.67 66.13 223.75 53.83 223.62 C 64.01 209.96 75.13 197.03 85.50 183.51 Z" />
<path fill="#410fcf" d=" M 221.60 187.08 C 223.61 184.25 225.37 181.09 228.22 179.01 C 232.17 178.12 236.26 178.67 240.26 178.80 C 238.22 181.58 236.40 184.66 233.65 186.81 C 229.72 187.83 225.60 187.18 221.60 187.08 Z" />
<path fill="#410fcf" d=" M 413.56 187.11 C 415.57 184.26 417.32 181.05 420.20 178.96 C 424.15 178.15 428.23 178.65 432.24 178.79 C 430.20 181.57 428.36 184.61 425.63 186.79 C 421.70 187.83 417.56 187.19 413.56 187.11 Z" />
<path fill="#410fcf" d=" M 582.52 182.53 C 583.61 181.22 584.72 179.86 586.17 178.92 C 590.49 178.12 594.92 178.66 599.29 178.82 C 587.81 194.05 575.47 208.61 563.77 223.67 C 559.13 223.71 554.50 223.68 549.88 223.60 C 560.60 209.78 571.76 196.31 582.52 182.53 Z" />
<path fill="#410fcf" d=" M 136.34 195.04 C 141.77 191.84 148.08 189.08 154.51 190.59 C 155.85 191.53 156.75 193.25 156.23 194.89 C 155.38 198.08 153.35 200.78 151.39 203.37 C 146.05 210.10 140.45 216.63 135.41 223.59 C 131.21 223.71 127.00 223.69 122.80 223.63 C 125.96 219.21 129.30 214.94 132.79 210.78 C 135.24 207.75 138.01 204.81 139.24 201.03 C 138.12 200.40 136.79 200.05 135.56 200.56 C 131.40 201.97 128.44 205.45 125.73 208.73 C 121.76 213.73 117.79 218.73 113.76 223.69 C 109.73 223.69 105.70 223.68 101.67 223.63 C 107.73 214.83 114.92 206.90 121.39 198.41 C 123.32 196.03 125.01 193.37 127.49 191.49 C 130.91 190.23 134.66 190.92 138.21 190.98 C 137.60 192.34 136.97 193.69 136.34 195.04 Z" />
<path fill="#410fcf" d=" M 164.23 200.22 C 170.09 194.73 177.57 189.77 185.95 190.23 C 188.39 190.15 189.97 192.29 191.66 193.72 C 195.81 190.49 201.13 190.50 206.13 190.84 C 200.45 198.84 194.00 206.24 187.98 213.98 C 183.37 219.64 179.21 225.85 173.30 230.29 C 168.93 233.61 163.75 235.70 158.45 237.00 L 145.12 237.00 C 143.29 235.86 140.43 234.75 140.99 232.07 C 141.51 228.58 143.83 224.01 147.98 224.45 C 152.26 224.02 155.41 227.35 159.14 228.74 C 164.27 228.49 167.39 223.67 170.44 220.15 C 165.78 221.12 161.02 223.09 156.20 222.08 C 152.91 221.33 152.87 217.33 153.82 214.77 C 155.91 209.10 160.05 204.47 164.23 200.22 Z" />
<path fill="#410fcf" d=" M 251.36 195.10 C 256.58 192.02 262.52 189.27 268.74 190.43 C 270.47 190.55 271.65 192.31 271.46 193.97 C 271.07 197.38 268.91 200.23 266.92 202.91 C 261.46 209.82 255.77 216.55 250.52 223.61 C 246.29 223.71 242.07 223.68 237.85 223.62 C 243.22 216.28 249.32 209.51 254.61 202.12 C 254.13 201.52 253.18 200.34 252.70 199.74 C 249.62 201.12 246.38 202.48 244.06 205.04 C 239.40 210.11 235.52 215.84 231.10 221.10 C 227.80 225.60 221.50 223.16 216.79 223.60 C 223.22 214.53 230.68 206.27 237.35 197.38 C 238.96 195.35 240.43 193.14 242.51 191.55 C 246.01 190.37 249.78 190.90 253.40 190.92 C 252.73 192.32 252.05 193.71 251.36 195.10 Z" />
<path fill="#410fcf" d=" M 275.55 204.54 C 283.81 195.75 295.64 189.05 308.05 190.31 C 311.03 190.39 314.97 191.53 315.34 195.04 C 315.64 201.17 311.03 205.93 307.70 210.59 C 299.43 210.62 291.17 210.47 282.91 210.69 C 282.19 212.53 281.51 214.39 280.88 216.27 C 286.33 218.00 291.08 213.41 296.51 214.38 C 298.58 214.56 300.63 214.93 302.68 215.30 C 294.76 222.47 283.58 225.81 273.03 224.15 C 270.85 223.76 267.87 222.62 268.07 219.92 C 267.45 213.80 271.81 208.84 275.55 204.54 Z" />
<path fill="#410fcf" d=" M 319.22 206.22 C 327.31 196.80 339.26 189.43 352.06 190.25 C 354.40 190.38 356.96 190.56 358.89 192.06 C 360.91 193.69 360.74 196.65 360.10 198.91 C 358.79 203.40 355.58 206.97 352.78 210.61 C 344.39 210.58 336.01 210.51 327.62 210.67 C 327.59 212.85 327.23 215.00 326.57 217.08 C 329.71 216.73 332.78 215.97 335.77 214.96 C 339.81 213.58 344.10 214.69 348.19 215.22 C 340.93 221.35 331.56 225.10 321.97 224.52 C 318.88 224.34 314.38 224.24 313.25 220.67 C 312.14 215.15 315.96 210.26 319.22 206.22 Z" />
<path fill="#410fcf" d=" M 389.91 192.29 C 393.35 191.00 396.97 190.29 400.65 190.09 C 401.08 190.61 401.94 191.64 402.37 192.15 C 399.81 194.35 397.38 196.72 394.67 198.75 C 391.25 201.47 386.13 199.72 382.86 202.83 C 375.71 208.72 370.62 216.60 364.70 223.64 C 360.48 223.69 356.26 223.69 352.04 223.73 C 359.91 213.71 367.99 203.87 375.82 193.82 C 379.02 189.24 385.47 190.44 389.91 192.29 Z" />
<path fill="#410fcf" d=" M 443.35 195.09 C 448.55 191.98 454.52 189.27 460.74 190.44 C 462.90 190.52 463.84 193.05 463.30 194.89 C 462.53 198.15 460.45 200.86 458.44 203.46 C 453.09 210.13 447.60 216.71 442.52 223.60 C 438.28 223.70 434.05 223.67 429.82 223.62 C 433.45 218.69 437.26 213.88 441.22 209.21 C 443.32 206.74 445.30 204.09 446.43 201.01 C 443.33 199.18 439.96 201.68 437.57 203.58 C 432.03 208.79 427.99 215.33 423.06 221.09 C 419.79 225.61 413.47 223.16 408.77 223.60 C 416.06 213.38 424.38 203.94 431.97 193.96 C 434.88 189.42 440.87 191.03 445.37 190.94 C 444.70 192.32 444.03 193.71 443.35 195.09 Z" />
<path fill="#410fcf" d=" M 466.96 204.97 C 472.86 197.90 480.64 191.36 490.11 190.27 C 493.34 189.69 496.23 191.44 498.93 192.95 C 503.41 190.99 508.32 190.45 513.18 190.87 C 507.52 198.89 501.04 206.28 495.03 214.02 C 490.87 219.16 487.09 224.71 482.00 228.99 C 477.48 232.81 471.98 235.26 466.37 237.00 L 452.03 237.00 C 450.35 235.79 447.69 234.55 448.12 232.05 C 448.75 229.20 450.43 226.76 451.80 224.24 C 454.94 224.50 458.26 224.51 461.09 226.09 C 463.01 226.97 464.73 228.43 466.86 228.77 C 471.65 227.99 474.55 223.59 477.47 220.15 C 473.08 221.13 468.66 222.83 464.09 222.25 C 461.91 222.06 460.17 220.08 460.34 217.90 C 460.62 212.88 463.96 208.75 466.96 204.97 Z" />
<path fill="#410fcf" d=" M 612.16 194.84 C 617.16 191.91 622.85 189.31 628.80 190.42 C 630.88 190.50 632.07 192.83 631.62 194.70 C 630.80 198.32 628.34 201.26 626.16 204.15 C 620.94 210.61 615.73 217.07 610.65 223.64 C 606.41 223.70 602.17 223.68 597.93 223.63 C 603.60 215.91 610.48 209.05 615.33 200.74 C 608.74 199.07 604.10 204.99 600.50 209.52 C 596.82 214.22 593.01 218.81 589.46 223.60 C 585.26 223.71 581.06 223.67 576.87 223.62 C 583.93 214.16 591.65 205.21 598.79 195.81 C 600.16 194.21 601.37 192.27 603.34 191.34 C 606.54 190.46 609.91 190.87 613.20 190.92 C 612.84 192.23 612.50 193.53 612.16 194.84 Z" />
<path fill="#410fcf" d=" M 630.07 212.05 C 636.63 201.61 647.07 193.24 659.25 190.65 C 663.94 190.20 669.04 189.55 673.49 191.44 C 677.46 193.39 675.32 198.26 674.85 201.57 C 670.64 202.11 666.43 202.60 662.23 203.14 C 661.93 201.75 661.65 200.35 661.37 198.96 C 653.92 198.81 647.79 204.06 643.97 210.01 C 642.86 211.81 642.81 213.98 642.59 216.02 C 646.54 216.04 650.30 214.76 653.58 212.58 C 657.37 209.96 662.12 211.74 666.28 212.17 C 658.96 219.77 648.71 225.02 637.97 224.53 C 634.73 224.36 630.76 224.22 628.65 221.37 C 627.36 218.27 628.34 214.76 630.07 212.05 Z" />
<path fill="#410fcf" d=" M 218.44 191.47 C 222.25 190.17 226.36 190.96 230.28 191.18 C 222.15 202.31 213.11 212.73 204.68 223.63 C 200.48 223.68 196.29 223.69 192.09 223.77 C 198.90 214.73 206.29 206.16 213.14 197.15 C 214.77 195.15 216.26 192.93 218.44 191.47 Z" />
<path fill="#410fcf" d=" M 410.41 191.40 C 414.23 190.19 418.31 190.98 422.23 191.24 C 413.99 202.26 405.09 212.76 396.65 223.63 C 392.45 223.69 388.25 223.69 384.05 223.73 C 391.17 214.33 398.82 205.36 405.99 196.01 C 407.34 194.37 408.60 192.58 410.41 191.40 Z" />
<path fill="#fffffe" d=" M 288.64 204.01 C 291.96 200.23 296.54 197.88 301.57 197.45 C 301.33 199.60 301.16 201.76 301.22 203.93 C 297.03 204.25 292.83 204.20 288.64 204.01 Z" />
<path fill="#fffffe" d=" M 333.67 204.01 C 337.22 200.30 341.81 197.51 347.14 197.95 C 346.88 199.97 346.46 201.97 345.95 203.94 C 341.86 204.28 337.76 204.19 333.67 204.01 Z" />
<path fill="#fffffe" d=" M 167.51 213.30 C 170.19 206.50 176.07 198.69 184.28 199.73 C 183.28 205.57 179.01 210.28 173.85 212.89 C 171.88 213.88 169.61 213.31 167.51 213.30 Z" />
<path fill="#fffffe" d=" M 474.60 213.27 C 477.29 206.44 483.19 198.60 491.45 199.75 C 490.40 205.58 486.07 210.26 480.93 212.91 C 478.98 213.94 476.69 213.32 474.60 213.27 Z" />
<path fill="#410fcf" d=" M 508.48 211.33 C 512.98 211.20 517.49 211.21 521.99 211.22 C 516.37 218.11 511.47 225.94 503.88 230.90 C 500.16 233.45 495.92 235.11 491.58 236.23 C 492.08 234.58 492.49 232.88 493.25 231.31 C 497.01 229.02 501.13 227.28 504.45 224.31 C 502.61 223.98 500.78 223.67 498.94 223.37 C 502.20 219.42 505.37 215.40 508.48 211.33 Z" />
<path fill="#410fcf" d=" M 676.60 211.38 C 681.11 211.18 685.63 211.20 690.16 211.29 C 687.03 215.45 683.73 219.48 680.56 223.60 C 676.06 223.68 671.56 223.68 667.07 223.73 C 670.27 219.63 673.55 215.60 676.60 211.38 Z" />
</svg>
