<?xml version="1.0" encoding="UTF-8" ?>
<!DOCTYPE svg PUBLIC "-//W3C//DTD SVG 1.1//EN" "http://www.w3.org/Graphics/SVG/1.1/DTD/svg11.dtd">
<svg width="443pt" height="124pt" viewBox="0 0 443 124" version="1.1" xmlns="http://www.w3.org/2000/svg">
<path fill="#ffffff" d=" M 0.00 0.00 L 443.00 0.00 L 443.00 124.00 L 0.00 124.00 L 0.00 0.00 Z" />
<path fill="#929398" d=" M 5.83 47.99 C 11.41 29.53 27.46 14.53 46.46 10.79 C 46.47 12.57 46.48 14.35 46.49 16.13 C 30.91 20.14 17.44 31.80 11.90 46.99 C 6.87 60.02 8.01 75.14 14.69 87.38 C 21.16 99.63 33.06 108.69 46.46 112.09 C 46.47 113.96 46.49 115.82 46.50 117.69 C 32.79 114.54 20.31 106.21 12.56 94.43 C 3.51 81.00 0.96 63.44 5.83 47.99 Z" />
<path fill="#929398" d=" M 70.13 10.81 C 86.82 14.20 101.33 26.25 108.24 41.75 C 113.69 53.79 114.44 67.83 110.56 80.43 C 104.96 98.88 88.92 113.56 70.07 117.59 C 70.10 115.73 70.12 113.88 70.14 112.03 C 82.90 108.77 94.20 100.33 100.86 88.97 C 108.39 76.37 109.75 60.29 104.37 46.62 C 98.79 31.70 85.51 20.10 70.10 16.22 C 70.11 14.42 70.12 12.62 70.13 10.81 Z" />
<path fill="#929398" d=" M 70.11 22.07 C 80.84 25.13 90.26 32.39 95.94 42.00 C 103.23 54.17 103.89 69.97 97.79 82.76 C 92.52 94.12 82.11 102.76 70.12 106.21 C 70.13 104.31 70.14 102.40 70.17 100.50 C 81.44 96.83 90.74 87.69 94.50 76.44 C 97.71 67.24 97.18 56.79 92.94 48.00 C 88.53 38.47 80.02 31.07 70.12 27.66 C 70.11 25.79 70.11 23.93 70.11 22.07 Z" />
<path fill="#929398" d=" M 21.08 41.04 C 26.77 31.78 36.10 25.07 46.46 21.96 C 46.47 23.85 46.48 25.75 46.48 27.64 C 38.30 30.48 30.91 35.82 26.20 43.14 C 20.23 52.07 18.24 63.61 21.17 73.98 C 24.38 86.44 34.38 96.63 46.52 100.67 C 46.50 102.54 46.47 104.42 46.45 106.29 C 34.77 102.90 24.54 94.69 19.14 83.75 C 12.30 70.47 13.07 53.65 21.08 41.04 Z" />
<path fill="#929398" d=" M 29.84 48.83 C 33.41 42.10 39.53 37.02 46.47 34.04 C 46.48 36.02 46.48 37.99 46.47 39.97 C 38.27 44.28 32.14 52.62 31.44 61.97 C 30.44 72.77 36.83 83.47 46.46 88.25 C 46.47 90.24 46.46 92.23 46.45 94.22 C 40.60 91.67 35.24 87.76 31.67 82.40 C 24.82 72.72 24.14 59.20 29.84 48.83 Z" />
<path fill="#929398" d=" M 70.11 34.20 C 76.77 36.87 82.52 41.74 86.07 47.99 C 92.51 58.69 91.73 73.22 84.20 83.18 C 80.67 88.10 75.63 91.70 70.13 94.13 C 70.12 92.15 70.12 90.17 70.13 88.19 C 79.65 83.35 85.98 72.67 84.97 61.95 C 84.25 52.70 78.33 44.28 70.10 40.10 C 70.10 38.13 70.10 36.16 70.11 34.20 Z" />
<path fill="#3e3e40" d=" M 134.76 50.39 C 141.79 50.35 148.81 50.36 155.83 50.38 C 155.84 52.07 155.84 53.76 155.87 55.46 C 153.28 55.51 150.69 55.51 148.10 55.53 C 148.19 63.23 148.13 70.92 148.14 78.62 C 146.25 78.61 144.35 78.60 142.46 78.60 C 142.51 70.91 142.45 63.21 142.50 55.52 C 139.92 55.50 137.35 55.50 134.78 55.50 C 134.77 53.79 134.77 52.09 134.76 50.39 Z" />
<path fill="#3e3e40" d=" M 162.75 50.37 C 164.64 50.37 166.53 50.38 168.42 50.38 C 168.49 56.81 168.19 63.26 168.53 69.67 C 169.28 74.41 177.04 74.65 178.09 69.96 C 178.83 63.48 178.23 56.90 178.39 50.38 C 180.29 50.38 182.19 50.37 184.10 50.37 C 184.03 56.66 184.23 62.95 184.03 69.24 C 183.96 73.07 181.48 76.65 177.87 77.97 C 172.13 80.49 163.93 77.56 162.89 70.89 C 162.55 64.06 162.88 57.21 162.75 50.37 Z" />
<path fill="#3e3e40" d=" M 193.27 50.37 C 194.97 50.37 196.68 50.37 198.38 50.38 C 202.31 56.23 206.09 62.19 210.09 68.00 C 209.84 62.13 209.96 56.26 209.93 50.38 C 211.84 50.38 213.75 50.38 215.67 50.38 C 215.62 59.79 215.62 69.19 215.67 78.60 C 213.92 78.61 212.17 78.61 210.42 78.62 C 206.57 72.89 202.82 67.09 198.89 61.41 C 198.93 67.14 198.88 72.87 198.95 78.59 C 197.05 78.60 195.16 78.60 193.27 78.60 C 193.32 69.19 193.31 59.78 193.27 50.37 Z" />
<path fill="#3e3e40" d=" M 225.11 50.38 C 226.87 50.37 228.63 50.37 230.40 50.37 C 234.10 56.20 237.95 61.94 241.81 67.66 C 241.82 61.89 241.80 56.13 241.81 50.36 C 243.70 50.37 245.59 50.37 247.48 50.38 C 247.44 59.79 247.45 69.19 247.48 78.60 C 245.77 78.60 244.06 78.60 242.35 78.60 C 238.40 72.84 234.65 66.94 230.78 61.12 C 230.77 66.95 230.75 72.78 230.81 78.60 C 228.91 78.60 227.01 78.60 225.11 78.60 C 225.18 69.19 225.16 59.79 225.11 50.38 Z" />
<path fill="#3e3e40" d=" M 257.19 50.38 C 263.62 50.36 270.05 50.36 276.48 50.38 C 276.47 52.17 276.48 53.96 276.48 55.75 C 271.93 55.77 267.39 55.76 262.84 55.76 C 262.84 57.81 262.84 59.85 262.85 61.89 C 266.69 61.89 270.54 61.89 274.39 61.90 C 274.40 63.52 274.42 65.15 274.43 66.78 C 270.57 66.79 266.71 66.80 262.84 66.79 C 262.84 69.02 262.84 71.24 262.85 73.47 C 267.39 73.47 271.94 73.46 276.48 73.49 C 276.48 75.19 276.48 76.90 276.48 78.60 C 270.05 78.62 263.62 78.62 257.19 78.60 C 257.24 69.19 257.24 59.79 257.19 50.38 Z" />
<path fill="#3e3e40" d=" M 284.40 50.38 C 286.30 50.37 288.19 50.37 290.10 50.37 C 290.09 58.06 290.15 65.76 290.06 73.45 C 294.60 73.49 299.15 73.46 303.70 73.48 C 303.70 75.19 303.70 76.89 303.70 78.60 C 297.27 78.63 290.83 78.62 284.40 78.60 C 284.43 69.20 284.44 59.79 284.40 50.38 Z" />
<path fill="#019ddc" d=" M 405.69 50.51 C 407.52 50.50 409.35 50.50 411.18 50.50 C 411.18 59.83 411.18 69.15 411.18 78.48 C 409.35 78.47 407.52 78.48 405.70 78.48 C 405.69 69.15 405.71 59.83 405.69 50.51 Z" />
<path fill="#019ddc" d=" M 427.43 50.58 C 432.84 49.07 439.56 52.37 440.54 58.15 C 440.92 62.61 441.06 67.17 440.39 71.61 C 438.39 78.79 428.24 81.02 422.97 76.06 C 418.30 72.14 419.87 65.40 419.74 60.05 C 419.58 55.53 423.16 51.59 427.43 50.58 Z" />
<path fill="#019ddc" d=" M 314.66 62.30 C 314.65 58.39 314.65 54.48 314.64 50.57 C 319.09 50.66 323.55 50.37 328.00 50.68 C 332.87 50.95 336.51 56.26 335.06 60.92 C 334.51 63.54 332.28 65.16 330.25 66.63 C 332.48 70.58 334.60 74.58 336.80 78.54 C 334.63 78.54 332.47 78.54 330.30 78.54 C 328.37 74.75 326.47 70.95 324.55 67.16 C 323.09 67.15 321.63 67.15 320.17 67.15 C 320.18 70.94 320.18 74.74 320.19 78.54 C 318.34 78.54 316.48 78.54 314.64 78.55 C 314.65 74.73 314.65 70.91 314.66 67.09 C 313.04 67.10 311.42 67.11 309.81 67.13 C 308.69 65.53 307.59 63.93 306.51 62.32 C 309.23 62.30 311.94 62.30 314.66 62.30 Z" />
<path fill="#019ddc" d=" M 353.33 50.54 C 354.81 50.51 356.29 50.50 357.78 50.51 C 361.32 59.83 364.81 69.17 368.43 78.46 C 366.48 78.47 364.53 78.48 362.59 78.50 C 361.85 76.50 361.13 74.51 360.40 72.51 C 357.18 72.51 353.96 72.51 350.74 72.51 C 350.03 74.49 349.32 76.47 348.62 78.45 C 346.65 78.47 344.69 78.48 342.73 78.49 C 346.31 69.19 349.85 59.88 353.33 50.54 Z" />
<path fill="#019ddc" d=" M 375.80 50.50 C 380.20 50.63 384.64 50.16 389.02 50.81 C 393.57 51.81 396.98 56.28 396.74 60.94 C 396.66 65.89 397.83 71.98 393.57 75.62 C 388.78 80.10 381.68 78.00 375.79 78.48 C 375.80 69.15 375.79 59.83 375.80 50.50 Z" />
<path fill="#019ddc" d=" M 39.54 55.25 C 44.94 55.26 50.34 55.23 55.74 55.26 C 55.74 56.55 55.73 57.83 55.73 59.11 C 53.76 59.12 51.79 59.13 49.82 59.13 C 49.81 65.02 49.80 70.91 49.83 76.79 C 48.36 76.80 46.90 76.80 45.43 76.79 C 45.46 70.91 45.45 65.02 45.46 59.13 C 43.49 59.12 41.52 59.12 39.56 59.12 C 39.55 57.83 39.54 56.54 39.54 55.25 Z" />
<path fill="#ffffff" d=" M 320.16 55.40 C 322.86 55.45 325.64 55.06 328.30 55.72 C 330.95 56.84 330.53 60.94 327.99 61.93 C 325.46 62.65 322.76 62.22 320.17 62.30 C 320.17 60.00 320.17 57.70 320.16 55.40 Z" />
<path fill="#019ddc" d=" M 59.82 55.26 C 64.60 55.69 70.61 53.79 74.33 57.70 C 77.23 60.91 75.44 65.87 71.97 67.83 C 73.65 70.81 75.29 73.81 76.94 76.81 C 75.16 76.80 73.37 76.79 71.59 76.78 C 70.29 74.21 69.15 71.56 67.73 69.05 C 67.19 67.62 65.33 68.32 64.20 67.99 C 64.19 70.92 64.20 73.86 64.21 76.80 C 62.75 76.80 61.28 76.81 59.82 76.81 C 59.81 73.92 59.83 71.03 59.83 68.13 C 58.56 68.12 57.28 68.12 56.00 68.11 C 55.15 66.83 54.30 65.54 53.46 64.25 C 55.58 64.23 57.71 64.23 59.83 64.22 C 59.82 61.23 59.81 58.25 59.82 55.26 Z" />
<path fill="#ffffff" d=" M 381.24 55.56 C 384.47 55.64 388.95 54.74 390.67 58.33 C 391.79 62.05 391.40 66.12 391.04 69.95 C 389.88 74.24 384.64 73.46 381.23 73.47 C 381.29 67.50 381.27 61.53 381.24 55.56 Z" />
<path fill="#ffffff" d=" M 427.40 56.38 C 430.28 54.22 435.12 56.32 435.19 60.03 C 435.16 63.91 436.30 68.49 433.94 71.87 C 431.00 75.43 424.73 72.65 425.23 68.12 C 425.46 64.28 423.88 59.14 427.40 56.38 Z" />
<path fill="#ffffff" d=" M 64.18 59.35 C 66.25 59.36 68.35 59.18 70.41 59.56 C 72.19 60.74 71.67 62.97 70.12 64.08 C 68.16 64.36 66.16 64.23 64.19 64.25 C 64.18 62.61 64.18 60.98 64.18 59.35 Z" />
<path fill="#ffffff" d=" M 355.64 58.45 C 356.65 61.54 357.70 64.62 358.80 67.68 C 356.65 67.68 354.51 67.69 352.38 67.69 C 353.43 64.60 354.51 61.52 355.64 58.45 Z" />
</svg>
