<?xml version="1.0" encoding="utf-8"?>
<!-- Generator: Adobe Illustrator 15.1.0, SVG Export Plug-In . SVG Version: 6.00 Build 0)  -->
<!DOCTYPE svg PUBLIC "-//W3C//DTD SVG 1.1//EN" "http://www.w3.org/Graphics/SVG/1.1/DTD/svg11.dtd">
<svg version="1.1" id="Layer_1" xmlns="http://www.w3.org/2000/svg" xmlns:xlink="http://www.w3.org/1999/xlink" x="0px" y="0px"
	 width="443px" height="124px" viewBox="0 0 443 124" enable-background="new 0 0 443 124" xml:space="preserve">
<g>
	<path fill="none" d="M352.38,67.689c2.13,0,4.271-0.01,6.42-0.01c-1.1-3.06-2.149-6.14-3.16-9.229
		C354.51,61.52,353.43,64.6,352.38,67.689z"/>
	<path fill="none" d="M70.41,59.56c-2.06-0.38-4.16-0.2-6.23-0.21c0,1.63,0,3.259,0.01,4.9c1.97-0.02,3.97,0.109,5.93-0.17
		C71.67,62.971,72.19,60.74,70.41,59.56z"/>
	<path fill="#929398" d="M14.69,87.38C8.01,75.141,6.87,60.02,11.9,46.99c5.54-15.19,19.01-26.85,34.59-30.86
		c-0.01-1.78-0.02-3.56-0.03-5.34c-19,3.74-35.05,18.74-40.63,37.2C0.96,63.439,3.51,81,12.56,94.43
		c7.75,11.78,20.23,20.11,33.94,23.26c-0.01-1.869-0.03-3.729-0.04-5.6C33.06,108.689,21.16,99.63,14.69,87.38z"/>
	<path fill="#929398" d="M70.13,10.81c-0.01,1.81-0.02,3.61-0.03,5.41c15.41,3.88,28.69,15.48,34.27,30.4
		c5.38,13.67,4.02,29.75-3.51,42.351C94.2,100.33,82.9,108.77,70.14,112.029c-0.02,1.851-0.04,3.701-0.07,5.561
		c18.85-4.029,34.89-18.71,40.49-37.16c3.88-12.6,3.13-26.64-2.32-38.68C101.33,26.25,86.82,14.2,70.13,10.81z"/>
	<path fill="#929398" d="M70.17,100.5c-0.03,1.9-0.04,3.811-0.05,5.71c11.99-3.45,22.4-12.09,27.67-23.45
		c6.1-12.789,5.44-28.59-1.85-40.76c-5.68-9.61-15.1-16.87-25.83-19.93c0,1.86,0,3.72,0.01,5.59c9.9,3.41,18.41,10.81,22.82,20.34
		c4.24,8.79,4.77,19.24,1.56,28.439C90.74,87.689,81.44,96.83,70.17,100.5z"/>
	<path fill="#929398" d="M21.17,73.98c-2.93-10.371-0.94-21.911,5.03-30.84c4.71-7.32,12.1-12.66,20.28-15.5
		c0-1.89-0.01-3.79-0.02-5.68c-10.36,3.11-19.69,9.82-25.38,19.08c-8.01,12.61-8.78,29.431-1.94,42.71
		c5.4,10.939,15.63,19.15,27.31,22.54c0.02-1.87,0.05-3.75,0.07-5.62C34.38,96.63,24.38,86.439,21.17,73.98z"/>
	<path fill="#929398" d="M46.47,39.97c0.01-1.98,0.01-3.95,0-5.93c-6.94,2.98-13.06,8.06-16.63,14.79
		c-5.7,10.37-5.02,23.891,1.83,33.57c3.57,5.359,8.93,9.27,14.78,11.82c0.01-1.99,0.02-3.98,0.01-5.971
		c-9.63-4.779-16.02-15.48-15.02-26.28C32.14,52.62,38.27,44.28,46.47,39.97z"/>
	<path fill="#929398" d="M70.1,40.1c8.23,4.18,14.15,12.6,14.87,21.85c1.01,10.72-5.32,21.399-14.84,26.239
		c-0.01,1.98-0.01,3.961,0,5.94c5.5-2.43,10.54-6.03,14.07-10.95c7.53-9.959,8.31-24.49,1.87-35.189
		c-3.55-6.25-9.3-11.12-15.96-13.79C70.1,36.16,70.1,38.13,70.1,40.1z"/>
	<path fill="#3E3E40" d="M155.83,50.38c-7.02-0.02-14.04-0.03-21.07,0.01c0.01,1.7,0.01,3.4,0.02,5.11c2.57,0,5.14,0,7.72,0.02
		c-0.05,7.69,0.01,15.39-0.04,23.08c1.89,0,3.79,0.01,5.68,0.021c-0.01-7.7,0.05-15.39-0.04-23.09c2.59-0.02,5.18-0.02,7.77-0.07
		C155.84,53.76,155.84,52.07,155.83,50.38z"/>
	<path fill="#3E3E40" d="M184.1,50.37c-1.91,0-3.81,0.01-5.71,0.01c-0.16,6.52,0.44,13.101-0.3,19.58
		c-1.05,4.69-8.81,4.45-9.56-0.29c-0.34-6.41-0.04-12.86-0.11-19.29c-1.89,0-3.78-0.01-5.67-0.01c0.13,6.84-0.2,13.69,0.14,20.521
		c1.04,6.67,9.24,9.6,14.98,7.08c3.61-1.32,6.09-4.9,6.16-8.73C184.23,62.95,184.03,56.66,184.1,50.37z"/>
	<path fill="#3E3E40" d="M209.93,50.38c0.03,5.88-0.09,11.75,0.16,17.62c-4-5.81-7.78-11.77-11.71-17.62
		c-1.7-0.01-3.41-0.01-5.11-0.01c0.04,9.41,0.05,18.819,0,28.229c1.89,0,3.78,0,5.68-0.01c-0.07-5.72-0.02-11.449-0.06-17.18
		c3.93,5.68,7.68,11.48,11.53,17.21c1.75-0.011,3.5-0.011,5.25-0.021c-0.05-9.41-0.05-18.81,0-28.22
		C213.75,50.38,211.84,50.38,209.93,50.38z"/>
	<path fill="#3E3E40" d="M241.811,50.36c-0.011,5.77,0.01,11.53,0,17.3c-3.86-5.72-7.711-11.46-11.41-17.29
		c-1.771,0-3.53,0-5.291,0.01c0.051,9.41,0.07,18.81,0,28.22c1.9,0,3.801,0,5.701,0c-0.061-5.82-0.041-11.649-0.031-17.479
		c3.871,5.819,7.621,11.72,11.57,17.479c1.711,0,3.42,0,5.131,0c-0.03-9.41-0.041-18.81,0-28.22
		C245.59,50.37,243.7,50.37,241.811,50.36z"/>
	<path fill="#3E3E40" d="M257.189,78.6c6.431,0.021,12.86,0.021,19.291,0c0-1.699,0-3.41,0-5.109c-4.541-0.03-9.09-0.02-13.631-0.02
		c-0.01-2.23-0.01-4.451-0.01-6.681c3.87,0.01,7.73,0,11.59-0.011c-0.01-1.629-0.029-3.26-0.039-4.879
		c-3.851-0.01-7.701-0.01-11.541-0.01c-0.01-2.04-0.01-4.08-0.01-6.13c4.551,0,9.09,0.01,13.641-0.01c0-1.79-0.01-3.58,0-5.37
		c-6.431-0.02-12.86-0.02-19.291,0C257.24,59.79,257.24,69.189,257.189,78.6z"/>
	<path fill="#3E3E40" d="M290.1,50.37c-1.91,0-3.8,0-5.699,0.01c0.039,9.41,0.029,18.82,0,28.22c6.43,0.021,12.869,0.03,19.3,0
		c0-1.709,0-3.41,0-5.119c-4.55-0.021-9.101,0.01-13.64-0.03C290.15,65.76,290.09,58.06,290.1,50.37z"/>
	<path fill="#019DDC" d="M405.7,78.48c1.819,0,3.649-0.01,5.479,0c0-9.33,0-18.65,0-27.98c-1.83,0-3.66,0-5.489,0.01
		C405.71,59.83,405.69,69.15,405.7,78.48z"/>
	<path fill="#019DDC" d="M440.54,58.15c-0.98-5.78-7.7-9.08-13.11-7.57c-4.27,1.01-7.85,4.95-7.689,9.47
		c0.13,5.351-1.44,12.091,3.229,16.011c5.271,4.959,15.42,2.729,17.42-4.451C441.06,67.17,440.92,62.609,440.54,58.15z
		 M433.94,71.87c-2.94,3.56-9.21,0.78-8.71-3.75c0.229-3.841-1.351-8.98,2.17-11.74c2.88-2.16,7.72-0.06,7.79,3.65
		C435.16,63.91,436.3,68.49,433.94,71.87z"/>
	<path fill="#019DDC" d="M335.06,60.92c1.45-4.66-2.189-9.97-7.06-10.24c-4.45-0.31-8.91-0.02-13.36-0.11
		c0.011,3.91,0.011,7.82,0.021,11.73c-2.72,0-5.43,0-8.15,0.02c1.08,1.61,2.181,3.209,3.3,4.81c1.61-0.021,3.23-0.03,4.851-0.04
		c-0.01,3.82-0.01,7.641-0.021,11.46c1.841-0.01,3.7-0.01,5.551-0.01c-0.011-3.8-0.011-7.601-0.021-11.39c1.46,0,2.92,0,4.38,0.01
		c1.92,3.79,3.82,7.59,5.75,11.38c2.17,0,4.33,0,6.5,0c-2.2-3.96-4.319-7.96-6.55-11.91C332.28,65.16,334.51,63.54,335.06,60.92z
		 M327.99,61.93c-2.53,0.72-5.23,0.29-7.82,0.37c0-2.3,0-4.6-0.01-6.9c2.7,0.05,5.479-0.34,8.14,0.32
		C330.95,56.84,330.53,60.94,327.99,61.93z"/>
	<path fill="#019DDC" d="M396.74,60.94c0.24-4.66-3.17-9.13-7.721-10.13c-4.38-0.65-8.819-0.18-13.22-0.31
		c-0.01,9.33,0,18.65-0.01,27.98c5.89-0.48,12.99,1.619,17.78-2.86C397.83,71.98,396.66,65.891,396.74,60.94z M391.04,69.95
		c-1.16,4.29-6.4,3.51-9.81,3.521c0.06-5.971,0.039-11.941,0.01-17.911c3.229,0.08,7.71-0.82,9.43,2.77
		C391.79,62.05,391.4,66.12,391.04,69.95z"/>
	<path fill="#019DDC" d="M49.82,59.13c1.97,0,3.94-0.01,5.91-0.02c0-1.28,0.01-2.56,0.01-3.85c-5.4-0.03-10.8,0-16.2-0.01
		c0,1.29,0.01,2.58,0.02,3.87c1.96,0,3.93,0,5.9,0.01c-0.01,5.89,0,11.78-0.03,17.66c1.47,0.01,2.93,0.01,4.4,0
		C49.8,70.91,49.81,65.02,49.82,59.13z"/>
	<path fill="#019DDC" d="M76.94,76.811c-1.65-3-3.29-6-4.97-8.98c3.47-1.96,5.26-6.92,2.36-10.13c-3.72-3.91-9.73-2.01-14.51-2.44
		c-0.01,2.99,0,5.97,0.01,8.961c-2.12,0.01-4.25,0.01-6.37,0.029c0.84,1.29,1.69,2.58,2.54,3.859c1.28,0.011,2.56,0.011,3.83,0.021
		c0,2.899-0.02,5.79-0.01,8.681c1.46,0,2.93-0.011,4.39-0.011c-0.01-2.94-0.02-5.88-0.01-8.81c1.13,0.33,2.99-0.37,3.53,1.06
		c1.42,2.511,2.56,5.16,3.86,7.729C73.37,76.79,75.16,76.8,76.94,76.811z M70.12,64.08c-1.96,0.279-3.96,0.15-5.93,0.17
		c-0.01-1.641-0.01-3.27-0.01-4.9c2.07,0.01,4.17-0.17,6.23,0.21C72.19,60.74,71.67,62.971,70.12,64.08z"/>
	<path fill="#019DDC" d="M353.33,50.54c-3.48,9.34-7.021,18.649-10.6,27.95c1.96-0.01,3.92-0.02,5.89-0.04
		c0.7-1.979,1.41-3.96,2.12-5.94c3.22,0,6.439,0,9.66,0c0.729,2,1.449,3.99,2.189,5.99c1.94-0.02,3.891-0.029,5.84-0.04
		c-3.62-9.29-7.109-18.63-10.649-27.95C356.29,50.5,354.81,50.51,353.33,50.54z M352.38,67.689c1.05-3.09,2.13-6.169,3.26-9.239
		c1.011,3.09,2.061,6.17,3.16,9.229C356.65,67.68,354.51,67.689,352.38,67.689z"/>
</g>
</svg>
