<?xml version="1.0" encoding="utf-8"?>
<!-- Generator: Adobe Illustrator 15.1.0, SVG Export Plug-In . SVG Version: 6.00 Build 0)  -->
<!DOCTYPE svg PUBLIC "-//W3C//DTD SVG 1.1//EN" "http://www.w3.org/Graphics/SVG/1.1/DTD/svg11.dtd">
<svg version="1.1" id="Layer_1" xmlns="http://www.w3.org/2000/svg" xmlns:xlink="http://www.w3.org/1999/xlink" x="0px" y="0px"
	 width="483.352px" height="129.74px" viewBox="0 0 483.352 129.74" enable-background="new 0 0 483.352 129.74"
	 xml:space="preserve">
<g>
	<circle fill="none" cx="110.23" cy="64.449" r="6.798"/>
	<path id="path28" d="M446.923,92.191h-25.524c0.817-0.407,1.716-2.422,2.14-3.611c0.424-1.193,0.483-3.878,0.483-5.517V28.562
		c0-0.525-0.003-1.574-0.112-2.622c-0.141-1.356-0.363-2.78-1.09-3.96c-0.163-0.263-0.386-0.486-0.572-0.731
		c-0.269-0.358-0.538-0.632-0.944-0.836l25.62-0.012c-2.483,1.53-2.538,5.606-2.538,8.161v52.133c0,1.053,0,1.814,0,2.281
		C444.385,85.847,444.06,90.435,446.923,92.191"/>
	<path id="path30" d="M284.138,86.229c-0.174-1.11-0.265-2.721-0.265-4.825V28.832c0-0.292,0.021-1.817,0.239-3.012
		c0.287-1.574,0.62-2.624,1.317-4.068c0.18-0.369,0.55-0.84,0.893-1.082H264.04v46.779c0,3.859-0.936,7.182-2.811,9.959
		c-1.87,2.781-4.445,4.17-7.722,4.17c-3.337,0-5.733-1.11-7.197-3.335c-1.464-2.224-2.192-5.88-2.192-10.971l-0.004-46.603
		l-22.166-0.012c1.888,1.161,2.304,3.399,2.547,5.429c0.194,1.611,0.138,2.804,0.138,3.271v45.901c0,4.739,1.726,8.776,5.177,12.111
		c3.217,3.104,7.344,5.091,12.375,5.966c0.292,0,0.76,0.09,1.404,0.266c0.528,0.057,1.287,0.089,2.282,0.089
		c3.744,0,7.236-0.907,10.49-2.724c3.244-1.813,5.806-4.24,7.678-7.284v8.867h22.282C285.039,91.729,284.315,87.342,284.138,86.229"
		/>
	<path id="path32" d="M409.239,41.73c0,0-3.529-11.519-17.807-11.37c0,0-4.92,0.208-6.377,4.225c-0.667,1.84-0.468,4.14,0.156,5.977
		c0.865,2.541,3.197,3.84,5.402,5.101c2.814,1.611,5.975,2.968,9.01,4.106c0,0,11.803,4.465,15.299,13.692
		c0,0,5.101,9.23-2.187,20.393c0,0-4.225,8.782-23.458,9.378c0,0-12.383,0.149-22.874-5.806V65.844c0,0,5.829,12.95,17.632,15.777
		c3.509,0.844,8.976,0.961,11.597-2.054c0.809-0.93,1.21-3.072,1.21-4.267c0.003-1.537-0.664-2.937-1.635-4.103
		c-2.302-2.767-5.863-4.268-9.029-5.793c-2.239-1.08-4.486-2.118-6.637-3.367c-4.822-2.798-10.906-6.499-13.179-11.868
		c-2.618-6.19-1.677-13.806,1.553-19.558c1.171-2.085,2.762-3.614,4.464-5.255c0,0,12.676-12.203,37.004-0.445L409.239,41.73"/>
	<path id="path34" d="M351.641,20.945v-0.001h-3.436c0,0,2.066,1.249,1.365,5.029l-0.063,0.192l-0.754,2.338l-0.461,1.429
		l-14.336,44.477l-18.485-53.764h-22.806c0.529,0.471,1.046,1.017,1.546,1.636c0.502,0.619,0.985,1.295,1.458,2.032
		c0.472,0.738,0.841,1.385,1.107,1.945c0.264,0.562,0.573,1.429,0.927,2.607l21.967,63.599c0.013,0.032,0.026,0.061,0.042,0.094
		h19.107l20.967-61.78c0-0.005,0.013-0.007,0.014-0.01c0-0.009,0.019-0.077,0.042-0.167l1.333-3.92c-0.008,0-0.014,0-0.021,0
		c0.05-0.114,0.474-1.568,0.533-1.698c0.032-0.065,0.063-0.148,0.091-0.228l1.3-3.796L351.641,20.945"/>
	<path id="path36" d="M174.711,60.067l7.006-21.424l7.475,21.424H174.711z M222.146,90.904c-0.508-0.619-1.003-1.299-1.483-2.037
		c-0.479-0.74-0.855-1.388-1.126-1.95c-0.269-0.563-0.583-1.434-0.943-2.614L196.249,20.54c-0.007-0.018-0.016-0.036-0.024-0.055
		H176.15l0,0c-2.839,0.002-4.833,0.002-4.845,0.002c0.192,0,0.588,0.44,0.72,0.573c1.41,1.425,1.922,3.564,1.908,5.517
		c-0.007,0.956-0.08,1.806-0.368,2.866l-3.465,9.975c0.05-0.017,0.103-0.029,0.155-0.046l-14.81,43.016
		c-0.003,0.006-0.014,0.008-0.018,0.009c0,0.01-0.019,0.077-0.042,0.168l-1.354,3.932c0.008-0.001,0.012-0.001,0.02-0.001
		c-0.05,0.114-0.481,1.57-0.542,1.701c-0.031,0.068-0.062,0.148-0.091,0.229l-1.322,3.808l11.632,0.012l0.001,0.001h3.495
		c0,0-2.103-1.254-1.387-5.046l0.061-0.188l0.768-2.347l0.468-1.432l4.107-12.56h21.649l7.632,21.874h23.197
		C223.18,92.071,222.656,91.524,222.146,90.904"/>
	<path id="path38" d="M362.928,113.766l0.037,0.073c0.016,1.946-0.445,3.413-1.386,4.403c-0.941,0.99-2.328,1.483-4.161,1.483
		c-1.832,0-3.296-0.561-4.391-1.685c-1.095-1.123-1.643-2.714-1.643-4.773v-5.291c0-2.053,0.528-3.644,1.588-4.774
		c1.058-1.132,2.475-1.696,4.251-1.696c1.882,0,3.304,0.502,4.263,1.507c0.961,1.005,1.46,2.493,1.491,4.464l-0.036,0.073h-3.334
		c0.048-1.165-0.109-2.002-0.475-2.516c-0.365-0.512-1.001-0.769-1.909-0.769c-0.778,0-1.375,0.305-1.788,0.914
		c-0.415,0.605-0.62,1.529-0.62,2.764v5.321c0,1.248,0.221,2.179,0.662,2.786c0.443,0.61,1.089,0.914,1.94,0.914
		c0.836,0,1.418-0.24,1.746-0.724c0.329-0.482,0.473-1.309,0.432-2.476H362.928"/>
	<path id="path40" d="M369.559,112.926h3.259l-1.594-6.264h-0.071L369.559,112.926z M373.522,115.688h-4.671l-0.949,3.784h-3.489
		l4.987-17.711h3.6l4.977,17.711h-3.492L373.522,115.688"/>
	<path id="path42" d="M387.718,114.849c0-0.689-0.18-1.234-0.536-1.638c-0.355-0.399-0.985-0.796-1.884-1.185
		c-1.841-0.64-3.222-1.37-4.143-2.183c-0.922-0.816-1.381-1.957-1.381-3.425c0-1.451,0.535-2.633,1.605-3.546
		c1.069-0.911,2.438-1.367,4.101-1.367c1.685,0,3.057,0.507,4.11,1.525c1.052,1.019,1.566,2.301,1.532,3.851l-0.023,0.072h-3.356
		c0-0.812-0.205-1.468-0.609-1.971c-0.407-0.504-0.978-0.755-1.715-0.755c-0.688,0-1.229,0.209-1.612,0.628
		c-0.386,0.416-0.578,0.941-0.578,1.574c0,0.583,0.215,1.064,0.646,1.442c0.429,0.376,1.173,0.797,2.237,1.258
		c1.679,0.568,2.94,1.287,3.788,2.158c0.848,0.873,1.271,2.052,1.271,3.534c0,1.531-0.511,2.733-1.531,3.602
		c-1.023,0.868-2.38,1.301-4.075,1.301c-1.687,0-3.147-0.492-4.386-1.479c-1.237-0.984-1.835-2.397-1.795-4.238l0.025-0.073h3.369
		c0,1.095,0.231,1.882,0.693,2.36c0.463,0.478,1.16,0.717,2.093,0.717c0.73,0,1.271-0.194,1.624-0.584
		C387.542,116.041,387.718,115.513,387.718,114.849"/>
	<path id="path44" d="M404.942,113.766l0.036,0.073c0.017,1.946-0.446,3.413-1.387,4.403c-0.941,0.99-2.329,1.483-4.16,1.483
		c-1.833,0-3.298-0.561-4.393-1.685c-1.093-1.123-1.643-2.714-1.643-4.773v-5.291c0-2.053,0.53-3.644,1.59-4.774
		c1.057-1.132,2.474-1.696,4.25-1.696c1.882,0,3.302,0.502,4.265,1.507c0.96,1.005,1.458,2.493,1.489,4.464l-0.036,0.073h-3.333
		c0.047-1.165-0.109-2.002-0.474-2.516c-0.365-0.512-1.002-0.769-1.911-0.769c-0.778,0-1.374,0.305-1.788,0.914
		c-0.413,0.605-0.621,1.529-0.621,2.764v5.321c0,1.248,0.222,2.179,0.664,2.786c0.442,0.61,1.088,0.914,1.94,0.914
		c0.837,0,1.416-0.24,1.744-0.724c0.328-0.482,0.474-1.309,0.433-2.476H404.942"/>
	<path id="path46" d="M411.57,112.926h3.26l-1.594-6.264h-0.074L411.57,112.926z M415.535,115.688h-4.67l-0.948,3.784h-3.493
		l4.987-17.711h3.601l4.977,17.711h-3.492L415.535,115.688"/>
	<path id="path48" d="M425.328,104.521v12.188h1.692c0.963,0,1.707-0.419,2.229-1.261c0.524-0.838,0.785-1.953,0.785-3.342v-3.008
		c0-1.379-0.261-2.487-0.785-3.323c-0.521-0.837-1.266-1.255-2.229-1.255H425.328z M421.861,119.472v-17.711h5.35
		c1.819,0,3.318,0.687,4.502,2.062c1.185,1.374,1.775,3.144,1.775,5.309v2.98c0,2.164-0.591,3.933-1.775,5.304
		c-1.184,1.369-2.683,2.057-4.502,2.057H421.861"/>
	<path id="path50" d="M445.774,111.698h-5.95v5.011h6.995v2.763h-10.46v-17.711h10.436v2.76h-6.971v4.416h5.95V111.698"/>
	<path d="M91.521,9.778c-30.426,0-55.092,24.665-55.092,55.092c0,0.935,0.024,1.862,0.071,2.786
		c0.017,0.349,0.053,0.691,0.076,1.039c0.039,0.568,0.074,1.139,0.13,1.703c0.043,0.438,0.107,0.87,0.161,1.306
		c0.058,0.465,0.108,0.932,0.177,1.393c0.074,0.489,0.166,0.975,0.252,1.461c0.071,0.395,0.134,0.794,0.212,1.188
		c0.106,0.529,0.23,1.052,0.352,1.575c0.079,0.342,0.151,0.684,0.236,1.021c0.141,0.562,0.3,1.117,0.458,1.672
		c0.083,0.29,0.16,0.582,0.247,0.87c0.18,0.589,0.375,1.17,0.573,1.751c0.083,0.244,0.162,0.491,0.248,0.732
		c0.219,0.613,0.454,1.22,0.693,1.822c0.08,0.2,0.155,0.401,0.237,0.601c0.261,0.634,0.537,1.261,0.821,1.882
		c0.072,0.159,0.142,0.32,0.216,0.479c0.304,0.65,0.623,1.293,0.953,1.929c0.062,0.122,0.123,0.245,0.186,0.366
		c0.349,0.663,0.712,1.316,1.087,1.963c0.05,0.09,0.101,0.179,0.152,0.268c0.393,0.669,0.8,1.329,1.22,1.98
		c0.039,0.061,0.078,0.122,0.117,0.183c0.437,0.669,0.886,1.331,1.35,1.979c0.027,0.039,0.055,0.077,0.083,0.117
		c0.479,0.665,0.971,1.32,1.477,1.965c0.016,0.019,0.032,0.038,0.047,0.059c0.519,0.656,1.051,1.301,1.599,1.934
		c0.005,0.006,0.011,0.013,0.017,0.02c0.555,0.64,1.124,1.269,1.708,1.882c10.038,10.567,24.214,17.168,39.939,17.168
		c7.044,0,13.773-1.337,19.966-3.746c10.675-4.154,19.734-11.532,25.978-20.948c0.009-0.015,0.017-0.027,0.025-0.042
		c0.616-0.93,1.198-1.881,1.757-2.849c0.125-0.215,0.25-0.43,0.372-0.646c0.236-0.421,0.465-0.845,0.69-1.273
		c0.134-0.255,0.263-0.511,0.392-0.767c0.447-0.883,0.873-1.778,1.272-2.688c0.057-0.13,0.118-0.255,0.173-0.385
		c0.166-0.384,0.32-0.774,0.477-1.163c0.141-0.35,0.28-0.697,0.413-1.049c0.143-0.377,0.282-0.754,0.417-1.135
		c0.146-0.412,0.285-0.828,0.421-1.245c0.107-0.328,0.22-0.653,0.322-0.984c0.215-0.701,0.415-1.409,0.603-2.122
		c0.08-0.303,0.151-0.608,0.225-0.912c0.124-0.503,0.241-1.006,0.35-1.514c0.065-0.305,0.13-0.609,0.19-0.914
		c0.124-0.632,0.237-1.267,0.339-1.903c0.027-0.168,0.06-0.333,0.085-0.5c0.121-0.798,0.221-1.603,0.306-2.412
		c0.027-0.247,0.047-0.497,0.071-0.744c0.057-0.616,0.104-1.233,0.141-1.854c0.015-0.251,0.03-0.502,0.042-0.754
		c0.038-0.843,0.064-1.688,0.064-2.541C146.613,34.443,121.948,9.778,91.521,9.778z M49.716,48.282
		c2.844-0.975,4.956-3.657,8.207-3.981c3.25-0.324,2.843,0.976,1.056,1.463c-1.788,0.486-5.931,3.086-5.931,3.086
		c-3.413,2.031-4.062,2.844-1.95,3.007c2.113,0.162,4.469-1.786,5.526-2.682c1.055-0.893,5.768-3.411,7.392-3.981
		c1.625-0.569,3.901-0.569,4.712-1.788c0.812-1.219,3.087-2.112,6.012-2.274c2.926-0.163,0.488,1.707,0.488,1.707
		c-1.788,0.081-3.331,0.73,0,2.274c3.33,1.544-1.706,1.381-2.519,1.788c-2.472,1.234-5.769,1.055-5.769,1.055
		c-2.966,1.086-3.679,2.234-4.831,2.99c-0.556-0.488-0.437-1.614-0.828-0.865c0,0-0.937-0.33-0.787,0
		c0.15,0.33-0.69-1.133-0.97-0.275c0,0-0.826,0.655-0.292,1.572c0,0,0.264,1.322-0.684,0.806c-0.947-0.516-0.938-0.411-0.894,0.209
		c0.046,0.619-1.415,0.062-0.411,1.137c0.062,0.066,0.096,0.109,0.144,0.164c-0.161,0.162-0.306,0.312-0.43,0.446
		c-0.022-0.001-0.046-0.007-0.067-0.007c0,0-0.647,0.162-0.417,0.577c-0.775,1.024,0.195,0.693,0.659,0.496
		c0.028,0.011,0.065,0.027,0.097,0.041c-0.422,0.471-0.687,0.846-0.819,1.129c-0.246-0.187-0.626-0.726-1.006-0.343
		c-0.499,0.505-0.499,0.881,0.25,1.218c0.749,0.336,1.593,0.806,2.094,0.821c0.5,0.019,0.233,0.59-0.556,0.577
		c-0.79-0.012-2.961,0.572-1.723,0.801c1.238,0.227,2.246,0.385,2.774,0.014c0.53-0.368,1.586-0.522,1.319-0.13
		c-0.267,0.392,1.503,0.013,0.694,0.392c-0.811,0.377-2.18,1.339-1.171,1.339c1.009,0-3.06,0.643-1.225,0.643
		c1.834,0-0.959,0.536-1.458,0.433c-0.5-0.105-1.997,0.147-0.549,0.692c1.447,0.545,2.594,0.084,2.694,0.252
		c0.099,0.167,1.283,0.293,1.015,0.585c-0.267,0.295-0.064,0.882-0.789,0.882c-0.726,0-1.382,0.462-0.53,0.924
		c0.853,0.461,2.084,0.63,1.319,0.755s-1.561,0.503-0.789,0.922c0.771,0.42,1.076,1.093,0.375,1.135
		c-0.701,0.043-2.546-0.126-1.998,0.543c0.55,0.673,0.698,1.01,0.2,1.01c-0.5,0-2.692-0.671-2.293,0
		c0.397,0.669,1.278,1.338,0.447,1.361c-0.832,0.022-1.39,0.106-1.111,0.442c0.28,0.334,1.125,0.587,0.32,1.093
		c-0.806,0.5,0.041,0.754,0,1.257c-0.041,0.504,0.322,0.84-0.392,1.176c-0.714,0.338-2.519,0.502-1.467,0.757
		c1.052,0.25-0.612,0.585-1.376,0.165c-0.765-0.42,1.215-1.174,0.025-1.428c-1.188-0.25-2.864-0.922-2.176-1.005l-0.688,0.083
		v-1.595c0,0,1.426-0.254,1.302,0.252c-0.125,0.505-0.532,1.007,0.419,0.671c0.953-0.333,1.036,0,1.143,0.252
		c0.109,0.252,0.807,1.092,0.908,0.42c0.098-0.672-0.5-0.922,0.098-0.672c0.6,0.252,2.268-0.503,0.636-1.092
		c-1.632-0.585,1.46-2.011-0.934-1.508c-2.395,0.502,0.59-0.842-1.851-1.008c-2.441-0.168,0.373-0.672-1.033-0.42l-0.688-0.085
		v-0.921c0,0,0.527-0.335,1.301,0.166c0,0,1.521-0.249,0-1.171c-1.523-0.926-0.383-0.048-1.301-0.361
		c-0.919-0.314-1.518-0.23-1.518,0.361c0,0.586-2.395-0.255-2.395,0.416c0,0.673,0.399,0.589,1.197,1.008
		c0.799,0.421,1.697-0.502,1.597,0l0.1-0.502l0.2,1.004c0,0-0.5,0.085-0.798,0.254c-0.3,0.167-1.397,0-1.497,0.587
		c-0.1,0.589-1.597,0.589-0.5,1.174c1.097,0.586,1.896,0,2.195,0h0.698l-0.299,0.754c0,0-2.395-0.168-1.796,0.337
		c0.599,0.504,2.095-0.17,1.996,0.336v1.007c0,0-1.795,1.008-2.694,0.925c0,0-0.799,0.756,0.797,0.503l1.697-0.588L47.922,75
		c0,0-3.194,0.168-3.294,0.67c-0.098,0.505-0.3,0.681,0,1.391c0.157,0.37-0.207,0.615-0.427,0.837
		c-1.323-7.186-2.234-18.865,1.979-31.06c0.325-0.943,1.997,0.625,1.505,1.281C46.954,49.094,46.874,49.256,49.716,48.282z
		 M63.74,54.036c-1.462,0.211-0.311-1.262-0.801-1.574c-0.222-0.141-0.139-0.383-0.073-0.625c0.773,0.104,1.567,0.242,1.637,0.588
		c0.163,0.812,4.063,0,5.037,0.649c0.976,0.651-1.38,1.382-1.38,1.382s-1.056-0.488-1.788,0.407
		c-0.351,0.427-0.813,0.239-1.262-0.036c-0.003-0.188,0.058-0.376,0.269-0.509C65.379,54.318,65.203,53.822,63.74,54.036z
		 M88.396,91.366c1.358,1.008,0.937,1.426,0.518,1.639c-0.419,0.211-0.678,0.292-1.542,0c-0.863-0.294,0.464-0.801,1.024-0.82
		C88.957,92.163,88.396,91.366,88.396,91.366z M87.372,98.081c0-0.504,0.265-0.504,2.048-0.422c1.784,0.084,0.912,0.84,0,0.84
		c-0.91,0-0.086,0.756-0.819,0.961c-0.731,0.203-0.266,1.388-0.565,2.311c-0.299,0.925-0.664,0-0.664,0V98.081z M88.396,85.155
		c-0.937-0.084-1.158-0.589-1.024-0.923c0.135-0.336,0.166-0.506-0.714-0.588c-0.878-0.085,0.714-1.007,0.714-1.007
		s0.564-0.672,0.564,0.502c0,1.175,1.897,1.175,2.694,2.016C91.43,85.994,89.333,85.238,88.396,85.155z M85.095,92.962
		c-0.447,0.251-0.359-0.673-0.359-0.673l-0.263-0.923c0,0,0,0,0.622,0c0.621,0-0.359,0.923,0.863,0.818S85.54,92.71,85.095,92.962z
		 M83.945,100.514c-0.2-0.504,0-3.106,0-4.364c0-1.261,0-0.839,0.699-1.429c0.698-0.587,0.973,0,0.973,0v9.737
		c0,0,0-0.587-0.521-0.923c-0.521-0.334-0.352,0.587-0.359-1.51C84.729,99.927,84.146,101.018,83.945,100.514z M85.095,87.862
		c-1.046-0.148-0.651,1.153-1.563,1.405c-0.911,0.25-0.584-0.671,0.325-1.259c0.908-0.588,1.238-1.597,1.238-1.597
		C86.345,86.665,86.14,88.009,85.095,87.862z M57.862,80.79c0.361,0.588-1.576,0-1.576,0c-0.118-0.839,1.215-2.351,0.811-1.596
		C56.692,79.951,57.501,80.203,57.862,80.79z M60.196,89.057c0,0.798,0,1.219-0.944,0.715c-0.102-0.055-0.188-0.094-0.268-0.126
		c0.278-0.339,0.314-1.302,0.314-1.302l0.033-0.481C58.466,86.667,60.196,88.261,60.196,89.057z M44.302,78.441
		c0.048,0.026,0.103,0.055,0.168,0.083c1.158,0.505,2.852-0.84,2.455-0.251c-0.4,0.588-0.699-0.169-1.297,0.756
		c-0.239,0.365-0.707,1.109-0.8,1.879C44.655,80.169,44.477,79.344,44.302,78.441z M111.207,112.047l-0.149-2.217l-1.069-4.783
		c0,0-0.672-0.506-0.985-0.673c-0.312-0.168,0-0.839,0-0.839s0.087-0.673-0.412-0.756c-0.5-0.084-1.397,0.168-1.397-0.337
		c0-0.503-0.699-1.174-1.098-0.417c-0.4,0.754-1.146,0.67-0.873,0.165c0.274-0.503-0.368-0.754-0.368-0.754s0.857-0.923,0-1.008
		c-0.855-0.082,0.657-1.174,0-1.174c-0.654,0-1.18,0.755-1.167,1.342c0.011,0.589-0.675,1.028-0.566-0.418l0.566-7.553
		c0,0,2.013-0.588,2.41,0c0,0,0.996,1.258,1.294,0.837c0,0,0.4-1.023,0-1.099l1.198-0.496l0.854,0.336l0.643-0.336
		c0,0,0.5-1.341,0-1.341c-0.498,0-0.872-0.167-1.084-0.505c-0.211-0.335-0.66-0.587-1.035-0.67c-0.375-0.085-1.251-0.42-1.251-0.42
		s1.176-1.68,0.577-1.763c-0.6-0.086-0.794-0.168-1.195-0.338c-0.402-0.167,0.002-0.92,0-0.92c0.036,0,0.17,0,0.618,0
		c0.777,0,0.415,0.671,1.394,0.671c0.979,0,0.79,0.754,1.334,0.166c0.543-0.589,0.388-1.007,0.864-0.837
		c0.477,0.168,1.06-0.841,0.518-0.926c-0.54-0.083-0.93-0.587-1.382-0.587c-0.456,0-0.887,0-1.619,0s-1.226-0.755-1.728-0.755
		c-0.5,0-0.884,0.252-1.243,0c-0.355-0.25-0.333-0.839-0.694-0.839s-1.384-1.176-0.473-1.26c0.909-0.084,1.361,0.335,1.534,0.588
		c0.175,0.252,1.752,0.504,1.861,0.672c0.111,0.167-0.022,0.419,0.743,0.419s1.402-0.335,1.582-0.756
		c0.181-0.419,0.979-0.503,0.979-0.503s0.699-0.189-0.499-0.433c-1.197-0.239-2.694,0.325-3.393,0
		c-0.699-0.322-1.193-0.826-0.396-1.077c0.796-0.253,1.431,0,2.012,0c0.581,0,1.278-0.14,1.778-0.114
		c0.499,0.032,1.039-0.222,1.169-0.557c0.127-0.339-0.271-0.756-1.169-0.842c-0.899-0.082-1.297,0.924-1.297,0
		c0-0.922,0.437-1.51-0.481-1.51c-0.916,0-2.808-0.168-2.012-0.504s2.758-1.26,1.728-1.343c-1.033-0.081-2.023-0.587-1.728-0.755
		c0.296-0.171,1.532-0.42,2.012-0.42c0.481,0,1.045-0.755-0.284-0.924c-1.331-0.168-2.129-0.671-2.129-1.259
		c0-0.587-0.636-0.801-0.841-1.259c-0.204-0.456-1.079-0.669-1.167-0.922h-0.566l-0.351-1.031c0,0,0.49-0.314,1.009,0.244
		c0.521,0.558,0.601,0.451,1.076,0.07c0.476-0.385,1.8-0.63,1.467-0.231c-0.334,0.396-0.415,0.501,0.393,0.524
		c0.807,0.022,0.924-0.725,1.277-0.985c0.351-0.261,0.504-0.356,0.971-0.218c0.467,0.135,0.95-0.526-1.754-0.835
		c0,0-1.004,0.029-0.845,0.204c0.157,0.176-0.756,0.227-1.075-0.258c-0.318-0.49,0.289-0.859,1.064-0.671
		c0.773,0.187,1.848,0.273,1.798-0.082c-0.052-0.36,0.571-1.158,0.571-1.158l0.967-0.347c-0.128-0.026-0.422-0.102-1.105-0.292
		c-1.57-0.439-1.469-0.01-2.067-0.5c-0.601-0.491-0.147-1.446,0.638-0.926c0.783,0.518,1.136-0.406,1.129-0.408
		c-0.008-0.002-1.03-0.648-1.686-1.021c-0.654-0.373-0.043,0.602-1.171,0.33c-1.126-0.274-0.241-1.244-0.777-1.209
		c-0.536,0.039-1.049-0.273-0.761-0.854c0.289-0.584,0.117-0.507-0.385-0.709c-0.5-0.199-0.975-0.783-0.845-1.318
		c0.129-0.535,0.421-0.978-0.147-0.602c-0.568,0.376-1.079,0.035-0.721,0.775c0.354,0.74,0.361,0.569-0.357,0.646
		c-0.718,0.076-1.359,0.119-1.259-0.307c0.099-0.421-0.813-1.307-1.319-1.343c-0.502-0.037,0.336,0.892,0.291,1.08
		c-0.044,0.188,0.182,1.105-0.262,1.084c-0.444-0.02-1.185,0.073-1.509-0.71c-0.322-0.782-0.627-0.379-0.147,0.61
		c0,0,0.414,0.354,0.447,0.671c0.031,0.318-0.268,1.137-0.554,0.624c-0.286-0.515-2.462-0.928-1.565-0.145
		c0.897,0.782,1.777,0.908,1.706,1.236c-0.074,0.328,0.534,0.732-0.178,0.732c-0.713,0-1.95,0.219-1.188,0.577
		c0.762,0.357,1.39,0.68,0.872,0.729c-0.52,0.047-0.247,0.976-2.11,0.438c-1.864-0.537-0.821,0.32-0.492,0.831
		c0.327,0.513,1.586,0.994,1.711,0.834c0.128-0.16,0.237,0.589,0.237,0.589s0.275-0.366,1.209-0.573
		c0.937-0.202,0.938-1.192,1.504-0.844c0.563,0.348,1.031,0.986,0.231,0.813c-0.798-0.171-0.878,0.585-1.229,0.76
		c-0.35,0.173-1.322,0.353-0.918,0.986c0.403,0.63-0.1,1.1,0.599,1.184c0.698,0.08,1.176-0.259,1.569-0.125
		c0,0,0.449-0.691,1.088-0.367c0.639,0.329,0.553,0.153,0.639,0.44l0.725,0.764c0,0-0.058,1.219-0.291,1.219
		s-1.23,0.586-1.731,0.504c-0.498-0.083-1.295-0.886-1.096-0.274c0.2,0.61,0.4,0.524,1.096,0.945c0.701,0.42,0.601,0.757,0,0.923
		c-0.598,0.167,0.637,1.092-0.678,1.092c-1.316,0-2.514,0.084-2.214,0.501c0.299,0.424,0.173,0.758,0.537,1.094
		c0.362,0.335,0.398,0.084,1.678,0c1.279-0.085,4.039,0.252,2.409,0.503c-1.63,0.252-3.75,0.588-4.087,0.925
		c-0.336,0.336-1.188,0.336-2.161,0.251c-0.97-0.084-1.629,0.169-1.649,0.588c-0.019,0.418-0.535,1.259,0.821,1.259
		c1.354,0,3.225-0.505,2.989-0.086c-0.237,0.422,0.261,0.422,0.76,0.507c0.5,0.084,0.574,0.673-0.76,0.673
		c-1.334,0-2.544-0.086-1.042,0.667c1.504,0.756,0.395,0.84,0,0.925c-0.392,0.084-2.944,0.251-2.666,0.672
		c0.279,0.419,2.061,0.502,2.666,0.587c0.606,0.085,0.58,0.84,1.042,0.924c0.461,0.084,0.999,0.251,1.678,0.084
		c0.678-0.168,0.081-0.923,1.279-0.923c0.956,0,1,0.424,1.063,0.64l0.917-0.305l-0.448,3.188c0,0-1.234-0.167-1.134,0.17
		c0.1,0.335-0.898,0.335-0.999,0.419c-0.098,0.084-0.398,0.923,0,1.009c0.401,0.081,0.001-0.504,0.999-0.504
		c0,0,1.07-0.589,1.134-0.255l-0.402,2.856c0,0-0.73-0.673-0.732-0.085c0,0,0.565,0.589,0.732,0.589v0.418
		c0,0-1.63-0.251-1.731,0.17c-0.098,0.419,0.8,1.091,0,1.173c-0.797,0.085-1.895,0.839-1.096,1.008
		c0.798,0.167,1.797-0.756,2.095-0.503c0.299,0.251-0.499,1.006,0,0.922l0.732-0.588v6.548c0,0-0.931-0.421-1.13,0
		c-0.199,0.418,1.197,1.09,0.398,1.341s-1.56-0.334-1.677,0.671c-0.119,1.011-1.316,1.429-0.817,2.1c0.499,0.672-0.861,0-0.861,0
		l-0.638-2.938l-0.405-0.083c0,0,0.779-1.511,1.042-1.428c0.261,0.086,1.46,0,1.26-0.334c-0.2-0.339,0.898-0.839,1.096-0.923
		c0.201-0.085,0.898-1.261,0-1.261c-0.896,0-2.494-0.083-2.792-0.671c-0.3-0.589,0.798-1.007,1.397-1.007
		c0.598,0,1.696-0.166,1.395-0.422c-0.298-0.25-1.495-1.424-1.895-2.095c-0.4-0.672-0.425-1.344-0.461-1.68
		c-0.038-0.336-0.648-0.922-1.042-1.427c-0.392-0.505-0.146-0.587-1.119-0.587c-0.97,0-1.219,0.169-1.893,0
		c-0.672-0.168-1.372-1.175-0.773-1.175c0.599,0,2.441-0.084,2.667,0.083c0.227,0.167,0.215,0.421,1.119,0.504
		c0.905,0.085,1.478,0.085,1.042-0.922c-0.437-1.009,0.76-1.343,0.961-1.009c0.2,0.336,0.598-0.419,1.395-0.757
		c0.8-0.334-0.398-0.838-1.794-0.669c-1.398,0.169-1.21,0.589-1.604,0.589c-0.392,0,0,0.669,0,0.669s-0.546,0.335-1.018,0.083
		c-0.472-0.249-2.805-0.752-1.937-0.838c0.866-0.082,2.264,0.086,2.462-0.252c0.201-0.335,0.146-0.42-0.626-0.671
		c-0.769-0.252,0.829-1.007-0.919-1.007s0.093-1.175-1.975-1.092c0,0-0.296-0.249-0.733-0.504c-0.436-0.252-1.541-0.541-1.238-1.36
		c0.303-0.82,0.177-1.492-0.708-1.662c-0.885-0.166-0.59-0.754,0.11-0.585c0.701,0.168,1.634,0.333,2.166-0.086
		c0,0,0.233-0.586-0.766-0.586c-0.998,0-1.479-0.756-0.639-0.924c0,0,0.213-0.42-1.419-0.336c-1.633,0.083-3.061-0.503-1.5-0.923
		c0,0,1.637-0.337,2.049-0.168c0.414,0.168,0.231-0.084,0.871,0.168c0.639,0.251,1.073-0.082,1.404-0.501
		c0.332-0.421,3.16-1.01,0-1.094c0,0-1.27-0.337-2.166-0.168c-0.896,0.168-2.654,0.252-2.873,0c-0.217-0.252-0.07-1.509-1.042-1.509
		s1.092-0.59,1.755-0.086c0,0,1.637,0.504,2.049,0c0.413-0.504,0.512-1.679-0.586-1.679c0,0-1.664-0.357-1.463-0.585
		c0.202-0.229-0.861-1.159-0.764-1.051c0.096,0.107,0.815-1.337-0.071-1.719c-0.886-0.383-0.253-2.772-1.521-2.268
		c-1.271,0.503,0.385-2.35-0.142-1.932c-0.529,0.422,0.169-0.585-0.83-0.585c-0.996,0-1.141-1.932-0.469-2.519
		c0.67-0.587-0.543,0.369-0.731-0.849c-0.188-1.214-1.024-2.22-1.061-1.08c-0.036,1.139-1.038,1.208-0.987,1.68
		c0.048,0.468,0.659,2.615-0.191,1.644c-0.851-0.974-1.863-0.262-1.407,0.433c0.457,0.692,1.36,0.522,1.407,0.776
		c0.047,0.252,0.077,0.671-0.536,0.587c-0.614-0.086-1.453,0-0.983,0.67c0.469,0.672,0.656,1.261,0.113,1.261
		c-0.542,0-1.213,1.258-0.577,1.677c0.635,0.421,0.414,1.344-0.674,1.091c-1.086-0.249-1.324-0.249-1.056,0.421
		c0.269,0.671,0.244,0.755-0.543,0.588c-0.785-0.169-0.223,0.335,0.543,0.756c0.768,0.42,1.765,1.46,0.568,1.234
		c-1.196-0.229-1.519-0.814-2.606-0.229c0,0-0.807-2.015-0.896-1.005c-0.089,1.005,0.209,1.005-0.489,1.005
		s-2.344-0.048-1.521,0.229c0.823,0.274-2.47,0.524-0.224,0.861c0,0,1.73,0.674,1.188,0.841c0,0-1.393,1.09,1.18,0.418
		c2.571-0.671,0-0.336,0-0.336s1.032-0.672,1.401-0.419c0.372,0.253,0.433,0.253,1.4,0.253c0.967,0,1.946,0,1.056,0.335
		c-0.717,0.271-0.942,0.596-1.019,0.888c0.004,0.274-0.047,0.894-0.58,0.959c-0.685,0.085,0.691,0.67,1.599,0.336
		c0.909-0.336,0.995-0.756,1.251-1.344s1.447-0.335,1.053,0.252c-0.397,0.588-1.109,1.008-1.053,1.426
		c0.058,0.42,0.548,0.67-0.646,0.588c-1.191-0.083-2.315,0.252-2.203,0.588c0.112,0.337-0.509,0.42-1.496,0.673
		c-0.985,0.251-2.882,0.166-0.885,0.671c1.995,0.503,1.471,1.005,2.381,0.84c0.911-0.168,1.996,0.672,0.542,0.417
		c-1.453-0.252-1.55,0.421-2.039,0.59c-0.486,0.167-1.301,0.504-1.942,0.338c-0.639-0.171-0.664,0.042,0.146,0.734
		c0.811,0.688,0.788,1.191,1.796,1.025c1.01-0.168,1.371-1.046,2.039-1.025c0.667,0.019,1.041-0.318-0.542,0.604
		c-1.583,0.925-0.313,1.011-0.999,1.26c-0.685,0.252-0.522,1.01,1.542-0.167c0,0,1.267,0.419,0.568,0.839
		c-0.698,0.42-0.857,0.922-1.826,0.838c-0.968-0.083-2.688-0.168-2.577,0.084c0.112,0.253-2.207,0.421,0,1.007
		c0,0,1.193,0.421-0.146,0.758c0,0,0.458,0.671,0.557,1.34c0,0,0.377,1.012,1.385-0.081c0,0,0.684,0.081,0.497,0.671
		c0,0-0.111,0.672,0.999-0.42c0,0,0.486,1.092,0,1.427c0,0-0.74,0.672-2.259,0.587c0,0-1.324,0.673-1.621,1.512
		c0,0-0.52,1.847,1.487,0.752c2.006-1.087,2.006-1.087,2.006-1.087s-0.924,1.595,0.387,1.087c0,0,1.901-0.333,2.203,0.171
		c0,0,0.234,0.673,1.517,0.421v2.853c0,0-2.282,0.587-1.448,0.587c0,0,1.761-0.086,1.448,0.336v3.187c0,0-1.285,0.675-1.448,0.507
		c-0.164-0.169-1.1-1.259-1.729-0.507c-0.628,0.757-0.373,1.346-1.4,1.597c-1.025,0.251-0.75-0.587-0.639,1.008
		c0.112,1.595-1.601,1.93-1.942,1.51c-0.34-0.418,0.542-1.091,0-2.267c-0.54-1.173-0.257-1.762,0-1.93
		c0.258-0.169-0.045-2.854-0.441-2.013c-0.398,0.839-0.01,2.35-0.603,1.93c-0.594-0.421-0.005-0.923,0-1.512
		c0.005-0.588-0.095-1.343-0.494-1.51c-0.399-0.167-1.196-1.006-0.448-1.262c0.748-0.25,0.847-1.424,0.348-1.509
		c-0.498-0.084-0.885-0.753-0.542-1.005c0.343-0.253-0.414-0.592-0.734-0.672c-0.319-0.086-0.507-1.26,0.734-1.344
		c0,0,1.688-0.672-0.332-1.007c0,0-1.877-0.84-0.8-0.755c0,0,1.575,0.42,1.775-0.085c0,0,1.153-0.755-0.521-0.922
		c0,0-1.196,0.083-1.086-0.255c0.11-0.334,0.11-0.334,0.11-0.334l-1.341-0.335c0,0-0.904-0.842,0.619-0.842
		c0,0,1.87-0.166,1.246-0.669c0,0-2.612-1.177-1.169-1.177c0,0,1.158-0.166,1.5,0.336c0,0,1.039,0.547,0.117-0.881
		c0,0,0.216,0.127,1.02,0.041c0,0,1.252-0.881-0.793-1.26c0,0,1.646-1.34,0.349-1.005c0,0-0.897,0.548-1.347,0.295
		c-0.448-0.253,0.741-0.924-0.477-0.924c-1.219,0-1.518-0.629-0.97-0.588c0.549,0.045,1.496-0.797,0.25-0.883
		c-1.247-0.083-0.45-0.754-0.25-1.257c0,0,1.896-0.085,1.348-1.007c0,0,1.003-1.847-0.747-1.302c0,0-2.668-0.462-2.907-0.965
		c-0.239-0.504-0.289-2.309,0.809-1.722c0,0,1.547,0.21,1.497,0.589c0,0,0.255,1.302,0.601,0.629c0,0-0.11-1.008,0.369-0.881
		c0,0,2.273-0.924,0.477-0.924c0,0-1.147-0.883-1.298-0.503c0,0-1.654,0.208-0.75-0.462c0,0,1.206-0.209,1.203-0.672
		c0,0,0.497-1.089,0.795-0.755c0,0-0.699-0.547-1.097-0.126c-0.399,0.418-1.947,0.379-2.145,0.126
		c-0.2-0.25-1.497-0.797,0.498-0.671c0,0,2.196,0.168,1.598-0.418c0,0-0.849-0.465-1.997-0.632c0,0-1.596-0.672,0.498-0.629
		c0,0,1.149,0.294,1.548-0.335c0.398-0.63,0.648-0.803,0.049-0.862c-0.598-0.062-1.318-0.65-1.009-0.776
		c0.311-0.126,0.76-0.459,0.51-0.754c0,0,1.14-1.092-0.452-0.799c0,0-1.134-0.545-1.564-1.257c-0.429-0.714-0.196-0.293-0.736-0.211
		c-0.542,0.084-0.94-1.368-1.39-1.166c-0.449,0.201-0.48-1.064,0.533-0.643c0,0,1.913-0.123,0.466-0.625
		c0,0-0.947,0.209-1.297-0.169c0,0-1.307-0.661-0.989-0.807c0.107,0.136,0.367,0.149,0.718,0.091
		c0.399,0.145,1.143,0.375,1.568,0.256c0,0,0.858-0.338,1.126-0.756c0,0,0.309-0.208,0.46-0.389
		c0.156-0.033,0.302-0.057,0.425-0.064c1.544-0.083,4.468-1.708,2.681-2.357c-1.787-0.65,0.731-0.894,0.895-1.869
		c0.162-0.976,2.681,0.081,3.9,0.568c1.219,0.488,0.325-1.137,2.438-1.707c2.111-0.567-4.47-1.299-5.445-2.193
		c-0.974-0.894-4.225-0.569-5.931-0.813c-1.706-0.242,4.551-0.406,6.5-0.568c1.951-0.162,4.145,0.081,3.169-0.813
		c-0.975-0.895,0.731-0.895,3.737-0.813c3.006,0.083,1.543-0.486,0.894-1.298c-0.651-0.813,0.243-0.733,2.68-0.57
		c2.438,0.163,2.438,0.894,2.601-0.244s0.65-1.625,4.793-1.787c4.144-0.162,2.437-1.056,6.744-0.732
		c4.304,0.326,4.469-1.056,2.438-1.625c-2.031-0.569-2.438-1.625-0.325-1.705c2.112-0.082,3.331,1.055,2.6-0.407
		c-0.729-1.463-1.056-0.081,1.625-1.382c2.68-1.3,1.626-1.463,3.33-2.194c1.706-0.731-2.112-1.542-3.899-1.707
		c0,0-2.521-0.189-2.768-0.469c-0.865-0.976-2.936-0.18-3.781,0.227c-0.846,0.406-2.295,0.406-3.032,0.812
		c-0.737,0.405-3.256,3.169-3.825,4.225c-0.568,1.055-2.499,0.304-3.498,0.764c0,0-2.623,0.134-2.623-2.135
		c0-0.75-0.811,1.566-2.411,1.615c-0.897,0.026-1.3,0.325-3.005,0c-1.707-0.324,0.894-1.868,2.437-1.949
		c1.544-0.082,2.843-2.356,4.061-3.169c1.22-0.813,1.382-1.381,1.952-2.113c0.567-0.73,5.869-5.009,6.418-5.444
		c1.213-0.958-0.082,0.976-0.975,1.789c-0.893,0.812-1.381,2.438-2.844,3.736c-1.462,1.3-3.077,3.564-3.895,4.55
		c-2.797,3.37,2.188,1.625,2.188,1.625c2.112-2.194,2.438-3.088,3.333-3.657c0.893-0.568,2.274-0.501,2.355-1.754
		c0.081-1.251-0.244-1.658,0.731-1.982c0.975-0.326,1.95-1.462,1.625-2.112c-0.324-0.651-1.989-0.029-0.244-1.787
		c1.45-1.462,1.5-1.45,1.476-1.403c0.065-0.107,0.752-1.179,1.449-0.792c0.731,0.406,1.058,1.056,1.706,0.366
		c0.651-0.69,0.245,0.204-1.055,1.503c-1.3,1.301-1.463,2.357-1.706,2.682c-0.243,0.325-0.976,1.382-0.407,1.382
		s1.706-0.733,3.006-2.194c1.301-1.461,1.301-2.194,2.68-2.681c1.382-0.488,1.85-1.138,1.982-1.87
		c0.131-0.729,1.268-1.3,1.512-0.406c0.244,0.894,0.163,1.218,0.976,1.218c0.812,0,1.623,0.941,0.487,1.529
		c-1.137,0.585-1.869,1.884-2.111,2.859c-0.245,0.973,0.251,2.435-2.358,3.169c-2.907,0.819,1.706,0.893,1.706,0.893
		c1.137-0.082,1.544-1.219,2.357-2.195c0.812-0.975,1.381-1.623,2.843-2.273c1.462-0.651-0.568-0.975,0.487-3.17
		c1.058-2.193-0.405-3.735-0.568-4.385c-0.163-0.652-3.9-0.081-4.549-0.407c-0.651-0.325-2.764,0.163-2.764,0.163
		s-0.405,0.813-1.299,1.38c-0.894,0.569-0.894,0.49-1.3-0.731c-0.406-1.218-3.981-0.73-4.711-0.73c-0.732,0-1.951,0.976-1.951,0.976
		s-6.661,4.71-7.312,5.2c-0.65,0.486-8.775,5.036-9.262,5.361c-0.489,0.325-7.638,3.007-8.288,3.332
		c-0.65,0.324-9.506,3.899-9.506,3.899l-11.05,4.063l0.351-0.813c6.206-2.355,16.258-6.073,17.037-6.58
		c1.083-0.704,5.959-2.492,7.8-3.143c1.84-0.65,8.124-4.169,10.888-5.741c2.762-1.571,9.371-6.336,9.803-6.769
		c0.433-0.435,2.438-0.65,3.25-0.564c0.813,0.088,2.329-0.303,3.197,0.693c0.866,0.996,1.731,0,1.731,0
		c1.301-1.169,3.899-0.502,3.899-0.502h3.899c0,0,4.118,1.456,4.768,1.456c0.651,0,6.861,3.278,9.027,6.525
		c2.167,3.251-4.04,6.918-2.521,6.569c1.514-0.352,2.6-2.033,3.249-2.033c0.648,0-0.183,4.307,0.901,4.091
		c0.17-0.034,0.384,0.099,0.546,0.156c0,0-0.664,2.56-0.999,5.391c-0.026,0.212-0.081,0.604-1.721,0.763
		c-4.065,0.393-1.217-0.924-0.405-1.166c0.813-0.244,1.218-1.544,0.567-2.114c-0.647-0.567-1.136,1.138,0.407-3.331
		c1.545-4.469-1.138-1.217-1.786-0.406c-0.651,0.813-1.464,0.813-5.2,0.813c-3.739,0,0.162,2.273,2.762,3.411
		c2.599,1.137-1.545,3.251-4.876,3.899c-3.331,0.651,1.219,1.219,1.381,1.951c0.164,0.732,2.357,0.163,3.738,0.488
		c1.381,0.324,2.213-0.551,4.731-0.551l-0.119,1.957c-0.432,0.383-1.726,0.023-2.663,0.055c-2.355,0.082-1.219,0-3.25,1.95
		c-2.032,1.949-3.739,1.543-3.087-0.244c0.649-1.787,0.649-3.087-1.706-2.682c-2.356,0.407-1.869,3.007-5.119,5.039
		c-3.25,2.03,4.874,3.006,1.625,4.386c-0.918,0.392,12.339,4.951,13.046,14.446c0.246,3.3,4.937,2.814,5.964,5.695
		c1.738,4.875,4.139,9.854,6.665,14.397C129.633,100.578,121.228,107.86,111.207,112.047z"/>
</g>
</svg>
